<svg width="40" height="41" viewBox="0 0 40 41" fill="none" xmlns="http://www.w3.org/2000/svg">
<path fill-rule="evenodd" clip-rule="evenodd" d="M29.7451 24.4922C29.2418 24.1006 28.5601 24.0289 27.9884 24.3089C27.4168 24.5889 27.0534 25.1689 27.0534 25.8072V27.7622C25.9784 27.4322 24.9534 26.9172 24.0151 26.0989C23.3251 25.4922 22.2701 25.5639 21.6634 26.2572C21.0584 26.9506 21.1284 28.0022 21.8218 28.6089C23.4651 30.0439 25.2601 30.7922 27.0534 31.1989V34.2089C27.0534 34.8456 27.4168 35.4272 27.9884 35.7056C28.2201 35.8189 28.4701 35.8756 28.7201 35.8756C29.0851 35.8756 29.4451 35.7556 29.7451 35.5222C29.8818 35.4156 33.1284 32.8789 34.8201 31.1872C35.4718 30.5356 35.4718 29.4822 34.8218 28.8306C33.1284 27.1356 29.8818 24.5989 29.7451 24.4922Z" fill="#FACE61"/>
<path fill-rule="evenodd" clip-rule="evenodd" d="M6.36003 13.4144C9.39003 13.4144 11.785 13.4144 13.8234 15.4277C14.1484 15.7494 14.5717 15.9094 14.995 15.9094C15.4234 15.9094 15.8534 15.7444 16.18 15.4144C16.8268 14.7594 16.8201 13.7044 16.1667 13.0577C13.155 10.0811 9.70003 10.0811 6.36003 10.0811C5.43836 10.0811 4.69336 10.8277 4.69336 11.7477C4.69336 12.6677 5.43836 13.4144 6.36003 13.4144Z" fill="#FACE61"/>
<path fill-rule="evenodd" clip-rule="evenodd" d="M27.0527 13.9776V15.9426C27.0527 16.5809 27.416 17.1609 27.9894 17.4409C28.2194 17.5543 28.471 17.6093 28.7194 17.6093C29.0844 17.6093 29.446 17.4893 29.7444 17.2576C29.881 17.1493 33.1294 14.6143 34.8194 12.9209C35.471 12.2709 35.471 11.2159 34.821 10.5659C33.1294 8.87092 29.881 6.33426 29.7444 6.22759C29.241 5.83592 28.5594 5.76426 27.9894 6.04426C27.416 6.32259 27.0527 6.90426 27.0527 7.54092V10.5443C23.3594 11.3776 19.6394 13.7126 17.2427 20.301C14.3195 28.3377 11.1511 28.3377 6.35612 28.3377C5.43445 28.3377 4.68945 29.0843 4.68945 30.0043C4.68945 30.9243 5.43445 31.671 6.35612 31.671C11.4195 31.671 16.6545 31.671 20.3744 21.441C22.0944 16.7143 24.4227 14.7793 27.0527 13.9776Z" fill="#FACE61"/>
</svg>
