<svg width="40" height="41" viewBox="0 0 40 41" fill="none" xmlns="http://www.w3.org/2000/svg">
<path fill-rule="evenodd" clip-rule="evenodd" d="M27.6407 35.0701C27.2311 35.0701 26.8215 34.9133 26.5095 34.6013C25.8839 33.9757 25.8839 32.9645 26.5095 32.3389L26.9607 31.8877H22.9047C22.0199 31.8877 21.3047 31.1709 21.3047 30.2877C21.3047 29.4029 22.0199 28.6877 22.9047 28.6877H26.9623L26.5095 28.2349C25.8839 27.6093 25.8839 26.5965 26.5095 25.9709C27.1351 25.3469 28.1463 25.3469 28.7719 25.9709L31.9511 29.1517L31.9543 29.1565C32.1095 29.3101 32.2247 29.4877 32.3031 29.6781C32.3799 29.8637 32.4231 30.0685 32.4231 30.2829V30.2925C32.4231 30.5053 32.3799 30.7101 32.3031 30.8973C32.2247 31.0877 32.1095 31.2637 31.9543 31.4189L28.7719 34.6013C28.4599 34.9133 28.0503 35.0701 27.6407 35.0701Z" fill="#FACE61"/>
<path fill-rule="evenodd" clip-rule="evenodd" d="M18.1094 6.47461C13.9397 6.47461 10.5605 9.90501 10.5605 14.1322C10.5605 18.3626 13.9397 21.7898 18.1094 21.7898C22.279 21.7898 25.6582 18.3626 25.6582 14.1322C25.6582 9.90501 22.279 6.47461 18.1094 6.47461Z" fill="#FACE61"/>
<path fill-rule="evenodd" clip-rule="evenodd" d="M20.1306 23.9561H14.3338C10.0666 23.9561 6.45703 27.6185 6.45703 31.9465C6.45703 32.7529 6.45703 33.7145 6.60583 34.5289C6.61543 34.5833 6.61863 34.6393 6.62663 34.6921C6.67623 34.9961 6.98983 35.2761 7.44103 35.2761H16.5978C17.1066 35.2761 17.5642 34.9673 17.753 34.4953L21.2938 25.6777C21.625 24.8537 21.0186 23.9561 20.1306 23.9561Z" fill="#FACE61"/>
</svg>
