<svg width="40" height="41" viewBox="0 0 40 41" fill="none" xmlns="http://www.w3.org/2000/svg">
<path fill-rule="evenodd" clip-rule="evenodd" d="M12.8285 20.3579C11.9618 20.2412 11.1118 20.0579 10.2785 19.7745C9.61181 19.5579 8.96181 19.2745 8.34514 18.8579C8.17848 18.7579 8.02848 18.6245 7.84514 18.4912V22.4245C7.82848 22.9079 7.96181 23.2912 8.22848 23.6079C8.61181 24.0912 9.07847 24.3912 9.57847 24.6412C10.2951 25.0079 11.0451 25.2412 11.8118 25.4245C12.5618 25.5912 13.3118 25.6912 14.0618 25.7412C14.5285 25.7745 14.9951 25.7912 15.4618 25.7745C15.4785 24.6079 15.4785 22.9912 15.4785 22.5745L15.4618 20.5079C14.5951 20.5412 13.7118 20.4745 12.8285 20.3579Z" fill="#FACE61"/>
<path fill-rule="evenodd" clip-rule="evenodd" d="M12.5615 27.5247C11.8781 27.408 11.1948 27.258 10.5281 27.0747C9.74479 26.858 8.99479 26.5247 8.27812 26.0247C8.14479 25.9247 7.99479 25.8247 7.84479 25.708C7.84479 25.7913 7.84479 28.3747 7.82812 29.5913C7.82812 30.1747 8.01146 30.5913 8.32813 30.9413C8.69479 31.358 9.12813 31.6247 9.57813 31.858C10.3948 32.258 11.2281 32.508 12.0781 32.6747C12.8781 32.8413 13.6948 32.9247 14.5115 32.958C14.8281 32.9747 15.1448 32.9747 15.4615 32.9747C15.4781 31.8913 15.4781 29.758 15.4781 29.2413V27.708C15.3115 27.7247 15.1281 27.7247 14.9615 27.7247C14.1615 27.7247 13.3615 27.6747 12.5615 27.5247Z" fill="#FACE61"/>
<path fill-rule="evenodd" clip-rule="evenodd" d="M20.8118 14.3416C21.3785 14.2249 21.9452 14.1249 22.5285 14.0583V11.3916C22.3618 11.5249 22.2118 11.6249 22.0618 11.7416C20.8618 12.5249 19.5785 12.8916 18.2618 13.1416C17.6452 13.2416 17.0285 13.3083 16.4118 13.3583C15.2118 13.4583 14.0285 13.4249 12.8285 13.2583C11.9618 13.1416 11.1118 12.9583 10.2785 12.6749C9.61181 12.4583 8.96181 12.1749 8.34514 11.7583C8.17848 11.6416 8.02848 11.5249 7.84514 11.3916V15.3249C7.82848 15.7916 7.96181 16.1749 8.22848 16.5083C8.61181 16.9916 9.07847 17.2916 9.57847 17.5416C10.2951 17.9083 11.0451 18.1416 11.8118 18.3249C12.5618 18.4916 13.3118 18.5916 14.0618 18.6416C14.5451 18.6749 15.0285 18.6916 15.4951 18.6749C15.5118 18.1249 15.6785 17.4749 16.1618 16.8416C16.7118 16.1249 17.3452 15.7083 17.8452 15.4249C18.6952 14.9583 19.6452 14.6083 20.8118 14.3416Z" fill="#FACE61"/>
<path fill-rule="evenodd" clip-rule="evenodd" d="M8.3145 9.42605C8.73783 9.90438 9.2395 10.201 9.7595 10.4477C10.6995 10.8944 11.6762 11.1377 12.6645 11.296C13.5012 11.431 14.3412 11.4977 15.0178 11.486C16.5978 11.4877 17.9978 11.3294 19.3778 10.9194C20.0662 10.7144 20.7362 10.446 21.3662 10.0244C21.7112 9.79271 22.0345 9.52105 22.2828 9.12605C22.6145 8.60271 22.6195 7.99271 22.2828 7.47605C22.1678 7.29938 22.0345 7.13605 21.8912 6.99771C21.3562 6.47938 20.7395 6.17771 20.1062 5.92938C18.9778 5.48771 17.8195 5.26938 16.6462 5.17105C15.0462 5.03605 13.4528 5.10438 11.8695 5.45438C11.0095 5.64271 10.1662 5.90771 9.36283 6.35605C8.9345 6.59605 8.52617 6.87938 8.19783 7.31771C7.9245 7.68271 7.7645 8.09771 7.8795 8.61938C7.95283 8.94938 8.11783 9.20438 8.3145 9.42605Z" fill="#FACE61"/>
<path fill-rule="evenodd" clip-rule="evenodd" d="M32.1673 29.3516C32.1073 29.3966 32.0773 29.4216 32.0456 29.4432C31.6989 29.6649 31.3623 29.9132 31.0039 30.0999C29.7406 30.7649 28.4123 31.0732 27.0606 31.2549C26.2423 31.3649 25.4206 31.3999 24.5973 31.3932C23.7923 31.3882 22.9873 31.3382 22.1906 31.1982C21.5123 31.0766 20.8356 30.9216 20.1656 30.7366C19.3823 30.5199 18.6239 30.1932 17.9156 29.6966C17.7756 29.5982 17.6356 29.4949 17.4756 29.3782C17.4756 29.4632 17.4873 32.0382 17.4689 33.2666C17.4623 33.8366 17.6439 34.2582 17.9639 34.6116C18.3356 35.0216 18.7689 35.2966 19.2206 35.5232C20.0239 35.9266 20.8589 36.1699 21.7106 36.3432C22.5173 36.5066 23.3289 36.5982 24.1439 36.6282C25.5489 36.6799 26.9456 36.5832 28.3306 36.2566C29.1273 36.0682 29.9089 35.8149 30.6523 35.3966C31.0773 35.1582 31.4806 34.8749 31.8089 34.4416C32.0473 34.1266 32.1739 33.7599 32.1706 33.3066C32.1623 32.0549 32.1673 29.4416 32.1673 29.3516Z" fill="#FACE61"/>
<path fill-rule="evenodd" clip-rule="evenodd" d="M17.8574 27.2753C18.2424 27.7587 18.7141 28.0587 19.2058 28.312C19.9274 28.6837 20.6774 28.9153 21.4408 29.0903C22.1874 29.262 22.9391 29.367 23.6941 29.4153C25.1541 29.5103 26.6074 29.4337 28.0524 29.1253C28.9308 28.9387 29.7924 28.6737 30.6141 28.2187C31.0541 27.977 31.4724 27.687 31.8108 27.242C32.0474 26.9303 32.1741 26.5687 32.1708 26.1203C32.1608 24.8587 32.1624 22.237 32.1591 22.1737C31.9941 22.292 31.8441 22.4053 31.6924 22.5087C30.5008 23.307 29.2108 23.6737 27.8958 23.9103C27.2824 24.0203 26.6641 24.0853 26.0458 24.137C24.8508 24.237 23.6558 24.1903 22.4641 24.0303C21.6024 23.9137 20.7491 23.7287 19.9091 23.447C19.2441 23.2237 18.5941 22.947 17.9841 22.532C17.8208 22.4203 17.6591 22.2987 17.4741 22.167C17.4741 22.2503 17.4824 24.8537 17.4708 26.097C17.4674 26.5737 17.6008 26.9537 17.8574 27.2753Z" fill="#FACE61"/>
<path fill-rule="evenodd" clip-rule="evenodd" d="M18.9976 17.1305C18.5693 17.3688 18.1609 17.6538 17.8326 18.0921C17.5593 18.4571 17.3993 18.8721 17.5143 19.3938C17.5876 19.7238 17.7526 19.9788 17.9493 20.2004C18.3726 20.6788 18.8743 20.9754 19.3943 21.2221C20.3343 21.6688 21.3109 21.9121 22.3009 22.0704C23.1359 22.2038 23.9759 22.2721 24.6526 22.2604C26.2326 22.2621 27.6326 22.1038 29.0126 21.6938C29.7009 21.4888 30.3726 21.2204 31.0009 20.7988C31.3459 20.5671 31.6693 20.2954 31.9193 19.9004C32.2493 19.3771 32.2543 18.7671 31.9176 18.2504C31.8026 18.0738 31.6693 17.9104 31.5259 17.7721C30.9926 17.2538 30.3743 16.9521 29.7409 16.7038C28.6143 16.2621 27.4543 16.0438 26.2809 15.9455C24.6809 15.8105 23.0876 15.8788 21.5043 16.2288C20.6443 16.4171 19.8009 16.6821 18.9976 17.1305Z" fill="#FACE61"/>
</svg>
