<svg width="40" height="41" viewBox="0 0 40 41" fill="none" xmlns="http://www.w3.org/2000/svg">
<path fill-rule="evenodd" clip-rule="evenodd" d="M7.2 20.4993C7.2 16.0881 10.7888 12.4993 15.2 12.4993H18.2864V14.7265C18.2864 15.3377 18.6336 15.8961 19.1824 16.1649C19.4064 16.2737 19.6464 16.3265 19.8864 16.3265C20.2352 16.3265 20.5824 16.2113 20.8688 15.9889L25.784 12.1617C25.808 12.1425 25.8176 12.1121 25.84 12.0929C25.9584 11.9889 26.048 11.8657 26.1328 11.7329C26.1696 11.6737 26.2192 11.6241 26.248 11.5601C26.3328 11.3745 26.3808 11.1713 26.3888 10.9569C26.3888 10.9377 26.4016 10.9201 26.4016 10.8993C26.4016 10.8833 26.3904 10.8673 26.3904 10.8513C26.384 10.6321 26.336 10.4273 26.2496 10.2385C26.2192 10.1729 26.168 10.1233 26.1296 10.0609C26.0464 9.93135 25.96 9.81135 25.8448 9.70895C25.8224 9.68975 25.8128 9.65775 25.7872 9.63855L20.872 5.79535C20.3888 5.41775 19.736 5.35055 19.184 5.61775C18.6336 5.88495 18.2864 6.44335 18.2864 7.05615V9.29935H15.2C9.0256 9.29935 4 14.3233 4 20.4993C4 23.9425 5.5584 27.1473 8.2736 29.2913C8.5664 29.5233 8.9152 29.6353 9.2624 29.6353C9.736 29.6353 10.2048 29.4273 10.52 29.0273C11.0672 28.3329 10.9488 27.3265 10.2544 26.7793C8.3136 25.2465 7.2 22.9585 7.2 20.4993Z" fill="#FACE61"/>
<path fill-rule="evenodd" clip-rule="evenodd" d="M31.726 11.7092C31.0348 11.162 30.0268 11.2804 29.4796 11.9732C28.9324 12.6676 29.0508 13.674 29.7452 14.2196C31.686 15.754 32.7996 18.042 32.7996 20.5012C32.7996 24.9108 29.2108 28.5012 24.7996 28.5012H21.5292V26.2244C21.5292 25.6132 21.1804 25.0548 20.63 24.786C20.0812 24.5204 19.4268 24.586 18.9436 24.9652L14.0269 28.8084C13.6397 29.1108 13.4141 29.5765 13.4141 30.0692C13.4141 30.562 13.6413 31.0276 14.0301 31.33L18.9468 35.1588C19.2316 35.3812 19.5788 35.4964 19.9292 35.4964C20.1676 35.4964 20.4092 35.4421 20.6316 35.3332C21.1804 35.0645 21.5292 34.5076 21.5292 33.8964V31.7012H24.7996C30.974 31.7012 35.9996 26.6756 35.9996 20.5012C35.9996 17.0564 34.4412 13.8516 31.726 11.7092Z" fill="#FACE61"/>
</svg>
