<svg width="40" height="41" viewBox="0 0 40 41" fill="none" xmlns="http://www.w3.org/2000/svg">
<path d="M34.8033 35.0688C32.4883 37.3825 26.7252 35.5726 20.6113 31.0209C22.4174 29.6764 24.2539 28.0928 26.0412 26.3054C27.8288 24.5179 29.4126 22.6811 30.7571 20.875C35.3088 26.9889 37.1184 32.7524 34.8033 35.0688Z" fill="#FACE61"/>
<path d="M10.4639 20.875C5.9122 26.9889 4.10255 32.7524 6.41764 35.0688C8.7327 37.3825 14.4957 35.5726 20.6096 31.0209C18.8036 29.6764 16.967 28.0928 15.1797 26.3054C13.3923 24.5179 11.8084 22.6811 10.4639 20.875Z" fill="#FACE61"/>
<path d="M20.6113 10.7308C22.4176 12.0754 24.2542 13.6592 26.0416 15.4466C27.8289 17.2339 29.4126 19.0705 30.7571 20.8764C35.3086 14.7623 37.1184 8.99866 34.8046 6.6849C32.4896 4.3686 26.7256 6.17884 20.6113 10.7308Z" fill="#FACE61"/>
<path d="M20.61 10.7308C14.4958 6.17884 8.73181 4.3686 6.41675 6.6849C4.10299 8.99866 5.9128 14.7623 10.4643 20.8764C11.8088 19.0705 13.3925 17.2339 15.1798 15.4466C16.9673 13.6592 18.8039 12.0754 20.61 10.7308Z" fill="#FACE61"/>
<path d="M20.6113 18.6387C19.3745 18.6387 18.373 19.6414 18.373 20.8769C18.373 22.1124 19.3745 23.1152 20.6113 23.1152C21.8465 23.1152 22.8495 22.1139 22.8495 20.8769C22.8495 19.64 21.8465 18.6387 20.6113 18.6387Z" fill="#FACE61"/>
</svg>
