<svg width="40" height="41" viewBox="0 0 40 41" fill="none" xmlns="http://www.w3.org/2000/svg">
<path fill-rule="evenodd" clip-rule="evenodd" d="M29.5635 19.4153C28.8047 18.1478 28.0012 16.8918 27.1999 15.6406C27.087 15.4642 26.876 15.3773 26.671 15.4202C24.4567 15.8836 22.2309 16.1204 20.0035 16.1204C17.7744 16.1204 15.5467 15.8836 13.332 15.42C13.1274 15.3772 12.9169 15.4637 12.8038 15.6395C11.9998 16.8892 11.1975 18.1428 10.4353 19.412C8.48194 22.6503 6.53194 26.442 8.14028 30.4536C10.3536 35.972 17.1619 36.6686 20.0102 36.7103C22.8352 36.6686 29.6435 35.9736 31.8569 30.4536C33.4652 26.4436 31.5152 22.6503 29.5635 19.4153Z" fill="#FACE61"/>
<path fill-rule="evenodd" clip-rule="evenodd" d="M13.0049 12.6791C13.0636 12.7889 13.1786 12.8316 13.2995 12.8611C17.6665 13.8575 22.0927 13.8758 26.4618 12.9158C26.6157 12.882 26.7428 12.7786 26.8068 12.6346C27.2098 11.7275 28.7012 8.3694 29.0328 7.61277C29.1545 7.33777 29.1178 7.01944 28.9362 6.77777C28.7562 6.53777 28.4595 6.4111 28.1628 6.4511C27.4595 6.54444 25.5178 6.7861 24.9895 6.81277C22.6695 6.94944 20.5578 6.24944 18.7795 5.54944C16.3129 4.60444 13.9745 4.96944 11.8129 6.64277C11.1662 7.15777 10.9079 7.3811 10.9079 7.3811C10.6145 7.63777 10.5362 8.06277 10.7195 8.40444L13.0049 12.6791Z" fill="#FACE61"/>
</svg>
