<svg width="40" height="41" viewBox="0 0 40 41" fill="none" xmlns="http://www.w3.org/2000/svg">
<path fill-rule="evenodd" clip-rule="evenodd" d="M12.6735 10.8828L14.6831 10.886H14.6863C15.5679 10.886 16.2847 10.1724 16.2863 9.2892C16.2879 8.406 15.5727 7.6876 14.6895 7.686L8.80952 7.6748H8.80313C8.79033 7.6748 8.78072 7.6748 8.76472 7.6748C8.62712 7.678 8.49272 7.6988 8.36632 7.734C8.36472 7.734 8.36472 7.7356 8.36472 7.7356C8.36472 7.7356 8.36312 7.7356 8.36152 7.7356C8.35993 7.7356 8.35832 7.7372 8.35832 7.7372C8.35832 7.7372 8.35672 7.7372 8.35512 7.7372L8.35352 7.7388C8.29912 7.7532 8.24473 7.7724 8.19193 7.7948C8.01113 7.87 7.83992 7.97881 7.69112 8.12281L7.68952 8.1244C7.67832 8.1356 7.66712 8.1468 7.65593 8.1564L7.65272 8.1612L7.65112 8.1628C7.50712 8.3132 7.39672 8.4828 7.32312 8.6652C7.24952 8.8412 7.20793 9.0348 7.20312 9.2348C7.20312 9.2364 7.20312 9.238 7.20312 9.2396V9.2828L7.21432 15.1596C7.21592 16.0428 7.93272 16.7564 8.81432 16.7564H8.81752C9.70232 16.7548 10.4159 16.038 10.4143 15.1532L10.4111 13.1452L14.0751 16.8108C14.3887 17.1228 14.7983 17.2796 15.2063 17.2796C15.6159 17.2796 16.0255 17.1228 16.3391 16.8108C16.9632 16.1852 16.9632 15.1724 16.3391 14.5484L12.6735 10.8828Z" fill="#FACE61"/>
<path fill-rule="evenodd" clip-rule="evenodd" d="M14.0728 24.1381L10.4088 27.8005L10.4136 25.7941C10.4152 24.9109 9.7 24.1925 8.8168 24.1909H8.8136C7.932 24.1909 7.2152 24.9045 7.2136 25.7877L7.2008 31.5989C7.1816 32.0325 7.3368 32.4725 7.668 32.8037C7.98 33.1157 8.3896 33.2725 8.7992 33.2725H8.8072L14.6872 33.2597C15.572 33.2581 16.2856 32.5397 16.284 31.6565C16.2824 30.7733 15.5672 30.0597 14.684 30.0597H14.6808L12.6712 30.0645L16.3352 26.4005C16.9608 25.7765 16.9608 24.7637 16.3352 24.1381C15.7096 23.5125 14.6984 23.5125 14.0728 24.1381Z" fill="#FACE61"/>
<path fill-rule="evenodd" clip-rule="evenodd" d="M31.1858 24.1881H31.1826C30.2994 24.1897 29.5842 24.9081 29.5858 25.7913L29.589 27.8009L25.925 24.1369C25.2994 23.5129 24.2866 23.5129 23.6626 24.1369C23.037 24.7625 23.037 25.7753 23.6626 26.3993L27.3266 30.0633L25.3186 30.0585H25.3154C24.4322 30.0585 23.717 30.7737 23.7154 31.6553C23.7138 32.5401 24.4274 33.2569 25.3122 33.2585L31.189 33.2713H31.1986C31.2114 33.2713 31.2258 33.2713 31.2386 33.2713H31.2418C31.3698 33.2681 31.4946 33.2489 31.613 33.2169H31.6162C31.6178 33.2169 31.6162 33.2169 31.6178 33.2169C31.6178 33.2153 31.6194 33.2153 31.6194 33.2153C31.6226 33.2169 31.6226 33.2153 31.6226 33.2153C31.6226 33.2137 31.6258 33.2137 31.6258 33.2137C31.6898 33.1961 31.7522 33.1753 31.8114 33.1497C32.0002 33.0713 32.1762 32.9561 32.3298 32.8025C32.4834 32.6489 32.6002 32.4713 32.6786 32.2825C32.7522 32.1017 32.7954 31.9033 32.7986 31.6953V31.6649L32.7858 25.7849C32.7842 24.9017 32.0674 24.1881 31.1858 24.1881Z" fill="#FACE61"/>
<path fill-rule="evenodd" clip-rule="evenodd" d="M24.7957 17.278C25.2053 17.278 25.6149 17.1212 25.9269 16.8092L29.5893 13.1484L29.5845 15.1548C29.5829 16.038 30.2981 16.7564 31.1813 16.758H31.1845C32.0661 16.758 32.7829 16.0444 32.7845 15.1612L32.7973 9.3788C32.8261 8.9356 32.6709 8.48281 32.3317 8.14361C32.0181 7.83001 31.6725 7.678 31.1941 7.6748L25.3109 7.6876C24.4277 7.6892 23.7125 8.40761 23.7141 9.2908C23.7157 10.174 24.4309 10.8876 25.3141 10.8876H25.3173L27.3285 10.8828L23.6645 14.5468C23.0389 15.1708 23.0389 16.1836 23.6645 16.8092C23.9765 17.1212 24.3861 17.278 24.7957 17.278Z" fill="#FACE61"/>
</svg>
