<svg width="40" height="41" viewBox="0 0 40 41" fill="none" xmlns="http://www.w3.org/2000/svg">
<path fill-rule="evenodd" clip-rule="evenodd" d="M22.2565 15.889C22.0513 16.2223 22.2922 16.6497 22.6835 16.6497H34.8278C35.178 16.6497 35.4225 16.296 35.2467 15.9932C35.208 15.9266 35.167 15.8609 35.1232 15.7964L30.2182 8.5997C29.704 7.83883 28.9583 7.29027 28.1108 7.01218C27.906 6.94498 27.6882 7.03702 27.5757 7.22082C26.8315 8.43518 24.0412 12.9879 22.2565 15.889Z" fill="#FACE61"/>
<path fill-rule="evenodd" clip-rule="evenodd" d="M18.5728 16.6498C18.7465 16.6498 18.9077 16.5598 18.9987 16.412L24.4493 7.56201C24.6545 7.22889 24.4148 6.7998 24.0237 6.7998H13.1838C11.8238 6.7998 10.5572 7.47314 9.79718 8.59647L4.87885 15.7965C4.83531 15.8606 4.79451 15.9257 4.75606 15.9918C4.57956 16.2949 4.8241 16.6498 5.17491 16.6498H18.5728Z" fill="#FACE61"/>
<path fill-rule="evenodd" clip-rule="evenodd" d="M16.893 19.1494C16.5545 19.1494 16.3139 19.4786 16.4165 19.8011L21.1297 34.6174C21.2177 34.8941 21.5243 35.0406 21.7755 34.8951C22.0753 34.7216 22.3502 34.5042 22.5875 34.2427L34.7642 20.8611C35.0687 20.5279 35.3062 20.1556 35.4793 19.7614C35.611 19.4612 35.3717 19.1494 35.0437 19.1494H16.893Z" fill="#FACE61"/>
<path fill-rule="evenodd" clip-rule="evenodd" d="M13.6959 19.4979C13.6299 19.2904 13.4372 19.1494 13.2194 19.1494H4.95718C4.62876 19.1494 4.38914 19.4622 4.52146 19.7627C4.69444 20.1557 4.93101 20.5267 5.23504 20.8594L17.4117 34.2427C17.5165 34.3586 17.6287 34.4659 17.7472 34.5646C18.0737 34.8369 18.468 34.4969 18.3392 34.0917L13.6959 19.4979Z" fill="#FACE61"/>
</svg>
