<svg width="40" height="41" viewBox="0 0 40 41" fill="none" xmlns="http://www.w3.org/2000/svg">
<path d="M25.1359 36.4762C24.4255 36.4762 23.7263 36.2506 23.1439 35.8138L21.3871 34.497C21.1951 34.3514 21.0076 34.3362 20.7997 34.3195L20.7791 34.3178C20.5935 34.2714 20.3487 34.3482 20.1535 34.4954L18.3903 35.8138C17.8607 36.2106 17.1087 36.1034 16.7103 35.5722C16.3135 35.0426 16.4223 34.2906 16.9535 33.8922L18.7119 32.5754C19.2831 32.1434 20.0175 31.9786 20.7663 31.9178C21.5871 31.897 22.2511 32.1434 22.8303 32.5786L24.5839 33.8938C24.8319 34.0794 25.1663 34.1258 25.4719 34.017C25.9023 33.8634 26.3231 33.689 26.7343 33.4954C27.0303 33.3562 27.2319 33.0874 27.2767 32.7786L27.5903 30.5914C27.6911 29.8826 28.0143 29.2346 28.5263 28.7194C29.1023 28.137 29.7711 27.7978 30.4831 27.697L32.6735 27.3818C32.9791 27.3386 33.2463 27.1354 33.3871 26.8394C33.5807 26.4298 33.7583 26.009 33.9103 25.5786C34.0207 25.2746 33.9743 24.9418 33.7871 24.6938L32.4607 22.9226C32.0351 22.353 31.8015 21.649 31.7983 20.9386C31.7919 20.121 32.0287 19.4058 32.4591 18.8282L33.7871 17.0602C33.9727 16.8106 34.0207 16.4778 33.9103 16.1706C33.7567 15.7434 33.5791 15.321 33.3855 14.9066C33.2479 14.617 32.9807 14.4122 32.6767 14.3706L30.4975 14.057C29.7759 13.953 29.1135 13.6122 28.5759 13.0714C28.0255 12.5194 27.6847 11.8538 27.5855 11.1402L27.2767 8.97377C27.2319 8.66497 27.0303 8.39617 26.7343 8.25697C26.3247 8.06657 25.9039 7.88897 25.4751 7.73537C25.1599 7.62497 24.8351 7.67297 24.5855 7.85697L22.8255 9.17537C21.6655 10.049 19.8399 10.0298 18.7071 9.17217L16.9519 7.85857C16.7039 7.66977 16.3711 7.62657 16.0639 7.73537C15.6351 7.88897 15.2143 8.06337 14.8047 8.25697C14.5071 8.39777 14.3039 8.66337 14.2623 8.97057L13.9487 11.1466C13.8495 11.857 13.5103 12.5194 12.9711 13.0618L12.9651 13.0669C12.9631 13.0693 12.961 13.0719 12.9583 13.0746C12.4175 13.6138 11.7551 13.9562 11.0383 14.0586L8.86392 14.3706C8.55512 14.4122 8.28952 14.6154 8.14712 14.9114C7.95512 15.321 7.78072 15.7434 7.62712 16.1706C7.51672 16.4778 7.56312 16.8106 7.75032 17.0618L9.07512 18.8282C9.49912 19.3914 9.73592 20.0986 9.73752 20.8138C9.74392 21.641 9.51512 22.3338 9.07992 22.9194L7.74872 24.6922C7.35192 25.2234 6.59992 25.3306 6.06872 24.9322C5.53752 24.5338 5.43192 23.7818 5.83032 23.2522L7.15832 21.4826C7.27672 21.3226 7.34072 21.1306 7.33912 20.929C7.33592 20.6202 7.27192 20.425 7.15672 20.2698L5.82872 18.5002C5.15832 17.6042 4.98552 16.4314 5.36792 15.3626C5.54712 14.8602 5.75192 14.3674 5.97912 13.8842C6.46872 12.8554 7.42072 12.1482 8.52792 11.993L10.6975 11.6826C10.9455 11.6474 11.1391 11.4986 11.2591 11.3786C11.2959 11.3434 11.3327 11.3082 11.3711 11.2778L11.3816 11.2621C11.4208 11.2048 11.5429 11.0265 11.5727 10.809L11.8863 8.63297C12.0415 7.52577 12.7487 6.57377 13.7791 6.08737C14.2607 5.86017 14.7535 5.65537 15.2559 5.47617C16.3279 5.09377 17.5007 5.26657 18.3919 5.93857L20.1519 7.25377C20.5695 7.57217 21.0095 7.54017 21.3839 7.25697L23.1471 5.93697C24.0399 5.26497 25.2143 5.09057 26.2831 5.47617C26.7823 5.65537 27.2751 5.86017 27.7567 6.08577C28.7839 6.57217 29.4927 7.52257 29.6511 8.63137L29.9631 10.8058C29.9967 11.0538 30.1471 11.2474 30.2655 11.3674C30.3967 11.4986 30.5871 11.6458 30.8383 11.6826L33.0143 11.9946C34.1151 12.1482 35.0671 12.8554 35.5567 13.881C35.7855 14.3706 35.9903 14.8618 36.1695 15.3626C36.5519 16.433 36.3775 17.6058 35.7071 18.5002L34.3791 20.2682C34.2591 20.4298 34.1951 20.6218 34.1967 20.825C34.1983 21.1306 34.2639 21.3274 34.3807 21.4842L35.7055 23.2522C36.3791 24.145 36.5535 25.3178 36.1695 26.3882C35.9887 26.8922 35.7839 27.3866 35.5567 27.8682C35.0687 28.8938 34.1183 29.5994 33.0143 29.7578L30.8239 30.073C30.6255 30.1002 30.4431 30.1914 30.3023 30.3354C30.0847 30.5562 29.9935 30.7354 29.9663 30.929L29.6511 33.1194C29.4927 34.2298 28.7839 35.1802 27.7599 35.665C27.2767 35.8922 26.7823 36.097 26.2799 36.2762C25.9055 36.4106 25.5183 36.4762 25.1359 36.4762Z" fill="#FACE61"/>
<path d="M8.6259 33.497C9.2259 34.0266 9.9907 34.2858 10.7667 34.2858C11.6787 34.2858 12.6067 33.9258 13.2899 33.2218L18.3715 28.0874C20.9427 28.857 23.7443 28.145 25.6291 26.1994C27.6579 24.1098 28.2307 21.0362 27.0931 18.3706C26.9891 18.1242 26.7667 17.9466 26.5027 17.897C26.2403 17.8522 25.9699 17.9338 25.7843 18.1274L22.6339 21.3738C22.5379 21.4746 22.3955 21.5226 22.2563 21.4938L20.7443 21.2202C20.5747 21.1882 20.4419 21.0602 20.4067 20.8938L20.0803 19.3802C20.0515 19.2442 20.0915 19.1018 20.1907 18.9994L23.3379 15.7563C23.5235 15.5627 23.6019 15.2891 23.5427 15.0283C23.4851 14.7643 23.3011 14.5499 23.0515 14.4523C20.3443 13.4059 17.2931 14.0715 15.2739 16.1547C13.3859 18.1002 12.7603 20.9178 13.6099 23.465L8.4339 28.697C7.8067 29.3466 7.4659 30.2378 7.5027 31.1402C7.5395 32.0538 7.9379 32.8922 8.6259 33.497Z" fill="#FACE61"/>
</svg>
