<svg width="61" height="30" viewBox="0 0 61 30" fill="none" xmlns="http://www.w3.org/2000/svg">
<g clip-path="url(#clip0_3175_13480)">
<path d="M17.4497 27.81H10.4796V0L1.30557 3.05335C0.729995 3.24286 0.421151 3.86055 0.610669 4.43613C0.800187 5.0117 1.41788 5.32054 1.99345 5.13102L8.28264 3.03229V27.81H1.09499C0.491343 27.81 0 28.3014 0 28.905C0 29.5087 0.491343 30 1.09499 30H17.4497C18.0533 30 18.5447 29.5087 18.5447 28.905C18.5447 28.3014 18.0533 27.81 17.4497 27.81Z" fill="white"/>
<path d="M59.2279 27.81H58.3364L49.4712 19.2536L57.431 11.5746H58.1118C58.7155 11.5746 59.2068 11.0833 59.2068 10.4797C59.2068 9.876 58.7155 9.38466 58.1118 9.38466H52.1174C51.5138 9.38466 51.0225 9.876 51.0225 10.4797C51.0225 11.0833 51.5138 11.5746 52.1174 11.5746H54.2794L47.8989 17.7305L41.5185 11.5746H43.8629C44.4665 11.5746 44.9579 11.0833 44.9579 10.4797C44.9579 9.876 44.4665 9.38466 43.8629 9.38466H34.4782C33.8746 9.38466 33.3832 9.876 33.3832 10.4797C33.3832 11.0833 33.8746 11.5746 34.4782 11.5746H35.7978L27.6696 18.3833V0.421158H22.6018C21.9981 0.421158 21.5068 0.912501 21.5068 1.51615C21.5068 2.1198 21.9981 2.61114 22.6018 2.61114H25.4867V27.81H22.6018C21.9981 27.81 21.5068 28.3014 21.5068 28.905C21.5068 29.5087 21.9981 30 22.6018 30H30.3299C30.9335 30 31.4249 29.5087 31.4249 28.905C31.4249 28.3014 30.9335 27.81 30.3299 27.81H27.6696V21.2401L29.8947 19.373L37.8053 27.4661L37.4473 27.81H36.6331C36.0295 27.81 35.5381 28.3014 35.5381 28.905C35.5381 29.5087 36.0295 30 36.6331 30H43.8559C44.4595 30 44.9509 29.5087 44.9509 28.905C44.9509 28.3014 44.4595 27.81 43.8559 27.81H41.2026L40.9078 27.5082L47.8919 20.7698L55.1848 27.81H52.1174C51.5138 27.81 51.0225 28.3014 51.0225 28.905C51.0225 29.5087 51.5138 30 52.1174 30H59.2279C59.8315 30 60.3229 29.5087 60.3229 28.905C60.3229 28.3014 59.8315 27.81 59.2279 27.81ZM39.3846 25.9429L31.5793 17.9621L38.7529 11.9467L46.3196 19.2466L39.3846 25.9359V25.9429Z" fill="white"/>
</g>
<defs>
<clipPath id="clip0_3175_13480">
<rect width="60.3229" height="30" fill="white"/>
</clipPath>
</defs>
</svg>
