<svg width="142" height="60" viewBox="0 0 142 60" fill="none" xmlns="http://www.w3.org/2000/svg">
<path d="M7.82231 47.0473C6.54141 46.0055 5.35903 45.0408 4.17118 44.0871C3.9358 43.8997 4.00149 43.6516 4.00149 43.4201C4.00149 40.1843 3.99054 36.9485 4.01244 33.7182C4.01244 33.2606 3.87559 32.9464 3.55263 32.6322C2.44141 31.5463 1.35757 30.4272 0.26825 29.3247C0.355833 29.1428 0.50363 29.2145 0.618583 29.2145C5.16744 29.2145 9.7163 29.2145 14.2652 29.2035C14.6921 29.2035 14.818 29.3082 14.8126 29.7437C14.7852 31.1935 14.8126 32.6487 14.7907 34.0985C14.7852 34.512 14.9056 34.6277 15.3052 34.6112C16.1373 34.5781 16.9693 34.5836 17.7959 34.6112C18.19 34.6277 18.3214 34.5175 18.3159 34.0985C18.2885 32.6267 18.3159 31.1494 18.2995 29.6775C18.2995 29.3027 18.409 29.2035 18.7757 29.2035C23.434 29.2145 28.0869 29.209 32.7945 29.209C32.7179 29.5122 32.4825 29.65 32.3128 29.8208C31.3877 30.758 30.4681 31.6951 29.5211 32.6157C29.2146 32.9133 29.0941 33.2165 29.0941 33.6465C29.1105 36.8823 29.0941 40.1182 29.1105 43.3485C29.1105 43.7564 29.012 44.0265 28.6726 44.2856C27.5559 45.151 26.4721 46.0661 25.2788 47.0363V43.3815C25.2788 41.9318 25.2514 40.4765 25.2952 39.0267C25.3116 38.5085 25.1474 38.4038 24.6766 38.4313C24.0033 38.4699 23.3191 38.4809 22.6458 38.4313C22.1039 38.3872 22.1258 38.6684 22.1258 39.0542C22.1367 44.1588 22.1258 49.2633 22.1422 54.3679C22.1422 54.8806 21.9944 55.2113 21.6003 55.5255C20.0402 56.7603 18.4911 58.0227 16.9638 59.3016C16.6518 59.5662 16.4548 59.5551 16.1482 59.3016C14.6155 58.0282 13.0664 56.7713 11.5063 55.531C11.1395 55.2389 10.9644 54.9412 10.9698 54.434C10.9917 49.3074 10.9753 44.1808 10.9972 39.0542C10.9972 38.5747 10.9096 38.3983 10.4005 38.4368C9.72725 38.4865 9.04301 38.4865 8.36971 38.4368C7.86063 38.3983 7.82231 38.6188 7.82779 39.0377C7.84421 41.6561 7.83874 44.2746 7.83874 47.0418L7.82231 47.0473ZM14.7961 46.0441C14.7961 48.3758 14.8071 50.7076 14.7852 53.0394C14.7852 53.4528 14.8728 53.7395 15.2231 53.982C15.672 54.2907 16.0716 54.8861 16.5204 54.9191C17.0186 54.9577 17.4072 54.3017 17.8616 53.9655C18.1079 53.7836 18.3104 53.6127 18.3049 53.2323C18.2885 48.4585 18.2885 43.6847 18.3049 38.9109C18.3049 38.5195 18.179 38.4313 17.8178 38.4424C16.9857 38.4644 16.1537 38.4699 15.3271 38.4424C14.9056 38.4258 14.7742 38.5361 14.7797 38.9826C14.8016 41.3364 14.7907 43.6902 14.7907 46.0441H14.7961ZM9.35502 34.6057C9.77104 34.6057 10.1871 34.6112 10.6031 34.6057C10.7399 34.6057 10.9534 34.6829 10.9644 34.4458C10.9808 34.0324 11.0629 33.5804 10.9315 33.2055C10.822 32.8858 10.3896 33.0953 10.105 33.0787C9.60682 33.0456 9.09775 33.1173 8.59962 33.0567C7.97559 32.985 7.78947 33.1835 7.80042 33.8284C7.81137 34.4348 7.9099 34.727 8.57225 34.6167C8.82952 34.5726 9.09775 34.6112 9.35502 34.6112V34.6057ZM23.7132 33.0677C23.5381 33.0677 23.3629 33.0677 23.1877 33.0677C22.0491 33.0677 21.9616 33.1835 22.1203 34.3301C22.1531 34.5726 22.2462 34.6112 22.4487 34.6112C23.2808 34.6057 24.1073 34.6112 24.9394 34.6112C25.1255 34.6112 25.2459 34.6002 25.2842 34.3466C25.4594 33.2386 25.328 33.0677 24.2332 33.0677H23.7077H23.7132Z" fill="white"/>
<path d="M24.693 20.593C23.8281 21.8994 23.007 23.1342 22.1203 24.4683C20.2427 21.2269 18.4253 18.0848 16.5532 14.8545C16.0825 15.6428 15.65 16.3649 15.234 17.0926C13.9257 19.3527 12.612 21.6073 11.3366 23.8894C11.03 24.4407 10.8713 24.3415 10.5866 23.906C9.88596 22.8145 9.16887 21.7396 8.40252 20.582C7.88797 21.464 7.39531 22.2963 6.9136 23.1397C6.27315 24.2643 5.6108 25.3778 5.02509 26.5299C4.75139 27.0701 4.5817 26.9434 4.26968 26.5961C2.87929 25.036 2.4578 23.2335 2.90119 21.2049C3.69491 17.5887 5.01961 14.1489 6.32789 10.6981C6.514 10.213 6.64538 9.70034 6.95739 9.22627C7.37342 9.74444 7.67448 10.3122 8.15619 10.7367C9.19624 11.6573 10.0064 11.547 10.718 10.3508C12.5135 7.33549 14.2925 4.31465 16.0825 1.29382C16.2248 1.05127 16.3726 0.808721 16.5532 0.511047C18.0093 2.9641 19.4271 5.36202 20.8448 7.75995C21.3922 8.68604 21.9287 9.61765 22.498 10.5327C23.0618 11.4423 23.7734 11.5691 24.6547 10.9572C25.3006 10.5107 25.6729 9.82161 26.16 9.17114C27.3917 12.2636 28.5303 15.3231 29.4773 18.4541C29.8604 19.7165 30.2381 20.9844 30.3312 22.3074C30.4626 24.1816 29.7729 25.7306 28.3715 27.015C27.1454 24.8762 25.9466 22.787 24.6985 20.6095L24.693 20.593Z" fill="#C8C8C8"/>
<path d="M122.42 30.6036C122.42 32.9905 122.42 35.3829 122.42 37.7698C122.42 38.8282 121.582 39.3464 120.597 38.8889C120.361 38.7786 120.263 38.5802 120.263 38.3045C120.268 34.5175 120.263 30.7304 120.263 26.9489C120.263 26.5409 120.476 26.348 120.87 26.3425C121.352 26.3425 121.834 26.3645 122.316 26.3315C122.671 26.3094 122.743 26.5685 122.868 26.789C124.253 29.231 125.633 31.673 127.012 34.1151C127.116 34.297 127.226 34.4734 127.45 34.6277C127.461 34.4017 127.478 34.1757 127.478 33.9552C127.478 31.6896 127.489 29.4184 127.472 27.1528C127.472 26.563 127.664 26.2818 128.271 26.337C128.468 26.3535 128.665 26.348 128.862 26.337C129.421 26.2984 129.645 26.5464 129.64 27.1142C129.629 30.791 129.629 34.4679 129.64 38.1392C129.64 38.6959 129.432 38.8723 128.879 38.9495C127.68 39.1204 127.023 38.6684 126.465 37.5714C125.255 35.19 123.865 32.9023 122.551 30.5705L122.414 30.5981L122.42 30.6036Z" fill="white"/>
<path d="M76.5588 32.5385C76.5588 30.6698 76.5697 28.801 76.5478 26.9323C76.5478 26.5023 76.6135 26.3204 77.1062 26.3259C78.9838 26.3425 80.8613 26.3039 82.7389 26.3039C84.3975 26.3039 85.4211 27.3458 85.4266 29.0271C85.4376 31.425 85.4321 33.8174 85.4266 36.2153C85.4211 37.9132 84.4249 38.9219 82.7389 38.933C80.9489 38.944 79.1589 38.9219 77.3689 38.9495C76.723 38.9605 76.5424 38.6904 76.5478 38.0785C76.5752 36.2319 76.5588 34.3852 76.5588 32.5385ZM78.8305 32.6377C78.8305 33.8505 78.8414 35.0577 78.825 36.2704C78.825 36.5957 78.8798 36.739 79.252 36.728C80.303 36.7004 81.3485 36.7114 82.3995 36.728C82.9633 36.7335 83.1713 36.4634 83.1713 35.9121C83.1604 33.7127 83.1604 31.5132 83.1713 29.3137C83.1713 28.7625 82.9688 28.4923 82.405 28.5034C81.354 28.5144 80.3085 28.5199 79.2575 28.5034C78.9017 28.4979 78.825 28.6191 78.8305 28.9554C78.8469 30.1847 78.836 31.4195 78.836 32.6488L78.8305 32.6377Z" fill="white"/>
<path d="M98.8981 32.6433C98.8981 30.7966 98.909 28.9499 98.8926 27.1032C98.8871 26.5079 99.117 26.2874 99.7082 26.2929C101.476 26.3149 103.25 26.2929 105.018 26.3039C106.474 26.3149 107.498 27.1914 107.629 28.6247C107.728 29.7161 107.717 30.8186 107.618 31.9156C107.536 32.8472 107.06 33.5473 106.211 33.9001C105.768 34.082 105.916 34.2639 106.047 34.523C106.633 35.6972 107.218 36.8713 107.793 38.051C108.061 38.5912 107.853 38.8889 107.251 38.9385C106.222 39.0157 105.456 38.8172 105.062 37.6596C104.7 36.5902 104.076 35.6145 103.6 34.5781C103.436 34.2198 103.228 34.093 102.85 34.1206C102.308 34.1647 101.591 33.9552 101.268 34.2308C100.923 34.523 101.181 35.2672 101.164 35.8129C101.148 36.5847 101.142 37.3509 101.164 38.1227C101.186 38.696 100.94 38.8944 100.382 38.8889C98.8324 38.8723 98.8816 39.0157 98.8926 37.3895C98.9035 35.8074 98.8926 34.2253 98.8926 32.6377L98.8981 32.6433ZM103.102 28.5034C102.598 28.5034 102.095 28.5199 101.597 28.4979C101.252 28.4813 101.148 28.6026 101.153 28.9499C101.175 29.8098 101.175 30.6643 101.153 31.5242C101.148 31.8605 101.235 31.9873 101.591 31.9762C102.598 31.9542 103.6 31.9597 104.607 31.9762C105.122 31.9762 105.385 31.7502 105.39 31.2321C105.39 30.5706 105.39 29.9146 105.39 29.2531C105.39 28.7239 105.127 28.4979 104.613 28.5089C104.109 28.5199 103.606 28.5089 103.102 28.5089V28.5034Z" fill="white"/>
<path d="M114.039 38.9329C112.944 38.9329 111.849 38.9219 110.76 38.9329C110.224 38.944 110.027 38.7124 110.027 38.1832C110.038 34.4844 110.038 30.7855 110.027 27.0921C110.027 26.5078 110.273 26.3259 110.82 26.3314C112.988 26.348 115.15 26.3535 117.318 26.3314C117.931 26.3259 118.227 26.5409 118.172 27.1748C118.155 27.3953 118.166 27.6158 118.172 27.8363C118.177 28.3269 117.947 28.5474 117.449 28.5474C115.917 28.5364 114.389 28.564 112.857 28.5309C112.38 28.5199 112.265 28.6687 112.298 29.1152C112.337 29.683 112.337 30.2618 112.298 30.8296C112.271 31.2706 112.38 31.436 112.857 31.4194C114.017 31.3808 115.178 31.4305 116.333 31.3974C116.946 31.3808 117.241 31.5903 117.176 32.2298C117.159 32.4062 117.159 32.5826 117.176 32.759C117.23 33.3488 116.989 33.5969 116.387 33.5803C115.183 33.5528 113.979 33.5803 112.78 33.5638C112.419 33.5583 112.282 33.6465 112.298 34.0323C112.326 34.782 112.331 35.5317 112.298 36.2759C112.282 36.6728 112.43 36.739 112.78 36.7335C114.247 36.7169 115.709 36.7279 117.176 36.7279C118.101 36.7279 118.166 36.7996 118.166 37.7533C118.166 37.8635 118.155 37.9738 118.166 38.084C118.221 38.7124 117.942 38.955 117.323 38.9384C116.229 38.9109 115.134 38.9329 114.044 38.9329H114.039Z" fill="white"/>
<path d="M47.8096 26.3424C48.9317 26.3424 48.9317 26.3424 49.3094 27.4394C50.4973 30.9178 51.6906 34.3962 52.873 37.8745C53.174 38.7621 53.0482 38.944 52.1395 38.9384C50.7819 38.9329 50.7874 38.9274 50.3495 37.6265C50.1415 37.0091 50.147 36.1822 49.6707 35.8294C49.189 35.4711 48.4008 35.7247 47.7494 35.7302C47.0815 35.7357 46.255 35.4491 45.7842 35.857C45.3572 36.2318 45.297 37.0366 45.089 37.6596C44.7825 38.582 44.1128 39.0083 43.0801 38.9384C42.5655 38.9054 42.3739 38.6408 42.5436 38.1502C43.8519 34.341 45.1656 30.5319 46.4575 26.7173C46.567 26.3976 46.7257 26.3204 47.0268 26.3369C47.2895 26.3535 47.5523 26.3369 47.815 26.3369L47.8096 26.3424ZM47.7548 29.5838C47.306 30.9343 46.9228 32.114 46.5232 33.2882C46.4466 33.5142 46.5341 33.5528 46.7257 33.5528C47.4757 33.5528 48.2256 33.5528 49.0303 33.5528C48.6088 32.2408 48.2146 31.017 47.7548 29.5893V29.5838Z" fill="white"/>
<path d="M95.7505 38.933C95.0224 39.1976 94.7488 38.7015 94.5736 38.0069C94.4094 37.3729 94.1685 36.7555 93.9824 36.1271C93.8948 35.8405 93.7744 35.6916 93.4405 35.7027C92.3676 35.7247 91.3002 35.7137 90.2273 35.7027C89.9426 35.7027 89.8003 35.7909 89.7127 36.0775C89.4609 36.8934 89.1708 37.6982 88.9135 38.5085C88.815 38.8227 88.6672 38.9826 88.3168 38.9385C88.0158 38.9054 87.7038 38.933 87.3972 38.933C86.6309 38.933 86.4557 38.6959 86.702 37.9793C87.868 34.5836 89.0339 31.188 90.2054 27.7978C90.709 26.337 90.7254 26.3756 92.2198 26.326C92.8876 26.3039 93.1285 26.5354 93.3365 27.1638C94.5079 30.7194 95.7505 34.2529 96.9602 37.7919C97.2996 38.7841 97.1847 38.933 96.1282 38.933C96.0406 38.933 95.953 38.933 95.756 38.933H95.7505ZM90.5393 33.5032H93.1175C92.7015 32.2243 92.3019 30.995 91.853 29.5948C91.3823 30.995 90.9662 32.2298 90.5393 33.5032Z" fill="white"/>
<path d="M136.712 35.7578C136.061 35.7578 135.278 35.4656 134.791 35.8184C134.309 36.1712 134.298 36.9926 134.09 37.61C133.603 39.0653 133.499 39.1424 131.977 38.9275C131.468 38.8558 131.386 38.5416 131.55 38.0675C132.525 35.2782 133.472 32.4834 134.43 29.6886C134.763 28.7129 135.103 27.7427 135.42 26.7669C135.524 26.4527 135.678 26.3425 136.022 26.337C137.927 26.3259 137.916 26.3149 138.535 28.1396C139.635 31.3919 140.752 34.6443 141.858 37.8966C142.142 38.729 142 38.933 141.157 38.9385C139.761 38.944 139.778 38.9385 139.318 37.6045C139.11 36.9871 139.132 36.1161 138.628 35.8295C138.135 35.5483 137.358 35.7688 136.701 35.7688L136.712 35.7578ZM138.015 33.5252C137.599 32.2463 137.199 31.0005 136.745 29.5893C136.274 30.9895 135.858 32.2408 135.426 33.5252H138.015Z" fill="white"/>
<path d="M73.4824 38.9275C72.7325 39.1755 72.3931 38.7345 72.2508 37.9738C72.1851 37.632 72.0373 37.3068 71.9278 36.976C71.6541 36.1381 71.0666 35.7192 70.1652 35.7192C69.4207 35.7192 68.6763 35.7302 67.9373 35.7137C67.6253 35.7082 67.472 35.8074 67.3789 36.1216C67.1381 36.9154 66.848 37.6982 66.6071 38.492C66.5031 38.8393 66.3334 38.9936 65.9612 38.9495C65.6382 38.9109 65.3043 38.9495 64.9814 38.9385C64.3518 38.9275 64.1603 38.6739 64.3683 38.073C65.2277 35.5483 66.1035 33.0236 66.9684 30.4989C67.3954 29.2586 67.8223 28.0128 68.2329 26.7669C68.3369 26.4527 68.4847 26.3425 68.835 26.337C70.7345 26.3094 70.729 26.2984 71.3311 28.0789C72.3986 31.232 73.4496 34.3852 74.5663 37.5218C75.0261 38.8117 74.829 39.0322 73.4879 38.9385L73.4824 38.9275ZM70.8111 33.5252C70.4006 32.2463 69.9955 31.0005 69.5466 29.6003C69.0759 30.995 68.6599 32.2463 68.2274 33.5252H70.8166H70.8111Z" fill="white"/>
<path d="M56.65 32.5992C56.65 33.7237 56.6719 34.8427 56.6445 35.9673C56.6281 36.6012 56.9128 36.8382 57.5094 36.8327C58.3853 36.8162 59.2611 36.8217 60.1315 36.8327C60.6898 36.8382 60.9307 36.5571 60.9416 36.0279C60.9416 35.9838 60.9416 35.9397 60.9416 35.8956C60.8595 34.1923 60.969 34.4679 62.6769 34.4569C62.9998 34.4569 63.2133 34.6608 63.2078 34.9971C63.1914 35.6751 63.2845 36.3587 63.1257 37.0367C62.8411 38.2274 61.9543 38.9771 60.7391 38.9936C59.4253 39.0102 58.1116 39.0102 56.8033 38.9936C55.4567 38.9716 54.4112 37.9793 54.3948 36.6233C54.3619 33.9607 54.3619 31.2982 54.3948 28.6357C54.4112 27.3458 55.3965 26.3425 56.6829 26.2929C58.0787 26.2433 59.4855 26.2433 60.8814 26.2929C62.1514 26.337 63.0819 27.3072 63.2023 28.6357C63.2461 29.1594 63.2133 29.6941 63.2133 30.2178C63.2133 30.2839 63.2242 30.3611 63.1969 30.4107C62.7644 31.1549 62.0583 30.7194 61.4726 30.7911C61.062 30.8407 60.9252 30.5099 60.9416 30.1296C61.0456 28.0514 60.6351 28.4648 59.1297 28.4262C58.5823 28.4152 58.0349 28.4427 57.4875 28.4262C56.869 28.4042 56.6281 28.6853 56.6391 29.3027C56.6664 30.4052 56.6445 31.5022 56.6445 32.6047L56.65 32.5992Z" fill="white"/>
<path d="M32.789 33.0236L30.8676 34.8592V45.5148L24.0361 51.1816V53.5851L32.789 46.4464V33.0236Z" fill="#C8C8C8"/>
<path d="M0 33.0236L1.91589 34.8592V45.5148L8.75286 51.1816V53.5851L0 46.4464V33.0236Z" fill="#C8C8C8"/>
</svg>
