<svg width="159" height="30" viewBox="0 0 159 30" fill="none" xmlns="http://www.w3.org/2000/svg">
<path d="M12.8913 16.3609L11.6052 12.6129H5.05575L3.74545 16.3609H0L6.13624 0.36676H10.6638L16.7537 16.3609H12.8934H12.8913ZM6.06569 9.73474H10.6155L9.42006 6.21522L8.36375 3.15271C8.18031 3.72393 7.9505 4.40937 7.30745 6.23727L6.06569 9.73274V9.73474Z" fill="white"/>
<path d="M18.4773 16.3609V4.93653H21.6482V6.69629C22.13 5.91864 23.2347 4.59381 25.3473 4.59381C28.0122 4.59381 29.1391 6.21527 29.1391 8.70659V16.3609H25.8754V9.4141C25.8754 7.90689 25.1638 7.2655 24.037 7.2655C21.7611 7.2655 21.7389 9.73278 21.7389 10.9434V16.3589H18.4752L18.4773 16.3609Z" fill="white"/>
<path d="M31.4593 10.6487C31.4593 7.03898 33.3905 4.59377 36.4465 4.59377C38.3777 4.59377 39.6416 5.66806 40.1698 6.46776V0.36676H43.4335V16.3609H40.2625V14.8296C39.7344 15.6073 38.4241 16.7257 36.4485 16.7257C33.3925 16.7257 31.4613 14.2584 31.4613 10.6487H31.4593ZM40.3069 10.6487C40.3069 8.22752 39.2042 7.03898 37.5956 7.03898C36.0796 7.03898 34.8842 7.97498 34.8842 10.6487C34.8842 13.3224 36.0796 14.2584 37.5956 14.2584C39.2042 14.2584 40.3069 13.0698 40.3069 10.6487Z" fill="white"/>
<path d="M46.6044 16.3609V4.9365H49.7995V7.54206C50.1906 6.60606 51.2005 4.70801 53.9824 4.70801C54.1658 4.70801 54.3271 4.70803 54.5105 4.73008V8.06517C54.0509 8.01907 53.6377 7.99703 53.2466 7.99703C50.9022 7.99703 49.868 8.91099 49.868 11.7671V16.3589H46.6044V16.3609Z" fill="white"/>
<path d="M55.4983 10.6267C55.4983 7.03902 57.9798 4.59381 61.312 4.59381C65.1724 4.59381 67.1943 7.61024 66.8737 11.4244H58.762C58.8547 13.4347 59.9332 14.2584 61.3362 14.2584C62.8078 14.2584 63.5194 13.3445 64.0012 12.2702L66.9201 13.3906C66.277 14.8537 64.8297 16.7257 61.3362 16.7257C57.8427 16.7257 55.4983 14.3727 55.4983 10.6247V10.6267ZM63.6564 9.14153C63.5194 7.7245 62.6909 6.92478 61.312 6.92478C59.9332 6.92478 59.1067 7.70246 58.8769 9.14153H63.6564Z" fill="white"/>
<path d="M71.6997 16.3609L68.0228 4.93652H71.3771L72.2278 8.31774C73.01 11.4484 73.3305 12.7272 73.5139 13.3445C73.651 12.7512 73.9735 11.5166 74.663 8.93507L75.7193 4.93652H79.6038L80.6601 8.91302C81.3717 11.6328 81.6479 12.683 81.8313 13.2763C81.9684 12.683 82.2224 11.6769 83.2102 7.92892L83.9923 4.93652H87.3245L83.6476 16.3609H79.7187L78.4084 11.4264L77.5114 8.0672C77.3501 8.82081 77.1667 9.53033 76.6607 11.4023L75.3504 16.3609H71.6977H71.6997Z" fill="white"/>
<path d="M93.5757 8.43199C93.5757 3.67985 97.2304 0 102.101 0C106.467 0 108.834 2.28487 109.684 4.89043L106.398 6.10102C105.778 4.34126 104.606 2.88013 102.101 2.88013C99.2503 2.88013 97.2062 4.93653 97.2062 8.43199C97.2062 11.9274 99.3894 13.8696 102.01 13.8696C104.631 13.8696 105.963 12.3163 106.169 11.0135H100.976V8.13536H109.594V16.3609H106.445V14.0981C105.778 15.1263 104.423 16.7257 101.181 16.7257C97.182 16.7257 93.5757 13.7774 93.5757 8.43199Z" fill="white"/>
<path d="M112.488 16.3609V4.9365H115.683V7.54206C116.075 6.60606 117.084 4.70801 119.866 4.70801C120.05 4.70801 120.211 4.70803 120.394 4.73008V8.06517C119.935 8.01907 119.522 7.99703 119.131 7.99703C116.786 7.99703 115.752 8.91099 115.752 11.7671V16.3589H112.488V16.3609Z" fill="white"/>
<path d="M121.382 10.6267C121.382 7.03902 123.864 4.59381 127.196 4.59381C131.056 4.59381 133.078 7.61024 132.758 11.4244H124.646C124.739 13.4347 125.817 14.2584 127.22 14.2584C128.692 14.2584 129.403 13.3445 129.885 12.2702L132.804 13.3906C132.161 14.8537 130.714 16.7257 127.22 16.7257C123.727 16.7257 121.382 14.3727 121.382 10.6247V10.6267ZM129.54 9.14153C129.403 7.7245 128.575 6.92478 127.196 6.92478C125.817 6.92478 124.991 7.70246 124.761 9.14153H129.54Z" fill="white"/>
<path d="M134.481 10.6267C134.481 7.03902 136.963 4.59381 140.295 4.59381C144.155 4.59381 146.177 7.61024 145.857 11.4244H137.745C137.838 13.4347 138.916 14.2584 140.319 14.2584C141.791 14.2584 142.502 13.3445 142.984 12.2702L145.903 13.3906C145.26 14.8537 143.813 16.7257 140.319 16.7257C136.826 16.7257 134.481 14.3727 134.481 10.6247V10.6267ZM142.639 9.14153C142.502 7.7245 141.674 6.92478 140.295 6.92478C138.916 6.92478 138.09 7.70246 137.86 9.14153H142.639Z" fill="white"/>
<path d="M148.338 16.3609V4.93653H151.509V6.69629C151.991 5.91864 153.096 4.59381 155.208 4.59381C157.873 4.59381 159 6.21527 159 8.70659V16.3609H155.736V9.4141C155.736 7.90689 155.025 7.2655 153.898 7.2655C151.622 7.2655 151.6 9.73278 151.6 10.9434V16.3589H148.336L148.338 16.3609Z" fill="white"/>
<path d="M4.95496 27.4846C4.95496 27.8153 5.02551 28.106 5.1263 28.3465V28.3866H3.92687C3.88656 28.1962 3.85632 27.9857 3.85632 27.6751C3.59426 28.1661 3.04998 28.5068 2.22348 28.5068C1.29619 28.5068 0.479774 28.0158 0.479774 27.0036C0.479774 25.9313 1.37683 25.6307 2.29404 25.4603L3.79584 25.1797C3.79584 24.849 3.79584 24.6085 3.65473 24.4081C3.51363 24.2177 3.26164 24.1275 2.8484 24.1275C2.15293 24.1275 1.83039 24.368 1.82031 25.0695L0.651122 24.9192C0.681359 24.3279 0.903102 23.907 1.28611 23.6465C1.65905 23.3859 2.2134 23.2556 2.91895 23.2556C4.21917 23.2556 4.95496 23.8168 4.95496 24.9091V27.4846ZM3.79584 26.4625V25.9915L2.48554 26.2721C2.0219 26.3823 1.69936 26.5326 1.69936 26.9936C1.69936 27.4245 2.04206 27.635 2.47546 27.635C3.3322 27.635 3.79584 27.204 3.79584 26.4625Z" fill="white"/>
<path d="M9.17816 27.3844H9.96434V28.3966H7.10183V27.3844H7.98881V23.4059C7.68643 23.7166 7.15223 23.8369 6.58779 23.8369C6.487 23.8369 6.38621 23.8268 6.29549 23.8168V22.7846C7.40421 22.7846 8.00896 22.3938 8.17023 21.5219H9.17816V27.3844Z" fill="white"/>
<path d="M16.1832 26.1819C16.1832 27.2742 15.5382 28.5068 13.7642 28.5068C11.6879 28.5068 11.2646 26.723 11.2646 25.1497C11.2646 22.9249 11.9399 21.4017 13.9154 21.4017C15.2459 21.4017 15.8808 22.1934 16.0119 23.2156L14.8427 23.3859C14.8024 22.8548 14.5504 22.3838 13.8751 22.3838C12.6958 22.3838 12.4237 23.5863 12.4136 24.819C12.726 24.2177 13.3308 23.897 14.0464 23.897C15.3567 23.897 16.1832 24.8791 16.1832 26.1819ZM14.9838 26.1719C14.9838 25.3701 14.631 24.8991 13.7944 24.8991C12.9579 24.8991 12.5648 25.4403 12.5648 26.222C12.5648 26.8834 12.8772 27.5247 13.744 27.5247C14.6109 27.5247 14.9838 27.0738 14.9838 26.1719Z" fill="white"/>
<path d="M17.3121 28.3865V27.4646L19.4791 24.9893C19.6202 24.829 19.8722 24.5684 20.0738 24.3479V24.3379C19.7714 24.358 19.3783 24.368 19.1868 24.368H17.4734V23.3759H21.4748V24.2177L19.3481 26.6428C19.2272 26.7831 18.9953 27.0337 18.6728 27.3844V27.3944H21.6361V28.3865H17.3121Z" fill="white"/>
<path d="M23.7023 29.3085C24.0854 29.2083 24.3172 28.9076 24.3273 28.3865H23.6822V26.9134H25.1034V28.3966C25.1034 29.2784 24.5288 29.8597 23.7023 30V29.3085Z" fill="white"/>
<path d="M30.9392 26.1317L32.2395 25.9915C32.2495 27.0036 32.9248 27.5047 33.8723 27.5047C34.7391 27.5047 35.4043 27.184 35.4043 26.4124C35.4043 25.6006 34.5073 25.5806 33.4893 25.3501C32.2495 25.0695 31.1307 24.6085 31.1307 23.2757C31.1307 21.8125 32.4914 21.2513 33.7009 21.2513C35.1725 21.2513 36.2913 21.8326 36.4627 23.436L35.1826 23.6565C35.1423 22.6844 34.5879 22.2435 33.711 22.2435C32.9954 22.2435 32.4108 22.5641 32.4108 23.2055C32.4108 23.8469 33.1768 24.0573 34.1041 24.2277C35.5152 24.4882 36.6844 24.849 36.6844 26.3422C36.6844 27.9256 35.3539 28.5068 33.8521 28.5068C32.3503 28.5068 30.9795 27.7552 30.9392 26.1317Z" fill="white"/>
<path d="M38.539 27.0437V24.3279H37.5109V23.3759H38.539V21.9829H39.7082V23.3759H41.1193V24.3279H39.7082V26.9335C39.7082 27.3243 39.9299 27.4245 40.4036 27.4245C40.6052 27.4245 40.8471 27.3944 41.089 27.3343L41.1092 28.3465C40.8673 28.4066 40.5246 28.4367 40.2524 28.4367C39.1437 28.4367 38.539 28.0659 38.539 27.0437Z" fill="white"/>
<path d="M46.3403 23.2556L46.3101 24.3379C46.1589 24.3279 46.048 24.3279 45.9271 24.3279C44.8587 24.3279 44.1733 24.7288 44.1733 26.1317V28.3866H42.9839V23.3759H44.1632V24.358C44.3547 23.7767 44.9292 23.3458 45.8565 23.2656C45.9674 23.2556 46.179 23.2556 46.3403 23.2556Z" fill="white"/>
<path d="M49.606 27.4345H50.503V28.3865H47.4289V27.4345H48.4066V24.3279H47.5901V23.3758H49.606V27.4345ZM49.5858 21.2814V22.5842H48.3662V21.2814H49.5858Z" fill="white"/>
<path d="M55.2907 21.3716H56.48V28.3865H55.2907V27.675C54.9984 28.2262 54.4642 28.5068 53.7989 28.5068C52.4786 28.5068 51.521 27.5147 51.521 25.8812C51.521 24.2477 52.4282 23.2556 53.7788 23.2556C54.4339 23.2556 54.948 23.5061 55.2907 23.9872V21.3716ZM55.3209 25.8912C55.3209 24.8891 55.0488 24.1375 54.0912 24.1375C53.6276 24.1375 53.3151 24.2778 53.1236 24.5484C52.9019 24.839 52.8212 25.2899 52.8212 25.8812C52.8212 27.0337 53.0934 27.6349 54.0711 27.6349C54.444 27.6349 54.7363 27.5047 54.9379 27.2742C55.1999 26.9735 55.3209 26.5126 55.3209 25.8912Z" fill="white"/>
<path d="M62.6586 26.2119H58.9091C58.9293 27.1439 59.3526 27.6149 60.1892 27.6149C60.925 27.6149 61.308 27.3043 61.4189 26.693L62.578 26.7831C62.3159 27.9356 61.4894 28.5068 60.1993 28.5068C59.4131 28.5068 58.8083 28.2563 58.3749 27.8153C57.9113 27.3443 57.6996 26.6829 57.6996 25.8712C57.6996 25.0595 57.9214 24.4381 58.3749 23.9571C58.8184 23.4961 59.4232 23.2556 60.1892 23.2556C60.9552 23.2556 61.6608 23.5563 62.0841 24.0874C62.4873 24.5885 62.6888 25.3501 62.6586 26.2119ZM59.1712 24.5885C59.0099 24.8089 58.9394 25.0795 58.9192 25.32H61.439C61.4189 25.0394 61.3281 24.7488 61.1568 24.5384C60.9351 24.2678 60.6327 24.1475 60.1892 24.1475C59.7155 24.1475 59.3728 24.3079 59.1712 24.5885Z" fill="white"/>
<path d="M67.668 23.2556L67.6377 24.3379C67.4865 24.3279 67.3757 24.3279 67.2547 24.3279C66.1863 24.3279 65.5009 24.7288 65.5009 26.1317V28.3866H64.3116V23.3759H65.4909V24.358C65.6824 23.7767 66.2569 23.3458 67.1842 23.2656C67.295 23.2556 67.5067 23.2556 67.668 23.2556Z" fill="white"/>
<path d="M68.8976 28.3865V21.3716H71.2159C73.3426 21.3716 74.4513 22.7646 74.4513 24.8791C74.4513 26.9936 73.2821 28.3865 71.2159 28.3865H68.8976ZM70.1475 27.3744H71.1453C71.8509 27.3744 72.3548 27.1639 72.6572 26.7631C72.9999 26.3021 73.1108 25.6908 73.1108 24.8791C73.1108 24.0673 73.01 23.456 72.6874 22.9951C72.3951 22.5541 71.8509 22.3838 71.1453 22.3838H70.1475V27.3744Z" fill="white"/>
<path d="M79.753 28.3865L79.1785 26.5426H76.7292L76.1547 28.3865H74.8444L77.2634 21.3716H78.6443L81.0532 28.3865H79.753ZM77.0517 25.4904H78.8458L78.3117 23.7968C78.2008 23.4761 78.0496 22.9349 77.9488 22.5541H77.9286C77.8178 22.985 77.7069 23.3558 77.5759 23.7968L77.0517 25.4904Z" fill="white"/>
<path d="M81.4765 24.8791C81.4765 22.7445 82.5953 21.2513 84.6011 21.2513C86.6069 21.2513 87.7156 22.7545 87.7156 24.8791C87.7156 27.0036 86.5968 28.5068 84.6011 28.5068C82.6054 28.5068 81.4765 27.2241 81.4765 24.8791ZM85.9215 26.9134C86.2541 26.4625 86.375 25.7409 86.375 24.8791C86.375 24.0172 86.244 23.2957 85.9316 22.8548C85.6493 22.4539 85.2059 22.2635 84.6414 22.2635C84.0165 22.2635 83.5529 22.484 83.2706 22.8548C82.9582 23.2857 82.8272 24.0273 82.8272 24.8791C82.8272 25.781 82.9582 26.4925 83.2606 26.9034C83.5529 27.3043 84.0367 27.4947 84.6011 27.4947C85.1655 27.4947 85.6393 27.3043 85.9215 26.9134Z" fill="white"/>
</svg>
