<svg width="142" height="20" viewBox="0 0 142 20" fill="none" xmlns="http://www.w3.org/2000/svg">
<g opacity="0.8">
<path d="M32.3233 19.1949V1.49432H39.9821C40.8318 1.49432 41.5921 1.59602 42.2629 1.79941C42.9338 2.0028 43.504 2.29658 43.968 2.67511C44.4264 3.048 44.7898 3.52257 45.0357 4.0593C45.2817 4.60167 45.4047 5.21749 45.4047 5.90675C45.4047 6.36438 45.3264 6.82201 45.1643 7.25139C45.0078 7.66946 44.7842 8.0593 44.499 8.39828C44.2139 8.73726 43.8729 9.01975 43.4928 9.24574C43.1071 9.47173 42.6822 9.62427 42.2406 9.68641V9.90675C42.7996 9.94065 43.3418 10.0819 43.8506 10.3192C44.3257 10.5395 44.7562 10.8503 45.1196 11.2288C45.4774 11.6017 45.7569 12.048 45.9525 12.5282C46.1538 13.0367 46.2544 13.5791 46.2488 14.1271C46.2488 14.9068 46.1091 15.6073 45.8295 16.2288C45.5556 16.8503 45.1419 17.3926 44.622 17.822C44.0965 18.257 43.4593 18.596 42.7101 18.8333C41.961 19.0706 41.1225 19.1892 40.1945 19.1892H32.3289L32.3233 19.1949ZM35.9906 8.82766H38.7466C39.7417 8.82766 40.502 8.63557 41.0219 8.24574C41.5418 7.85591 41.8045 7.30223 41.8045 6.58472C41.8045 5.8672 41.5641 5.31918 41.089 4.9237C40.6138 4.52822 39.9317 4.33048 39.0485 4.33048H35.9906V8.83331V8.82766ZM39.2553 16.3587C40.3175 16.3587 41.1225 16.144 41.6759 15.709C42.2294 15.274 42.5089 14.6412 42.5089 13.8051C42.5089 12.9859 42.2238 12.37 41.6536 11.952C41.0834 11.5339 40.256 11.3248 39.1715 11.3248H35.9906V16.3531H39.2553V16.3587Z" fill="white"/>
<path d="M48.0825 0.5H51.6156V19.1949H48.0825V0.5Z" fill="white"/>
<path d="M57.7034 19.404C57.0549 19.404 56.4679 19.3079 55.9312 19.1158C55.4225 18.9351 54.9529 18.6582 54.5504 18.2966C54.1591 17.9407 53.8516 17.5057 53.6448 17.0142C53.4324 16.517 53.3206 15.9577 53.3206 15.3362C53.3206 14.0989 53.7678 13.1384 54.6567 12.4492C55.5455 11.7599 56.8313 11.3644 58.5028 11.2627L61.7452 11.065V9.9633C61.7452 9.39833 61.5551 8.9633 61.1694 8.65822C60.7837 8.35313 60.2246 8.20059 59.4867 8.20059C58.8494 8.20059 58.3239 8.30794 57.9102 8.51698C57.4965 8.73167 57.217 9.0424 57.0717 9.44918H53.8181C53.8684 8.85031 54.0529 8.27404 54.3604 7.75991C54.6734 7.24579 55.0871 6.81076 55.5791 6.47178C56.0878 6.11585 56.6915 5.84466 57.3791 5.65822C58.0723 5.47178 58.8382 5.37573 59.6768 5.37573C60.5601 5.37573 61.3427 5.47743 62.0359 5.68647C62.7291 5.89551 63.3105 6.19494 63.7801 6.59042C64.2441 6.98025 64.613 7.47178 64.8534 8.0311C65.0994 8.60172 65.2224 9.24579 65.2224 9.9633V19.2006H61.8011V17.4322H61.5831C61.2365 18.0537 60.7166 18.5396 60.0346 18.8842C59.3525 19.2345 58.5699 19.404 57.6978 19.404H57.7034ZM58.8662 16.7204C59.2519 16.7204 59.6376 16.6639 60.0066 16.5339C60.3364 16.4209 60.6495 16.2458 60.9178 16.0198C61.1694 15.8051 61.3762 15.5452 61.5272 15.2458C61.6725 14.9464 61.7508 14.6187 61.7452 14.291V13.2966L59.0395 13.4661C57.5357 13.5735 56.781 14.1158 56.781 15.0989C56.781 15.6074 56.9766 16.0029 57.3624 16.291C57.7481 16.5791 58.2512 16.7204 58.8662 16.7204Z" fill="white"/>
<path d="M76.0005 10.4379C75.8775 9.79381 75.598 9.27404 75.1508 8.88421C74.7036 8.49438 74.1054 8.30229 73.3451 8.30229C72.3892 8.30229 71.6568 8.65257 71.1425 9.34749C70.6282 10.0424 70.3711 11.0594 70.3711 12.404C70.3711 13.7599 70.6282 14.7938 71.1425 15.5C71.6568 16.2062 72.3892 16.5622 73.3451 16.5622C74.0719 16.5622 74.6644 16.387 75.1172 16.0424C75.5701 15.6921 75.8664 15.1836 76.0005 14.517H79.3044C79.2318 15.2797 79.0417 15.9633 78.7398 16.5791C78.4435 17.1836 78.0298 17.7147 77.5211 18.1497C77.0124 18.5848 76.4086 18.9181 75.7043 19.1497C75.0055 19.3814 74.2172 19.5 73.3451 19.5C72.2997 19.5 71.3717 19.3418 70.5611 19.0255C69.7505 18.7091 69.0629 18.2514 68.5095 17.6526C67.956 17.0537 67.5312 16.3136 67.2405 15.4322C66.9498 14.5509 66.8044 13.5452 66.8044 12.4096C66.8044 11.274 66.9498 10.291 67.2349 9.41528C67.52 8.53958 67.9449 7.80511 68.5039 7.20624C69.0629 6.60737 69.7505 6.15539 70.5611 5.84466C71.3717 5.53393 72.3053 5.38138 73.3451 5.37573C74.2284 5.37573 75.0222 5.49438 75.7322 5.73167C76.4422 5.96895 77.0459 6.30794 77.5491 6.74861C78.0522 7.19494 78.4603 7.73732 78.751 8.34749C79.0528 8.9746 79.2373 9.66952 79.31 10.4379H76.0061H76.0005Z" fill="white"/>
<path d="M89.1602 5.66384H93.1796L88.0812 11.4661L93.5318 19.1949H89.3447L85.437 13.6977L84.4643 14.7034V19.1949H80.9312V0.5H84.4643V10.952H84.6823L89.1602 5.66384Z" fill="white"/>
<path d="M102.18 1.49432C103.08 1.49432 103.902 1.64122 104.645 1.935C105.361 2.21184 106.015 2.63557 106.563 3.17229C107.105 3.72031 107.53 4.38133 107.81 5.10449C108.106 5.86156 108.251 6.69771 108.251 7.61297C108.251 8.52257 108.1 9.34743 107.798 10.0988C107.508 10.8277 107.072 11.483 106.513 12.0254C105.942 12.5678 105.272 12.9915 104.534 13.2627C103.768 13.5508 102.924 13.6977 102.001 13.6977H98.5408V19.1949H94.8735V1.49432H102.18ZM98.5408 10.6921H101.196C102.258 10.6921 103.075 10.4322 103.656 9.90675C104.232 9.38133 104.522 8.62427 104.522 7.62427C104.522 6.61297 104.237 5.84461 103.662 5.31918C103.086 4.79376 102.27 4.53387 101.207 4.53387H98.5352V10.6921H98.5408Z" fill="white"/>
<path d="M115.96 19.4887C114.932 19.4887 114.009 19.3305 113.193 19.0085C112.405 18.7091 111.695 18.2345 111.119 17.6187C110.554 17.0085 110.118 16.2684 109.822 15.3927C109.52 14.517 109.375 13.5283 109.375 12.4266C109.375 11.3305 109.526 10.3475 109.828 9.47743C110.13 8.60737 110.566 7.86726 111.136 7.25709C111.717 6.64127 112.427 6.16104 113.21 5.86161C114.02 5.53957 114.937 5.37573 115.96 5.37573C116.978 5.37573 117.894 5.53957 118.711 5.86161C119.499 6.16669 120.203 6.64127 120.785 7.25709C121.355 7.86726 121.791 8.60737 122.093 9.47743C122.395 10.3475 122.546 11.3305 122.546 12.4266C122.546 13.5283 122.395 14.5226 122.098 15.3927C121.797 16.2684 121.366 17.0085 120.801 17.6187C120.226 18.2345 119.516 18.7147 118.727 19.0085C117.911 19.3249 116.989 19.4887 115.96 19.4887ZM115.96 16.5678C116.905 16.5678 117.637 16.2062 118.152 15.4831C118.666 14.7599 118.923 13.7373 118.923 12.4209C118.923 11.7769 118.856 11.1949 118.722 10.6808C118.588 10.1667 118.392 9.73167 118.14 9.38138C117.9 9.0424 117.581 8.76556 117.212 8.57347C116.849 8.38703 116.43 8.29099 115.96 8.29099C115.491 8.29099 115.071 8.38703 114.702 8.57347C114.333 8.76556 114.015 9.0424 113.774 9.38138C113.523 9.73167 113.333 10.1667 113.199 10.6808C113.064 11.1949 112.997 11.7769 112.997 12.4209C112.997 13.743 113.254 14.7656 113.763 15.4887C114.272 16.2062 115.004 16.5678 115.96 16.5678Z" fill="white"/>
<path d="M130.121 19.4887C129.092 19.4887 128.17 19.3305 127.353 19.0085C126.565 18.7091 125.855 18.2345 125.279 17.6187C124.715 17.0085 124.279 16.2684 123.982 15.3927C123.68 14.517 123.535 13.5283 123.535 12.4266C123.535 11.3305 123.686 10.3475 123.988 9.47743C124.29 8.60737 124.726 7.86726 125.296 7.25709C125.877 6.64127 126.587 6.16104 127.37 5.86161C128.181 5.53957 129.098 5.37573 130.121 5.37573C131.138 5.37573 132.055 5.53957 132.871 5.86161C133.659 6.16669 134.364 6.64127 134.945 7.25709C135.515 7.86726 135.951 8.60737 136.253 9.47743C136.555 10.3475 136.706 11.3305 136.706 12.4266C136.706 13.5283 136.555 14.5226 136.259 15.3927C135.957 16.2684 135.526 17.0085 134.962 17.6187C134.386 18.2345 133.676 18.7147 132.888 19.0085C132.072 19.3249 131.149 19.4887 130.121 19.4887ZM130.121 16.5678C131.065 16.5678 131.798 16.2062 132.312 15.4831C132.826 14.7599 133.083 13.7373 133.083 12.4209C133.083 11.7769 133.016 11.1949 132.882 10.6808C132.748 10.1667 132.552 9.73167 132.301 9.38138C132.06 9.0424 131.742 8.76556 131.373 8.57347C131.009 8.38703 130.59 8.29099 130.121 8.29099C129.651 8.29099 129.232 8.38703 128.863 8.57347C128.494 8.76556 128.175 9.0424 127.935 9.38138C127.683 9.73167 127.493 10.1667 127.359 10.6808C127.225 11.1949 127.158 11.7769 127.158 12.4209C127.158 13.743 127.415 14.7656 127.924 15.4887C128.432 16.2062 129.165 16.5678 130.121 16.5678Z" fill="white"/>
<path d="M138.467 0.5H142V19.1949H138.467V0.5Z" fill="white"/>
<path d="M22.8085 17.4322C22.3781 17.5904 21.9365 17.2514 21.8694 17.3475C21.8135 17.4266 22.0594 17.743 22.3613 17.9689C22.5793 18.1328 23.0992 18.4435 24.0328 18.3983C24.3515 18.3814 24.6254 18.1723 24.7316 17.8673L25.1788 16.6017C23.6806 15.2458 22.4452 13.6243 21.5395 11.8108C20.9582 10.6356 20.5165 9.39833 20.2314 8.11584C20.3712 7.8616 20.4941 7.63561 20.6004 7.43222C21.014 7.8277 21.4277 8.22318 21.8414 8.62431C22.0315 8.8051 22.3278 8.79946 22.5067 8.60737L22.5234 8.59042C22.9315 8.75426 23.3788 8.69211 23.6695 8.42657C24.1223 8.01414 24.1223 7.15539 23.5017 6.64691C23.4514 6.02544 23.4235 5.70906 23.3732 5.08759L24.2005 4.83335C24.2844 4.56217 24.2844 4.27403 24.2005 4.0085C24.139 3.82205 24.044 3.65256 23.9154 3.51132C23.6974 3.07064 23.1775 2.18928 22.1601 1.65256C21.97 1.55652 21.7743 1.47177 21.5731 1.40962C20.8184 1.14974 20.019 1.03674 19.2195 1.07629C19.3984 1.20058 19.5717 1.32488 19.7506 1.44917C19.2196 1.33618 18.627 1.23448 17.9953 1.16104C17.3188 1.08194 16.6871 1.04804 16.1169 1.03674L16.402 1.32488C15.7032 1.30793 15.01 1.34748 14.3168 1.44917C13.4559 1.57347 11.2533 1.99155 8.02211 4.21753C4.86357 6.39268 2.93492 7.72601 3.07468 9.42092C3.16972 10.5565 4.24865 12.4887 5.69095 13.2232C5.90338 13.3305 6.21645 13.4605 6.42888 13.7995C6.76989 14.3475 6.51832 15.0537 6.14377 16.4831C6.03196 16.9068 5.88661 17.4266 5.70213 18.0198C5.56237 18.4774 5.81393 18.9633 6.26116 19.1045C6.32265 19.1215 6.38414 19.1384 6.45123 19.1384C9.129 19.3588 10.4986 19.3136 10.5601 19.0028C10.6048 18.7825 9.97874 18.4209 8.68178 17.9294C8.63147 17.5848 8.63147 17.2401 8.68178 16.8955C8.89422 15.5283 9.90046 15.0932 10.152 14.0028C10.37 13.0593 10.0514 12.1723 9.74394 11.5678C11.1974 11.4774 12.6062 11.0085 13.8305 10.2062C13.5342 11.6865 13.8081 12.6074 14.1156 13.178C14.7585 14.3644 16.1616 15.1497 16.1169 16.1497C16.1113 16.3192 16.0554 16.6074 16.1001 17.0763C16.1449 17.5678 16.2511 17.7317 16.1616 17.9294C16.0778 18.1102 15.8318 18.3079 15.0995 18.3418C14.9541 18.5057 14.9038 18.6469 14.9374 18.7543C15.0436 19.0989 16.0107 19.1667 17.8387 18.9633C18.0568 18.4661 18.2748 17.9746 18.4928 17.4774C18.5431 16.6639 18.5152 15.8503 18.409 15.0424C18.1798 13.2627 17.7102 12.5622 18.0847 11.4887C18.2356 11.048 18.3922 10.9576 18.9848 10.1271C19.3649 9.59042 19.6891 9.08759 19.9631 8.62996C19.8289 8.98025 19.6835 9.34183 19.5158 9.71471C19.2307 10.3475 18.9177 10.9689 18.5767 11.5735C18.6829 12.1441 18.8618 12.6978 19.1077 13.2232C20.2258 15.613 22.4228 16.6695 23.2781 17.0254C23.2055 17.1554 23.0601 17.3531 22.8309 17.4379L22.8085 17.4322ZM19.8233 3.79945C20.0525 3.61866 20.3935 3.72601 20.4774 3.75991C20.9414 3.9294 21.2041 4.48307 21.0923 4.62996C20.9973 4.74861 20.6507 4.53957 20.5612 4.66951C20.4438 4.839 20.9134 5.26273 20.8072 5.41527C20.7178 5.54522 20.2426 5.46047 19.9463 5.16669C19.5829 4.79381 19.4879 4.06499 19.8233 3.8051V3.79945Z" fill="white"/>
<path d="M5.64064 13.7147C4.5673 13.1497 3.67284 12.2909 3.06349 11.2344C2.90137 11.4435 2.68895 11.7373 2.40943 12.144C1.87835 12.9181 1.7889 13.6977 1.75536 13.8785C1.68268 14.2966 1.35286 14.8785 0.25715 15.6525C0.0167662 15.822 0 16.2175 0 16.6073C0 17.8955 1.47025 19.0875 2.04047 18.839C2.15227 18.7881 2.23054 18.6864 2.28644 18.5508C2.95169 18.7655 3.63372 18.9294 3.7567 18.7147C3.92441 18.4209 2.77838 17.8107 2.69453 16.9407C2.57713 15.7486 4.11448 14.5904 5.64064 13.7203V13.7147Z" fill="white"/>
</g>
</svg>
