<svg width="120" height="18" viewBox="0 0 120 18" fill="none" xmlns="http://www.w3.org/2000/svg">
<path d="M0 17.12V0.547791H6.05015C10.633 0.547791 14.5284 3.52994 14.5284 8.7155C14.5284 13.9011 10.633 17.12 6.05015 17.12H0ZM3.48336 14.1378H5.88935C9.30437 14.1378 10.9305 12.2916 10.9305 8.78819C10.9305 5.63989 9.32648 3.53203 6.02603 3.53203H3.48336V14.1378Z" fill="white"/>
<path d="M16.3133 11.1764C16.3133 7.45908 18.7876 4.92548 22.1102 4.92548C25.9594 4.92548 27.9754 8.05094 27.6558 12.0029H19.5675C19.66 14.0859 20.7353 14.9394 22.1343 14.9394C23.6016 14.9394 24.3112 13.9924 24.7915 12.8793L27.702 14.0402C27.0609 15.5562 25.6177 17.4958 22.1343 17.4958C18.6509 17.4958 16.3133 15.0578 16.3133 11.1743V11.1764ZM24.4478 9.63754C24.3111 8.16931 23.485 7.3407 22.1102 7.3407C20.7353 7.3407 19.9112 8.14646 19.6821 9.63754H24.4478Z" fill="white"/>
<path d="M30.3372 17.12V0.547791H42.6646V3.52995H33.8205V7.83913H40.9018V10.8213H33.8205V17.1179H30.3372V17.12Z" fill="white"/>
<path d="M44.6586 3.67323V0.5H48.1178V3.67323H44.6586ZM44.7731 17.12V5.28268H48.0273V17.12H44.7731Z" fill="white"/>
<path d="M60.2864 17.12L54.7408 0.547791H58.6141L61.3176 9.52127C62.1879 12.4328 62.4412 13.2614 62.7386 14.2333C63.0602 13.2635 63.3336 12.41 64.206 9.52127L66.9094 0.547791H70.7365L65.215 17.12H60.2884H60.2864Z" fill="white"/>
<path d="M70.8712 14.09C70.8712 10.7756 74.2621 9.80576 78.067 9.42572V8.97507C78.067 7.95748 77.4942 7.34069 76.1877 7.34069C74.6982 7.34069 73.9425 8.0987 73.6671 9.21182L70.7345 8.54934C70.9174 6.70314 72.8189 4.92755 76.1656 4.92755C79.5122 4.92755 81.275 6.39579 81.275 9.52124V13.8533C81.275 14.4451 81.3434 14.5635 81.9624 14.5635H82.9715V17.12H80.473C79.1906 17.12 78.5253 16.4575 78.4107 15.3921C77.7917 16.3869 76.5093 17.5 74.4932 17.5C72.4772 17.5 70.8732 16.175 70.8732 14.09H70.8712ZM78.067 12.2667V11.5087C75.9585 11.7683 74.1716 12.1961 74.1716 13.7577C74.1716 14.5386 74.6761 15.037 75.661 15.037C76.9213 15.037 78.067 14.1856 78.067 12.2667Z" fill="white"/>
<path d="M83.9564 11.2013C83.9564 7.46117 85.882 4.92758 88.9292 4.92758C90.8548 4.92758 92.115 6.0407 92.6417 6.86931V0.547791H95.8959V17.12H92.7341V15.5334C92.2075 16.3391 90.901 17.4979 88.9312 17.4979C85.884 17.4979 83.9584 14.9415 83.9584 11.2013H83.9564ZM92.7783 11.2013C92.7783 8.69266 91.6789 7.46117 90.0749 7.46117C88.5633 7.46117 87.3714 8.431 87.3714 11.2013C87.3714 13.9717 88.5633 14.9415 90.0749 14.9415C91.6789 14.9415 92.7783 13.71 92.7783 11.2013Z" fill="white"/>
<path d="M98.2999 11.1764C98.2999 7.45908 100.774 4.92548 104.097 4.92548C107.946 4.92548 109.962 8.05094 109.642 12.0029H101.554C101.647 14.0859 102.722 14.9394 104.121 14.9394C105.588 14.9394 106.298 13.9924 106.778 12.8793L109.689 14.0402C109.047 15.5562 107.604 17.4958 104.121 17.4958C100.638 17.4958 98.2999 15.0578 98.2999 11.1743V11.1764ZM106.434 9.63754C106.298 8.16931 105.472 7.3407 104.097 7.3407C102.722 7.3407 101.898 8.14646 101.669 9.63754H106.434Z" fill="white"/>
<path d="M112.117 17.12V5.28271H115.303V7.98244C115.693 7.01261 116.7 5.04596 119.473 5.04596C119.656 5.04596 119.817 5.04596 120 5.0688V8.52446C119.542 8.47669 119.13 8.45386 118.74 8.45386C116.402 8.45386 115.371 9.40084 115.371 12.3602V17.1179H112.117V17.12Z" fill="white"/>
</svg>
