<svg width="142" height="42" viewBox="0 0 142 42" fill="none" xmlns="http://www.w3.org/2000/svg">
<path d="M36.925 14.5137C36.8954 14.5137 36.8658 14.5137 36.8411 14.5137L36.417 11.8216C36.7474 11.7428 36.9891 11.4475 36.9891 11.0932C36.9891 10.6798 36.6537 10.3402 36.2345 10.3402C36.1161 10.3402 36.0027 10.3697 35.9041 10.4189L33.7389 6.86556C34.025 6.66378 34.2124 6.33404 34.2124 5.96C34.2124 5.34973 33.7192 4.85757 33.1077 4.85757C32.4961 4.85757 32.0029 5.34973 32.0029 5.96C32.0029 6.20608 32.0867 6.43739 32.2248 6.61949L31.0905 7.66778C30.9376 7.52505 30.7305 7.43646 30.5036 7.43646C30.4099 7.43646 30.3162 7.45123 30.2323 7.48076L28.4519 3.22854C28.7429 3.08581 28.9402 2.79052 28.9402 2.44601C28.9402 1.96862 28.5505 1.57982 28.0721 1.57982C27.5937 1.57982 27.2041 1.96862 27.2041 2.44601C27.2041 2.59366 27.2436 2.73638 27.3077 2.8545L23.5693 5.51214C23.446 5.33988 23.2635 5.21192 23.0564 5.15286L23.5052 1.79144C23.5052 1.79144 23.52 1.79144 23.5249 1.79144C24.023 1.79144 24.4225 1.38788 24.4225 0.895722C24.4225 0.403567 24.0181 0 23.5249 0C23.0317 0 22.6273 0.403567 22.6273 0.895722C22.6273 0.959702 22.6322 1.01876 22.647 1.08274L18.9875 1.90464C18.8494 1.5306 18.4894 1.25992 18.0652 1.25992C17.5227 1.25992 17.0788 1.69793 17.0788 2.24423C17.0788 2.55921 17.2268 2.83973 17.4586 3.02183L16.1023 5.3448C15.9938 5.29067 15.8754 5.26114 15.7472 5.26114C15.4316 5.26114 15.1652 5.44816 15.037 5.71392L12.1321 4.57212C12.1518 4.4983 12.1666 4.41955 12.1666 4.33589C12.1666 3.87818 11.7967 3.50907 11.3381 3.50907C10.8794 3.50907 10.5095 3.87818 10.5095 4.33589C10.5095 4.44416 10.5292 4.54751 10.5687 4.64102L7.44676 6.20608C7.43689 5.51214 7.44183 5.30543 7.32839 5.26606C6.91904 5.13318 5.83895 7.41678 5.03997 9.10487C3.94508 11.4278 3.3927 12.5942 3.25954 13.6475C3.25954 13.6475 3.07213 15.3995 3.37297 18.1113C3.4075 18.441 3.44202 18.697 3.47655 18.9037C3.57025 19.5189 3.62944 19.9421 3.6393 20.0159C3.75767 20.8132 3.45189 22.4521 2.4655 23.8055C1.97723 24.4847 1.68132 24.5831 0.640679 25.9316C0.344762 26.3155 0.0784372 26.6797 0.014322 27.2113C-0.0793849 27.979 0.31517 28.5844 0.374354 28.668C0.714658 29.175 1.24731 29.4752 1.7405 29.7508C2.24849 30.0362 2.49509 30.0805 2.61346 30.366C2.74662 30.6809 2.61839 31.0648 2.53948 31.3257C2.41618 31.6948 2.30274 31.7538 2.2337 32.1279C2.19917 32.3247 2.16465 32.5364 2.27315 32.7382C2.3422 32.8661 2.4507 32.9301 2.65784 33.063C2.97842 33.2648 3.09185 33.2402 3.2694 33.4026C3.36804 33.4961 3.49627 33.6191 3.516 33.7864C3.56039 34.1605 2.99322 34.3327 2.8058 34.8938C2.73675 35.1153 2.72689 35.3564 2.78607 35.5828C2.85512 35.883 3.01294 36.075 3.20529 36.3063C3.74287 36.9461 3.91056 37.0347 4.18181 37.4678C4.32484 37.6843 4.43334 37.9255 4.50732 38.1765C4.73419 38.9836 4.3347 39.2641 4.48266 39.9778C4.65035 40.78 5.33589 41.2574 5.47891 41.3607C5.82415 41.592 6.21377 41.7446 6.62806 41.7987C9.85355 42.2761 14.1591 41.7544 14.1591 41.7544C14.1591 41.7544 16.9703 41.4148 23.1501 39.9089C23.2832 39.8744 23.7961 39.7661 24.1808 39.338C24.5063 38.9738 24.8121 38.4275 24.6395 38.2109C24.5655 38.1174 24.4176 38.1125 24.3535 38.1174C23.5446 38.1273 19.9986 38.329 18.9234 38.3093C17.8482 38.2897 17.0788 37.9894 16.1862 37.64C12.2307 36.1045 9.95219 32.374 10.258 30.9221C10.3467 30.5579 10.3862 30.1888 10.3813 29.8148C10.3714 29.3177 10.2777 28.8304 10.1051 28.3629C9.98671 28.0381 9.86834 27.8215 9.62668 27.4081C8.58111 25.5921 8.38876 25.3854 8.29012 24.8292C8.23094 24.5044 8.15203 24.0172 8.3789 23.5053C8.59097 23.023 8.98059 22.7523 9.39981 22.462C10.0015 22.0535 10.1396 22.1224 10.8893 21.7188C11.4614 21.4137 12.1518 21.0298 12.6697 20.2916C12.8226 20.0701 12.9804 19.8437 13.0544 19.573L16.4525 19.9421C16.4821 20.4146 16.8766 20.7886 17.36 20.7886C17.8433 20.7886 18.2674 20.3851 18.2674 19.8831C18.2674 19.8732 18.2674 19.8683 18.2674 19.8585L20.3931 19.4352C20.477 19.6764 20.7038 19.8486 20.9751 19.8486C21.1822 19.8486 21.3647 19.7453 21.4781 19.5878L27.3028 22.1913C27.2732 22.2799 27.2534 22.3734 27.2534 22.4718C27.2534 22.9344 27.6283 23.3035 28.0869 23.3035C28.5456 23.3035 28.9204 22.9295 28.9204 22.4718C28.9204 22.334 28.8859 22.211 28.8317 22.0978L32.723 19.7059C32.8956 19.9077 33.152 20.0356 33.443 20.0356C33.9658 20.0356 34.39 19.6124 34.39 19.0907C34.39 18.569 33.9658 18.1458 33.443 18.1458C33.2951 18.1458 33.157 18.1802 33.0337 18.2393L31.6133 15.9852C31.8401 15.8474 32.0029 15.6112 32.0424 15.3405L35.9534 15.5176C35.9682 16.0443 36.3973 16.4626 36.925 16.4626C37.4527 16.4626 37.9015 16.0246 37.9015 15.4881C37.9015 14.9517 37.4626 14.5137 36.925 14.5137ZM28.0919 21.6401C27.7762 21.6401 27.5 21.8172 27.357 22.0732L21.5472 19.4746C21.5768 19.4008 21.5965 19.322 21.5965 19.2383C21.5965 19.1005 21.5521 18.9775 21.4781 18.8741L23.446 17.1565C23.663 17.3731 23.9589 17.5109 24.2893 17.5109C24.8023 17.5109 25.2313 17.1861 25.399 16.7382L32.5208 18.8988C32.506 18.9578 32.501 19.0218 32.501 19.0907C32.501 19.2777 32.5553 19.45 32.649 19.5927L28.7675 21.9796C28.6147 21.7729 28.373 21.6351 28.0919 21.6351V21.6401ZM20.98 18.6231C20.6397 18.6231 20.3635 18.8988 20.3635 19.2383C20.3635 19.2629 20.3635 19.2826 20.3635 19.3072L18.2576 19.7256C18.1836 19.3023 17.8088 18.9824 17.3649 18.9824C17.1972 18.9824 17.0394 19.0267 16.9062 19.1055L15.4858 16.7333C15.6831 16.5856 15.8163 16.3543 15.8163 16.0885C15.8163 15.8228 15.6782 15.5718 15.4661 15.4291L17.0345 13.1947C17.1578 13.2833 17.3057 13.3325 17.4685 13.3325C17.7003 13.3325 17.9123 13.2242 18.0504 13.0569L23.2142 15.8326C23.1451 15.9852 23.1007 16.1525 23.1007 16.3297C23.1007 16.6053 23.1945 16.8514 23.3523 17.0532L21.3844 18.7708C21.2759 18.6773 21.1378 18.6231 20.98 18.6231ZM18.0258 3.23346L18.3168 7.06735C17.9666 7.12641 17.7003 7.43154 17.7003 7.79574C17.7003 7.93354 17.7397 8.06642 17.8088 8.1747L13.9175 11.0292C13.7547 10.788 13.4785 10.6256 13.1629 10.6256C13.1086 10.6256 13.0593 10.6305 13.01 10.6404L11.6143 5.11841C11.8214 5.04951 11.994 4.89694 12.0877 4.705L14.9976 5.8468C14.9828 5.91078 14.9729 5.97476 14.9729 6.04859C14.9729 6.48168 15.3231 6.83111 15.7571 6.83111C16.1911 6.83111 16.5413 6.48168 16.5413 6.04859C16.5413 5.79267 16.418 5.56627 16.2256 5.42355L17.577 3.10058C17.7101 3.17932 17.868 3.22362 18.0307 3.22854L18.0258 3.23346ZM21.8628 6.42755L19.1009 7.47584C18.9826 7.23468 18.736 7.06735 18.4499 7.0575L18.1639 3.22854C18.4105 3.20393 18.6275 3.08581 18.7853 2.91356L21.996 5.51706C21.8727 5.67947 21.8036 5.88125 21.8036 6.0978C21.8036 6.211 21.8234 6.32419 21.8628 6.42755ZM22.7802 7.07227C23.3177 7.07227 23.7567 6.63917 23.7567 6.0978C23.7567 5.93539 23.7172 5.78282 23.6433 5.64502L27.3817 2.98246C27.4754 3.1055 27.6036 3.20393 27.7565 3.26299L26.992 6.27006C26.992 6.27006 26.9526 6.27006 26.9279 6.27006C26.5679 6.27006 26.2769 6.56043 26.2769 6.9197C26.2769 7.27897 26.5679 7.56934 26.9279 7.56934C27.288 7.56934 27.5789 7.27897 27.5789 6.9197C27.5789 6.62933 27.3915 6.38817 27.1252 6.29958L27.8847 3.30236C27.9439 3.31713 28.008 3.32205 28.0721 3.32205C28.1609 3.32205 28.2398 3.30728 28.3237 3.2876L30.109 7.53982C29.8279 7.68254 29.6356 7.97291 29.6356 8.3125C29.6356 8.78989 30.0252 9.17869 30.5036 9.17869C30.5776 9.17869 30.6515 9.16885 30.7206 9.14916L31.3617 11.0046C31.0806 11.0981 30.8488 11.3048 30.7157 11.5656L26.5827 9.92677C26.6074 9.84802 26.6222 9.76436 26.6222 9.67577C26.6222 9.20822 26.2424 8.82434 25.7689 8.82434C25.2955 8.82434 24.9157 9.2033 24.9157 9.67577C24.9157 9.74467 24.9256 9.80865 24.9404 9.87263L18.154 12.2596C18.1096 12.1612 18.0455 12.0726 17.9617 12.0037L22.2623 6.9197C22.4103 7.01321 22.5878 7.06735 22.7752 7.06735L22.7802 7.07227ZM31.1398 14.2873C30.6318 14.2873 30.2225 14.6958 30.2225 15.2027C30.2225 15.2322 30.2225 15.2617 30.2225 15.2913L25.4434 16.0738C25.4237 15.9803 25.3892 15.8917 25.3497 15.808L30.7946 12.7271C30.9524 12.9535 31.1891 13.1209 31.4702 13.1848L31.2089 14.2922C31.2089 14.2922 31.1595 14.2922 31.1398 14.2922V14.2873ZM24.2893 15.1485C23.8603 15.1485 23.4854 15.3749 23.2783 15.7145L18.1293 12.9486C18.1935 12.8403 18.228 12.7124 18.228 12.5795C18.228 12.5155 18.2181 12.4564 18.2033 12.3974L24.9897 10.0154C25.1179 10.3205 25.4237 10.5321 25.7739 10.5321C26.1092 10.5321 26.3953 10.3402 26.5334 10.0646L30.6614 11.7034C30.617 11.8216 30.5924 11.9495 30.5924 12.0873C30.5924 12.2793 30.6417 12.4564 30.7255 12.6189L25.2856 15.6997C25.0735 15.3749 24.7086 15.1535 24.2893 15.1535V15.1485ZM22.7802 5.12826C22.5089 5.12826 22.2672 5.23653 22.0897 5.41371L18.8741 2.81021C18.9826 2.65272 19.0467 2.46078 19.0467 2.25407C19.0467 2.18517 19.0368 2.11627 19.027 2.05229L22.6865 1.23039C22.795 1.52076 23.0514 1.73731 23.3671 1.79144L22.9232 5.1381C22.8788 5.13318 22.8295 5.12826 22.7851 5.12826H22.7802ZM13.1579 12.4466C13.661 12.4466 14.0654 12.043 14.0654 11.541C14.0654 11.4032 14.0358 11.2753 13.9816 11.1572L17.8827 8.28789C18.0208 8.44046 18.2132 8.53397 18.4351 8.53397C18.8445 8.53397 19.1749 8.20422 19.1749 7.79574C19.1749 7.72683 19.1651 7.66285 19.1453 7.59887L21.9121 6.55058C21.9713 6.66378 22.0502 6.76221 22.1489 6.84588L17.8433 11.9249C17.7299 11.8609 17.6016 11.8216 17.4635 11.8216C17.0443 11.8216 16.7089 12.1612 16.7089 12.5746C16.7089 12.7813 16.7928 12.9634 16.926 13.1012L15.3379 15.3552C15.2343 15.3109 15.1258 15.2814 15.0074 15.2814C14.5636 15.2814 14.2035 15.6407 14.2035 16.0836C14.2035 16.2706 14.2676 16.4429 14.3761 16.5807L12.7733 18.441C12.65 18.2836 12.5168 18.1654 12.4231 18.0818L12.3097 17.9833L13.1037 12.4417C13.1037 12.4417 13.1284 12.4417 13.1432 12.4417L13.1579 12.4466ZM35.4898 11.103C35.4898 11.1325 35.4898 11.167 35.4947 11.1965L32.8216 11.7871C32.6934 11.3048 32.2495 10.9504 31.7267 10.9504C31.6478 10.9504 31.5689 10.9603 31.4949 10.9751L30.8488 9.11471C31.1595 8.98183 31.3716 8.67669 31.3716 8.31742C31.3716 8.11564 31.3026 7.92862 31.1842 7.78097L32.3136 6.7376C32.5158 6.94431 32.7969 7.07719 33.1077 7.07719C33.2951 7.07719 33.4677 7.0329 33.6206 6.94923L35.7906 10.5026C35.6082 10.6404 35.4849 10.8569 35.4849 11.103H35.4898ZM7.45662 6.53582C7.45662 6.47676 7.45662 6.4177 7.45662 6.36356L10.6377 4.76898C10.7857 5.00522 11.0421 5.16271 11.343 5.16271C11.3923 5.16271 11.4367 5.16271 11.4811 5.14794L12.8719 10.6699C12.7091 10.7241 12.5612 10.8225 12.4527 10.9554L7.48621 7.49552C7.47635 7.21007 7.46156 6.88525 7.45662 6.52598V6.53582ZM13.0988 19.2285C13.084 18.9677 12.9853 18.7462 12.862 18.5592L14.4748 16.6841C14.6178 16.812 14.8052 16.8858 15.0074 16.8858C15.1357 16.8858 15.259 16.8563 15.3675 16.8022L16.7879 19.1842C16.6004 19.3368 16.4771 19.5582 16.4574 19.8142L13.0889 19.45C13.0988 19.3811 13.1037 19.3072 13.0988 19.2285ZM32.5553 18.7757L25.4336 16.6152C25.4582 16.5266 25.4681 16.4281 25.4681 16.3297C25.4681 16.2903 25.4681 16.251 25.4631 16.2116L30.2422 15.4291C30.3458 15.8277 30.7009 16.1181 31.1299 16.1181C31.2582 16.1181 31.3765 16.0935 31.485 16.0443L32.9104 18.3032C32.7427 18.4164 32.6194 18.5789 32.5504 18.7708L32.5553 18.7757ZM31.342 14.3119L31.6034 13.2045C31.6429 13.2045 31.6823 13.2094 31.7218 13.2094C32.3481 13.2094 32.8561 12.7025 32.8561 12.0775C32.8561 12.0233 32.8512 11.9692 32.8413 11.9151L35.5194 11.3294C35.618 11.6296 35.8991 11.8462 36.2345 11.8462C36.2493 11.8462 36.2641 11.8462 36.2789 11.8462L36.703 14.5383C36.3036 14.6318 35.9978 14.9664 35.9534 15.3798L32.0473 15.2027C32.0473 14.7647 31.7415 14.4005 31.3371 14.3069L31.342 14.3119ZM9.48365 15.5275C7.284 14.0904 6.13486 13.7311 6.15459 12.9683C6.15459 12.8157 6.30255 12.5303 6.59353 11.9544C6.99302 11.1719 7.20016 10.9455 7.37771 10.601C7.72295 9.93661 7.57992 9.56749 7.49115 7.6727L12.3738 11.0735C12.2949 11.2113 12.2455 11.3688 12.2455 11.5361C12.2455 11.9741 12.5612 12.3432 12.9755 12.4269L12.1962 17.8751C10.6328 16.4675 9.83382 15.7539 9.48365 15.5275Z" fill="white"/>
<path d="M51.4791 22.9984C51.4791 23.0329 51.4594 23.0673 51.4347 23.087C51.4101 23.1067 51.3805 23.1214 51.3509 23.1214C51.3114 23.1214 51.2769 23.1116 51.2572 23.087C51.2325 23.0624 51.2227 23.0329 51.2227 22.9984V19.0169C51.2227 18.9824 51.2325 18.948 51.2572 18.9283C51.2819 18.9037 51.3114 18.8938 51.346 18.8938C51.3805 18.8938 51.415 18.9037 51.4347 18.9283C51.4545 18.9529 51.4693 18.9824 51.4693 19.0169V22.9984H51.4791Z" fill="white"/>
<path d="M56.3667 18.8889C56.4012 18.8889 56.4308 18.8988 56.4505 18.9234C56.4703 18.948 56.4801 18.9726 56.4801 19.007V22.9984C56.4801 23.0427 56.4653 23.0772 56.4407 23.0968C56.416 23.1214 56.3864 23.1313 56.3519 23.1313C56.3371 23.1313 56.3174 23.1313 56.3026 23.1214C56.2829 23.1116 56.2681 23.1018 56.2582 23.087L53.4421 19.2482L53.5259 19.2039V23.0279C53.5259 23.0575 53.516 23.0821 53.4914 23.1018C53.4667 23.1214 53.4421 23.1313 53.4075 23.1313C53.373 23.1313 53.3434 23.1214 53.3237 23.1018C53.304 23.0821 53.2941 23.0575 53.2941 23.0279V19.0169C53.2941 18.9726 53.304 18.9431 53.3286 18.9234C53.3533 18.9037 53.3779 18.8938 53.4026 18.8938C53.4174 18.8938 53.4371 18.8938 53.4519 18.9037C53.4667 18.9086 53.4815 18.9184 53.4963 18.9381L56.2976 22.7523L56.2483 22.8754V19.012C56.2483 18.9775 56.2582 18.9529 56.2829 18.9283C56.3075 18.9086 56.3322 18.8938 56.3618 18.8938L56.3667 18.8889Z" fill="white"/>
<path d="M61.4417 19.2383C61.4762 19.2629 61.491 19.2875 61.4959 19.322C61.4959 19.3515 61.4959 19.381 61.4713 19.4155C61.4515 19.445 61.4269 19.4598 61.3973 19.4598C61.3677 19.4598 61.3381 19.4598 61.3085 19.4401C61.1408 19.322 60.9534 19.2285 60.7512 19.1596C60.549 19.0907 60.3369 19.0562 60.11 19.0562C59.8536 19.0562 59.6119 19.1054 59.385 19.199C59.1582 19.2925 58.9609 19.4303 58.7932 19.6025C58.6255 19.7748 58.4874 19.9815 58.3937 20.2177C58.2951 20.4539 58.2458 20.7197 58.2458 21.0052C58.2458 21.2906 58.2951 21.5564 58.3937 21.7926C58.4924 22.0288 58.6255 22.2355 58.7932 22.4078C58.9609 22.5801 59.1582 22.7179 59.385 22.8114C59.6119 22.9049 59.8536 22.9541 60.11 22.9541C60.3369 22.9541 60.549 22.9196 60.7463 22.8507C60.9435 22.7818 61.126 22.6933 61.2986 22.5801C61.3282 22.5604 61.3578 22.5505 61.3874 22.5554C61.4219 22.5554 61.4466 22.5751 61.4663 22.6047C61.4861 22.6342 61.4959 22.6637 61.491 22.6933C61.491 22.7277 61.4713 22.7523 61.4417 22.772C61.343 22.8409 61.2197 22.9049 61.0767 22.9738C60.9287 23.0378 60.7709 23.0919 60.6082 23.1263C60.4405 23.1657 60.2777 23.1854 60.11 23.1854C59.8191 23.1854 59.5478 23.1313 59.2913 23.023C59.0349 22.9147 58.8129 22.7622 58.6157 22.5653C58.4233 22.3684 58.2704 22.142 58.157 21.8763C58.0436 21.6105 57.9893 21.3201 57.9893 21.0101C57.9893 20.7 58.0436 20.4047 58.157 20.139C58.2704 19.8732 58.4184 19.6468 58.6157 19.4499C58.808 19.2531 59.0349 19.1005 59.2913 18.9922C59.5478 18.884 59.8191 18.8298 60.11 18.8298C60.3566 18.8298 60.5934 18.8643 60.8252 18.9381C61.057 19.0119 61.2592 19.1104 61.4417 19.2383Z" fill="white"/>
<path d="M63.0445 18.8889H65.333C65.3675 18.8889 65.3921 18.8988 65.4168 18.9234C65.4415 18.948 65.4513 18.9775 65.4513 19.007C65.4513 19.0415 65.4415 19.071 65.4168 19.0956C65.3921 19.1202 65.3625 19.1301 65.333 19.1301H63.1185L63.1777 19.0267V20.9018L63.1037 20.8182H65.0568C65.0913 20.8182 65.1159 20.828 65.1406 20.8526C65.1653 20.8772 65.1751 20.9068 65.1751 20.9363C65.1751 20.9707 65.1653 21.0003 65.1406 21.0249C65.1159 21.0495 65.0864 21.0593 65.0568 21.0593H63.1136L63.1728 20.9904V22.9098L63.1481 22.8803H65.328C65.3625 22.8803 65.3872 22.8901 65.4119 22.9147C65.4365 22.9394 65.4464 22.9689 65.4464 22.9984C65.4464 23.0329 65.4365 23.0624 65.4119 23.087C65.3872 23.1116 65.3576 23.1214 65.328 23.1214H63.0396C63.0051 23.1214 62.9804 23.1116 62.9558 23.087C62.9311 23.0624 62.9212 23.0329 62.9212 23.0033V19.007C62.9212 18.9726 62.9311 18.948 62.9558 18.9234C62.9804 18.8988 63.01 18.8889 63.0396 18.8889H63.0445Z" fill="white"/>
<path d="M70.038 18.8889C70.0726 18.8889 70.1021 18.8988 70.1219 18.9234C70.1416 18.948 70.1515 18.9726 70.1515 19.007V22.9984C70.1515 23.0427 70.1367 23.0772 70.112 23.0968C70.0873 23.1214 70.0578 23.1313 70.0232 23.1313C70.0084 23.1313 69.9887 23.1313 69.9739 23.1214C69.9542 23.1116 69.9394 23.1018 69.9295 23.087L67.1134 19.2482L67.1972 19.2039V23.0279C67.1972 23.0575 67.1874 23.0821 67.1627 23.1018C67.138 23.1214 67.1134 23.1313 67.0789 23.1313C67.0443 23.1313 67.0147 23.1214 66.995 23.1018C66.9753 23.0821 66.9654 23.0575 66.9654 23.0279V19.0169C66.9654 18.9726 66.9753 18.9431 67 18.9234C67.0246 18.9037 67.0493 18.8938 67.0739 18.8938C67.0887 18.8938 67.1085 18.8938 67.1232 18.9037C67.138 18.9086 67.1528 18.9184 67.1676 18.9381L69.969 22.7523L69.9197 22.8754V19.012C69.9197 18.9775 69.9295 18.9529 69.9542 18.9283C69.9788 18.9086 70.0035 18.8938 70.0331 18.8938L70.038 18.8889Z" fill="white"/>
<path d="M71.7001 19.1202C71.6656 19.1202 71.6409 19.1104 71.6163 19.0858C71.5916 19.0661 71.5817 19.0365 71.5817 19.0021C71.5817 18.9676 71.5916 18.943 71.6163 18.9184C71.6409 18.8987 71.6705 18.884 71.7001 18.884H74.6494C74.6839 18.884 74.7086 18.8938 74.7332 18.9184C74.7579 18.943 74.7678 18.9676 74.7678 19.0021C74.7678 19.0365 74.7579 19.0661 74.7332 19.0858C74.7086 19.1054 74.679 19.1153 74.6494 19.1153H71.7001V19.1202ZM73.1747 23.1263C73.1402 23.1263 73.1106 23.1165 73.086 23.0919C73.0613 23.0673 73.0515 23.0378 73.0515 23.0082V19.0365H73.2931V23.0082C73.2931 23.0427 73.2833 23.0673 73.2586 23.0919C73.2339 23.1165 73.2043 23.1263 73.1747 23.1263Z" fill="white"/>
<path d="M76.4496 22.9984C76.4496 23.0329 76.4298 23.0673 76.4052 23.087C76.3805 23.1067 76.3509 23.1214 76.3213 23.1214C76.2819 23.1214 76.2473 23.1116 76.2276 23.087C76.203 23.0624 76.1931 23.0329 76.1931 22.9984V19.0169C76.1931 18.9824 76.203 18.948 76.2276 18.9283C76.2523 18.9037 76.2819 18.8938 76.3164 18.8938C76.3509 18.8938 76.3854 18.9037 76.4052 18.9283C76.4249 18.9529 76.4397 18.9824 76.4397 19.0169V22.9984H76.4496Z" fill="white"/>
<path d="M81.3322 18.8889C81.3716 18.8889 81.4012 18.8987 81.421 18.9184C81.4407 18.9381 81.4506 18.9627 81.4506 18.9972C81.4506 19.0119 81.4505 19.0316 81.4407 19.0562L79.7786 23.0476C79.7786 23.0476 79.749 23.0919 79.7293 23.1067C79.7096 23.1214 79.6849 23.1263 79.6603 23.1263C79.6356 23.1263 79.6109 23.1214 79.5912 23.1067C79.5715 23.0919 79.5518 23.0722 79.5468 23.0476L77.8946 19.0759C77.8946 19.0759 77.8848 19.0562 77.8848 19.0464C77.8848 19.0365 77.8798 19.0218 77.8798 19.0021C77.8798 18.9676 77.8897 18.943 77.9143 18.9184C77.939 18.8987 77.9637 18.884 77.9933 18.884C78.0524 18.884 78.0968 18.9184 78.1264 18.9824L79.7046 22.772H79.6307L81.2138 18.9627C81.2434 18.9086 81.2829 18.884 81.3273 18.884L81.3322 18.8889Z" fill="white"/>
<path d="M82.9992 18.8889H85.2876C85.3221 18.8889 85.3468 18.8988 85.3714 18.9234C85.3961 18.948 85.406 18.9775 85.406 19.007C85.406 19.0415 85.3961 19.071 85.3714 19.0956C85.3468 19.1202 85.3172 19.1301 85.2876 19.1301H83.0732L83.1323 19.0267V20.9018L83.0584 20.8182H85.0114C85.0459 20.8182 85.0706 20.828 85.0953 20.8526C85.1199 20.8772 85.1298 20.9068 85.1298 20.9363C85.1298 20.9707 85.1199 21.0003 85.0953 21.0249C85.0706 21.0495 85.041 21.0593 85.0114 21.0593H83.0682L83.1274 20.9904V22.9098L83.1028 22.8803H85.2827C85.3172 22.8803 85.3419 22.8901 85.3665 22.9147C85.3912 22.9394 85.401 22.9689 85.401 22.9984C85.401 23.0329 85.3912 23.0624 85.3665 23.087C85.3419 23.1116 85.3123 23.1214 85.2827 23.1214H82.9942C82.9597 23.1214 82.9351 23.1116 82.9104 23.087C82.8857 23.0624 82.8759 23.0329 82.8759 23.0033V19.007C82.8759 18.9726 82.8857 18.948 82.9104 18.9234C82.9351 18.8988 82.9647 18.8889 82.9942 18.8889H82.9992Z" fill="white"/>
<path d="M90.8705 18.8889C91.1714 18.8889 91.4377 18.948 91.6597 19.0612C91.8816 19.1744 92.0641 19.3319 92.2071 19.5336C92.3501 19.7354 92.4586 19.9618 92.5277 20.2128C92.5967 20.4687 92.6313 20.7296 92.6313 21.0052C92.6313 21.394 92.5721 21.7483 92.4488 22.0682C92.3255 22.3881 92.1331 22.6441 91.8767 22.836C91.6202 23.0279 91.2848 23.1214 90.8755 23.1214H89.2973C89.2627 23.1214 89.2381 23.1116 89.2134 23.087C89.1888 23.0624 89.1789 23.0329 89.1789 23.0033V19.007C89.1789 18.9726 89.1888 18.948 89.2134 18.9234C89.2381 18.8988 89.2677 18.8889 89.2973 18.8889H90.8755H90.8705ZM90.8114 22.8852C91.1813 22.8852 91.4821 22.8015 91.7139 22.6342C91.9408 22.4669 92.1085 22.2405 92.217 21.955C92.3255 21.6696 92.3797 21.3546 92.3797 21.0101C92.3797 20.764 92.3501 20.5278 92.2909 20.3014C92.2318 20.075 92.1381 19.8732 92.0148 19.701C91.8915 19.5238 91.7287 19.386 91.5314 19.2876C91.3342 19.1891 91.0925 19.135 90.8163 19.135H89.3959L89.4304 19.0858V22.9394L89.3959 22.8852H90.8163H90.8114Z" fill="white"/>
<path d="M94.2637 18.8889H96.5522C96.5867 18.8889 96.6113 18.8988 96.636 18.9234C96.6607 18.948 96.6705 18.9775 96.6705 19.007C96.6705 19.0415 96.6607 19.071 96.636 19.0956C96.6113 19.1202 96.5818 19.1301 96.5522 19.1301H94.3377L94.3969 19.0267V20.9018L94.3229 20.8182H96.276C96.3105 20.8182 96.3352 20.828 96.3598 20.8526C96.3845 20.8772 96.3943 20.9068 96.3943 20.9363C96.3943 20.9707 96.3845 21.0003 96.3598 21.0249C96.3352 21.0495 96.3056 21.0593 96.276 21.0593H94.3328L94.392 20.9904V22.9098L94.3673 22.8803H96.5472C96.5818 22.8803 96.6064 22.8901 96.6311 22.9147C96.6557 22.9394 96.6656 22.9689 96.6656 22.9984C96.6656 23.0329 96.6557 23.0624 96.6311 23.087C96.6064 23.1116 96.5768 23.1214 96.5472 23.1214H94.2588C94.2243 23.1214 94.1996 23.1116 94.175 23.087C94.1503 23.0624 94.1404 23.0329 94.1404 23.0033V19.007C94.1404 18.9726 94.1503 18.948 94.175 18.9234C94.1996 18.8988 94.2292 18.8889 94.2588 18.8889H94.2637Z" fill="white"/>
<path d="M99.2993 23.1854C98.9836 23.1854 98.7124 23.1362 98.4855 23.0279C98.2586 22.9197 98.0416 22.7572 97.8295 22.5505C97.8197 22.5407 97.8147 22.5308 97.8049 22.5161C97.795 22.5013 97.795 22.4816 97.795 22.457C97.795 22.4226 97.8098 22.393 97.8394 22.3635C97.869 22.334 97.8986 22.3192 97.9282 22.3192C97.9627 22.3192 97.9972 22.3389 98.0317 22.3734C98.1945 22.5604 98.3819 22.6982 98.5989 22.7966C98.8159 22.895 99.0428 22.9443 99.2746 22.9443C99.4817 22.9443 99.6642 22.9098 99.827 22.8458C99.9897 22.7818 100.118 22.6834 100.207 22.5604C100.3 22.4373 100.345 22.2946 100.345 22.1273C100.345 21.9206 100.286 21.7582 100.177 21.6302C100.069 21.5072 99.9256 21.4038 99.753 21.3201C99.5804 21.2365 99.4028 21.1627 99.2105 21.0938C99.0625 21.0347 98.9146 20.9806 98.7666 20.9166C98.6236 20.8575 98.4904 20.7837 98.372 20.6951C98.2537 20.6065 98.16 20.4982 98.0909 20.3703C98.0219 20.2423 97.9874 20.075 97.9874 19.8831C97.9874 19.6911 98.0416 19.509 98.1501 19.3466C98.2586 19.1891 98.4115 19.0612 98.6088 18.9676C98.8061 18.8741 99.0477 18.8249 99.319 18.8249C99.5508 18.8249 99.7727 18.8643 99.9947 18.948C100.212 19.0316 100.384 19.1547 100.513 19.322C100.552 19.3761 100.572 19.4204 100.572 19.45C100.572 19.4795 100.557 19.509 100.527 19.5336C100.498 19.5582 100.463 19.5779 100.429 19.5779C100.394 19.5779 100.369 19.5681 100.35 19.5435C100.276 19.445 100.187 19.3614 100.088 19.2925C99.9848 19.2236 99.8664 19.1694 99.7382 19.1301C99.61 19.0907 99.4719 19.071 99.3239 19.071C99.1266 19.071 98.9442 19.1054 98.7863 19.1694C98.6285 19.2334 98.4953 19.3269 98.3967 19.445C98.2981 19.5632 98.2488 19.7108 98.2488 19.8831C98.2488 20.0701 98.303 20.2226 98.4115 20.3408C98.52 20.4589 98.6532 20.5573 98.8209 20.6361C98.9885 20.7148 99.1562 20.7886 99.3288 20.8526C99.4817 20.9067 99.6346 20.9609 99.7875 21.0249C99.9404 21.0888 100.078 21.1676 100.202 21.2562C100.325 21.3497 100.424 21.4678 100.498 21.6056C100.572 21.7483 100.606 21.9255 100.606 22.1371C100.606 22.3241 100.552 22.4964 100.443 22.6539C100.335 22.8114 100.187 22.9393 99.9897 23.0328C99.7974 23.1313 99.5606 23.1805 99.2943 23.1854H99.2993Z" fill="white"/>
<path d="M102.387 22.9984C102.387 23.0329 102.367 23.0673 102.342 23.087C102.318 23.1067 102.288 23.1214 102.258 23.1214C102.219 23.1214 102.184 23.1116 102.165 23.087C102.14 23.0624 102.13 23.0329 102.13 22.9984V19.0169C102.13 18.9824 102.14 18.948 102.165 18.9283C102.189 18.9037 102.219 18.8938 102.253 18.8938C102.288 18.8938 102.323 18.9037 102.342 18.9283C102.362 18.9529 102.377 18.9824 102.377 19.0169V22.9984H102.387Z" fill="white"/>
<path d="M106.081 23.1854C105.765 23.1854 105.474 23.1313 105.208 23.023C104.941 22.9147 104.715 22.7671 104.517 22.5702C104.32 22.3734 104.167 22.142 104.063 21.8763C103.955 21.6105 103.901 21.3201 103.901 21.0052C103.901 20.6902 103.955 20.3998 104.063 20.1341C104.172 19.8683 104.32 19.637 104.517 19.4401C104.715 19.2433 104.946 19.0907 105.208 18.9873C105.474 18.8791 105.765 18.8249 106.081 18.8249C106.303 18.8249 106.52 18.8545 106.722 18.9086C106.929 18.9627 107.111 19.0464 107.274 19.1547C107.294 19.1645 107.309 19.1842 107.319 19.199C107.328 19.2186 107.328 19.2383 107.328 19.258C107.328 19.2974 107.314 19.3269 107.284 19.3466C107.254 19.3663 107.23 19.3761 107.21 19.3761C107.195 19.3761 107.18 19.3761 107.166 19.3663C107.151 19.3564 107.141 19.3564 107.131 19.3515C106.983 19.2679 106.816 19.199 106.638 19.1448C106.46 19.0907 106.273 19.0661 106.076 19.0661C105.701 19.0661 105.366 19.1497 105.079 19.3171C104.793 19.4844 104.562 19.7157 104.399 20.0061C104.236 20.2965 104.152 20.6311 104.152 21.0052C104.152 21.3792 104.236 21.7139 104.399 22.0092C104.562 22.2995 104.788 22.5308 105.079 22.6982C105.37 22.8655 105.701 22.9443 106.076 22.9443C106.278 22.9443 106.475 22.9147 106.672 22.8507C106.87 22.7868 107.042 22.708 107.19 22.6047L107.166 22.7129V21.1971L107.25 21.2759H106.071C106.036 21.2759 106.012 21.266 105.987 21.2414C105.962 21.2168 105.952 21.1873 105.952 21.1577C105.952 21.1233 105.962 21.0938 105.987 21.0691C106.012 21.0495 106.041 21.0347 106.071 21.0347H107.284C107.319 21.0347 107.348 21.0445 107.373 21.0691C107.397 21.0938 107.407 21.1233 107.407 21.1528V22.6736C107.407 22.6736 107.407 22.708 107.397 22.7277C107.388 22.7474 107.378 22.7671 107.353 22.7818C107.176 22.9049 106.978 22.9984 106.756 23.0722C106.534 23.146 106.308 23.1805 106.076 23.1805L106.081 23.1854Z" fill="white"/>
<path d="M112.093 18.8889C112.127 18.8889 112.157 18.8988 112.177 18.9234C112.196 18.948 112.206 18.9726 112.206 19.007V22.9984C112.206 23.0427 112.191 23.0772 112.167 23.0968C112.142 23.1214 112.112 23.1313 112.078 23.1313C112.063 23.1313 112.043 23.1313 112.029 23.1214C112.009 23.1116 111.994 23.1018 111.984 23.087L109.168 19.2482L109.252 19.2039V23.0279C109.252 23.0575 109.242 23.0821 109.217 23.1018C109.193 23.1214 109.168 23.1313 109.134 23.1313C109.099 23.1313 109.069 23.1214 109.05 23.1018C109.03 23.0821 109.02 23.0575 109.02 23.0279V19.0169C109.02 18.9726 109.03 18.9431 109.055 18.9234C109.079 18.9037 109.104 18.8938 109.129 18.8938C109.143 18.8938 109.163 18.8938 109.178 18.9037C109.193 18.9086 109.208 18.9184 109.222 18.9381L112.024 22.7523L111.974 22.8754V19.012C111.974 18.9775 111.984 18.9529 112.009 18.9283C112.034 18.9086 112.058 18.8938 112.088 18.8938L112.093 18.8889Z" fill="white"/>
<path d="M115.999 19.1202C115.964 19.1202 115.94 19.1104 115.915 19.0858C115.89 19.0661 115.88 19.0365 115.88 19.0021C115.88 18.9676 115.89 18.943 115.915 18.9184C115.94 18.8987 115.969 18.884 115.999 18.884H118.948C118.983 18.884 119.007 18.8938 119.032 18.9184C119.057 18.943 119.066 18.9676 119.066 19.0021C119.066 19.0365 119.057 19.0661 119.032 19.0858C119.007 19.1054 118.978 19.1153 118.948 19.1153H115.999V19.1202ZM117.473 23.1263C117.439 23.1263 117.409 23.1165 117.385 23.0919C117.36 23.0673 117.35 23.0378 117.35 23.0082V19.0365H117.592V23.0082C117.592 23.0427 117.582 23.0673 117.557 23.0919C117.533 23.1165 117.503 23.1263 117.473 23.1263Z" fill="white"/>
<path d="M120.62 18.8889C120.655 18.8889 120.689 18.8988 120.709 18.9234C120.729 18.948 120.743 18.9775 120.743 19.012V22.9935C120.743 23.0279 120.724 23.0624 120.699 23.0821C120.674 23.1018 120.645 23.1165 120.615 23.1165C120.576 23.1165 120.541 23.1067 120.521 23.0821C120.497 23.0575 120.487 23.0279 120.487 22.9935V19.012C120.487 18.9775 120.497 18.9431 120.521 18.9234C120.546 18.8988 120.576 18.8889 120.61 18.8889H120.62ZM120.59 20.828H123.53L123.52 21.0692H120.556L120.59 20.828ZM123.52 18.8889C123.555 18.8889 123.589 18.8988 123.609 18.9234C123.633 18.948 123.643 18.9775 123.643 19.012V22.9935C123.643 23.0279 123.624 23.0624 123.599 23.0821C123.574 23.1018 123.545 23.1165 123.515 23.1165C123.476 23.1165 123.441 23.1067 123.421 23.0821C123.397 23.0575 123.387 23.0279 123.387 22.9935V19.012C123.387 18.9775 123.397 18.9431 123.421 18.9234C123.446 18.9037 123.476 18.8889 123.51 18.8889H123.52Z" fill="white"/>
<path d="M125.586 18.8889H127.875C127.909 18.8889 127.934 18.8988 127.959 18.9234C127.983 18.948 127.993 18.9775 127.993 19.007C127.993 19.0415 127.983 19.071 127.959 19.0956C127.934 19.1202 127.905 19.1301 127.875 19.1301H125.66L125.72 19.0267V20.9018L125.646 20.8182H127.599C127.633 20.8182 127.658 20.828 127.683 20.8526C127.707 20.8772 127.717 20.9068 127.717 20.9363C127.717 20.9707 127.707 21.0003 127.683 21.0249C127.658 21.0495 127.628 21.0593 127.599 21.0593H125.656L125.715 20.9904V22.9098L125.69 22.8803H127.87C127.905 22.8803 127.929 22.8901 127.954 22.9147C127.978 22.9394 127.988 22.9689 127.988 22.9984C127.988 23.0329 127.978 23.0624 127.954 23.087C127.929 23.1116 127.9 23.1214 127.87 23.1214H125.582C125.547 23.1214 125.522 23.1116 125.498 23.087C125.473 23.0624 125.463 23.0329 125.463 23.0033V19.007C125.463 18.9726 125.473 18.948 125.498 18.9234C125.522 18.8988 125.552 18.8889 125.582 18.8889H125.586Z" fill="white"/>
<path d="M133.261 21.0101C133.261 21.3349 133.211 21.6253 133.113 21.896C133.014 22.1666 132.871 22.393 132.693 22.585C132.511 22.7769 132.299 22.9295 132.052 23.0328C131.806 23.1362 131.534 23.1903 131.238 23.1903C130.943 23.1903 130.671 23.1362 130.425 23.0328C130.178 22.9295 129.961 22.7769 129.784 22.585C129.601 22.393 129.463 22.1617 129.364 21.896C129.266 21.6302 129.216 21.3349 129.216 21.0101C129.216 20.6853 129.266 20.3949 129.364 20.1242C129.463 19.8584 129.606 19.6271 129.784 19.4352C129.961 19.2432 130.178 19.0907 130.425 18.9873C130.671 18.884 130.943 18.8298 131.238 18.8298C131.534 18.8298 131.806 18.884 132.052 18.9873C132.299 19.0907 132.516 19.2432 132.693 19.4352C132.871 19.6271 133.014 19.8584 133.113 20.1242C133.211 20.39 133.261 20.6853 133.261 21.0101ZM133.004 21.0101C133.004 20.6213 132.93 20.2817 132.777 19.9913C132.624 19.7009 132.417 19.4746 132.151 19.3121C131.885 19.1497 131.579 19.071 131.234 19.071C130.888 19.071 130.583 19.1497 130.316 19.3121C130.05 19.4746 129.838 19.7009 129.69 19.9913C129.542 20.2817 129.463 20.6213 129.463 21.0101C129.463 21.3989 129.537 21.7385 129.69 22.0288C129.843 22.3192 130.05 22.5456 130.316 22.708C130.583 22.8704 130.888 22.9492 131.234 22.9492C131.579 22.9492 131.89 22.8704 132.151 22.708C132.417 22.5456 132.624 22.3192 132.777 22.0288C132.93 21.7385 133.004 21.3989 133.004 21.0101Z" fill="white"/>
<path d="M134.908 23.1264C134.868 23.1264 134.834 23.1165 134.814 23.0919C134.789 23.0673 134.78 23.0378 134.78 23.0082V19.0119C134.78 18.9775 134.789 18.9529 134.814 18.9283C134.839 18.9037 134.868 18.8938 134.898 18.8938H136.501C136.738 18.8938 136.95 18.943 137.127 19.0366C137.305 19.1301 137.448 19.2629 137.546 19.4254C137.645 19.5878 137.699 19.7797 137.699 19.9864C137.699 20.1734 137.665 20.3408 137.601 20.4884C137.532 20.6361 137.443 20.764 137.32 20.8624C137.201 20.9609 137.063 21.0347 136.91 21.079L136.629 21.0298C136.792 21.0298 136.945 21.0692 137.088 21.1528C137.236 21.2365 137.354 21.3546 137.448 21.517C137.542 21.6794 137.586 21.8714 137.586 22.1027C137.586 22.2995 137.596 22.4521 137.615 22.5555C137.635 22.6588 137.66 22.7326 137.689 22.7819C137.719 22.8311 137.754 22.8704 137.798 22.8951C137.823 22.9098 137.842 22.9295 137.852 22.9541C137.862 22.9787 137.867 23.0082 137.857 23.0378C137.847 23.0624 137.837 23.0821 137.818 23.0968C137.798 23.1116 137.778 23.1214 137.759 23.1264C137.739 23.1313 137.714 23.1264 137.689 23.1165C137.635 23.0821 137.576 23.0378 137.522 22.9689C137.468 22.9049 137.423 22.8065 137.384 22.6736C137.344 22.5407 137.329 22.3488 137.329 22.1027C137.329 21.9107 137.3 21.7631 137.241 21.6499C137.181 21.5367 137.108 21.4481 137.014 21.3891C136.925 21.33 136.826 21.2906 136.723 21.266C136.619 21.2463 136.526 21.2365 136.442 21.2365H134.967L135.021 21.1627V23.0082C135.021 23.0427 135.011 23.0673 134.987 23.0919C134.962 23.1165 134.933 23.1264 134.898 23.1264H134.908ZM134.977 20.9904H136.535C136.698 20.9756 136.846 20.9264 136.984 20.8428C137.122 20.764 137.236 20.6508 137.32 20.5032C137.403 20.3555 137.448 20.1882 137.448 19.9864C137.448 19.7403 137.359 19.5336 137.186 19.3712C137.009 19.2088 136.772 19.1251 136.476 19.1251H135.006L135.036 19.0808V21.0495L134.977 20.9806V20.9904Z" fill="white"/>
<path d="M141.882 18.8643C141.921 18.8643 141.951 18.8791 141.97 18.9086C141.99 18.9381 142 18.9627 142 18.9824C142 18.9972 142 19.0119 141.995 19.0267C141.995 19.0365 141.985 19.0513 141.975 19.0611L140.54 21.0101L140.594 20.8329V23.0082C140.594 23.0427 140.585 23.0673 140.56 23.0919C140.535 23.1165 140.506 23.1264 140.471 23.1264C140.432 23.1264 140.397 23.1165 140.377 23.0919C140.358 23.0673 140.343 23.0378 140.343 23.0082V20.8772L140.372 21.0052L138.952 19.0611C138.952 19.0611 138.937 19.0365 138.932 19.0267C138.932 19.0169 138.927 19.0021 138.927 18.9824C138.927 18.948 138.942 18.9233 138.972 18.8987C139.001 18.8741 139.026 18.8643 139.056 18.8643C139.1 18.8643 139.135 18.884 139.159 18.9184L140.506 20.7542L140.446 20.7443L141.783 18.9233C141.808 18.8889 141.842 18.8692 141.887 18.8692L141.882 18.8643Z" fill="white"/>
</svg>
