<svg width="120" height="18" viewBox="0 0 120 18" fill="none" xmlns="http://www.w3.org/2000/svg">
<path d="M0 11.6459L3.52959 10.7395C3.50748 13.0392 3.89541 14.5709 5.59187 14.5709C7.03506 14.5709 7.425 13.4568 7.425 11.5054V0.870728H10.9084V11.0634C10.9084 15.4753 9.1898 17.4959 5.70644 17.4959C2.22308 17.4959 0.0924608 15.2452 0 11.6459Z" fill="white"/>
<path d="M13.4731 14.1554C13.4731 10.9045 16.864 9.95327 20.669 9.58051V9.1385C20.669 8.14042 20.0961 7.53546 18.7896 7.53546C17.3002 7.53546 16.5444 8.27893 16.2691 9.37071L13.3365 8.72094C13.5194 6.91013 15.4208 5.16858 18.7675 5.16858C22.1142 5.16858 23.877 6.60867 23.877 9.67421V13.9232C23.877 14.5037 23.9453 14.6198 24.5644 14.6198H25.5734V17.1272H23.075C21.7926 17.1272 21.1273 16.4775 21.0127 15.4325C20.3936 16.4082 19.1112 17.5 17.0952 17.5C15.0791 17.5 13.4751 16.2005 13.4751 14.1554H13.4731ZM20.669 12.367V11.6235C18.5605 11.8781 16.7736 12.2977 16.7736 13.8295C16.7736 14.5954 17.2781 15.0842 18.263 15.0842C19.5233 15.0842 20.669 14.2491 20.669 12.367Z" fill="white"/>
<path d="M26.3292 14.131L29.2859 13.1797C29.3322 13.4343 29.6759 15.1311 31.899 15.1311C33.0447 15.1311 33.6396 14.6198 33.6396 13.97C33.6396 13.4364 33.3884 12.972 32.2186 12.7398L30.5925 12.4138C28.1865 11.927 26.7895 11.1143 26.7895 8.83705C26.7895 6.55979 28.6447 5.16858 31.7161 5.16858C34.5803 5.16858 36.0476 6.67793 36.5501 7.83896L33.8688 9.06925C33.5251 8.11802 32.701 7.4438 31.5553 7.4438C30.4095 7.4438 29.9291 7.93062 29.9291 8.55799C29.9291 9.18536 30.2729 9.46441 31.511 9.69662L33.0929 9.99808C35.2477 10.4156 37.0346 11.4137 37.0346 13.6197C37.0346 15.9418 35.0647 17.4511 31.7181 17.4511C29.0146 17.4511 26.8136 16.174 26.3332 14.131H26.3292Z" fill="white"/>
<path d="M38.5421 11.3221C38.5421 7.60675 41.0626 5.16858 44.5681 5.16858C48.0736 5.16858 50.5941 7.60675 50.5941 11.3221C50.5941 15.0374 48.0736 17.498 44.5681 17.498C41.0626 17.498 38.5421 14.8968 38.5421 11.3221ZM47.2032 11.3689C47.2032 8.97759 46.1259 7.7697 44.5681 7.7697C43.0103 7.7697 41.933 8.97759 41.933 11.3689C41.933 13.7602 43.0103 14.8744 44.5681 14.8744C46.1259 14.8744 47.2032 13.7602 47.2032 11.3689Z" fill="white"/>
<path d="M52.978 17.1272V5.51689H56.1398V7.30529C56.6202 6.51497 57.7216 5.16858 59.8281 5.16858C62.4854 5.16858 63.609 6.81643 63.609 9.3483V17.1272H60.3548V10.0673C60.3548 8.53558 59.6452 7.88378 58.5216 7.88378C56.2523 7.88378 56.2302 10.3912 56.2302 11.6215V17.1252H52.976L52.978 17.1272Z" fill="white"/>
<path d="M71.3998 8.97556C71.3998 4.1929 74.7907 0.5 79.7414 0.5C83.5906 0.5 86.294 2.63671 87.1423 5.51486L84.0026 6.74514C83.3152 4.77138 81.9866 3.42499 79.6952 3.42499C76.8088 3.42499 75.044 5.4456 75.044 8.97556C75.044 12.5055 76.7625 14.5485 79.6952 14.5485C81.9866 14.5485 83.4077 13.1553 84.0951 11.2039L87.1664 12.4587C85.9986 15.5935 83.5685 17.498 79.6972 17.498C74.6781 17.498 71.4018 13.9212 71.4018 8.97556H71.3998Z" fill="white"/>
<path d="M89.3412 17.1272V0.872742H92.5954V7.30528C93.0758 6.51496 94.1311 5.16857 96.33 5.16857C98.8506 5.16857 99.9722 6.81642 99.9722 9.3483V17.1272H96.718V10.0673C96.718 8.53557 96.0084 7.88377 94.8848 7.88377C92.6155 7.88377 92.5934 10.3912 92.5934 11.6215V17.1252H89.3392L89.3412 17.1272Z" fill="white"/>
<path d="M102.242 11.3221C102.242 7.60675 104.762 5.16858 108.268 5.16858C111.773 5.16858 114.294 7.60675 114.294 11.3221C114.294 15.0374 111.773 17.498 108.268 17.498C104.762 17.498 102.242 14.8968 102.242 11.3221ZM110.903 11.3689C110.903 8.97759 109.825 7.7697 108.268 7.7697C106.71 7.7697 105.632 8.97759 105.632 11.3689C105.632 13.7602 106.71 14.8744 108.268 14.8744C109.825 14.8744 110.903 13.7602 110.903 11.3689Z" fill="white"/>
<path d="M116.541 3.93832V0.825928H120V3.93832H116.541ZM116.655 17.1273V5.51692H119.91V17.1273H116.655Z" fill="white"/>
</svg>
