<svg width="66" height="30" viewBox="0 0 66 30" fill="none" xmlns="http://www.w3.org/2000/svg">
<path d="M0.110153 10.6042L3.62695 9.71585C3.60492 11.9696 3.99145 13.4708 5.68175 13.4708C7.11971 13.4708 7.50824 12.3789 7.50824 10.4664V0.0458984H10.979V10.0353C10.979 14.3592 9.26664 16.3395 5.79591 16.3395C2.32517 16.3395 0.202279 14.1316 0.110153 10.6042Z" fill="white"/>
<path d="M14.0612 3.05031V0H17.5079V3.05031H14.0612ZM14.1753 15.9762V4.59742H17.4178V15.9762H14.1753Z" fill="white"/>
<path d="M20.522 15.9762V0.0458984H23.7644V6.35013C24.2431 5.57558 25.2945 4.25604 27.4855 4.25604C29.9969 4.25604 31.1144 5.87103 31.1144 8.35239V15.9762H27.872V9.05708C27.872 7.55588 27.165 6.91707 26.0455 6.91707C23.7844 6.91707 23.7624 9.37449 23.7624 10.5802V15.9742H20.52L20.522 15.9762Z" fill="white"/>
<path d="M33.3755 10.2868C33.3755 6.64558 35.8869 4.25604 39.3797 4.25604C42.8725 4.25604 45.3839 6.64558 45.3839 10.2868C45.3839 13.928 42.8725 16.3395 39.3797 16.3395C35.8869 16.3395 33.3755 13.7902 33.3755 10.2868ZM42.0053 10.3327C42.0053 7.98907 40.9318 6.80528 39.3797 6.80528C37.8276 6.80528 36.7541 7.98907 36.7541 10.3327C36.7541 12.6763 37.8276 13.7683 39.3797 13.7683C40.9318 13.7683 42.0053 12.6763 42.0053 10.3327Z" fill="white"/>
<path d="M4.87665 27.9538L4.30587 26.1172H1.87255L1.30178 27.9538H0L2.40328 20.9669H3.77515L6.16841 27.9538H4.87665ZM2.19299 25.0692H3.97542L3.4447 23.3823C3.33455 23.0629 3.18434 22.524 3.08421 22.1447H3.06418C2.95403 22.5739 2.84388 22.9432 2.7137 23.3823L2.19299 25.0692Z" fill="white"/>
<path d="M9.76331 25.3387L11.5658 27.9538H10.274L9.63314 27.0056C9.4629 26.7461 9.2426 26.3768 9.10241 26.1372C8.96222 26.3768 8.82203 26.6263 8.5817 26.9956L7.94083 27.9538H6.65908L8.46154 25.3387L6.79927 22.9631H8.08102L8.70187 23.8615C8.83204 24.0611 9.00228 24.3505 9.12244 24.5502C9.23259 24.3805 9.41284 24.0711 9.55303 23.8714L10.1538 22.9631H11.4356L9.76331 25.3387Z" fill="white"/>
<path d="M14.67 27.0056H15.5612V27.9538H12.5071V27.0056H13.4784V23.9113H12.6673V22.9631H14.67V27.0056ZM14.65 20.877V22.1746H13.4383V20.877H14.65Z" fill="white"/>
<path d="M21.5995 25.7879H17.8744C17.8944 26.7162 18.315 27.1853 19.1461 27.1853C19.8771 27.1853 20.2576 26.8759 20.3678 26.267L21.5193 26.3568C21.259 27.5047 20.4379 28.0736 19.1561 28.0736C18.3751 28.0736 17.7742 27.8241 17.3437 27.3849C16.883 26.9158 16.6727 26.257 16.6727 25.4485C16.6727 24.64 16.893 24.0212 17.3437 23.5421C17.7843 23.0829 18.3851 22.8434 19.1461 22.8434C19.9071 22.8434 20.6081 23.1428 21.0287 23.6718C21.4292 24.1709 21.6295 24.9295 21.5995 25.7879ZM18.1347 24.1709C17.9745 24.3905 17.9044 24.66 17.8844 24.8995H20.3878C20.3678 24.6201 20.2777 24.3306 20.1074 24.121C19.8871 23.8515 19.5867 23.7317 19.1461 23.7317C18.6755 23.7317 18.335 23.8914 18.1347 24.1709Z" fill="white"/>
<path d="M29.9108 21.985H29.1097V26.9357H29.9108V27.9538H27.0469V26.9357H27.858V21.985H27.0469V20.9669H29.9108V21.985Z" fill="white"/>
<path d="M35.9891 24.9395V27.9538H34.7874V25.0293C34.7874 24.5702 34.7674 24.2607 34.5071 24.0112C34.2868 23.7916 34.0464 23.7717 33.746 23.7717C33.3154 23.7717 32.6545 24.0112 32.6545 25.2189V27.9538H31.4729V22.9632H32.6545V23.7118C32.9149 23.1129 33.4456 22.8434 34.1566 22.8434C34.8075 22.8434 35.228 23.0031 35.5585 23.3524C35.959 23.7617 35.9891 24.3606 35.9891 24.9395Z" fill="white"/>
<path d="M39.4438 22.9631H40.8157V23.9113H39.4438V27.9538H38.2622V23.9113H37.2908V22.9631H38.2622V22.2544C38.2622 21.3861 38.7729 20.9169 39.9445 20.9169C40.2649 20.9169 40.5853 20.9569 40.7656 20.9868L40.7456 21.945C40.5052 21.9051 40.2649 21.8851 40.0947 21.8851C39.634 21.8851 39.4438 21.975 39.4438 22.3044V22.9631ZM44.1702 27.0056H45.0614V27.9538H42.0073V27.0056H42.9786V23.9113H42.1675V22.9631H44.1702V27.0056ZM44.1502 20.877V22.1746H42.9385V20.877H44.1502Z" fill="white"/>
<path d="M50.9495 24.9395V27.9538H49.7478V25.0293C49.7478 24.5702 49.7278 24.2607 49.4675 24.0112C49.2472 23.7916 49.0068 23.7717 48.7064 23.7717C48.2758 23.7717 47.6149 24.0112 47.6149 25.2189V27.9538H46.4333V22.9632H47.6149V23.7118C47.8753 23.1129 48.406 22.8434 49.117 22.8434C49.7679 22.8434 50.1884 23.0031 50.5189 23.3524C50.9194 23.7617 50.9495 24.3606 50.9495 24.9395Z" fill="white"/>
<path d="M54.4142 27.0056H55.3054V27.9538H52.2513V27.0056H53.2226V23.9113H52.4115V22.9631H54.4142V27.0056ZM54.3942 20.877V22.1746H53.1825V20.877H54.3942Z" fill="white"/>
<path d="M57.4684 26.6163V23.9114H56.447V22.9632H57.4684V21.5757H58.63V22.9632H60.0319V23.9114H58.63V26.5065C58.63 26.8958 58.8502 26.9956 59.3209 26.9956C59.5212 26.9956 59.7615 26.9657 60.0018 26.9058L60.0218 27.9139C59.7815 27.9738 59.4411 28.0037 59.1707 28.0037C58.0692 28.0037 57.4684 27.6344 57.4684 26.6163Z" fill="white"/>
<path d="M64.7583 22.9631H66L64.0674 28.373C63.6668 29.5309 63.2262 30 62.355 30C62.1147 30 61.7943 29.9501 61.564 29.8802L61.584 28.8322C61.7642 28.8821 61.9745 28.942 62.1848 28.942C62.6254 28.942 62.7756 28.6725 63.036 27.9438L61.1033 22.9631H62.3851L63.1962 25.3786C63.3063 25.708 63.4465 26.1572 63.5867 26.6463C63.7169 26.1871 63.8371 25.8078 63.9973 25.3287L64.7583 22.9631Z" fill="white"/>
</svg>
