<svg width="142" height="38" viewBox="0 0 142 38" fill="none" xmlns="http://www.w3.org/2000/svg">
<g clip-path="url(#clip0_2354_8989)">
<path d="M25.9989 30.2492C32.0921 30.2492 37.0406 25.3114 37.1401 19.1843V19C37.1401 29.3529 28.8278 37.75 18.5701 37.75C8.31235 37.75 0 29.3571 0 19H14.8577C14.8577 25.2109 19.8476 30.2492 25.9989 30.2492Z" fill="url(#paint0_linear_2354_8989)"/>
<path d="M11.1412 30.2492C5.05212 30.2492 0.0995491 25.3156 0 19.1843V19C0 29.3529 8.31235 37.75 18.5701 37.75C28.8278 37.75 37.1401 29.3529 37.1401 19H22.2866C22.2866 25.2109 17.2967 30.2492 11.1454 30.2492H11.1412Z" fill="url(#paint1_linear_2354_8989)"/>
<path d="M11.1412 7.75084C5.05212 7.75084 0.0995491 12.6886 0 18.8157V19C0 8.64709 8.3165 0.25 18.5701 0.25C28.8236 0.25 37.1401 8.64709 37.1401 19H22.2866C22.2866 12.7849 17.2967 7.75084 11.1454 7.75084H11.1412Z" fill="url(#paint2_linear_2354_8989)"/>
<path d="M25.9989 7.75084C32.0921 7.75084 37.0406 12.6886 37.1401 18.8157V19C37.1401 8.6429 28.8278 0.25 18.5701 0.25C8.31235 0.25 0 8.64709 0 19H14.8577C14.8577 12.7849 19.8476 7.75084 25.9989 7.75084V7.75084Z" fill="url(#paint3_linear_2354_8989)"/>
<path d="M46.4231 26.7312L46.5185 13.6602C46.5185 13.6183 46.5268 13.5806 46.5517 13.5513C46.5724 13.5136 46.5973 13.4969 46.6263 13.4969C46.6968 13.4969 46.7425 13.5346 46.7632 13.6058L49.9654 25.2528C50.0939 25.7051 50.3262 26.0611 50.6705 26.3249C51.0148 26.5888 51.4171 26.7228 51.8817 26.7228H51.9646C52.4209 26.7228 52.8233 26.593 53.1758 26.3249C53.5284 26.0527 53.7607 25.6925 53.881 25.2402L57.0292 13.6058C57.0499 13.5346 57.0997 13.4969 57.1785 13.4969C57.2076 13.4969 57.2324 13.5136 57.2532 13.5513C57.2739 13.5806 57.2864 13.6141 57.2864 13.6602V26.7312H59.2359V13.4466C59.2359 13.032 59.1654 12.6593 59.016 12.3326C58.8667 11.9975 58.6635 11.7337 58.3939 11.5494C58.1325 11.3568 57.8422 11.2604 57.5187 11.2604H57.2864C56.8301 11.2604 56.4278 11.3945 56.0876 11.6583C55.7517 11.9138 55.5194 12.2656 55.3908 12.7095L52.0393 24.411C52.0186 24.4822 51.9729 24.5199 51.9024 24.5199C51.8236 24.5199 51.778 24.4864 51.7572 24.411L48.5219 12.743C48.3975 12.2865 48.1569 11.9263 47.8043 11.6583C47.46 11.3945 47.0618 11.2604 46.6056 11.2604C46.2281 11.2604 45.8839 11.3526 45.5852 11.541C45.2866 11.7295 45.0418 11.985 44.8676 12.3116C44.6934 12.6341 44.6022 13.0027 44.6022 13.4173L44.4777 26.7354H46.4272L46.4231 26.7312Z" fill="white"/>
<path d="M69.0829 20.1685C69.0829 19.4397 68.8382 18.7697 68.3446 18.1624C67.8552 17.5635 67.1459 17.2619 66.2251 17.2619C65.3042 17.2619 64.5949 17.5886 64.064 18.2378C63.5455 18.8869 63.2842 19.5319 63.2842 20.1685V20.2774H69.0788V20.1685H69.0829ZM71.2191 21.1778C71.2108 21.3411 71.2067 21.4668 71.2067 21.5547V21.9191H63.2842V22.0363C63.2842 22.8656 63.5538 23.5817 64.0847 24.1806C64.6198 24.7795 65.325 25.0811 66.2043 25.0811C67.5316 25.0811 68.4483 24.5701 68.9544 23.5482H70.9868C70.7213 24.6204 70.1489 25.458 69.282 26.0569C68.411 26.6558 67.3865 26.9531 66.2043 26.9448C64.6862 26.9448 63.475 26.4171 62.5708 25.3575C61.6665 24.2979 61.2103 22.8991 61.2103 21.1527C61.2103 19.4062 61.6499 18.0158 62.5251 16.9688C63.4086 15.926 64.6406 15.4024 66.2126 15.4024C67.7847 15.4024 69.0166 15.926 69.9001 16.9688C70.7794 18.0284 71.2149 19.4272 71.2149 21.1736L71.2191 21.1778Z" fill="white"/>
<path d="M72.6377 26.7312H74.6162V20.3527C74.6162 19.5738 74.8858 18.8785 75.4292 18.2713C75.956 17.664 76.7192 17.3583 77.7271 17.3583H78.0548C78.1129 17.3666 78.2207 17.3834 78.3825 17.4127V15.4485L77.9386 15.3941L77.7479 15.3815C76.968 15.3815 76.2754 15.6495 75.6615 16.1856C75.0559 16.7217 74.6784 17.174 74.5208 17.5467H74.3424L74.5208 15.637H72.6335V26.727L72.6377 26.7312Z" fill="white"/>
<path d="M81.4561 26.7312H79.5065V15.6202H81.4561V26.7312ZM79.2038 12.542C79.2038 12.1902 79.3282 11.8928 79.5729 11.6416C79.8259 11.3903 80.1246 11.2646 80.4689 11.2646C80.8131 11.2646 81.1076 11.3903 81.3524 11.6416C81.5971 11.8928 81.7215 12.1902 81.7215 12.542C81.7215 12.8938 81.5971 13.1953 81.3524 13.455C81.1076 13.7063 80.8131 13.8319 80.4689 13.8319C80.1246 13.8319 79.8259 13.7063 79.5729 13.455C79.3282 13.1953 79.2038 12.8938 79.2038 12.542Z" fill="white"/>
<path d="M86.4708 12.4373H84.5753V15.6244H82.3852V17.2661H84.4093V23.6027C84.4093 24.6036 84.6748 25.3784 85.2016 25.9313C85.7284 26.4673 86.446 26.7354 87.3502 26.7354C87.7028 26.7354 88.0014 26.7019 88.2544 26.639C88.5199 26.5972 88.69 26.5595 88.7605 26.5302V24.6958C88.69 24.7251 88.5655 24.7502 88.3789 24.7712C88.1673 24.7837 88.0263 24.7921 87.9475 24.7921C87.4083 24.7921 87.0225 24.6706 86.7985 24.4277C86.5828 24.1806 86.4708 23.7953 86.4708 23.2802V17.2619H88.7563V15.6202H86.4708V12.4331V12.4373Z" fill="white"/>
<path d="M105.812 21.894C105.812 22.7735 105.364 23.8121 104.473 25.0057C104.033 25.5543 103.411 26.0192 102.61 26.3878C101.81 26.7605 100.905 26.9448 99.8934 26.9448C97.7033 26.9448 96.0732 26.2286 95.0072 24.8005C93.937 23.3723 93.4061 21.4542 93.4061 19.0544C93.4061 16.6547 93.9827 14.6988 95.1358 13.2414C96.293 11.784 97.8817 11.0552 99.8975 11.0552C100.939 11.0552 101.868 11.2521 102.689 11.6457C103.519 12.0394 104.141 12.5169 104.556 13.0823C105.41 14.3177 105.833 15.3271 105.821 16.106H103.767C103.091 14.0539 101.801 12.9943 99.9017 12.9189C98.4748 12.9189 97.3798 13.455 96.6166 14.5271C95.8575 15.5993 95.4759 17.0902 95.4676 19C95.4676 20.9139 95.8492 22.4091 96.6166 23.4812C97.3881 24.5534 98.4873 25.0853 99.9017 25.0769C100.997 25.0769 101.859 24.746 102.482 24.0801C103.116 23.41 103.544 22.6771 103.767 21.894H105.821H105.812Z" fill="white"/>
<path d="M109.135 26.7312H107.185V15.6202H109.135V26.7312ZM106.878 12.542C106.878 12.1902 107.003 11.8928 107.248 11.6416C107.501 11.3903 107.799 11.2646 108.144 11.2646C108.488 11.2646 108.782 11.3903 109.027 11.6416C109.272 11.8928 109.396 12.1902 109.396 12.542C109.396 12.8938 109.272 13.1953 109.027 13.455C108.782 13.7063 108.484 13.8319 108.144 13.8319C107.803 13.8319 107.501 13.7063 107.248 13.455C107.003 13.1953 106.878 12.8938 106.878 12.542Z" fill="white"/>
<path d="M110.981 26.7312H112.959V20.3527C112.959 19.5738 113.229 18.8785 113.772 18.2713C114.299 17.664 115.066 17.3583 116.07 17.3583H116.398C116.452 17.3666 116.564 17.3834 116.725 17.4127V15.4485L116.282 15.3941L116.091 15.3815C115.311 15.3815 114.618 15.6495 114.004 16.1856C113.399 16.7217 113.021 17.174 112.868 17.5467H112.69L112.868 15.637H110.981V26.727V26.7312Z" fill="white"/>
<path d="M124.698 19.3769C124.233 18.0451 123.287 17.3415 121.865 17.2661C120.911 17.2578 120.152 17.6179 119.588 18.3508C119.023 19.0796 118.745 20.0219 118.745 21.182C118.745 22.3421 119.028 23.2802 119.588 24.0006C120.152 24.7209 120.907 25.0853 121.865 25.0853C123.292 25.0141 124.233 24.3147 124.698 22.9829H126.751C126.465 24.21 125.896 25.1816 125.054 25.8894C124.212 26.5972 123.146 26.949 121.865 26.949C120.272 26.949 119.023 26.4255 118.123 25.3742C117.232 24.323 116.788 22.92 116.788 21.1694C116.788 19.4188 117.232 18.02 118.123 16.9772C119.023 15.9343 120.268 15.4066 121.865 15.4024C123.163 15.4024 124.233 15.7584 125.079 16.4746C125.921 17.1908 126.481 18.1582 126.755 19.3811H124.702L124.698 19.3769Z" fill="white"/>
<path d="M130.14 26.7312H128.19V11.2688H130.14V26.7312Z" fill="white"/>
<path d="M139.531 20.1685C139.531 19.4397 139.286 18.7697 138.792 18.1624C138.303 17.5635 137.593 17.2619 136.677 17.2619C135.76 17.2619 135.042 17.5886 134.516 18.2378C133.993 18.8869 133.736 19.5319 133.736 20.1685V20.2774H139.531V20.1685V20.1685ZM141.671 21.1778C141.663 21.3411 141.658 21.4668 141.658 21.5547V21.9191H133.736V22.0363C133.736 22.8656 134.001 23.5817 134.536 24.1806C135.072 24.7795 135.777 25.0811 136.656 25.0811C137.983 25.0811 138.9 24.5701 139.406 23.5482H141.439C141.173 24.6204 140.601 25.458 139.73 26.0569C138.859 26.6558 137.834 26.9531 136.652 26.9448C135.134 26.9448 133.923 26.4171 133.018 25.3575C132.114 24.2979 131.662 22.8991 131.662 21.1527C131.662 19.4062 132.102 18.0158 132.977 16.9688C133.86 15.926 135.092 15.4024 136.664 15.4024C138.236 15.4024 139.464 15.926 140.352 16.9688C141.231 18.0284 141.671 19.4272 141.671 21.1736V21.1778Z" fill="white"/>
</g>
<defs>
<linearGradient id="paint0_linear_2354_8989" x1="18.5576" y1="18.6733" x2="19.1454" y2="37.423" gradientUnits="userSpaceOnUse">
<stop stop-color="#A5A5A5"/>
<stop offset="1" stop-color="#7D7D7D"/>
</linearGradient>
<linearGradient id="paint1_linear_2354_8989" x1="18.5701" y1="19" x2="18.5701" y2="37.7542" gradientUnits="userSpaceOnUse">
<stop stop-color="#8F8F8F"/>
<stop offset="1" stop-color="#BABABA"/>
</linearGradient>
<linearGradient id="paint2_linear_2354_8989" x1="18.5701" y1="19" x2="18.5701" y2="1.04573" gradientUnits="userSpaceOnUse">
<stop stop-color="#8F8F8F"/>
<stop offset="1" stop-color="#747474"/>
</linearGradient>
<linearGradient id="paint3_linear_2354_8989" x1="18.5701" y1="19" x2="18.5701" y2="0.25" gradientUnits="userSpaceOnUse">
<stop stop-color="#A4A4A4"/>
<stop offset="1" stop-color="#C5C5C5"/>
</linearGradient>
<clipPath id="clip0_2354_8989">
<rect width="141.667" height="37.5" fill="white" transform="translate(0 0.25)"/>
</clipPath>
</defs>
</svg>
