<svg width="133" height="24" viewBox="0 0 133 24" fill="none" xmlns="http://www.w3.org/2000/svg">
<g clip-path="url(#clip0_3175_13617)">
<path d="M0 0.352348C0.115523 0.479424 0.242599 0.600724 0.340794 0.739352C4.46498 6.45776 8.58917 12.182 12.7134 17.9004C12.7884 18.0101 12.8751 18.1083 12.9848 18.2585C17.317 12.2859 21.6318 6.34224 25.9466 0.392782L26.039 0.415886C26.039 1.05704 26.039 1.6982 26.039 2.33935C26.039 3.16534 26.2065 4.0491 25.9639 4.8C25.7271 5.53358 25.0744 6.1343 24.5949 6.79278C20.8635 11.9625 17.1321 17.1264 13.4007 22.2903C13.2736 22.4693 13.1408 22.6484 12.9733 22.8794C9.52491 18.1487 6.09386 13.4527 2.66282 8.7509L2.56462 8.76823V24H0V0.352348Z" fill="white"/>
<path d="M124.864 24C124.638 23.948 124.413 23.8903 124.188 23.8498C121.409 23.3184 119.128 21.1177 118.573 18.4318C117.955 15.4397 119.087 12.5863 121.548 10.9343C121.658 10.8592 121.762 10.7841 121.848 10.7264C121.456 10.27 121.028 9.85415 120.699 9.37473C118.192 5.72996 120.375 0.739349 124.754 0.0866419C124.852 0.0693134 124.95 0.0346563 125.048 0.00577545H126.29C126.417 0.0404325 126.539 0.0750895 126.666 0.10397C129.051 0.554512 130.692 1.92347 131.402 4.22816C132.13 6.60217 131.564 8.71047 129.721 10.4318C129.617 10.53 129.513 10.6224 129.404 10.7206C131.258 12.1531 132.055 13.1928 132.546 14.8332C132.661 15.226 132.742 15.6303 132.835 16.0347V17.6289C132.806 17.756 132.765 17.8773 132.748 18.0043C132.286 20.9386 130.01 23.2895 127.093 23.844C126.851 23.8903 126.614 23.948 126.371 24H124.864ZM120.78 16.8491C120.786 19.5523 122.871 21.6087 125.609 21.6087C128.375 21.6087 130.466 19.5523 130.461 16.826C130.461 14.1458 128.214 11.9856 125.447 12.0087C122.853 12.026 120.774 14.1805 120.78 16.8491ZM121.929 6.013C121.918 8.04621 123.518 9.63466 125.591 9.64621C127.682 9.66354 129.334 8.06931 129.34 6.04188C129.34 3.94513 127.74 2.32202 125.661 2.31624C123.587 2.31624 121.941 3.93935 121.929 6.013Z" fill="white"/>
<path d="M30.1112 24V0H46.1401L47.6245 2.57617H32.7278V21.4123H33.2303C37.3892 21.4123 41.548 21.4123 45.7126 21.4065C46.0534 21.4065 46.2383 21.5047 46.4 21.8108C46.7928 22.5502 47.226 23.2722 47.6419 24H30.1054H30.1112Z" fill="white"/>
<path d="M91.0383 24C90.9979 23.8614 90.9748 23.717 90.9112 23.5899C87.8672 16.9935 84.8289 10.3913 81.7675 3.80072C81.6 3.43682 81.5711 3.14224 81.7618 2.77256C82.1776 1.95812 82.5358 1.12058 82.9459 0.242599C83.021 0.358123 83.0845 0.427437 83.1249 0.51408C86.735 8.34079 90.3509 16.1733 93.961 24H91.0383Z" fill="white"/>
<path d="M72 0V2.55884C71.8325 2.5704 71.6939 2.58195 71.5552 2.58195C65.5711 2.58195 59.5812 2.58195 53.5971 2.58773C53.2967 2.58773 53.1177 2.50686 52.9733 2.23538C52.5689 1.48448 52.1357 0.745126 51.7198 0H72Z" fill="white"/>
<path d="M114.241 0V2.58773C114.056 2.58773 113.906 2.58773 113.75 2.58773C107.778 2.58773 101.805 2.58773 95.8325 2.5935C95.5322 2.5935 95.3531 2.51264 95.2087 2.24116C94.8101 1.48448 94.3769 0.750902 93.961 0.00577617C100.719 0.00577617 107.483 0.00577617 114.241 0.00577617V0Z" fill="white"/>
<path d="M72 24C73.6 20.5054 75.2058 17.0108 76.8116 13.5162C77.0368 13.0195 77.1639 12.3437 77.5509 12.1011C77.961 11.8469 78.6311 12.0144 79.1856 12.0029C79.5495 11.9971 79.9134 12.0029 80.3581 12.0029C80.2253 12.3032 80.1213 12.5343 80.0116 12.7711C78.3191 16.4217 76.6267 20.0722 74.9343 23.717C74.8939 23.8094 74.865 23.9076 74.8303 24.0058H71.9942L72 24Z" fill="white"/>
<path d="M60.5747 24V12.8578H63.1451V24H60.5747Z" fill="white"/>
<path d="M102.816 24V12.8578H105.386V24H102.816Z" fill="white"/>
<path d="M23.4686 24C23.457 23.8845 23.4339 23.7689 23.4339 23.6534C23.4339 20.9733 23.4339 18.2931 23.4339 15.613C23.4339 15.5032 23.4513 15.3935 23.4686 15.1682C24.3292 16.6989 25.1379 18.1199 25.9292 19.5581C26.0101 19.7025 25.9986 19.8989 25.9986 20.0722C26.0159 21.3834 26.0217 22.6888 26.0332 24H23.4628H23.4686Z" fill="white"/>
<path d="M47.6303 13.3545C47.3935 13.3545 47.2664 13.3545 47.1336 13.3545C44.1415 13.3545 41.1437 13.3545 38.1516 13.3603C37.8686 13.3603 37.6953 13.291 37.5567 13.031C37.1639 12.2975 36.7365 11.5754 36.2975 10.8072C36.4939 10.7957 36.6209 10.7841 36.748 10.7841C39.7401 10.7841 42.7379 10.7841 45.73 10.7783C46.0534 10.7783 46.2325 10.8765 46.3827 11.1596C46.7639 11.87 47.174 12.5632 47.6245 13.3545H47.6303Z" fill="white"/>
</g>
<defs>
<clipPath id="clip0_3175_13617">
<rect width="132.835" height="24" fill="white"/>
</clipPath>
</defs>
</svg>
