<svg width="123" height="30" viewBox="0 0 123 30" fill="none" xmlns="http://www.w3.org/2000/svg">
<g clip-path="url(#clip0_3175_13481)">
<path d="M122.192 21.0252C122.13 21.3495 122.08 21.6794 122.002 22.0037C121.415 24.5536 119.128 26.589 116.522 26.8854C115.376 27.014 114.224 26.9357 113.072 26.9413C112.16 26.9413 111.249 26.9972 110.337 26.891C107.122 26.5163 104.723 23.8378 104.723 20.6002C104.723 16.904 104.723 13.2078 104.723 9.51165C104.723 8.75117 104.27 8.25909 103.504 8.2535C102.073 8.24232 100.636 8.24232 99.2041 8.2535C98.5667 8.2535 98.1752 8.58342 98.0131 9.19292C97.8956 9.63467 97.5322 9.86394 97.1016 9.77447C96.699 9.685 96.4753 9.29917 96.5704 8.84064C96.8052 7.69991 97.8118 6.80522 98.986 6.78286C100.557 6.7549 102.134 6.74931 103.711 6.78286C105.126 6.81641 106.205 7.97391 106.205 9.39423C106.205 13.0792 106.205 16.7642 106.205 20.4492C106.205 22.9208 107.715 24.8052 110.13 25.3476C110.472 25.4259 110.813 25.4595 111.165 25.4595C112.675 25.4595 114.185 25.4595 115.694 25.4595C118.267 25.4483 120.727 23.357 120.705 20.4548C120.665 15.534 120.693 10.6132 120.693 5.69246C120.693 5.11091 120.414 4.69152 119.916 4.49581C119.435 4.31128 118.893 4.4343 118.546 4.81454C118.306 5.07736 118.239 5.39609 118.239 5.74278C118.239 10.5797 118.205 15.411 118.261 20.2479C118.278 21.9814 117.008 23.1445 115.392 23.1109C114.045 23.083 112.697 23.1109 111.355 23.1053C110.052 23.0941 109.085 22.3896 108.766 21.2377C108.693 20.9748 108.671 20.7064 108.671 20.4324C108.671 16.7363 108.643 13.0401 108.682 9.3439C108.71 6.83318 106.692 4.71389 104.198 4.43989C102.973 4.30569 101.748 4.40075 100.518 4.38957C99.7186 4.38397 98.9078 4.32246 98.1193 4.51259C96.2572 4.95993 94.9432 6.04474 94.3113 7.88444C94.1324 8.39889 93.7745 8.62256 93.3327 8.48276C92.9022 8.34297 92.7344 7.94036 92.8966 7.42032C93.6682 4.94875 96.0671 3.0699 98.6561 2.95247C100.457 2.8686 102.263 2.85182 104.058 2.95247C107.346 3.13141 110.198 5.85462 110.17 9.38304C110.136 13.0569 110.164 16.7307 110.164 20.4101C110.164 21.1985 110.561 21.6235 111.355 21.6291C112.747 21.6403 114.134 21.6403 115.527 21.6291C116.354 21.6235 116.779 21.1706 116.779 20.343C116.779 15.4949 116.802 10.6524 116.768 5.80429C116.757 4.19945 117.881 3.09786 119.156 2.95807C120.872 2.77354 122.069 4.04847 122.17 5.27866C122.17 5.30662 122.203 5.33458 122.22 5.35695V21.0308L122.192 21.0252Z" fill="white"/>
<path d="M74.4324 30C73.8788 29.9161 73.3197 29.8434 72.7661 29.7484C66.85 28.7251 61.9627 23.9441 60.8052 18.0615C60.2684 15.3327 60.4026 12.6542 61.3308 10.0261C61.7782 8.76794 62.6617 7.93476 63.9422 7.55452C66.4082 6.8164 68.9301 6.3411 71.4911 6.05592C73.8565 5.7931 76.233 5.726 78.6095 5.87698C80.8854 6.02237 83.1389 6.36347 85.342 6.96738C85.795 7.0904 86.0186 7.41473 85.9236 7.79497C85.8173 8.21994 85.4706 8.41007 84.9897 8.28705C82.0988 7.52097 79.1575 7.16869 76.1715 7.16869C72.1454 7.16869 68.1976 7.74464 64.3281 8.87419C63.4557 9.12582 62.8574 9.71295 62.5946 10.5797C61.0121 15.6962 61.8956 20.3653 65.5527 24.2852C69.1761 28.1715 73.767 29.4967 78.9115 28.1771C84.1118 26.8406 87.4501 23.4073 88.7866 18.2181C90.7269 10.6859 85.7446 2.97484 78.0895 1.60485C73.4427 0.77167 69.3774 2.03542 65.9385 5.28425C65.5974 5.60858 65.1892 5.64772 64.8984 5.36813C64.5965 5.07735 64.6188 4.65238 64.9711 4.31128C67.3364 2.00746 70.1435 0.564774 73.4259 0.150981C78.4306 -0.486484 82.7642 0.961792 86.3206 4.55173C88.7362 6.98975 90.1174 9.96459 90.4585 13.3812C90.9115 17.9105 89.603 21.8919 86.5051 25.2358C84.0503 27.8863 80.9916 29.424 77.4017 29.8938C77.15 29.9273 76.8816 29.8882 76.6468 30.0056H74.4324V30Z" fill="white"/>
<path d="M29.5582 13.2749C29.5582 15.6794 29.5191 18.0895 29.5694 20.4939C29.6253 23.0718 27.9702 25.5042 25.4147 26.4828C24.6151 26.7903 23.7875 26.9357 22.932 26.9357C21.4334 26.9357 19.9348 26.9525 18.4362 26.9245C15.2265 26.863 12.6207 24.5536 12.1733 21.3998C12.1454 21.1873 12.1398 20.9692 12.1398 20.7512C12.1398 17.055 12.1398 13.3588 12.1398 9.66263C12.1398 8.65611 11.7036 8.21995 10.6915 8.21995C9.38863 8.21995 8.08574 8.21995 6.78285 8.21995C5.84902 8.21995 5.40727 8.65611 5.40727 9.58994C5.40727 14.466 5.40727 19.3476 5.40727 24.2237C5.40727 25.5489 4.49021 26.6505 3.22088 26.8742C1.87325 27.109 0.603914 26.3933 0.150979 25.1407C0.0447344 24.85 0 24.5536 0 24.246C0 19.1966 0 14.1417 0 9.09227C0.0055918 6.37465 2.00746 3.89749 4.78658 3.137C5.33458 2.98602 5.89375 2.89096 6.45853 2.89096C8.19758 2.89096 9.93663 2.78472 11.6645 2.94129C14.8127 3.22647 17.5471 5.82666 17.5471 9.24884C17.5471 12.945 17.5471 16.6412 17.5471 20.3374C17.5471 21.2041 17.9497 21.6011 18.8276 21.6011C20.1528 21.6011 21.4781 21.6011 22.8034 21.6011C23.726 21.6011 24.151 21.1706 24.151 20.2479C24.151 15.3607 24.151 10.4679 24.151 5.58062C24.151 4.28332 25.0568 3.2041 26.3318 2.95247C27.5787 2.70643 28.8481 3.36627 29.3513 4.52377C29.4967 4.85928 29.5582 5.20038 29.5582 5.56943C29.5582 8.13607 29.5582 10.7083 29.5582 13.2749ZM1.47623 16.6188C1.47623 19.1351 1.47623 21.6459 1.47623 24.1622C1.47623 24.7661 1.81174 25.2302 2.34856 25.3868C3.18732 25.6328 3.92544 25.0457 3.92544 24.1342C3.92544 19.247 3.92544 14.3597 3.92544 9.47251C3.92544 7.95154 4.89841 6.83877 6.41938 6.77726C7.9795 6.71016 9.5452 6.74371 11.1053 6.77726C12.3858 6.79963 13.6496 7.91799 13.6048 9.48369C13.5489 11.3234 13.5881 13.1687 13.5937 15.0084C13.5937 16.9376 13.5657 18.8667 13.6272 20.7959C13.7111 23.3849 15.8304 25.4091 18.4306 25.4483C19.918 25.4706 21.4054 25.4483 22.8928 25.4651C25.5713 25.493 28.11 23.4744 28.1044 20.4548C28.0932 15.5676 28.1044 10.6803 28.1044 5.79311C28.1044 5.55266 28.082 5.3178 27.9758 5.09413C27.7241 4.57409 27.1538 4.30569 26.589 4.4343C25.9907 4.57409 25.6384 5.02144 25.6384 5.6589C25.6384 10.5573 25.6384 15.4557 25.6384 20.3542C25.6384 21.959 24.5424 23.0774 22.932 23.0941C21.5228 23.1109 20.1081 23.1109 18.699 23.0941C17.1221 23.0774 16.0596 21.987 16.0596 20.4101C16.0596 16.7363 16.0261 13.0624 16.0708 9.38863C16.0988 6.96179 14.3094 4.9823 12.0559 4.5014C11.1836 4.31687 10.3057 4.37838 9.42777 4.38397C8.25909 4.38957 7.08481 4.30569 5.91612 4.4343C3.53961 4.70271 1.42032 6.73812 1.47064 9.40541C1.51538 11.8099 1.48183 14.2199 1.48183 16.6244L1.47623 16.6188Z" fill="white"/>
<path d="M47.3849 26.9077C44.1081 26.9077 40.8257 26.9301 37.5489 26.9021C35.2004 26.8854 33.3103 25.918 31.9627 23.9776C31.2637 22.9711 30.9282 21.836 30.9282 20.6114C30.9282 16.8593 30.9506 13.1128 30.9171 9.36067C30.8891 6.2069 33.137 3.72973 35.9888 3.0699C36.5088 2.94688 37.0401 2.88537 37.5713 2.88537C44.2703 2.88537 50.9692 2.88537 57.6682 2.88537C59.0829 2.88537 60.1622 3.71855 60.4473 5.01584C60.7884 6.55918 59.6253 8.10811 58.0485 8.20876C57.9087 8.21994 57.7689 8.21435 57.6235 8.21435C51.0028 8.21435 44.3765 8.21435 37.7558 8.21435C37.5825 8.21435 37.4091 8.21435 37.2358 8.25349C36.6822 8.38211 36.3299 8.80708 36.3299 9.36626C36.3299 13.0624 36.3299 16.7586 36.3299 20.4548C36.3299 21.0699 36.7661 21.5284 37.3979 21.5899C37.5266 21.6011 37.6608 21.5955 37.7894 21.5955C44.4548 21.5955 51.1202 21.5955 57.7912 21.5955C59.178 21.5955 60.3243 22.5741 60.4809 23.8882C60.6486 25.2693 59.7651 26.5051 58.384 26.8239C58.1267 26.8854 57.8695 26.891 57.6067 26.891C54.1957 26.891 50.7903 26.891 47.3793 26.891L47.3849 26.9077ZM47.5135 4.36719C44.2367 4.36719 40.9543 4.36719 37.6775 4.36719C37.1519 4.36719 36.6375 4.42311 36.1342 4.56291C34.0429 5.13327 32.3765 7.02889 32.4045 9.37745C32.4492 13.1295 32.4157 16.876 32.4157 20.6281C32.4157 21.1761 32.5107 21.7074 32.712 22.2162C33.4725 24.1566 35.4017 25.4315 37.5937 25.4315C44.2591 25.4315 50.9245 25.4315 57.5899 25.4315C57.6794 25.4315 57.7633 25.4315 57.8527 25.4315C58.6132 25.37 59.1333 24.7381 59.0047 24.0335C58.904 23.4632 58.4063 23.0941 57.7409 23.0941C53.6253 23.0941 49.5098 23.0941 45.3998 23.0941C42.8164 23.0941 40.233 23.0829 37.6496 23.0941C35.9497 23.0997 34.8369 21.8192 34.8537 20.3318C34.8984 16.6915 34.8705 13.0457 34.8649 9.4054C34.8649 9.07549 34.8984 8.75676 35.0158 8.44921C35.4184 7.37558 36.3858 6.74371 37.644 6.74371C44.287 6.74371 50.9301 6.74371 57.5787 6.74371C57.7409 6.74371 57.9087 6.74371 58.0652 6.71016C58.7698 6.57595 59.2004 5.84343 58.9655 5.17801C58.781 4.65238 58.3225 4.36719 57.6514 4.36719C54.274 4.36719 50.8965 4.36719 47.5247 4.36719H47.5135Z" fill="white"/>
<path d="M75.3327 27.0867C72.6487 27.0755 70.4119 26.0242 68.5051 24.1957C66.6598 22.4231 65.3793 20.2759 64.4343 17.9217C64.2721 17.5191 64.2945 17.1277 64.5797 16.7922C64.8705 16.4567 65.2451 16.4455 65.6533 16.5461C69.3327 17.4296 73.068 17.8378 76.8481 17.6869C79.616 17.575 82.356 17.2116 85.0513 16.5405C85.4483 16.4399 85.8118 16.4567 86.0969 16.781C86.3765 17.0941 86.4268 17.4688 86.2759 17.8434C85.1966 20.5499 83.7148 22.9823 81.4334 24.85C79.6664 26.2982 77.6421 27.0923 75.3327 27.0867ZM75.7745 25.7167C78.0615 25.6999 80.1529 24.4418 81.9143 22.5014C82.0205 22.384 81.9758 22.3225 81.8807 22.2442C79.8509 20.5107 77.5583 20.6729 75.7633 22.2889C75.3327 22.6803 75.3439 22.6971 74.9301 22.2945C73.2022 20.6226 70.5853 20.6002 68.8127 22.2386C68.6785 22.3616 68.6897 22.4287 68.8071 22.5461C69.0867 22.8201 69.3439 23.1109 69.6347 23.3737C71.2507 24.8555 73.124 25.7223 75.7745 25.7223V25.7167ZM66.1118 18.2069C66.5592 19.2022 67.0792 20.0746 67.6384 20.9245C67.8062 21.1817 67.9012 21.2153 68.164 21.014C70.3392 19.2917 72.8332 19.1911 75.1594 20.712C75.3215 20.8183 75.411 20.7959 75.5564 20.7008C76.4399 20.0969 77.4185 19.7279 78.4921 19.6552C80.0354 19.5489 81.3663 20.0857 82.5517 21.0252C82.8034 21.2265 82.8928 21.1706 83.0494 20.9357C83.575 20.1528 84.0447 19.3364 84.4529 18.4865C84.4865 18.4194 84.5704 18.3467 84.4977 18.2516C78.3914 19.6496 72.2852 19.4595 66.1174 18.2069H66.1118Z" fill="white"/>
<path d="M46.7083 17.6421C44.9189 17.6421 43.124 17.6421 41.3346 17.6421C39.8136 17.6421 38.6337 16.479 38.6337 14.9804C38.6337 13.4818 39.8136 12.3187 41.3346 12.3187C44.9077 12.3187 48.4809 12.3187 52.0541 12.3187C53.4744 12.3187 54.6542 13.3588 54.7605 14.7064C54.8779 16.1659 53.9441 17.3737 52.507 17.6198C52.3672 17.6421 52.2274 17.6421 52.0876 17.6421C50.2982 17.6421 48.5033 17.6421 46.7139 17.6421H46.7083ZM46.7083 16.1547C48.4865 16.1547 50.2703 16.1547 52.0485 16.1547C52.7642 16.1547 53.2898 15.6459 53.2843 14.9692C53.2731 14.3206 52.7363 13.8062 52.0541 13.8062C48.4809 13.8062 44.9133 13.8062 41.3402 13.8062C41.2227 13.8062 41.0997 13.8117 40.9879 13.8453C40.4175 14.0019 40.0373 14.5666 40.1156 15.1258C40.1994 15.7297 40.6803 16.1547 41.3066 16.1547C43.1072 16.1547 44.9133 16.1547 46.7139 16.1547H46.7083Z" fill="white"/>
<path d="M98.4212 14.7624C98.4212 17.9665 95.3066 20.2759 92.2591 19.3309C91.9963 19.247 91.7782 19.124 91.6999 18.8444C91.6272 18.5871 91.6719 18.3467 91.8677 18.1566C92.0857 17.9441 92.3374 17.9273 92.6226 18.0112C94.0596 18.4138 95.3066 18.0671 96.2628 16.932C97.8117 15.0979 97.0233 12.3299 94.7474 11.5359C93.439 11.0774 92.1193 10.658 90.8052 10.2218C90.5648 10.1435 90.3635 10.0261 90.2796 9.78006C90.1901 9.52843 90.2237 9.28798 90.4082 9.08108C90.6095 8.85182 90.8723 8.80149 91.1519 8.89096C92.5834 9.36626 94.0261 9.80243 95.4352 10.3336C97.2749 11.027 98.4212 12.7884 98.4212 14.7679V14.7624Z" fill="white"/>
<path d="M98.0075 22.6356C97.9739 23.2339 98.0746 23.972 97.9627 24.7046C97.7558 26.0634 96.4865 27.0363 95.0829 26.9245C93.685 26.8127 92.6058 25.6775 92.6058 24.302C92.6058 23.3681 92.6058 22.4399 92.6058 21.5061C92.6058 21.014 92.8965 20.7008 93.3383 20.7008C93.7801 20.7008 94.0596 21.014 94.0596 21.5172C94.0596 22.384 94.0485 23.2507 94.0596 24.1174C94.0764 25.0792 94.8481 25.6608 95.6924 25.3812C96.2069 25.2078 96.5144 24.7828 96.52 24.2237C96.52 23.0214 96.52 21.8192 96.52 20.617C96.52 20.0634 96.9674 19.7111 97.4706 19.8509C97.8006 19.9404 98.0019 20.2199 98.0075 20.6114C98.0075 21.2376 98.0075 21.8695 98.0075 22.6356Z" fill="white"/>
<path d="M69.4837 11.6421C71.0941 11.6254 72.4977 12.0503 73.7335 12.9842C74.1305 13.2861 74.1584 13.8117 73.795 14.0969C73.5377 14.2982 73.247 14.3206 72.9842 14.1249C71.0438 12.6934 68.9525 12.7661 66.794 13.5098C66.2013 13.7167 65.698 13.3868 65.7707 12.8164C65.8099 12.4977 66.0168 12.3299 66.302 12.2237C67.3476 11.8322 68.4268 11.6198 69.4837 11.6309V11.6421Z" fill="white"/>
<path d="M81.1929 11.6421C82.2945 11.6365 83.3625 11.8434 84.397 12.2404C84.8388 12.4082 85.0345 12.7773 84.8947 13.1519C84.7493 13.5433 84.3635 13.6831 83.8993 13.5154C82.2162 12.9171 80.5219 12.7605 78.8276 13.4706C78.4529 13.6272 78.123 13.8453 77.7931 14.0801C77.424 14.3486 77.0382 14.3038 76.7866 13.9795C76.5461 13.6664 76.6188 13.2526 76.9711 12.9842C78.2181 12.0391 79.6384 11.6198 81.1985 11.6421H81.1929Z" fill="white"/>
</g>
<defs>
<clipPath id="clip0_3175_13481">
<rect width="122.192" height="30" fill="white"/>
</clipPath>
</defs>
</svg>
