<svg width="173" height="30" viewBox="0 0 173 30" fill="none" xmlns="http://www.w3.org/2000/svg">
<path d="M13.8691 0.5C6.20989 0.5 0 6.99238 0 15C0 23.0076 6.20989 29.5 13.8691 29.5C21.5283 29.5 27.7382 23.0076 27.7382 15C27.7382 6.99238 21.5283 0.5 13.8691 0.5ZM13.8691 28.8961C6.52967 28.8961 0.577661 22.6733 0.577661 15C0.577661 7.3267 6.52967 1.10394 13.8691 1.10394C21.2085 1.10394 27.1605 7.3267 27.1605 15C27.1605 22.6733 21.2085 28.8961 13.8691 28.8961Z" fill="white"/>
<path d="M11.708 17.7824C10.7126 17.7824 9.712 17.7663 8.71656 17.7932C8.39678 17.7986 8.35551 17.6908 8.41224 17.3996C8.8197 15.3235 9.21686 13.2475 9.61916 11.1714C9.83063 10.0714 10.0421 8.97136 10.2432 7.87133C10.2793 7.67181 10.3309 7.58014 10.5527 7.58014C12.4507 7.59632 14.3436 7.58014 16.2416 7.6071C17.1133 7.61789 17.9592 7.8174 18.7483 8.22722C20.1409 8.9444 20.8733 10.1199 20.9506 11.743C21.0796 14.547 19.4033 16.828 16.7781 17.4481C15.7672 17.6854 14.7459 17.7878 13.7144 17.7824C13.0439 17.7824 12.3785 17.7824 11.708 17.7824ZM13.8691 14.7466C14.1528 14.7466 14.4416 14.7466 14.7253 14.7412C15.2101 14.725 15.6846 14.6279 16.1179 14.3853C16.8915 13.9539 17.3042 12.9833 17.1288 12.0072C16.9998 11.2847 16.4738 10.8102 15.5763 10.7239C14.9368 10.6592 14.2869 10.7023 13.637 10.6861C13.4565 10.6861 13.4513 10.8048 13.4256 10.9288C13.1883 12.1259 12.9614 13.3284 12.7138 14.5255C12.6725 14.7412 12.755 14.752 12.9149 14.752C13.2347 14.7466 13.5493 14.752 13.8691 14.752V14.7466Z" fill="white"/>
<path d="M17.6652 21.487C17.1081 21.487 16.5511 21.4816 15.9889 21.487C15.8032 21.487 15.6949 21.4384 15.6021 21.2551C15.174 20.4193 14.7304 19.5889 14.2817 18.7638C14.1786 18.5697 14.1321 18.4727 14.421 18.4781C15.4989 18.4834 16.5614 18.3702 17.5981 18.0467C17.7632 17.9927 17.8302 18.0467 17.9024 18.1923C18.4388 19.2006 18.9752 20.209 19.5219 21.212C19.6354 21.4169 19.6096 21.487 19.3724 21.4816C18.805 21.4708 18.2325 21.4816 17.6652 21.4816V21.487Z" fill="white"/>
<path d="M9.54178 21.487C8.99506 21.487 8.44834 21.4816 7.89646 21.487C7.69531 21.487 7.65404 21.4223 7.69014 21.2228C7.85519 20.3816 8.01511 19.5404 8.16984 18.6938C8.19563 18.5374 8.26266 18.4835 8.41223 18.4835C9.53146 18.4835 10.6455 18.4835 11.7647 18.4835C11.9246 18.4835 11.9711 18.532 11.9401 18.7099C11.7699 19.5619 11.6049 20.4139 11.4553 21.2713C11.4244 21.4546 11.3367 21.4816 11.1871 21.4816C10.6404 21.4762 10.0937 21.4816 9.54178 21.4816V21.487Z" fill="white"/>
<path d="M45.6561 7.68796C45.6819 7.74189 45.7283 7.7311 45.7695 7.7311C46.7443 7.76885 47.6624 8.0169 48.5031 8.52917C48.8848 8.76104 49.2252 9.05761 49.514 9.42429C49.8132 9.80176 50.0247 10.217 50.1742 10.6753C50.2361 10.8641 50.2516 11.0636 50.3032 11.2523C50.3857 11.5381 50.3702 11.8401 50.3702 12.1205C50.3702 12.4063 50.3909 12.7136 50.3186 13.0048C50.2722 13.1935 50.2516 13.3931 50.2206 13.5926C50.1845 13.8191 50.102 14.0294 50.0298 14.2397C49.8648 14.7196 49.6275 15.1671 49.3232 15.5662C49.0447 15.9328 48.7249 16.2618 48.3587 16.5476C48.1163 16.7363 47.8584 16.8981 47.6005 17.0545C47.353 17.2054 47.0744 17.3079 46.8011 17.4157C46.7186 17.4481 46.7083 17.4589 46.7495 17.5398C46.9455 17.8957 47.1363 18.2569 47.3323 18.6128C47.549 19.0065 47.7759 19.3839 47.9822 19.783C48.1421 20.0903 48.3071 20.3923 48.4773 20.6943C48.6166 20.9477 48.7507 21.2012 48.8848 21.4546C48.9106 21.4977 48.9364 21.5409 48.9364 21.611H48.7559C47.5593 21.611 46.3575 21.611 45.1609 21.6164C44.9856 21.6164 44.9082 21.5409 44.836 21.4061C44.5678 20.8884 44.2996 20.3707 44.0262 19.8585C43.7271 19.2923 43.4228 18.7315 43.1236 18.1707C43.0359 18.0089 42.938 17.9118 42.7265 17.9172C42.2417 17.9388 41.7517 17.928 41.2617 17.9172C41.1585 17.9172 41.1173 17.9334 41.0967 18.0628C41.0554 18.3594 40.978 18.6506 40.9213 18.9418C40.8852 19.1305 40.8543 19.3192 40.8233 19.5134C40.7666 19.8153 40.7098 20.1119 40.6531 20.4139C40.5964 20.732 40.5035 21.0394 40.488 21.3629C40.4777 21.5624 40.4262 21.611 40.2302 21.611C39.08 21.611 37.935 21.611 36.7848 21.611C36.6456 21.611 36.5785 21.6218 36.6352 21.4169C36.7332 21.0556 36.7745 20.6727 36.8415 20.3006C36.8983 20.0148 36.9653 19.7291 37.0221 19.4379C37.0788 19.1467 37.1201 18.8555 37.1768 18.5697C37.2284 18.2893 37.2903 18.0035 37.3419 17.7231C37.3986 17.4373 37.4553 17.1461 37.5069 16.8603C37.5636 16.5691 37.6152 16.2726 37.6719 15.976C37.7287 15.6902 37.7854 15.399 37.8421 15.1132C37.8989 14.822 37.9505 14.5254 38.0072 14.2289C38.0691 13.9215 38.1361 13.6087 38.1826 13.296C38.2238 13.0156 38.2908 12.746 38.3476 12.4656C38.4043 12.169 38.4611 11.867 38.5178 11.5704C38.5745 11.2847 38.6261 11.0042 38.6828 10.7185C38.7551 10.3356 38.8118 9.94735 38.8995 9.56989C38.9665 9.2787 39.0026 8.98213 39.0748 8.69094C39.147 8.41593 39.1831 8.13553 39.2244 7.85513C39.2347 7.79581 39.2553 7.73649 39.2605 7.67178H45.6561V7.68796ZM43.2268 14.8274C43.7168 14.7951 44.3048 14.9029 44.8824 14.7304C45.326 14.5955 45.718 14.4014 46.0274 14.024C46.3781 13.5926 46.5123 13.0965 46.5174 12.5465C46.5174 12.3955 46.5071 12.2445 46.471 12.0881C46.4142 11.8293 46.3111 11.5974 46.1357 11.4141C45.7489 11.0043 45.2435 10.864 44.7225 10.8371C44.0211 10.7993 43.3145 10.8263 42.6079 10.8263C42.5408 10.8263 42.5099 10.8425 42.4841 10.9234C42.4016 11.2038 42.3706 11.5003 42.2984 11.7861C42.2262 12.0665 42.2159 12.3577 42.1437 12.6381C42.0663 12.9293 42.0354 13.2259 41.9631 13.5117C41.8703 13.8838 41.8136 14.2612 41.7362 14.6387C41.7104 14.7681 41.7207 14.8328 41.8703 14.8328C42.2932 14.8274 42.711 14.8328 43.2216 14.8328L43.2268 14.8274Z" fill="white"/>
<path d="M173 12.9671C172.902 13.0965 172.948 13.2637 172.912 13.4093C172.778 13.9862 172.593 14.5362 172.293 15.0539C172.046 15.4799 171.762 15.8682 171.411 16.2025C171.107 16.4883 170.777 16.7471 170.411 16.952C170.091 17.13 169.766 17.2917 169.426 17.4211C169.359 17.4481 169.348 17.4697 169.384 17.529C169.647 18.0089 169.9 18.4996 170.168 18.9741C170.514 19.5889 170.844 20.2144 171.184 20.8345C171.319 21.0879 171.468 21.3306 171.602 21.611H171.396C170.199 21.611 168.998 21.611 167.801 21.611C167.646 21.611 167.559 21.5571 167.492 21.4277C167.316 21.0879 167.146 20.7374 166.955 20.4031C166.687 19.9178 166.445 19.4217 166.161 18.9472C166.027 18.7207 165.913 18.478 165.8 18.2354C165.702 18.0197 165.578 17.8957 165.315 17.9119C164.846 17.9388 164.371 17.9226 163.902 17.9172C163.793 17.9172 163.757 17.9388 163.742 18.0682C163.706 18.3594 163.628 18.6452 163.577 18.931C163.505 19.3085 163.443 19.6859 163.371 20.0634C163.319 20.3384 163.262 20.6188 163.206 20.8938C163.164 21.0987 163.113 21.2982 163.082 21.5085C163.066 21.6002 163.035 21.6056 162.963 21.6056C161.761 21.6056 160.554 21.6056 159.353 21.6056C159.25 21.6056 159.234 21.5679 159.26 21.4654C159.311 21.2659 159.348 21.0556 159.389 20.8507C159.446 20.5595 159.497 20.2629 159.554 19.9663C159.611 19.659 159.667 19.357 159.734 19.055C159.817 18.683 159.879 18.3001 159.956 17.928C160.013 17.653 160.059 17.3726 160.111 17.0922C160.168 16.7849 160.219 16.4829 160.291 16.1809C160.358 15.9059 160.384 15.6255 160.446 15.3451C160.513 15.0431 160.56 14.7358 160.621 14.4338C160.678 14.1642 160.725 13.8892 160.776 13.6196C160.838 13.3122 160.895 12.9994 160.957 12.6921C161.008 12.4225 161.065 12.1474 161.112 11.8724C161.163 11.5759 161.22 11.2847 161.277 10.9881C161.333 10.6915 161.39 10.4003 161.447 10.1091C161.503 9.81795 161.56 9.52138 161.617 9.23019C161.674 8.93361 161.725 8.64242 161.782 8.34584C161.823 8.12476 161.864 7.90367 161.906 7.68259H168.301C168.337 7.76347 168.405 7.73651 168.461 7.73651C168.776 7.72033 169.09 7.77965 169.39 7.84436C169.74 7.91985 170.096 8.01691 170.437 8.1679C171.107 8.46448 171.711 8.84194 172.175 9.44588C172.536 9.91501 172.789 10.4327 172.912 11.0258C172.938 11.1391 172.892 11.2793 173 11.3709V12.9671ZM165.882 14.8274C166.295 14.7897 166.806 14.8814 167.311 14.7735C167.615 14.7088 167.909 14.6279 168.172 14.4608C168.435 14.299 168.673 14.0887 168.833 13.8083C169.085 13.3661 169.204 12.8808 169.168 12.3631C169.142 11.9965 169.034 11.6675 168.786 11.4033C168.394 10.9881 167.878 10.8533 167.352 10.8263C166.666 10.794 165.975 10.8155 165.289 10.8155C165.207 10.8155 165.145 10.8155 165.129 10.9342C165.109 11.1175 165.052 11.2955 165.016 11.4788C164.959 11.743 164.902 12.0072 164.851 12.2715C164.794 12.5734 164.737 12.87 164.681 13.172C164.624 13.4524 164.572 13.7382 164.516 14.0186C164.474 14.2181 164.443 14.4176 164.392 14.6171C164.351 14.7843 164.366 14.8166 164.526 14.8166C164.949 14.8166 165.367 14.8166 165.882 14.8166V14.8274Z" fill="white"/>
<path d="M82.9876 7.68799C82.9979 7.72034 83.0237 7.73112 83.0495 7.73112C83.3951 7.70955 83.7406 7.77966 84.0759 7.84437C84.5349 7.92525 84.994 8.03849 85.4272 8.22183C85.7676 8.36203 86.1029 8.51301 86.4226 8.71253C86.9642 9.05225 87.4439 9.46207 87.841 9.97973C88.1247 10.3518 88.3516 10.7508 88.5322 11.1822C88.6663 11.5058 88.7591 11.8509 88.8313 12.2068C88.9499 12.7891 88.9963 13.3769 88.9602 13.9647C88.9344 14.3529 88.9035 14.7466 88.8416 15.1348C88.7642 15.6201 88.6456 16.0893 88.4909 16.5476C88.3413 16.9952 88.1247 17.4158 87.9029 17.8256C87.5419 18.4942 87.0519 19.0496 86.5155 19.5619C86.1854 19.8747 85.8192 20.1443 85.4272 20.3762C85.1023 20.5703 84.7722 20.7482 84.4266 20.8992C84.0243 21.0718 83.6066 21.2066 83.1836 21.3198C82.9051 21.3953 82.6214 21.4438 82.3429 21.5086C82.1985 21.5409 82.0489 21.5463 81.9045 21.5625C81.6827 21.584 81.4558 21.6218 81.234 21.6218C79.2844 21.6218 77.3399 21.6218 75.3903 21.6218H75.2046C75.2768 21.212 75.3439 20.8129 75.4212 20.4139C75.4934 20.0364 75.5811 19.6644 75.6585 19.2923C75.7307 18.9364 75.7874 18.5805 75.8545 18.2246C75.9061 17.928 75.9628 17.6369 76.0195 17.3457C76.0763 17.0437 76.133 16.7471 76.1898 16.4451C76.2465 16.1647 76.3032 15.879 76.3548 15.5985C76.4115 15.2966 76.4683 15 76.525 14.698C76.5817 14.4176 76.6385 14.1318 76.69 13.8514C76.7468 13.5495 76.7984 13.2421 76.8654 12.9401C76.9479 12.5681 77.0098 12.1852 77.0872 11.8131C77.1439 11.5327 77.1955 11.2469 77.2471 10.9611C77.3038 10.6646 77.3605 10.3626 77.4224 10.066C77.4792 9.791 77.5256 9.5106 77.5823 9.23559C77.6442 8.93362 77.6906 8.62626 77.7577 8.32428C77.8041 8.12477 77.8351 7.91447 77.8763 7.70956H83.0031L82.9876 7.68799ZM80.5583 18.4187C80.8317 18.3918 81.1618 18.4403 81.497 18.381C81.7137 18.3432 81.9354 18.3163 82.1366 18.2516C82.5956 18.106 83.0289 17.8957 83.426 17.5937C83.7406 17.3511 84.0243 17.0868 84.2512 16.7579C84.7309 16.0677 85.0043 15.275 85.0765 14.4338C85.1178 13.9323 85.1177 13.42 85.0043 12.9078C84.8702 12.32 84.5607 11.867 84.1275 11.5165C83.5962 11.0852 82.9463 10.9342 82.2862 10.8856C81.9457 10.8587 81.6002 10.8856 81.2546 10.8749C81.0896 10.8695 81.0328 10.9342 81.0174 11.0959C81.0071 11.2415 80.9709 11.3871 80.9452 11.5273C80.8884 11.8077 80.8317 12.0935 80.7749 12.3739C80.7182 12.6759 80.6615 12.9725 80.6099 13.2745C80.5532 13.5764 80.4964 13.873 80.4397 14.175C80.4036 14.3637 80.3727 14.5524 80.3366 14.7412C80.2953 14.9515 80.2334 15.1564 80.2024 15.3667C80.1612 15.6686 80.0941 15.9706 80.0426 16.2726C79.991 16.5638 79.9394 16.8604 79.8672 17.1515C79.7743 17.5236 79.7434 17.9119 79.6506 18.2839C79.6145 18.4295 79.6712 18.4133 79.7537 18.4133C80.0013 18.4133 80.254 18.4133 80.5583 18.4133V18.4187Z" fill="white"/>
<path d="M62.3722 7.68799C62.2897 8.11398 62.2072 8.53998 62.1298 8.97136C62.0525 9.38657 61.9648 9.80178 61.8926 10.2224C61.8668 10.3842 61.8152 10.5405 61.8049 10.7023C61.8049 10.7616 61.7739 10.7832 61.7172 10.7832C61.6708 10.7832 61.6295 10.7832 61.5831 10.7832C59.4942 10.7832 57.4105 10.7832 55.3216 10.7832C55.0277 10.7832 55.0328 10.7832 54.9864 11.0798C54.9245 11.4842 54.8471 11.8832 54.7543 12.2769C54.7027 12.5033 54.6872 12.7352 54.646 12.9671C54.6254 13.0749 54.6769 13.0803 54.7491 13.0803C54.7904 13.0803 54.8265 13.0803 54.8678 13.0803C56.6781 13.0803 58.4885 13.0803 60.2937 13.0803C60.5361 13.0803 60.567 13.1127 60.4897 13.3553C60.4175 13.5764 60.4123 13.8137 60.3607 14.0402C60.2937 14.3367 60.2369 14.6387 60.1854 14.9353C60.1338 15.2534 60.0409 15.5608 60.0203 15.8843C60.01 16.0353 59.9326 16.0785 59.7882 16.0785C57.9418 16.0785 56.0901 16.0785 54.2437 16.0677C54.0683 16.0677 54.0013 16.1432 53.9806 16.2834C53.9187 16.7633 53.7898 17.227 53.7331 17.707C53.7124 17.9065 53.6505 18.106 53.6041 18.3001C53.5629 18.4781 53.5938 18.5212 53.7743 18.5212C55.9612 18.5212 58.1481 18.5212 60.3349 18.5212C60.5567 18.5212 60.5412 18.5212 60.5 18.7531C60.4226 19.2006 60.3298 19.6428 60.2421 20.085C60.1699 20.4355 60.1132 20.7968 60.0203 21.1419C59.9894 21.2497 59.9739 21.363 59.9636 21.4762C59.9533 21.5787 59.9069 21.6218 59.8089 21.611C59.7934 21.611 59.7779 21.611 59.7573 21.611C56.281 21.611 52.8098 21.611 49.3335 21.611H49.2046C49.2613 21.2335 49.3335 20.8723 49.4161 20.511C49.4934 20.1497 49.5398 19.7776 49.6121 19.4109C49.6843 19.0281 49.7771 18.6506 49.8493 18.2678C49.9215 17.9011 49.9731 17.529 50.0453 17.1623C50.102 16.8765 50.1691 16.5907 50.2258 16.2996C50.2826 16.0138 50.329 15.7226 50.3805 15.4314C50.4321 15.1456 50.4837 14.8652 50.5404 14.5848C50.6023 14.2774 50.6642 13.9755 50.7158 13.6681C50.7622 13.3823 50.8293 13.1019 50.886 12.8215C50.9427 12.5249 50.9995 12.2229 51.0562 11.9264C51.1129 11.6406 51.1645 11.3602 51.2213 11.0798C51.278 10.7832 51.3347 10.4812 51.3915 10.1846C51.4482 9.89885 51.4998 9.61844 51.5565 9.33265C51.6287 8.94979 51.7009 8.56694 51.7731 8.18408C51.8041 8.01692 51.8402 7.84976 51.8711 7.68799H62.3619H62.3722Z" fill="white"/>
<path d="M161.075 7.68797C161.019 8.00073 160.962 8.30809 160.905 8.62085C160.854 8.91203 160.776 9.19243 160.73 9.48362C160.689 9.76941 160.627 10.0498 160.56 10.3302C160.534 10.4273 160.518 10.5351 160.508 10.6268C160.487 10.7832 160.415 10.7778 160.312 10.7778C158.471 10.7778 156.629 10.7778 154.783 10.7778C154.494 10.7778 154.205 10.7778 153.916 10.7778C153.803 10.7778 153.746 10.7886 153.731 10.9396C153.705 11.22 153.628 11.495 153.576 11.77C153.519 12.0827 153.457 12.3901 153.411 12.7028C153.401 12.7891 153.344 12.8592 153.349 12.9509C153.354 13.0372 153.37 13.0857 153.463 13.0749C153.499 13.0749 153.54 13.0749 153.581 13.0749C155.402 13.0749 157.223 13.0749 159.043 13.0749C159.25 13.0749 159.239 13.0749 159.213 13.2798C159.167 13.6627 159.074 14.0348 159.007 14.4122C158.935 14.8382 158.852 15.2696 158.775 15.6956C158.76 15.7819 158.713 15.8628 158.718 15.9598C158.718 16.0245 158.672 16.0623 158.61 16.0623C158.558 16.0623 158.512 16.0623 158.46 16.0623C156.64 16.0623 154.819 16.0623 152.998 16.0623C152.72 16.0623 152.715 16.0731 152.689 16.3642C152.658 16.6986 152.57 17.0167 152.508 17.3403C152.457 17.6207 152.395 17.8957 152.354 18.1761C152.354 18.203 152.354 18.2354 152.354 18.2623C152.316 18.4277 152.376 18.5104 152.534 18.5104C154.706 18.5104 156.872 18.5104 159.043 18.5104C159.275 18.5104 159.286 18.532 159.229 18.7692C159.177 18.9795 159.157 19.1898 159.11 19.4001C159.054 19.6697 158.992 19.9394 158.94 20.209C158.883 20.484 158.832 20.7644 158.78 21.0394C158.749 21.2066 158.713 21.3737 158.682 21.5409C158.672 21.584 158.651 21.6002 158.615 21.6002C158.574 21.6002 158.538 21.6002 158.497 21.6002C155.046 21.6002 151.596 21.6002 148.14 21.6002C147.923 21.6002 147.918 21.5732 147.97 21.3468C148.037 21.0664 148.078 20.7806 148.13 20.5002C148.186 20.2036 148.238 19.9124 148.295 19.6158C148.351 19.3354 148.408 19.0496 148.465 18.7692C148.522 18.4726 148.568 18.1815 148.625 17.8849C148.692 17.5721 148.754 17.254 148.805 16.9358C148.846 16.6554 148.919 16.3858 148.975 16.1054C149.032 15.8088 149.089 15.5069 149.146 15.2049C149.197 14.9245 149.249 14.6495 149.306 14.3691C149.378 13.9808 149.44 13.5926 149.532 13.2043C149.599 12.9131 149.646 12.6166 149.708 12.3254C149.765 12.045 149.821 11.7592 149.868 11.4734C149.914 11.1768 149.991 10.8856 150.048 10.5944C150.105 10.314 150.146 10.0282 150.203 9.74245C150.285 9.34342 150.322 8.9336 150.497 8.56153C150.714 8.09779 151.085 7.83357 151.554 7.70954C151.585 7.69876 151.621 7.70954 151.632 7.66101H161.091L161.075 7.68797Z" fill="white"/>
<path d="M111.757 7.68797C111.788 7.73111 111.83 7.73111 111.876 7.73111C112.417 7.74189 112.944 7.86592 113.465 8.01691C113.944 8.15171 114.383 8.3674 114.79 8.64241C115.259 8.95517 115.641 9.37038 115.935 9.87187C116.167 10.2709 116.286 10.7023 116.399 11.1391C116.441 11.3008 116.471 11.4842 116.456 11.6675C116.446 11.8077 116.435 11.9479 116.497 12.0935C116.528 12.169 116.533 12.2822 116.487 12.3631C116.451 12.4278 116.451 12.4925 116.451 12.5626C116.451 13.6249 116.116 14.574 115.548 15.4422C115.321 15.7873 115.053 16.0946 114.754 16.3642C114.264 16.801 113.717 17.1407 113.114 17.3942C112.686 17.5721 112.247 17.7015 111.804 17.8094C111.551 17.8741 111.288 17.9011 111.025 17.9226C109.828 18.0197 108.632 17.9388 107.435 17.9604C107.28 17.9604 107.224 17.9927 107.198 18.1761C107.146 18.5535 107.028 18.9256 106.971 19.3031C106.914 19.6751 106.827 20.0364 106.77 20.4085C106.723 20.7159 106.656 21.0178 106.589 21.3198C106.569 21.4061 106.62 21.5193 106.533 21.5786C106.435 21.6433 106.316 21.6056 106.208 21.6056C105.109 21.6056 104.01 21.6056 102.912 21.611C102.762 21.611 102.721 21.5571 102.747 21.4223C102.804 21.1311 102.865 20.8345 102.922 20.5433C102.963 20.3438 103 20.1443 103.036 19.9448C103.092 19.6482 103.149 19.357 103.201 19.0604C103.257 18.7584 103.309 18.4619 103.371 18.1599C103.448 17.7824 103.515 17.405 103.593 17.0329C103.649 16.7579 103.701 16.4775 103.747 16.1971C103.799 15.8951 103.866 15.5985 103.928 15.302C103.985 15.0216 104.031 14.7358 104.083 14.45C104.124 14.2343 104.17 14.0186 104.212 13.8029C104.248 13.6088 104.284 13.4146 104.32 13.2205C104.377 12.9239 104.428 12.6327 104.485 12.3362C104.542 12.0504 104.598 11.7592 104.655 11.4734C104.712 11.1768 104.769 10.8748 104.825 10.5783C104.882 10.2763 104.939 9.97971 104.996 9.67774C105.047 9.40273 105.099 9.12233 105.15 8.84193C105.207 8.52918 105.269 8.22181 105.331 7.90906C105.346 7.83356 105.398 7.76346 105.377 7.67719H111.737L111.757 7.68797ZM109.354 14.8274C109.756 14.7843 110.267 14.8706 110.772 14.7843C111.123 14.725 111.438 14.5902 111.737 14.4176C112.056 14.2289 112.283 13.9377 112.433 13.5926C112.608 13.1828 112.67 12.746 112.629 12.3038C112.598 11.9911 112.5 11.6945 112.289 11.4518C111.891 10.9881 111.35 10.8748 110.803 10.8425C110.122 10.7994 109.442 10.8317 108.756 10.8317C108.673 10.8317 108.621 10.8317 108.59 10.9503C108.57 11.042 108.57 11.1283 108.549 11.22C108.482 11.5165 108.425 11.8131 108.369 12.1151C108.312 12.4009 108.271 12.6813 108.214 12.9671C108.157 13.2583 108.08 13.5494 108.033 13.846C107.987 14.1318 107.935 14.4176 107.874 14.698C107.832 14.8814 107.91 14.8382 107.992 14.8382C108.415 14.8382 108.833 14.8382 109.359 14.8382L109.354 14.8274Z" fill="white"/>
<path d="M71.7954 7.68799C71.8779 8.01692 71.981 8.34046 72.0378 8.66939C72.0893 8.97136 72.1667 9.26794 72.2389 9.56452C72.3679 10.093 72.471 10.6322 72.6154 11.1607C72.7186 11.5327 72.7805 11.921 72.863 12.3038C72.961 12.7406 73.0693 13.1774 73.1725 13.6196C73.2601 13.997 73.3478 14.3799 73.4355 14.7573C73.5232 15.1294 73.616 15.5015 73.7037 15.8736C73.7914 16.251 73.8739 16.6339 73.9667 17.0113C74.0647 17.405 74.137 17.804 74.2453 18.1977C74.3433 18.5535 74.4103 18.9256 74.4928 19.2869C74.565 19.5943 74.6321 19.9016 74.7043 20.209C74.792 20.5865 74.8797 20.9639 74.9673 21.3414C74.9777 21.3791 74.9674 21.4223 74.9931 21.46C75.0602 21.5679 75.0241 21.611 74.9054 21.611C73.9719 21.611 73.0384 21.6272 72.11 21.6002C71.7128 21.5894 71.4137 21.3414 71.1919 21.0071C71.0372 20.7698 70.9959 20.4948 70.9495 20.2144C70.9082 19.9448 70.8412 19.6859 70.7844 19.4217C70.7586 19.3031 70.7122 19.1791 70.7122 19.0604C70.7122 18.9256 70.6606 18.9094 70.5523 18.9094C69.6239 18.9094 68.7007 18.9094 67.7723 18.9094C67.0348 18.9094 66.2972 18.9094 65.5597 18.9094C65.4565 18.9094 65.3998 18.9472 65.3534 19.0335C64.9356 19.8477 64.5178 20.6566 64.1001 21.4654C64.0536 21.5571 63.9917 21.611 63.8782 21.611C62.6662 21.611 61.4593 21.611 60.2472 21.611C60.206 21.611 60.1544 21.638 60.1286 21.584C60.108 21.5355 60.1595 21.5139 60.175 21.4816C60.3555 21.1688 60.5309 20.8507 60.7063 20.5379C60.9745 20.0742 61.2427 19.6104 61.5057 19.1413C61.6862 18.8286 61.8616 18.5104 62.0421 18.1977C62.269 17.804 62.5166 17.4158 62.7281 17.0113C62.8931 16.6932 63.0788 16.3912 63.249 16.0839C63.4863 15.6579 63.7287 15.2427 63.9711 14.822C64.1723 14.4715 64.3682 14.1264 64.5694 13.7759C64.8737 13.2529 65.1574 12.719 65.4668 12.2014C65.7092 11.8077 65.9207 11.3925 66.1477 10.9935C66.4726 10.4219 66.8078 9.85031 67.1328 9.27873C67.3958 8.82038 67.6589 8.35664 67.9116 7.8929C67.9477 7.82819 68.0354 7.78505 68.0199 7.68799H71.785H71.7954ZM69.2474 11.6621C69.2113 11.6621 69.1907 11.6837 69.1804 11.7107C68.9535 12.1367 68.7265 12.5573 68.5047 12.9833C68.2984 13.3769 68.0818 13.7759 67.8858 14.175C67.6073 14.7304 67.3185 15.2858 67.0193 15.8304C66.9626 15.9329 66.9574 15.9814 67.0967 15.9814C68.0509 15.9814 69.005 15.9814 69.9592 15.9814C70.1036 15.9814 70.1243 15.9113 70.083 15.7981C70.0108 15.6039 70.0056 15.3882 69.9541 15.1887C69.8973 14.9838 69.9025 14.7573 69.8406 14.5578C69.7426 14.2127 69.6858 13.8514 69.6188 13.5009C69.5672 13.2259 69.5002 12.9509 69.4589 12.6705C69.4073 12.3362 69.3248 12.0072 69.2526 11.6675L69.2474 11.6621Z" fill="white"/>
<path d="M135.571 7.68799C135.694 8.09781 135.777 8.51841 135.87 8.93901C135.952 9.31108 136.071 9.67776 136.138 10.0552C136.195 10.368 136.267 10.6753 136.344 10.9827C136.473 11.5058 136.571 12.0396 136.716 12.5627C136.819 12.9239 136.881 13.3014 136.963 13.6681C137.02 13.9161 137.102 14.1588 137.144 14.4068C137.205 14.7789 137.309 15.1348 137.391 15.4961C137.484 15.9005 137.567 16.3103 137.675 16.7148C137.788 17.1408 137.861 17.5775 137.969 18.0035C138.103 18.532 138.196 19.0712 138.345 19.5997C138.464 20.0257 138.536 20.4678 138.639 20.9046C138.681 21.0826 138.712 21.2713 138.773 21.4438C138.81 21.5409 138.804 21.6164 138.66 21.6164C137.479 21.6164 136.298 21.6164 135.117 21.6164C135.019 21.6164 134.983 21.5679 134.967 21.4924C134.926 21.2983 134.895 21.1041 134.854 20.91C134.812 20.7051 134.75 20.5056 134.725 20.3007C134.699 20.085 134.621 19.9016 134.518 19.7183C134.291 19.3085 133.946 19.0928 133.523 18.9688C133.306 18.904 133.09 18.9148 132.868 18.9148C131.888 18.9148 130.903 18.9148 129.923 18.9148C129.747 18.9148 129.737 18.8933 129.82 18.7315C130.206 17.9927 130.609 17.2648 130.97 16.5152C130.996 16.4667 131.047 16.4236 131.063 16.375C131.156 16.0192 131.382 15.9544 131.713 15.9706C132.362 15.9976 133.012 15.9814 133.662 15.9814C133.894 15.9814 133.905 15.9706 133.848 15.7441C133.765 15.4314 133.724 15.1132 133.652 14.8005C133.59 14.5309 133.554 14.2559 133.482 13.9916C133.415 13.7382 133.379 13.474 133.327 13.2097C133.275 12.9347 133.224 12.6543 133.172 12.3793C133.121 12.1259 133.069 11.8724 133.012 11.6082C132.863 11.894 132.718 12.1744 132.574 12.4548C132.244 13.0911 131.908 13.7166 131.589 14.3583C131.408 14.7142 131.223 15.0593 131.037 15.4098C130.702 16.0461 130.356 16.677 130.031 17.3187C129.871 17.6315 129.706 17.9442 129.546 18.257C129.247 18.8555 128.948 19.4541 128.628 20.0364C128.417 20.4301 128.205 20.8237 128.009 21.2281C127.989 21.2713 127.937 21.309 127.927 21.3522C127.865 21.6218 127.69 21.6326 127.468 21.6272C126.349 21.6164 125.224 21.6272 124.105 21.6272H123.904C124.012 21.3414 124.182 21.1149 124.311 20.8669C124.43 20.635 124.574 20.4193 124.698 20.1928C124.971 19.7021 125.255 19.2114 125.544 18.7261C125.781 18.3271 125.998 17.9173 126.225 17.5182C126.508 17.0221 126.792 16.5314 127.076 16.0353C127.292 15.6579 127.499 15.275 127.715 14.8975C128.045 14.326 128.37 13.749 128.706 13.1828C128.927 12.8107 129.129 12.4225 129.345 12.0504C129.649 11.5273 129.959 11.0097 130.248 10.4812C130.516 9.97973 130.825 9.49981 131.083 8.98754C131.29 8.58311 131.532 8.20565 131.759 7.8174C131.78 7.78505 131.79 7.74191 131.8 7.70956H135.565L135.571 7.68799Z" fill="white"/>
<path d="M101.834 7.68797C101.86 7.7365 101.834 7.77425 101.803 7.81199C101.463 8.24877 101.112 8.68555 100.782 9.13312C100.472 9.54833 100.142 9.94736 99.843 10.3626C99.5181 10.8101 99.1725 11.2361 98.8527 11.6837C98.5845 12.0558 98.2854 12.3955 98.0172 12.7622C97.6974 13.2043 97.3519 13.6195 97.0372 14.0671C96.7639 14.4554 96.4544 14.8112 96.1656 15.1833C95.9593 15.4529 95.7684 15.7387 95.557 16.0083C95.4177 16.1863 95.2939 16.3804 95.1392 16.5368C94.9999 16.677 94.9844 16.8442 94.9587 16.9951C94.8658 17.4858 94.773 17.9712 94.675 18.4565C94.5976 18.8339 94.5512 19.2168 94.4738 19.5889C94.3758 20.0634 94.3088 20.5433 94.1902 21.0124C94.1489 21.1688 94.1386 21.336 94.1025 21.4924C94.0715 21.6056 94.02 21.6002 93.9426 21.6002C93.334 21.6002 92.7202 21.6002 92.1116 21.6002C91.5391 21.6002 90.9666 21.6002 90.3993 21.6002C90.3167 21.6002 90.2497 21.6326 90.2961 21.4708C90.3786 21.1904 90.3992 20.8938 90.456 20.6026C90.5179 20.2953 90.5746 19.9825 90.6365 19.6751C90.6881 19.4055 90.7448 19.1305 90.7912 18.8555C90.8428 18.5535 90.9047 18.257 90.9614 17.9604C91.0182 17.6692 91.08 17.3834 91.1162 17.0922C91.1265 17.0005 91.1626 16.9143 91.1832 16.8334C91.2657 16.5098 91.0852 16.2672 90.9924 15.9976C90.7448 15.2912 90.4508 14.6117 90.2084 13.9053C90.0227 13.3661 89.7958 12.843 89.5895 12.3092C89.3471 11.6837 89.115 11.0528 88.8777 10.4219C88.6972 9.95275 88.5012 9.48901 88.3207 9.01988C88.1505 8.5777 87.9906 8.13014 87.8256 7.68258H90.8583C90.8634 7.72032 90.8892 7.72572 90.9202 7.72572C91.3328 7.78503 91.6474 8.0223 91.8847 8.35662C92.1013 8.66398 92.1941 9.04145 92.3282 9.39734C92.4572 9.72627 92.5758 10.0606 92.7047 10.3949C92.8492 10.7724 93.0039 11.1499 93.1483 11.5327C93.334 12.0234 93.5093 12.5195 93.695 13.0102C93.7311 13.1127 93.7775 13.1558 93.8652 13.048C94.0045 12.8646 94.1489 12.6813 94.2882 12.4979C94.5306 12.1798 94.773 11.867 95.0154 11.5489C95.1701 11.3494 95.33 11.1552 95.4848 10.9503C95.7117 10.6538 95.9335 10.3464 96.1656 10.0498C96.3203 9.84491 96.4853 9.64539 96.6452 9.44048C96.8567 9.16008 97.063 8.86889 97.2796 8.59389C97.522 8.29191 97.7696 7.99533 97.9914 7.67719H101.855L101.834 7.68797Z" fill="white"/>
<path d="M150.755 7.68798C150.791 7.80122 150.683 7.82818 150.641 7.89828C150.445 8.22182 150.187 8.49683 149.966 8.80419C149.708 9.16548 149.429 9.5052 149.166 9.86649C148.96 10.1523 148.733 10.4273 148.516 10.7077C148.3 10.9881 148.078 11.2577 147.877 11.5543C147.732 11.7646 147.567 11.9533 147.413 12.1528C147.134 12.5195 146.84 12.8754 146.582 13.2529C146.443 13.4578 146.278 13.6465 146.128 13.8406C145.85 14.2073 145.561 14.5632 145.293 14.9407C145.148 15.1456 144.988 15.3343 144.839 15.5284C144.54 15.9221 144.235 16.3157 143.947 16.7148C143.88 16.8064 143.89 16.9412 143.864 17.0545C143.797 17.3942 143.725 17.7285 143.673 18.0682C143.622 18.4457 143.529 18.8124 143.472 19.1844C143.421 19.5565 143.317 19.9232 143.245 20.2953C143.173 20.6727 143.116 21.0502 143.044 21.4277C143.029 21.5139 143.008 21.6056 142.884 21.6056C141.657 21.6056 140.434 21.6056 139.191 21.6056C139.238 21.2389 139.315 20.8938 139.387 20.5433C139.429 20.3492 139.459 20.1551 139.496 19.9609C139.552 19.6644 139.604 19.3732 139.661 19.0766C139.717 18.7692 139.774 18.4673 139.831 18.1599C139.888 17.8633 139.944 17.5614 140.006 17.2648C140.042 17.0707 140.078 16.8765 140.125 16.6824C140.161 16.5152 140.063 16.3804 140.011 16.2402C139.846 15.7819 139.655 15.3343 139.485 14.8814C139.279 14.3421 139.083 13.8029 138.877 13.2637C138.67 12.719 138.448 12.1798 138.242 11.6352C138.051 11.1337 137.871 10.6268 137.68 10.1253C137.479 9.59147 137.262 9.06303 137.061 8.52918C136.958 8.24878 136.819 7.98456 136.762 7.68259H139.795C139.924 7.73112 140.058 7.77426 140.187 7.83896C140.697 8.0978 140.955 8.56154 141.136 9.10077C141.275 9.51598 141.435 9.93119 141.6 10.341C141.77 10.767 141.915 11.1984 142.09 11.6244C142.286 12.1097 142.451 12.6112 142.637 13.1019C142.662 13.172 142.683 13.1828 142.74 13.1019C142.894 12.8808 143.075 12.6759 143.24 12.4656C143.446 12.2014 143.653 11.9317 143.859 11.6675C144.081 11.3709 144.297 11.069 144.529 10.7832C144.767 10.4866 144.994 10.1792 145.236 9.88266C145.535 9.52677 145.793 9.13852 146.077 8.76645C146.35 8.41055 146.639 8.06544 146.892 7.69337H150.755V7.68798Z" fill="white"/>
<path d="M121.784 7.68796C121.784 7.92523 121.707 8.14631 121.665 8.37279C121.603 8.76104 121.531 9.15468 121.444 9.53754C121.376 9.82872 121.33 10.1199 121.268 10.4111C121.211 10.6807 121.165 10.9557 121.113 11.2253C121.052 11.5327 120.995 11.8455 120.933 12.1528C120.876 12.4224 120.83 12.6974 120.778 12.9671C120.721 13.269 120.665 13.5656 120.608 13.8622C120.551 14.1534 120.5 14.4392 120.443 14.7304C120.386 15.0215 120.324 15.3181 120.273 15.6093C120.221 15.9221 120.144 16.2294 120.103 16.5422C120.066 16.828 119.994 17.1084 119.943 17.3888C119.886 17.7015 119.834 18.0143 119.767 18.3217C119.741 18.4457 119.788 18.4511 119.881 18.4511C120.154 18.4511 120.422 18.4511 120.696 18.4511C122.062 18.4511 123.424 18.4511 124.791 18.4511C124.853 18.4511 124.946 18.4187 124.971 18.4888C124.992 18.5427 124.935 18.6128 124.899 18.6722C124.765 18.904 124.631 19.1413 124.502 19.3786C124.244 19.8315 123.991 20.2791 123.734 20.732C123.599 20.9693 123.46 21.2012 123.342 21.4438C123.285 21.5625 123.223 21.5948 123.099 21.5948C121.253 21.5948 119.401 21.5948 117.555 21.5948C116.863 21.5948 116.167 21.5948 115.476 21.5948C115.321 21.5948 115.29 21.5301 115.316 21.4007C115.404 20.9531 115.502 20.5056 115.59 20.058C115.662 19.6805 115.703 19.2977 115.796 18.9256C115.904 18.4726 115.971 18.0089 116.069 17.5506C116.131 17.2702 116.172 16.9844 116.229 16.6986C116.286 16.4074 116.343 16.1108 116.404 15.8196C116.461 15.5392 116.518 15.2534 116.559 14.9676C116.606 14.6764 116.673 14.3906 116.729 14.1048C116.786 13.8244 116.838 13.5386 116.894 13.2582C116.951 12.9617 117.008 12.6597 117.065 12.3631C117.121 12.0665 117.173 11.7754 117.23 11.4788C117.281 11.1984 117.338 10.9126 117.395 10.6322C117.451 10.3464 117.508 10.0552 117.565 9.76941C117.622 9.47283 117.678 9.17085 117.735 8.86888C117.792 8.5723 117.843 8.27034 117.9 7.97376C117.921 7.8767 117.972 7.77963 117.952 7.67178H121.779L121.784 7.68796Z" fill="white"/>
</svg>
