<svg width="54" height="32" viewBox="0 0 54 32" fill="none" xmlns="http://www.w3.org/2000/svg">
<g clip-path="url(#clip0_3175_13479)">
<path d="M1.15537 16.988V0.897491H9.10788C12.5558 0.897491 14.6024 2.5993 14.6024 5.14998C14.6024 8.02329 12.4873 9.28754 10.5113 9.63234C12.4873 9.81583 13.7979 10.7353 14.2113 13.1267L14.8787 16.988H11.1545L10.6726 13.4251C10.4205 11.564 9.56962 10.8744 7.5694 10.8744H4.64972V16.988H1.15537ZM4.6477 8.04547H8.44046C9.88821 8.04547 10.969 7.37806 10.969 5.90813C10.969 4.43821 9.88821 3.79298 8.44046 3.79298H4.6477V8.04547Z" fill="white"/>
<path d="M25.0835 5.49478H28.5092L23.7043 18.8027C23.0611 20.5731 22.1174 21.4683 20.095 21.4683H16.6692V18.8713H19.6574C20.4842 18.8713 20.8068 18.5043 21.1516 17.5385L21.3593 16.9416L15.7961 5.49478H19.2905L21.1979 9.88439C22.1174 12.0217 22.4158 12.6649 22.6235 13.0803C22.7606 12.6891 22.9683 12.0923 23.7506 9.65452L25.0835 5.49478Z" fill="white"/>
<path d="M29.4731 14.0462C29.4731 10.828 32.8746 9.88641 36.6916 9.51742V9.07987C36.6916 8.09186 36.1169 7.493 34.8063 7.493C33.3122 7.493 32.554 8.22897 32.2778 9.30973L29.3359 8.66652C29.5194 6.87398 31.4269 5.14999 34.7841 5.14999C38.1414 5.14999 39.9097 6.57556 39.9097 9.61017V13.8163C39.9097 14.3909 39.9783 14.5059 40.5993 14.5059H41.6115V16.988H39.1052C37.8187 16.988 37.1513 16.3448 37.0364 15.3104C36.4154 16.2762 35.1289 17.357 33.1065 17.357C31.0841 17.357 29.4751 16.0706 29.4751 14.0462H29.4731ZM36.6916 12.2758V11.5398C34.5765 11.7919 32.7839 12.2072 32.7839 13.7235C32.7839 14.4817 33.29 14.9656 34.278 14.9656C35.5423 14.9656 36.6916 14.1389 36.6916 12.2758Z" fill="white"/>
<path d="M43.3355 16.988V5.49479H46.5072V7.26515C46.9891 6.4828 48.0941 5.14999 50.2072 5.14999C52.8729 5.14999 54 6.78123 54 9.28755V16.988H50.7355V9.99933C50.7355 8.48303 50.0237 7.83779 48.8966 7.83779C46.6201 7.83779 46.598 10.3199 46.598 11.5378V16.986H43.3335L43.3355 16.988Z" fill="white"/>
<path d="M1 29.0861V22.0289H3.31881C5.44606 22.0289 6.55506 23.4303 6.55506 25.5575C6.55506 27.6848 5.38557 29.0861 3.31881 29.0861H1ZM2.25014 28.0679H3.24824C3.95396 28.0679 4.45805 27.8562 4.7605 27.4529C5.10328 26.9891 5.21418 26.3741 5.21418 25.5575C5.21418 24.7409 5.11336 24.1259 4.79075 23.6621C4.49838 23.2185 3.95396 23.0472 3.24824 23.0472H2.25014V28.0679Z" fill="white"/>
<path d="M12.3621 26.8984H8.61173C8.63189 27.836 9.05533 28.3099 9.89211 28.3099C10.6281 28.3099 11.0112 27.9973 11.1221 27.3823L12.2815 27.4731C12.0194 28.6325 11.1927 29.2071 9.9022 29.2071C9.11582 29.2071 8.51091 28.9551 8.0774 28.5115C7.61363 28.0376 7.40192 27.3723 7.40192 26.5556C7.40192 25.739 7.62372 25.1139 8.0774 24.63C8.52099 24.1662 9.1259 23.9243 9.89211 23.9243C10.6583 23.9243 11.3641 24.2267 11.7875 24.7611C12.1908 25.2652 12.3924 26.0314 12.3621 26.8984ZM8.87386 25.2652C8.71255 25.487 8.64197 25.7592 8.62181 26.0011H11.1423C11.1221 25.7188 11.0314 25.4265 10.86 25.2148C10.6382 24.9425 10.3357 24.8216 9.89211 24.8216C9.41827 24.8216 9.07549 24.9829 8.87386 25.2652Z" fill="white"/>
<path d="M15.6791 28.1284H16.5763V29.0861H13.5014V28.1284H14.4894V22.9867H13.6728V22.0289H15.6791V28.1284Z" fill="white"/>
<path d="M22.8673 26.5657C22.8673 28.1586 21.9499 29.2071 20.6494 29.2071C20.0142 29.2071 19.4698 28.9652 19.0867 28.451V31.1025H17.897V24.0453H19.0867V24.7308C19.4295 24.1965 19.994 23.9243 20.6191 23.9243C21.9096 23.9243 22.8673 24.9224 22.8673 26.5657ZM21.5668 26.5556C21.5668 25.3962 21.2744 24.8014 20.3167 24.8014C19.9134 24.8014 19.6109 24.9325 19.3992 25.1946C19.1673 25.487 19.0564 25.9507 19.0564 26.5455C19.0564 27.5638 19.3085 28.3199 20.2864 28.3199C20.6998 28.3199 21.0022 28.209 21.1938 27.9872C21.466 27.705 21.5668 27.221 21.5668 26.5556Z" fill="white"/>
<path d="M28.5635 26.0414V29.0861H27.3537V26.1019C27.3537 25.6382 27.3336 25.3559 27.0815 25.1139C26.8496 24.882 26.6077 24.8619 26.3153 24.8619C25.8818 24.8619 25.2164 25.0837 25.2164 26.2834V29.0861H24.0167V22.0289H25.2063V24.7913C25.4785 24.2066 26.033 23.9243 26.7085 23.9243C27.384 23.9243 27.7973 24.0755 28.1502 24.4586C28.5535 24.882 28.5635 25.4466 28.5635 26.0414Z" fill="white"/>
<path d="M32.0519 28.1284H32.9491V29.0861H29.8742V28.1284H30.8521V25.003H30.0355V24.0452H32.0519V28.1284ZM32.0317 21.9381V23.2488H30.8118V21.9381H32.0317Z" fill="white"/>
</g>
<defs>
<clipPath id="clip0_3175_13479">
<rect width="54" height="30.205" fill="white" transform="translate(0 0.897491)"/>
</clipPath>
</defs>
</svg>
