<?xml version="1.0" standalone="no"?>
<!DOCTYPE svg PUBLIC "-//W3C//DTD SVG 20010904//EN"
 "http://www.w3.org/TR/2001/REC-SVG-20010904/DTD/svg10.dtd">
<svg version="1.0" xmlns="http://www.w3.org/2000/svg"
 width="628.000000pt" height="628.000000pt" viewBox="0 0 628.000000 628.000000"
 preserveAspectRatio="xMidYMid meet">
<metadata>
Created by potrace 1.14, written by Peter Selinger 2001-2017
</metadata>
<g transform="translate(0.000000,628.000000) scale(0.100000,-0.100000)"
fill="#000000" stroke="none">
<path d="M2990 6255 c-36 -7 -95 -24 -131 -37 -58 -21 -1593 -901 -1739 -997
-81 -53 -221 -191 -280 -277 -69 -100 -135 -242 -168 -361 l-27 -98 0 -1350 0
-1350 27 -98 c30 -108 96 -255 155 -344 47 -72 169 -201 244 -259 83 -64 1692
-993 1778 -1027 188 -73 380 -75 572 -5 58 21 1594 902 1739 997 81 53 221
191 280 277 69 100 135 242 168 361 l27 98 3 1300 c2 1134 1 1313 -13 1399
-25 161 -85 312 -178 451 -53 79 -177 206 -253 261 -34 24 -434 260 -889 524
-850 492 -890 513 -1039 539 -78 14 -195 12 -276 -4z m804 -1170 c20 -20 10
23 146 -650 66 -330 130 -628 141 -663 45 -135 167 -276 297 -341 32 -16 197
-76 367 -135 180 -61 315 -113 323 -123 6 -9 12 -26 12 -38 0 -12 -6 -29 -12
-38 -8 -10 -141 -61 -322 -123 -169 -57 -334 -118 -366 -134 -132 -66 -254
-207 -299 -342 -11 -35 -75 -333 -141 -663 -67 -330 -123 -608 -126 -617 -14
-48 -76 -64 -108 -29 -12 13 -56 212 -146 657 -123 609 -131 643 -171 723 -48
97 -140 197 -234 253 -38 23 -176 76 -375 143 -314 107 -360 129 -360 170 0
41 46 63 343 164 163 55 321 112 351 127 122 59 222 163 283 291 30 62 51 154
163 709 90 443 134 642 146 655 21 23 67 25 88 4z m-1354 -97 c5 -13 28 -117
51 -233 22 -115 48 -223 56 -240 35 -70 72 -94 223 -144 52 -17 101 -35 109
-40 30 -19 -1 -40 -111 -76 -211 -70 -212 -71 -278 -391 -28 -132 -50 -240
-50 -241 0 -2 -9 -3 -19 -3 -16 0 -22 11 -31 58 -92 448 -98 468 -159 512 -16
11 -82 38 -147 61 -66 23 -123 45 -129 50 -17 16 17 35 133 75 122 42 171 74
201 132 10 21 38 132 60 247 43 218 54 255 71 255 6 0 15 -10 20 -22z m-524
-2173 c70 -346 65 -327 104 -388 41 -66 99 -98 277 -158 88 -29 157 -57 160
-66 9 -24 -15 -38 -162 -88 -77 -26 -156 -56 -176 -66 -44 -22 -106 -89 -126
-136 -8 -20 -41 -168 -74 -331 -32 -162 -64 -301 -70 -308 -34 -41 -47 -7
-110 306 -66 326 -82 374 -143 428 -48 42 -67 51 -231 107 -146 50 -171 64
-162 88 3 9 72 37 160 66 168 56 230 90 270 149 39 56 44 74 107 390 33 161
62 297 66 303 3 6 16 9 27 7 20 -3 27 -26 83 -303z"/>
</g>
</svg>
