<svg width="33" height="42" viewBox="0 0 33 42" fill="none" xmlns="http://www.w3.org/2000/svg">
<path d="M20.7928 19.4589L23.4313 14.982L30.5429 26.0586L30.5462 28.1842L30.523 13.5567C30.5062 13.1991 30.3163 12.872 30.0134 12.6791L17.2098 5.31431C16.9104 5.16714 16.5305 5.1687 16.2316 5.31888C16.1912 5.33917 16.1532 5.36114 16.117 5.38511L16.0724 5.41321L3.64447 12.6151L3.59619 12.637C3.5342 12.6655 3.47154 12.7017 3.41267 12.7439C3.17709 12.9129 3.02055 13.1628 2.96994 13.4431C2.96235 13.4855 2.95678 13.5288 2.9541 13.5724L2.97361 25.4925L9.59776 15.2254C10.4317 13.8639 12.2488 13.4254 13.9356 13.4493L15.9154 13.5016L4.25055 32.2087L5.62559 33.0004L17.4303 13.5205L22.6479 13.5016L10.8737 33.473L15.7803 36.2952L16.3665 36.6323C16.6145 36.7331 16.9068 36.7381 17.1569 36.6479L30.1404 29.1238L27.6581 30.5622L20.7928 19.4589ZM21.7995 33.9574L16.8437 26.1794L19.8688 21.046L26.3773 31.3044L21.7995 33.9574Z" fill="#2D374B"/>
<path d="M16.8438 26.1793L21.7995 33.9573L26.3774 31.3043L19.869 21.0459L16.8438 26.1793Z" fill="#28A0F0"/>
<path d="M30.5464 28.1837L30.543 26.0581L23.4315 14.9814L20.793 19.4583L27.6583 30.5616L30.1406 29.1232C30.3841 28.9256 30.5313 28.6354 30.5468 28.3222L30.5464 28.1837Z" fill="#28A0F0"/>
<path d="M0.745229 30.1887L4.25058 32.2086L15.9154 13.5014L13.9357 13.4492C12.2489 13.4253 10.4319 13.8638 9.59779 15.2252L2.97364 25.4923L0.745117 28.9164V30.1887H0.745229Z" fill="white"/>
<path d="M22.6482 13.501L17.4307 13.5199L5.62598 32.9998L9.75201 35.3755L10.8741 33.4724L22.6482 13.501Z" fill="white"/>
<path d="M32.745 13.4743C32.7014 12.3831 32.1106 11.3841 31.1851 10.8025L18.2138 3.34309C17.2983 2.88207 16.1546 2.88151 15.2377 3.34276C15.1293 3.39739 2.62322 10.6505 2.62322 10.6505C2.45018 10.7334 2.2835 10.8323 2.12663 10.9445C1.30046 11.5366 0.79685 12.4567 0.745117 13.4676V28.9162L2.97364 25.4921L2.95413 13.572C2.95681 13.5284 2.96227 13.4856 2.96996 13.4433C3.02025 13.1627 3.17689 12.9126 3.4127 12.7435C3.47157 12.7014 16.1912 5.33882 16.2316 5.31853C16.5307 5.16835 16.9105 5.16678 17.2099 5.31396L30.0134 12.6788C30.3163 12.8716 30.5062 13.1988 30.5231 13.5563V28.3224C30.5076 28.6356 30.3838 28.9257 30.1403 29.1234L27.658 30.5618L26.3773 31.304L21.7994 33.957L17.1568 36.6476C16.9067 36.7379 16.6144 36.7329 16.3664 36.632L10.8736 33.4727L9.75154 35.3756L14.6878 38.2177C14.851 38.3105 14.9965 38.3928 15.1158 38.4599C15.3007 38.5636 15.4265 38.6328 15.471 38.6543C15.8219 38.8247 16.3266 38.9239 16.7815 38.9239C17.1986 38.9239 17.6052 38.8473 17.9901 38.6966L31.4746 30.8873C32.2486 30.2877 32.704 29.3833 32.745 28.4036V13.4743V13.4743Z" fill="#96BEDC"/>
</svg>
