<svg width="42" height="54" viewBox="0 0 42 54" fill="none" xmlns="http://www.w3.org/2000/svg">
<path d="M0.298828 16.8865V36.8567C0.298828 40.1627 2.03102 43.2123 4.83181 44.8548L17.7418 52.4531C19.8155 53.6749 22.3607 53.6749 24.4374 52.4531L37.3473 44.8548C40.1451 43.2018 41.8766 40.1522 41.8766 36.8567V16.8865C41.8766 13.5805 40.1451 10.5309 37.3473 8.88765L24.4374 1.27963C22.3607 0.0578319 19.8147 0.0578319 17.7418 1.27963L4.83181 8.87794C2.03102 10.5309 0.298828 13.5805 0.298828 16.8865Z" fill="#DD2626"/>
<path d="M9.6784 17.3393L11.3613 17.9005C11.9808 18.112 12.4448 18.6216 12.5666 19.2628L13.2765 22.7354C13.2975 22.8258 13.3767 22.8841 13.4701 22.8841C13.5635 22.8841 13.6434 22.8258 13.6636 22.7354L14.3735 19.2628C14.5051 18.6321 14.9624 18.1128 15.5886 17.9005L17.2715 17.3393C17.3514 17.3079 17.403 17.2392 17.403 17.1592C17.403 17.0793 17.3507 17.0098 17.2715 16.9784L15.5886 16.4172C14.9691 16.2064 14.5051 15.6961 14.3735 15.0549L13.6636 11.5823C13.6427 11.4926 13.5635 11.4336 13.4701 11.4336C13.3767 11.4336 13.2967 11.4926 13.2765 11.5823L12.5666 15.0549C12.4351 15.6863 11.9778 16.2057 11.3613 16.4172L9.6784 16.9784C9.59844 17.0098 9.54688 17.0793 9.54688 17.1592C9.54688 17.2392 9.59918 17.3079 9.6784 17.3393Z" fill="#FFFBF4"/>
<path d="M21.23 29.5068C23.5226 29.5068 25.3819 27.6468 25.3819 25.3519C25.3819 23.0563 23.5234 21.1963 21.23 21.1963C18.9374 21.1963 17.0781 23.0563 17.0781 25.3519C17.0781 27.6468 18.9366 29.5068 21.23 29.5068Z" fill="#FFFBF4"/>
<path d="M13.3362 37.8244V38.5074C13.3362 38.9192 13.5582 39.304 13.9146 39.508C18.4439 42.125 24.0223 42.125 28.5515 39.508C28.908 39.3003 29.1299 38.9192 29.1299 38.5074V37.8244C29.1299 35.8591 28.0807 34.0432 26.3807 33.059L24.6463 32.0577C22.5337 30.8389 19.9302 30.8389 17.8176 32.0577L16.0832 33.059C14.3832 34.0432 13.334 35.8591 13.334 37.8244H13.3362Z" fill="#FFFBF4"/>
</svg>
