<svg width="51" height="66" viewBox="0 0 51 66" fill="none" xmlns="http://www.w3.org/2000/svg">
<path d="M0 20.2677V44.7635C0 48.8187 2.12473 52.5594 5.56024 54.5741L21.3958 63.8944C23.9394 65.393 27.0615 65.393 29.6088 63.8944L45.4443 54.5741C48.8762 52.5466 51 48.8058 51 44.7635V20.2677C51 16.2125 48.8762 12.4718 45.4443 10.4561L29.6088 1.12401C27.0615 -0.37467 23.9385 -0.37467 21.3958 1.12401L5.56024 10.4442C2.12473 12.4718 0 16.2125 0 20.2677Z" fill="#DD2626"/>
<path d="M11.4312 20.9066L13.4808 21.5904C14.2361 21.848 14.8007 22.4685 14.9474 23.2495L15.8127 27.4797C15.8374 27.5897 15.9346 27.6603 16.0483 27.6603C16.1619 27.6603 16.2591 27.5897 16.2857 27.4797L17.15 23.2495C17.3114 22.4814 17.8668 21.8489 18.6313 21.5904L20.6809 20.9066C20.778 20.869 20.8413 20.7847 20.8413 20.6875C20.8413 20.5904 20.778 20.5051 20.6809 20.4675L18.6313 19.7837C17.876 19.5271 17.3114 18.9056 17.15 18.1247L16.2857 13.8944C16.26 13.7854 16.1628 13.7139 16.0483 13.7139C15.9337 13.7139 15.8374 13.7863 15.8127 13.8944L14.9474 18.1247C14.787 18.8937 14.2306 19.5271 13.4808 19.7837L11.4312 20.4675C11.3341 20.5051 11.2699 20.5904 11.2699 20.6875C11.2699 20.7847 11.3341 20.869 11.4312 20.9066Z" fill="#FFFBF4"/>
<path d="M36.2744 54.6988V49.8407C36.2744 49.376 36.6548 48.9956 37.1186 48.9956H42.9814C43.4699 48.9956 43.8622 49.4099 43.8247 49.8948C43.7999 50.2495 43.766 50.596 43.7275 50.9471L43.7706 50.9214C46.1492 49.562 47.6259 47.0505 47.6259 44.3611V44.3098C47.2877 39.2354 46.0438 34.7063 44.1711 31.2195C43.9942 30.8858 44.3783 30.5357 44.6991 30.7383L46.3307 31.7805C46.8917 32.1398 47.6296 31.7346 47.6296 31.0673V29.1461C47.6296 28.4925 47.2922 27.8885 46.7432 27.5383C42.799 25.0305 38.0582 23.6794 32.9883 23.9791C21.8065 24.6391 12.6036 33.3901 11.3844 44.5334C11.0425 47.6408 11.3331 50.6372 12.1269 53.4284C12.1856 53.6392 12.3341 53.8207 12.5238 53.9307L15.2984 55.51C16.0024 55.9106 16.8008 55.1892 16.4882 54.4421C15.9052 53.0278 15.4845 51.5291 15.2526 49.9672C15.1765 49.4566 15.5725 48.9919 16.0876 48.9919H20.2757C20.723 48.9919 21.086 49.3421 21.1153 49.7903C21.3472 53.4329 22.0512 56.7933 23.1181 59.6935C23.2034 59.9217 23.3803 60.094 23.5994 60.1875C24.1979 60.4414 24.8432 60.5762 25.5014 60.5762C25.8057 60.5762 26.1091 60.5459 26.4088 60.4909C26.9368 60.3901 27.253 59.8411 27.0495 59.3433C25.9533 56.6714 25.1943 53.4201 24.9321 49.8874C24.8946 49.4026 25.286 48.9882 25.7763 48.9882H31.6391C32.1029 48.9882 32.4824 49.3686 32.4824 49.8324V55.8904C32.4824 56.5366 33.1827 56.9454 33.7436 56.6246L35.8528 55.4248C36.1149 55.2735 36.279 54.9949 36.279 54.6905L36.2744 54.6988ZM37.62 28.9353C40.8337 31.3717 43.293 37.2811 43.8201 44.2768C43.8577 44.7709 43.4745 45.1925 42.9814 45.1925H37.1186C36.6548 45.1925 36.2744 44.8121 36.2744 44.3474V29.6154C36.2744 28.9224 37.0673 28.5136 37.62 28.9353ZM20.2757 45.1971H16.0876C15.5688 45.1971 15.1765 44.7369 15.2526 44.2218C16.0024 39.207 18.6817 34.8117 22.5077 31.8281C23.1942 31.2919 24.1393 32.0472 23.7854 32.8456C22.3427 36.0913 21.3931 40.0475 21.1153 44.4033C21.0851 44.8515 20.7221 45.2017 20.2757 45.2017V45.1971V45.1971ZM24.9285 44.2805C25.4555 37.2811 27.9148 31.3753 31.1285 28.9389C31.6812 28.521 32.4741 28.927 32.4741 29.6191V44.352C32.4741 44.8158 32.0937 45.1962 31.6299 45.1962H25.7672C25.274 45.1971 24.89 44.7745 24.9285 44.2805Z" fill="#FFFBF4"/>
</svg>
