<?xml version="1.0" encoding="utf-8"?>
<!-- Generator: Adobe Illustrator 26.1.0, SVG Export Plug-In . SVG Version: 6.00 Build 0)  -->
<svg version="1.1" id="Layer_1" xmlns="http://www.w3.org/2000/svg" xmlns:xlink="http://www.w3.org/1999/xlink" x="0px" y="0px"
	 viewBox="0 0 80 80" style="enable-background:new 0 0 80 80;" xml:space="preserve">
<style type="text/css">
	.st0{fill:#DD2626;}
	.st1{fill-rule:evenodd;clip-rule:evenodd;fill:#FFFCF6;}
</style>
<g id="Layer_2_00000108276913770300673930000000191784986503050114_">
</g>
<g id="Layer_3">
</g>
<g id="Layer_1_00000042716917038222971980000006228705420685249967_">
	<g>
		<g>
			<g>
				<path class="st0" d="M12.18,26.645v26.724c0,4.424,2.318,8.505,6.066,10.703L35.522,74.24c2.775,1.635,6.181,1.635,8.96,0
					l17.276-10.168c3.744-2.212,6.061-6.293,6.061-10.703V26.645c0-4.424-2.317-8.505-6.061-10.704L44.482,5.76
					c-2.779-1.635-6.186-1.635-8.96,0L18.246,15.928C14.498,18.14,12.18,22.221,12.18,26.645z"/>
			</g>
		</g>
		<g>
			<path class="st1" d="M51.2,36.343c-0.23-0.23-0.47-0.45-0.72-0.65h-11.9c-0.25,0.2-0.49,0.42-0.72,0.65
				c-1.04,1.03-1.78,2.25-2.23,3.55h17.81C52.97,38.573,52.22,37.363,51.2,36.343z"/>
			<path class="st1" d="M35.26,44.753c0.28,1.5,0.93,2.95,1.94,4.2h14.66c0.99-1.23,1.66-2.66,1.94-4.2H35.26z"/>
			<path class="st1" d="M55.96,31.575c-0.262-0.262-0.54-0.497-0.815-0.737h2.423c0.552,0,1-0.447,1-1v-2c0-0.552-0.448-1-1-1
				H22.432c-0.552,0-1,0.448-1,1v2c0,0.552,0.448,1,1,1h11.475c-0.275,0.24-0.553,0.475-0.815,0.737
				c-1.24,1.24-2.228,2.635-2.981,4.118H22.43c-0.55,0-1,0.45-1,1v2.2c0,0.55,0.45,1,1,1h6.228c-0.313,1.602-0.375,3.241-0.201,4.86
				H22.43c-0.55,0-1,0.45-1,1v2.2c0,0.55,0.45,1,1,1h7.061c0.543,1.375,1.29,2.684,2.224,3.898l-4.08,4.08
				c-0.391,0.39-0.391,1.023,0,1.414l1.556,1.556c0.39,0.391,1.023,0.391,1.414,0l4.08-4.08c6.341,4.882,15.465,4.433,21.276-1.378
				C62.275,48.128,62.275,37.889,55.96,31.575z M44.526,55.179c-6.721,0-12.17-5.449-12.17-12.17s5.449-12.17,12.17-12.17
				s12.17,5.449,12.17,12.17S51.247,55.179,44.526,55.179z"/>
		</g>
	</g>
</g>
</svg>
