<svg width="51" height="66" viewBox="0 0 51 66" fill="none" xmlns="http://www.w3.org/2000/svg">
<path d="M0 20.2614V44.7535C0 48.8064 2.12588 52.5453 5.55934 54.5608L21.3938 63.8795C23.9372 65.3759 27.0628 65.3759 29.6062 63.8795L45.4407 54.5608C48.8741 52.5322 51 48.7934 51 44.7535V20.2614C51 16.2085 48.8741 12.4653 45.4407 10.4541L29.6062 1.1223C27.0628 -0.3741 23.9372 -0.3741 21.3938 1.1223L5.55934 10.441C2.12588 12.4696 0 16.2085 0 20.2614Z" fill="#DC2626"/>
<path d="M10.1198 20.8521L12.1697 21.536C12.9247 21.7935 13.49 22.4141 13.6376 23.195L14.5023 27.4249C14.5276 27.5347 14.6246 27.6064 14.7385 27.6064C14.8524 27.6064 14.9494 27.5347 14.9747 27.4249L15.8394 23.195C15.9997 22.4267 16.5565 21.7935 17.3199 21.536L19.3699 20.8521C19.4669 20.8142 19.5301 20.7297 19.5301 20.6326C19.5301 20.5355 19.4669 20.4511 19.3699 20.4131L17.3199 19.7292C16.5649 19.4717 15.9997 18.8512 15.8394 18.0702L14.9747 13.8404C14.9494 13.7306 14.8524 13.6588 14.7385 13.6588C14.6246 13.6588 14.5276 13.7306 14.5023 13.8404L13.6376 18.0702C13.4773 18.8385 12.9205 19.4717 12.1697 19.7292L10.1198 20.4131C10.0227 20.4511 9.95947 20.5355 9.95947 20.6326C9.95947 20.7297 10.0227 20.8142 10.1198 20.8521V20.8521Z" fill="#FFFCF5"/>
<path d="M37.3382 35.7412L28.6829 30.743C28.3792 30.5657 28.0628 30.4222 27.738 30.2998C28.7503 29.5906 29.4126 28.4213 29.4126 27.0915C29.4126 24.9302 27.6621 23.174 25.4983 23.174C23.3344 23.174 21.5839 24.9259 21.5839 27.0915C21.5839 28.4213 22.2462 29.5906 23.2585 30.2998C22.9337 30.4222 22.6173 30.5657 22.3136 30.743L13.6583 35.7412C11.6927 36.8768 10.4737 38.9917 10.4737 41.2628V43.9814C10.4737 46.2525 11.6927 48.3675 13.6583 49.503L22.3136 54.5012C23.2964 55.0711 24.3974 55.3539 25.4983 55.3539C26.5992 55.3539 27.7001 55.0711 28.6829 54.5012L37.3382 49.4988C39.3038 48.3633 40.5228 46.2483 40.5228 43.9772V41.2586C40.5228 38.9875 39.3038 36.8725 37.3382 35.737V35.7412ZM35.4401 43.496L26.7847 48.4983C25.9918 48.9585 25.0048 48.9585 24.2075 48.4983L15.6408 43.5508C15.084 43.23 14.6242 42.7361 14.4133 42.124C13.9915 40.9124 14.5145 39.6334 15.5564 39.0339L22.3347 35.1164C22.8957 34.7914 23.6002 35.1966 23.6002 35.8467V37.9448C23.6002 38.9368 24.3257 39.8233 25.3127 39.9162C26.4431 40.026 27.3964 39.1352 27.3964 38.025V35.8467C27.3964 35.1966 28.1008 34.7914 28.6618 35.1164L35.4401 39.0339C36.2331 39.494 36.7266 40.3468 36.7266 41.267C36.7266 42.1873 36.2331 43.04 35.4401 43.5002V43.496Z" fill="#FFFCF5"/>
</svg>
