<svg width="42" height="54" viewBox="0 0 42 54" fill="none" xmlns="http://www.w3.org/2000/svg">
<path d="M0.0488281 16.8865V36.8567C0.0488281 40.1627 1.78102 43.2123 4.58181 44.8548L17.4918 52.4531C19.5655 53.6749 22.1107 53.6749 24.1874 52.4531L37.0973 44.8548C39.8951 43.2018 41.6266 40.1522 41.6266 36.8567V16.8865C41.6266 13.5805 39.8951 10.5309 37.0973 8.88765L24.1874 1.27963C22.1107 0.0578319 19.5647 0.0578319 17.4918 1.27963L4.58181 8.87794C1.78102 10.5309 0.0488281 13.5805 0.0488281 16.8865Z" fill="#DD2626"/>
<path d="M11.0878 17.3596L12.7587 17.92C13.3737 18.1308 13.8348 18.6389 13.9559 19.2793L14.6613 22.7445C14.6815 22.8341 14.7607 22.8932 14.8533 22.8932C14.946 22.8932 15.0252 22.8341 15.0454 22.7445L15.7508 19.2793C15.8816 18.6501 16.3352 18.1315 16.9577 17.92L18.6286 17.3596C18.707 17.3282 18.7593 17.2595 18.7593 17.1795C18.7593 17.1003 18.707 17.0308 18.6286 16.9994L16.9577 16.4389C16.3419 16.2282 15.8816 15.7201 15.7508 15.0797L15.0454 11.6145C15.0252 11.5249 14.946 11.4658 14.8533 11.4658C14.7607 11.4658 14.6815 11.5249 14.6613 11.6145L13.9559 15.0797C13.8251 15.7089 13.3715 16.2275 12.7587 16.4389L11.0878 16.9994C11.0093 17.0308 10.957 17.0995 10.957 17.1795C10.957 17.2595 11.0086 17.3282 11.0878 17.3596Z" fill="#FFFBF4"/>
<path d="M31.2087 18.5769C28.7188 17.9335 25.9375 18.6113 23.9534 20.6035C22.3408 22.2251 21.5943 24.3795 21.7183 26.4786C21.7699 27.3641 22.4716 28.0695 23.3519 28.1211C25.436 28.2459 27.5777 27.4949 29.1941 25.8733C31.1744 23.8818 31.8447 21.084 31.2087 18.5806V18.5769Z" fill="#FFFCF6"/>
<path d="M22.0505 39.0641V30.9345C22.0505 28.4034 20.3079 26.1624 17.8381 25.6684C17.818 25.6647 17.797 25.6617 17.7798 25.6579C16.1979 25.3538 14.6749 25.6303 13.5196 26.3148C12.9793 26.6361 12.8418 27.3595 13.2274 27.8572C14.0494 28.922 15.3661 29.7455 16.9444 30.0497C17.6087 30.1775 18.2648 30.2014 18.8873 30.1364C19.2864 30.0945 19.6264 30.4233 19.6264 30.8246V39.0648C16.5528 39.3383 14.2243 40.6349 14.2243 42.1944C14.2243 43.9543 27.4496 43.9543 27.4496 42.1944C27.4496 40.6349 25.1211 39.3383 22.0475 39.0648H22.0505V39.0641Z" fill="#FFFCF6"/>
</svg>
