<?xml version="1.0" encoding="utf-8"?>
<!-- Generator: Adobe Illustrator 26.1.0, SVG Export Plug-In . SVG Version: 6.00 Build 0)  -->
<svg version="1.1" xmlns="http://www.w3.org/2000/svg" xmlns:xlink="http://www.w3.org/1999/xlink" x="0px" y="0px"
	 viewBox="0 0 80 80" style="enable-background:new 0 0 80 80;" xml:space="preserve">
<style type="text/css">
	.st0{fill:#101827;}
	.st1{fill:#FDF4DF;}
	.st2{fill:none;}
	.st3{fill:#DD2626;}
	.st4{fill:#FFFDF7;}
	.st5{fill:#FFFCF6;}
	.st6{fill:#DB2626;}
	.st7{fill:#FFF5DD;}
	.st8{fill:#FFFFFF;}
	.st9{fill:#FFFBF4;}
	.st10{fill:#FFF5DE;}
	.st11{clip-path:url(#SVGID_00000071548517324537916190000009973207919943336103_);fill:#FFFCF6;}
	.st12{clip-path:url(#SVGID_00000071548517324537916190000009973207919943336103_);fill:#DB2626;}
	.st13{clip-path:url(#SVGID_00000065066286032909695140000003953867424942442631_);fill:#FFFCF6;}
	.st14{clip-path:url(#SVGID_00000065066286032909695140000003953867424942442631_);fill:#DB2626;}
	.st15{clip-path:url(#SVGID_00000074437162551452802160000001528162514997266323_);fill:#FFFCF6;}
	.st16{clip-path:url(#SVGID_00000074437162551452802160000001528162514997266323_);fill:#DB2626;}
	.st17{clip-path:url(#SVGID_00000080904483711037319540000014256043935412900533_);fill:#FFFCF6;}
	.st18{clip-path:url(#SVGID_00000080904483711037319540000014256043935412900533_);fill:#DB2626;}
	.st19{clip-path:url(#SVGID_00000085951765392060685260000005556344668427891092_);fill:#FFFCF6;}
	.st20{clip-path:url(#SVGID_00000085951765392060685260000005556344668427891092_);fill:#DB2626;}
	.st21{clip-path:url(#SVGID_00000064355599542660623590000000077977066814444188_);fill:#FFFCF6;}
	.st22{clip-path:url(#SVGID_00000064355599542660623590000000077977066814444188_);}
	.st23{clip-path:url(#SVGID_00000064355599542660623590000000077977066814444188_);fill:#DB2626;}
	.st24{clip-path:url(#SVGID_00000010304928199954928810000017491159859962181299_);fill:#FFFCF6;}
	.st25{clip-path:url(#SVGID_00000010304928199954928810000017491159859962181299_);}
	.st26{clip-path:url(#SVGID_00000010304928199954928810000017491159859962181299_);fill:#DB2626;}
	.st27{clip-path:url(#SVGID_00000021100775991888792700000008047075798792967041_);fill:#FFFCF6;}
	.st28{clip-path:url(#SVGID_00000021100775991888792700000008047075798792967041_);}
	.st29{clip-path:url(#SVGID_00000021100775991888792700000008047075798792967041_);fill:#DB2626;}
	.st30{clip-path:url(#SVGID_00000128467176778222712520000017752707019794144417_);fill:#FFFCF6;}
	.st31{clip-path:url(#SVGID_00000128467176778222712520000017752707019794144417_);}
	.st32{clip-path:url(#SVGID_00000128467176778222712520000017752707019794144417_);fill:#DB2626;}
	.st33{clip-path:url(#SVGID_00000049928186039306584100000016545571730867520672_);fill:#FFFCF6;}
	.st34{clip-path:url(#SVGID_00000049928186039306584100000016545571730867520672_);}
	.st35{clip-path:url(#SVGID_00000049928186039306584100000016545571730867520672_);fill:#DB2626;}
	.st36{clip-path:url(#SVGID_00000072275677643782434020000002422249394188779913_);fill:#FFFCF6;}
	.st37{clip-path:url(#SVGID_00000072275677643782434020000002422249394188779913_);}
	.st38{clip-path:url(#SVGID_00000072275677643782434020000002422249394188779913_);fill:#DB2626;}
	.st39{clip-path:url(#SVGID_00000082328774546275332960000010384383816944753291_);fill:#FFFCF6;}
	.st40{clip-path:url(#SVGID_00000082328774546275332960000010384383816944753291_);}
	.st41{clip-path:url(#SVGID_00000082328774546275332960000010384383816944753291_);fill:#DB2626;}
	.st42{fill:url(#SVGID_00000147924772271606393280000007900931216365493912_);}
	.st43{filter:url(#Adobe_OpacityMaskFilter);}
	.st44{opacity:0.75;mask:url(#SVGID_00000133496793702836300150000013984354651118022815_);}
	.st45{fill:url(#SVGID_00000029735965687455712820000014253997913886572735_);}
	.st46{fill:url(#SVGID_00000009572599158008252620000013099882939717009292_);}
	.st47{fill:url(#SVGID_00000046297364319427670360000000706740520348187058_);}
	.st48{fill:#A81A1A;}
	.st49{fill:url(#SVGID_00000047037672463615535290000017029890754048823695_);}
	.st50{fill:url(#SVGID_00000002359388614093409890000008229967259642264709_);}
	.st51{fill:url(#SVGID_00000163045677101985069840000008550584628226547869_);}
	.st52{fill:url(#SVGID_00000014632988330122623400000015945842162239906741_);}
	.st53{fill:url(#SVGID_00000043440860783668839670000005005706391165967028_);}
	.st54{fill:none;stroke:#FFF5DD;stroke-width:10;stroke-miterlimit:10;}
	.st55{fill:#DC2626;}
	.st56{fill:#E6E7E8;}
	.st57{fill:#CED0D3;}
	.st58{fill:#B6B9BD;}
	.st59{fill:#9EA2A8;}
	.st60{fill:#878B92;}
	.st61{fill:#70747D;}
	.st62{fill:#404652;}
	.st63{fill:#282F3D;}
	.st64{fill:#FFF9EE;}
	.st65{fill:#FDEFD0;}
	.st66{fill:#FCEAC1;}
	.st67{fill:#FCE6B2;}
	.st68{fill:#FBE1A2;}
	.st69{fill:#FBDC93;}
	.st70{fill:#FAD785;}
	.st71{fill:#FBD277;}
	.st72{fill:#FBE8E8;}
	.st73{fill:#F7D3D3;}
	.st74{fill:#F5BDBD;}
	.st75{fill:#F1A7A7;}
	.st76{fill:#E76767;}
	.st77{fill:#EE9292;}
	.st78{fill:#E35151;}
	.st79{fill:#EA7D7D;}
	.st80{fill:#E03C3C;}
	.st81{fill-rule:evenodd;clip-rule:evenodd;fill:#FFFCF6;}
	.st82{clip-path:url(#SVGID_00000135657324104228267580000008447851705117975939_);}
	.st83{clip-path:url(#SVGID_00000013177186775381322720000000662207341287345341_);}
	.st84{fill:url(#SVGID_00000098179691809588330060000001675788957173281681_);}
	.st85{fill:url(#SVGID_00000023238706915771123100000007497497848393209756_);}
	.st86{filter:url(#Adobe_OpacityMaskFilter_00000120533218323331358190000002119566654701853065_);}
	.st87{opacity:0.75;mask:url(#SVGID_00000099652109199406294880000013371722991067345821_);}
	.st88{fill:url(#SVGID_00000090286504505090701960000006557231416407770515_);}
	.st89{fill:url(#SVGID_00000044880436091238201060000004830393963735986342_);}
	.st90{fill:url(#SVGID_00000067920135447112572900000015154035918492857767_);}
	.st91{fill:url(#SVGID_00000066500068896060659290000009233485474467650217_);}
	.st92{fill:url(#SVGID_00000114062774712790613150000008727126116016079269_);}
	.st93{filter:url(#Adobe_OpacityMaskFilter_00000069393363025157125920000009532179152267480490_);}
	.st94{opacity:0.75;mask:url(#SVGID_00000173119069765579657080000017116193815891424915_);}
	.st95{fill:url(#SVGID_00000131367862574467857570000016946081907341154688_);}
	.st96{fill:url(#SVGID_00000115495199583453663020000013344898872195158163_);}
	.st97{filter:url(#Adobe_OpacityMaskFilter_00000036973636011918845490000013370384490466924952_);}
	.st98{opacity:0.75;mask:url(#SVGID_00000126305636523058505670000014927116211375245993_);}
	.st99{fill:url(#SVGID_00000026869477784540963500000014372776677915777429_);}
	.st100{fill:url(#SVGID_00000039853828362150079150000001105944878038419369_);}
	.st101{filter:url(#Adobe_OpacityMaskFilter_00000065757951256005698980000016031817004286490522_);}
	.st102{opacity:0.75;mask:url(#SVGID_00000067214478738016487020000002039521649139881145_);}
	.st103{fill:url(#SVGID_00000167360550758192105290000016113088517808774540_);}
	.st104{fill:url(#SVGID_00000105411132094289886110000017127521453117010581_);}
	.st105{fill:url(#SVGID_00000152965211312101153120000016210258376513213852_);}
	.st106{fill:url(#SVGID_00000041273927752301280600000009872386378531694230_);}
	.st107{fill:url(#SVGID_00000158016751301048675290000003049281141339291018_);}
	.st108{filter:url(#Adobe_OpacityMaskFilter_00000059288501954765021790000001297551010836580018_);}
	.st109{opacity:0.75;mask:url(#SVGID_00000134964226489480806840000016934415011029006007_);}
	.st110{fill:url(#SVGID_00000173854977532488584420000003352257166421240764_);}
	.st111{fill:url(#SVGID_00000003820288242320422330000004198302291640363188_);}
	.st112{filter:url(#Adobe_OpacityMaskFilter_00000027602961509552695900000012885340640990603444_);}
	.st113{opacity:0.75;mask:url(#SVGID_00000068664636333518009100000014575611765520631432_);}
	.st114{fill:url(#SVGID_00000116945715197077872810000005951250080805332108_);}
	.st115{fill:url(#SVGID_00000059284125193746449190000005724708016770015895_);}
	.st116{filter:url(#Adobe_OpacityMaskFilter_00000078030570116808683140000008220012124844312767_);}
	.st117{opacity:0.75;mask:url(#SVGID_00000126288668837373754440000008862060836813092532_);}
	.st118{fill:url(#SVGID_00000143615761498373679820000010796641782236627899_);}
	.st119{fill:url(#SVGID_00000138572492417114945580000006668621503674212258_);}
	.st120{fill:url(#SVGID_00000034789035632869248330000017067302295426760349_);}
	.st121{fill:url(#SVGID_00000132807853064090875250000016835357138336309926_);}
	.st122{fill:url(#SVGID_00000096767623769769626150000001941079966370909847_);}
	.st123{fill:url(#SVGID_00000111149099812637321150000003182985274860299915_);}
	.st124{fill:url(#SVGID_00000129923757752851357130000000403743845867667875_);}
	.st125{filter:url(#Adobe_OpacityMaskFilter_00000161592299521645371880000002538910127342202536_);}
	.st126{opacity:0.75;mask:url(#SVGID_00000114753993833332680110000007115134776619661981_);}
	.st127{fill:url(#SVGID_00000078754917018943052420000016215658502078479000_);}
	.st128{fill:url(#SVGID_00000181808260862175042830000003544460870141288855_);}
	.st129{fill:url(#SVGID_00000160887669755768823270000002370801120958512530_);}
	.st130{fill:url(#SVGID_00000127757451891119422940000006766615617051667377_);}
	.st131{filter:url(#Adobe_OpacityMaskFilter_00000053503650121508098550000015481599686362125696_);}
	.st132{opacity:0.75;mask:url(#SVGID_00000032616352764655150830000012807536216260610435_);}
	.st133{fill:url(#SVGID_00000183245257119414097150000017346813210934953906_);}
	.st134{filter:url(#Adobe_OpacityMaskFilter_00000150097663664825728930000008510390043100355247_);}
	.st135{fill:url(#SVGID_00000093863165178960671180000008424346748014196153_);}
	.st136{mask:url(#SVGID_00000109739148297447113010000016678718514634833818_);}
	.st137{fill:url(#SVGID_00000098909639802781431960000004509760565597446831_);}
	.st138{fill:url(#SVGID_00000025403433942926937480000011847055615060554884_);}
	.st139{fill:url(#SVGID_00000048462451862903598890000008465179126752756116_);}
	.st140{fill:url(#SVGID_00000031173506838265167930000011695662506801253000_);}
	.st141{filter:url(#Adobe_OpacityMaskFilter_00000158029609616965511080000013998307426746906497_);}
	.st142{opacity:0.75;mask:url(#SVGID_00000095311163677862063150000017931610657812086186_);}
	.st143{fill:url(#SVGID_00000118385524325804125300000002871006252075500709_);}
	.st144{fill:url(#SVGID_00000075870182843572213430000004765691164911512478_);}
	.st145{fill:url(#SVGID_00000127748096853341050230000012355566869601696133_);}
	.st146{fill:url(#SVGID_00000160172413786861296610000001122963199689250716_);}
	.st147{fill:url(#SVGID_00000039854405783116356260000007353364042142207929_);}
	.st148{fill:url(#SVGID_00000021112247156542676210000008248339041793855120_);}
	.st149{fill:url(#SVGID_00000038395256338628263540000010641685744290977973_);}
	.st150{fill:url(#SVGID_00000018238846182121111580000005063699480719298734_);}
	.st151{fill:url(#SVGID_00000045602167062677767070000002577924448481999771_);}
	.st152{filter:url(#Adobe_OpacityMaskFilter_00000102515508831745962760000011239907270816810389_);}
	.st153{opacity:0.75;mask:url(#SVGID_00000178203759434672095650000012771706453983446694_);}
	.st154{fill:url(#SVGID_00000111177466483617837300000015358677122496228519_);}
	.st155{fill:url(#SVGID_00000087390591845271611470000009501432537014017416_);}
	.st156{fill:url(#SVGID_00000116922201737534922790000014092010910414010276_);}
	.st157{fill:url(#SVGID_00000025436373420965865810000013887643206728613037_);}
	.st158{fill:url(#SVGID_00000133518194168019602580000010319058174658956727_);}
	.st159{filter:url(#Adobe_OpacityMaskFilter_00000132084620387948557490000009929067931797611959_);}
	.st160{opacity:0.75;mask:url(#SVGID_00000120537192627257148200000000068839080734777529_);}
	.st161{fill:url(#SVGID_00000137813162746194301380000009679242396786997923_);}
	.st162{fill:url(#SVGID_00000176037497313100029290000015863918894884752014_);}
	.st163{filter:url(#Adobe_OpacityMaskFilter_00000167386592898614197810000011163961849889079194_);}
	.st164{opacity:0.75;mask:url(#SVGID_00000079469816677651374900000017722689685517098932_);}
	.st165{fill:url(#SVGID_00000089544826709246530780000011114726533518391681_);}
	.st166{fill:url(#SVGID_00000137100702833195116900000000691613218450408342_);}
	.st167{fill:url(#SVGID_00000182515756065597741810000009824547656642151855_);}
	.st168{fill:url(#SVGID_00000085251581568745909690000002804277231613132191_);}
	.st169{fill:url(#SVGID_00000038384786815021730360000003461528213329867408_);}
	.st170{filter:url(#Adobe_OpacityMaskFilter_00000015325873512345315630000014942665858751205050_);}
	.st171{opacity:0.75;mask:url(#SVGID_00000028305013033563837170000017224147170484603043_);}
	.st172{fill:url(#SVGID_00000044890853220617702160000009696723508189734556_);}
	.st173{fill:url(#SVGID_00000102509429326185713760000015145332118725404836_);}
	.st174{filter:url(#Adobe_OpacityMaskFilter_00000003796299023844950100000007034415135113789617_);}
	.st175{opacity:0.75;mask:url(#SVGID_00000039135189446155375610000009271658428185401481_);}
	.st176{fill:url(#SVGID_00000012460201280608846620000008048344239474248368_);}
	.st177{fill:url(#SVGID_00000138569621555436420880000003297800118852764580_);}
	.st178{filter:url(#Adobe_OpacityMaskFilter_00000033369419795835842570000002819817635936396214_);}
	.st179{opacity:0.75;mask:url(#SVGID_00000000927483275437578970000011112383100201411215_);}
	.st180{fill:url(#SVGID_00000065076685493243352090000018380457182563460028_);}
	.st181{fill:url(#SVGID_00000024683167624898546670000018420623311020459961_);}
	.st182{fill:url(#SVGID_00000040557615564225806660000014304004214402711720_);}
	.st183{filter:url(#Adobe_OpacityMaskFilter_00000168808050800873855870000005141571699594527108_);}
	.st184{opacity:0.75;mask:url(#SVGID_00000090983725100266139760000000063252242562190248_);}
	.st185{fill:url(#SVGID_00000068668057803907393490000013077924492608219780_);}
	.st186{fill:url(#SVGID_00000030460736001636660360000006924539308558510215_);}
	.st187{fill:url(#SVGID_00000002342524289158716470000006173448378612753565_);}
	.st188{fill:url(#SVGID_00000119097792544199182220000009202189186308905614_);}
	.st189{filter:url(#Adobe_OpacityMaskFilter_00000004534372869395729820000015537942173411371918_);}
	.st190{opacity:0.75;mask:url(#SVGID_00000031203561067204158780000005409804855396523140_);}
	.st191{fill:url(#SVGID_00000151537644106602369100000002641759927204083840_);}
	.st192{fill:url(#SVGID_00000085209813640480907750000006052777480288755606_);}
	.st193{fill:url(#SVGID_00000002382872158375491660000016094783226344598173_);}
	.st194{fill:url(#SVGID_00000054980844763269355220000004484626979099302291_);}
	.st195{fill:url(#SVGID_00000126310920982550020900000006006518308303126678_);}
	.st196{fill:url(#SVGID_00000103247395540160909580000017865521615016899241_);}
	.st197{fill:url(#SVGID_00000016795447864492701580000014636894030749608098_);}
	.st198{filter:url(#Adobe_OpacityMaskFilter_00000121972068099516779140000009289602916075490471_);}
	.st199{opacity:0.75;mask:url(#SVGID_00000052088251292026368370000015683100039588686222_);}
	.st200{fill:url(#SVGID_00000036210444729618245840000000871297274219408804_);}
	.st201{fill:url(#SVGID_00000018209986362165932490000002904455975925189046_);}
	.st202{fill:url(#SVGID_00000013874251716108944920000017552770236550019466_);}
	.st203{fill:url(#SVGID_00000006687583975246100630000007728409724842277787_);}
	.st204{fill:url(#SVGID_00000147199223022460358240000000149596272506735550_);}
	.st205{fill:url(#SVGID_00000011737212945751716810000013662434053156933018_);}
	.st206{filter:url(#Adobe_OpacityMaskFilter_00000159463379792791763210000010357524236025020087_);}
	.st207{opacity:0.75;mask:url(#SVGID_00000031929043564048670890000016786847437716937378_);}
	.st208{fill:url(#SVGID_00000081629110081986009470000014817712459723205780_);}
	.st209{fill:url(#SVGID_00000043453949899873879130000017555431650969686703_);}
	.st210{filter:url(#Adobe_OpacityMaskFilter_00000140712720858158540840000017853318347618984324_);}
	.st211{opacity:0.75;mask:url(#SVGID_00000088096234861689957030000012968807079392479419_);}
	.st212{fill:url(#SVGID_00000152982014781372179810000016015937454034580617_);}
	.st213{fill:url(#SVGID_00000119097049746623651170000000066685676961416115_);}
	.st214{fill:url(#SVGID_00000067226241744716020520000016351023659462531726_);}
	.st215{fill:url(#SVGID_00000027594338752195696270000015000376501731447711_);}
	.st216{fill:url(#SVGID_00000138542030856695182790000008138973576554460831_);}
	.st217{filter:url(#Adobe_OpacityMaskFilter_00000078746498709515773880000010265705992915350434_);}
	.st218{opacity:0.75;mask:url(#SVGID_00000179607619302885952380000006908965324974741179_);}
	.st219{fill:url(#SVGID_00000029761032156179140800000004673646339165469843_);}
	.st220{filter:url(#Adobe_OpacityMaskFilter_00000156558938810805233540000011475082829368696751_);}
	.st221{fill:url(#SVGID_00000013179059254284905120000007176570685792433316_);}
	.st222{mask:url(#SVGID_00000085934612269721241450000004527557036783425169_);}
	.st223{fill:url(#SVGID_00000036218410186594827290000005452929827207240363_);}
	.st224{fill:url(#SVGID_00000087386753413278247260000013817705166949447336_);}
	.st225{fill:url(#SVGID_00000083779907554894625390000007720319839952510863_);}
	.st226{fill:url(#SVGID_00000074425517395973388580000006768321429689880968_);}
	.st227{filter:url(#Adobe_OpacityMaskFilter_00000147201397203485427260000016189670146895810226_);}
	.st228{opacity:0.75;mask:url(#SVGID_00000174571387524216018740000015176188295108669583_);}
	.st229{fill:url(#SVGID_00000149384186596404298410000013133288860570026921_);}
	.st230{fill:url(#SVGID_00000018237260672279319200000004208368151395171222_);}
	.st231{filter:url(#Adobe_OpacityMaskFilter_00000065775114894449054760000007161896331959150232_);}
	.st232{opacity:0.75;mask:url(#SVGID_00000128444280757742887050000010428937814704096953_);}
	.st233{fill:url(#SVGID_00000065769818621163256520000009437601288668976062_);}
	.st234{fill:url(#SVGID_00000016035788895565585160000009860589970523032459_);}
	.st235{fill:url(#SVGID_00000156545219160477899640000015586881260995254928_);}
	.st236{fill:url(#SVGID_00000173123800242963215440000007869066767075655043_);}
	.st237{fill:url(#SVGID_00000007407789813996792650000010515260636127407747_);}
	.st238{fill:url(#SVGID_00000108293715155477923120000014732900946723859857_);}
	.st239{fill:url(#SVGID_00000080188757538421826540000004085016584218705819_);}
	.st240{fill:url(#SVGID_00000121277705671616387070000003632509494356631696_);}
	.st241{fill:url(#SVGID_00000168106046480357992850000008642615463745542583_);}
	.st242{fill:url(#SVGID_00000077288399973344769370000006069613543743732156_);}
	.st243{opacity:0.6;fill:url(#SVGID_00000138559941251300493680000015228119016825488033_);}
	.st244{fill:url(#SVGID_00000039095875744433015680000000861413875257232310_);}
	.st245{fill:url(#SVGID_00000057867802945688672890000006167339805731117227_);}
	.st246{fill:url(#SVGID_00000080173818822951618300000014460949610824858758_);}
	.st247{filter:url(#Adobe_OpacityMaskFilter_00000113325105297859988170000010755547174288012720_);}
	.st248{opacity:0.75;mask:url(#SVGID_00000017478819193281975490000015520826419291291825_);}
	.st249{fill:url(#SVGID_00000121277626059796476300000005880840381535688342_);}
	.st250{fill:url(#SVGID_00000075861701939882243270000001934906443676802689_);}
	.st251{fill:url(#SVGID_00000097490697185125068970000004807006839149146498_);}
	.st252{fill:url(#SVGID_00000168091568916446664150000005334688458126280883_);}
	.st253{fill:url(#SVGID_00000098208639881356634540000007782545496603983003_);}
	.st254{fill:url(#SVGID_00000158009449005812484050000007765998933141616790_);}
	.st255{fill:url(#SVGID_00000176736029403873074500000013020697436631145092_);}
	.st256{fill:url(#SVGID_00000063619593419732592940000013125262750518061974_);}
	.st257{fill:url(#SVGID_00000116918087095510160900000015625382616891191978_);}
	.st258{fill:url(#SVGID_00000181774657989591847150000008165077771591230129_);}
	.st259{opacity:0.6;fill:url(#SVGID_00000147180215460576875940000014814092486121264276_);}
	.st260{fill:url(#SVGID_00000052078735859033472560000015385376638971620498_);}
	.st261{fill:url(#SVGID_00000131362149643387124260000013593678055881064103_);}
	.st262{fill:url(#SVGID_00000140736934944433934350000010659817149494986394_);}
	.st263{fill:url(#SVGID_00000142144307425451035110000001200969661806607023_);}
	.st264{filter:url(#Adobe_OpacityMaskFilter_00000101787687222346085110000004454844786610595715_);}
	.st265{opacity:0.75;mask:url(#SVGID_00000002359203345016515780000015971857539048794011_);}
	.st266{fill:url(#SVGID_00000083788324395652816460000000338068235873568671_);}
	.st267{fill:url(#SVGID_00000183207017528526866870000012406359768704884661_);}
	.st268{fill:url(#SVGID_00000061436120072861677170000004526079814169834938_);}
	.st269{fill:url(#SVGID_00000150089412887426930350000008046367374317282453_);}
	.st270{fill:url(#SVGID_00000036241157887868532640000011800512480554932889_);}
	.st271{fill:url(#SVGID_00000115478428090990126540000000545430236043592113_);}
	.st272{fill:url(#SVGID_00000117653787505641642590000001639269506352130215_);}
	.st273{fill:url(#SVGID_00000004533206907081730470000011209563043503299005_);}
	.st274{fill:url(#SVGID_00000083066774207542908150000006383422545976402601_);}
	.st275{fill:url(#SVGID_00000079444588551293122770000005350427461693424822_);}
	.st276{opacity:0.6;fill:url(#SVGID_00000027591278265074998520000014874105761971550095_);}
	.st277{fill:url(#SVGID_00000108995108767679934810000011938848209662760348_);}
	.st278{fill:url(#SVGID_00000059291810399729808850000012101983844744681908_);}
	.st279{fill:url(#SVGID_00000135651102302057188020000004266653311886771340_);}
	.st280{fill:url(#SVGID_00000033359951124493228860000006229337751999615888_);}
	.st281{filter:url(#Adobe_OpacityMaskFilter_00000030466472202793017420000005980754668045518729_);}
	.st282{opacity:0.75;mask:url(#SVGID_00000145766496656105860530000010945259203486883984_);}
	.st283{fill:url(#SVGID_00000165935089250061758630000008084817037790469268_);}
	.st284{fill:url(#SVGID_00000068646712466552799970000012192272939870043779_);}
	.st285{fill:url(#SVGID_00000047045493345204554990000014678858790089562032_);}
	.st286{fill:url(#SVGID_00000129894075524216333560000006564542148466105482_);}
	.st287{fill:url(#SVGID_00000000935636727288943510000018087018012002249361_);}
	.st288{fill:url(#SVGID_00000084499731482927937940000014980158521567292291_);}
	.st289{fill:url(#SVGID_00000107547319868755207190000014846586108913126817_);}
	.st290{fill:url(#SVGID_00000019671657617924534510000004048204632930344071_);}
	.st291{fill:url(#SVGID_00000032623695102188101600000017483091136359660417_);}
	.st292{fill:url(#SVGID_00000113327541717701161040000018108012885924728706_);}
	.st293{opacity:0.6;fill:url(#SVGID_00000124123609200446852880000006578333052763780795_);}
	.st294{fill:url(#SVGID_00000068655302676884519310000001886357913199337370_);}
	.st295{filter:url(#Adobe_OpacityMaskFilter_00000152953456512922283480000003660456989921988484_);}
	.st296{opacity:0.75;mask:url(#SVGID_00000143603137805975409710000003074612201788137356_);}
	.st297{fill:url(#SVGID_00000178890999857717904830000015569569533461154747_);}
	.st298{fill:url(#SVGID_00000145044152485949550280000015384737059162139545_);}
	.st299{fill:url(#SVGID_00000052091004984221471070000018362662964954848131_);}
	.st300{fill:url(#SVGID_00000132052150492814909230000011987753604663441574_);}
	.st301{fill:url(#SVGID_00000011020671101718040260000003621109979904753814_);}
	.st302{fill:url(#SVGID_00000018918959167365725310000008924046514572089986_);}
	.st303{fill:url(#SVGID_00000183934149595735095540000002161565997538468768_);}
	.st304{fill:url(#SVGID_00000047052115813400162360000009208441282351514752_);}
	.st305{fill:url(#SVGID_00000041263882084995264700000003411836625406764420_);}
	.st306{fill:url(#SVGID_00000157267980051633266650000009793435883416095647_);}
	.st307{opacity:0.6;fill:url(#SVGID_00000059302156490435892120000007842917642820703124_);}
	.st308{fill:url(#SVGID_00000132796064754502972210000009246923041989264011_);}
	.st309{fill:url(#SVGID_00000134938044572262517790000007420048052142630326_);}
	.st310{fill:url(#SVGID_00000015337643017081738420000015183489684578962878_);}
	.st311{fill:url(#SVGID_00000065035161939204343870000010870795560864611261_);}
	.st312{fill:url(#SVGID_00000161591761989002336600000005952676421222982031_);}
	.st313{fill:url(#SVGID_00000162314051833437279730000007352717385771936650_);}
	.st314{fill:url(#SVGID_00000095297162416475828230000006415513779294655665_);}
	.st315{fill:url(#SVGID_00000134237699170509333380000014635205549655482045_);}
	.st316{fill:url(#SVGID_00000148637459157527889500000014373763678096899772_);}
	.st317{fill:url(#SVGID_00000111912294927469403730000012696010044961412282_);}
	.st318{fill:url(#SVGID_00000177483585871403225080000016753964236809490614_);}
	.st319{fill:url(#SVGID_00000093864426164668541460000017189925966678139281_);}
	.st320{filter:url(#Adobe_OpacityMaskFilter_00000059268792195174748550000017610576334017892509_);}
	.st321{opacity:0.75;mask:url(#SVGID_00000065776970005007590090000004846945904144453532_);}
	.st322{fill:url(#SVGID_00000181080289543760368210000016996304340167771271_);}
	.st323{fill:url(#SVGID_00000031202590278796228000000009548556588997209258_);}
	.st324{fill:url(#SVGID_00000136409106990103003000000012222689650310376118_);}
	.st325{fill:url(#SVGID_00000117642865358839862780000014693827476808912056_);}
	.st326{fill:url(#SVGID_00000151514934647126037490000005283697270626535059_);}
	.st327{fill:url(#SVGID_00000085930207665444880330000014121535662434626736_);}
	.st328{fill:url(#SVGID_00000151518090486715443310000004378785982569022855_);}
	.st329{fill:url(#SVGID_00000061430801418039057070000005153663866263271336_);}
	.st330{fill:url(#SVGID_00000010305764428561714880000005436090197393712783_);}
	.st331{fill:url(#SVGID_00000155864015745293210740000007988031766290398640_);}
	.st332{opacity:0.6;fill:url(#SVGID_00000157290276745411762170000016000586993921011841_);}
	.st333{fill:url(#SVGID_00000057150473835069049010000009588692608991104395_);}
	.st334{fill:url(#SVGID_00000088121115272612936110000014355811474441642678_);}
	.st335{fill:url(#SVGID_00000176023517262078479110000008834951149815012277_);}
	.st336{fill:url(#SVGID_00000095338353918246921880000014438945480589498815_);}
	.st337{fill:url(#SVGID_00000101061874315612698670000016433775396353069194_);}
	.st338{filter:url(#Adobe_OpacityMaskFilter_00000145022236099738974570000007243262072488515718_);}
	.st339{opacity:0.75;mask:url(#SVGID_00000168108223529460311920000005795652349650607531_);}
	.st340{fill:url(#SVGID_00000123403031988982348830000014266767803905325210_);}
	.st341{fill:url(#SVGID_00000009577946364523342590000008217414859765409202_);}
	.st342{fill:url(#SVGID_00000104691289576578044050000011782543884195233724_);}
	.st343{fill:url(#SVGID_00000091017521756417256420000014492510040391187373_);}
	.st344{fill:url(#SVGID_00000176740012632117999030000007443332973072024196_);}
	.st345{fill:url(#SVGID_00000093866969126803485420000006205804857077295006_);}
	.st346{fill:url(#SVGID_00000001657079430801796710000007510017888351459473_);}
	.st347{fill:url(#SVGID_00000170266863759815563980000005000627851670110885_);}
	.st348{fill:url(#SVGID_00000088844063551252743730000009801313183976553381_);}
	.st349{fill:url(#SVGID_00000018212669559025912820000006649003750184528771_);}
	.st350{opacity:0.6;fill:url(#SVGID_00000023960423343334211290000008755978622624220568_);}
	.st351{fill:#A81A1A;stroke:#000000;stroke-width:0.25;stroke-miterlimit:10;}
	.st352{fill:url(#SVGID_00000053523829475806937050000003622018015444199819_);}
	.st353{fill:url(#SVGID_00000021094879793260541650000004018875420173251216_);}
	.st354{filter:url(#Adobe_OpacityMaskFilter_00000029011298005708705720000011582823479254637954_);}
	.st355{opacity:0.75;mask:url(#SVGID_00000111871932152755019270000003863266153552564656_);}
	.st356{fill:url(#SVGID_00000078027041515233366620000016195781901060187269_);}
	.st357{fill:url(#SVGID_00000158730566119400528190000009781607530763769491_);}
	.st358{fill:url(#SVGID_00000008146805661146319870000012984875751091166592_);}
	.st359{fill:url(#SVGID_00000118385626067999729400000010348244315515656872_);}
	.st360{fill:url(#SVGID_00000006709812797094105740000002391091875622414010_);}
	.st361{fill:url(#SVGID_00000161631183820864029170000002973301029679133322_);}
	.st362{fill:url(#SVGID_00000168809737763576397770000011401383762505005486_);}
	.st363{fill:url(#SVGID_00000160162248202922393230000009455748547866680763_);}
	.st364{fill:url(#SVGID_00000146467361263696653110000013186977228933918607_);}
	.st365{fill:url(#SVGID_00000075160219530661146720000017410003788176894361_);}
	.st366{opacity:0.6;fill:url(#SVGID_00000055701829933173294550000006561149198144167590_);}
	.st367{fill:url(#SVGID_00000076572100426867843690000017807239168946270361_);}
	.st368{fill:url(#SVGID_00000088132297893681919480000000318682970667690886_);}
	.st369{opacity:0.05;}
	.st370{opacity:0.1094;}
	.st371{opacity:0.1688;}
	.st372{opacity:0.2281;}
	.st373{opacity:0.2875;}
	.st374{opacity:0.3469;}
	.st375{opacity:0.4062;}
	.st376{opacity:0.4656;}
	.st377{opacity:0.525;}
	.st378{opacity:0.5844;}
	.st379{opacity:0.6438;}
	.st380{opacity:0.7031;}
	.st381{opacity:0.7625;}
	.st382{opacity:0.8219;}
	.st383{opacity:0.8813;}
	.st384{opacity:0.9406;}
	.st385{opacity:0.1364;}
	.st386{opacity:0.2227;}
	.st387{opacity:0.3091;}
	.st388{opacity:0.3955;}
	.st389{opacity:0.4818;}
	.st390{opacity:0.5682;}
	.st391{opacity:0.6545;}
	.st392{opacity:0.7409;}
	.st393{opacity:0.8273;}
	.st394{opacity:0.9136;}
	.st395{fill:#FFFCF6;stroke:#FBD277;stroke-miterlimit:10;}
	.st396{fill:#FFFCF6;stroke:#FBD277;stroke-width:0.6043;stroke-miterlimit:10;}
	.st397{fill:#101827;stroke:#FBD277;stroke-width:0.8053;stroke-miterlimit:10;}
	.st398{fill:#FDF4DF;stroke:#FBD277;stroke-miterlimit:10;}
	.st399{fill:none;stroke:#FBD277;stroke-miterlimit:10;}
	.st400{fill:#101827;stroke:#FBD277;stroke-miterlimit:10;}
	.st401{fill:#282F3D;stroke:#404652;stroke-miterlimit:10;}
	.st402{fill:none;stroke:#DD2626;stroke-width:5;stroke-miterlimit:10;}
</style>
<g id="Layer_2">
</g>
<g id="Layer_3">
</g>
<g id="Layer_1">
	<g>
		<g>
			<path class="st3" d="M12.18,26.645v26.724c0,4.424,2.318,8.505,6.066,10.703L35.522,74.24c2.775,1.635,6.181,1.635,8.96,0
				l17.276-10.168c3.744-2.212,6.061-6.293,6.061-10.703V26.645c0-4.424-2.317-8.505-6.061-10.704L44.482,5.76
				c-2.779-1.635-6.186-1.635-8.96,0L18.246,15.928C14.498,18.14,12.18,22.221,12.18,26.645z"/>
			<path class="st3" d="M67.819,53.369c0,4.41-2.317,8.491-6.061,10.703L44.482,74.24c-2.779,1.635-6.186,1.635-8.96,0
				L18.246,64.072c-3.748-2.198-6.066-6.279-6.066-10.703V26.645c0-4.424,2.318-8.505,6.066-10.717L35.522,5.76
				c2.775-1.635,6.181-1.635,8.96,0l17.276,10.181c3.744,2.198,6.061,6.279,6.061,10.703V53.369z"/>
		</g>
		<g>
			<path class="st81" d="M57.768,46.134c-1.82-0.798-3.104-1.216-4.246-1.437c-0.561-0.108-1.08,0.32-1.087,0.891
				c-0.018,1.419-0.151,3.983-0.82,5.83c-0.005,0.013,0.005-0.013,0,0c-1.555,4.686-5.911,8.187-11.035,8.421
				c-7.199,0.335-13.104-5.564-12.782-12.763c0-0.031,0-0.058,0.003-0.089c0.147-2.826,1.461-5.545,3.44-7.635
				c2.035-2.148,4.775-3.63,7.672-3.882c2.992-0.259,5.779,0.562,8.021,2.11c0.434,0.3,1.028,0.19,1.311-0.255
				c0.834-1.31,1.348-2.816,1.479-4.364c0.009-0.109,0.016-0.219,0.021-0.328c0.016-0.35-0.176-0.676-0.484-0.842l-0.673-0.362
				c-0.316-0.184-0.709-0.163-1.007,0.052l-2.246,1.636c-0.239,0.175-0.546,0.218-0.832,0.129c-0.399-0.129-0.807-0.236-1.218-0.328
				c-0.288-0.064-0.534-0.255-0.654-0.525l-1.129-2.529c-0.147-0.331-0.479-0.546-0.841-0.546h-1.332
				c-0.362,0-0.694,0.215-0.841,0.549l-1.123,2.538c-0.117,0.261-0.347,0.46-0.629,0.522c-0.42,0.092-0.835,0.203-1.243,0.334
				c-0.282,0.089-0.592,0.046-0.832-0.129l-2.246-1.636c-0.295-0.215-0.69-0.236-1.004-0.052l-1.151,0.666
				c-0.086,0.049-0.16,0.111-0.224,0.184c-0.071,0.08-0.126,0.172-0.166,0.27c-0.046,0.11-0.068,0.227-0.068,0.35
				c0,0.031,0.003,0.058,0.006,0.089l0.034,0.325l0.258,2.446c0.033,0.304-0.087,0.609-0.33,0.802
				c-0.313,0.249-0.579,0.546-0.842,0.847c-0.204,0.233-0.499,0.359-0.804,0.328l-2.768-0.295c-0.362-0.037-0.712,0.141-0.896,0.457
				L23.8,39.067c-0.181,0.316-0.16,0.706,0.052,1l1.636,2.256c0.172,0.236,0.218,0.54,0.132,0.822
				c-0.126,0.408-0.236,0.822-0.328,1.243c-0.064,0.282-0.261,0.516-0.528,0.632l-2.535,1.111c-0.334,0.147-0.549,0.476-0.549,0.841
				v1.329c0,0.362,0.215,0.693,0.549,0.841l2.538,1.129c0.27,0.123,0.463,0.365,0.528,0.654c0.089,0.414,0.199,0.822,0.325,1.225
				c0.086,0.279,0.04,0.586-0.132,0.822l-1.636,2.256c-0.212,0.292-0.233,0.684-0.052,0.997l0.663,1.154
				c0.184,0.316,0.534,0.497,0.896,0.457l2.768-0.292c0.295-0.031,0.58,0.086,0.783,0.304c0.288,0.316,0.595,0.617,0.911,0.908
				c0.212,0.193,0.313,0.479,0.282,0.764l-0.292,2.771c-0.04,0.362,0.138,0.709,0.451,0.893l1.151,0.666
				c0.313,0.184,0.709,0.163,1.004-0.052l2.246-1.636c0.249-0.181,0.571-0.221,0.859-0.12c0.387,0.132,0.779,0.233,1.178,0.316
				c0.295,0.061,0.546,0.252,0.666,0.528l1.123,2.529c0.15,0.331,0.479,0.546,0.841,0.546h1.332c0.365,0,0.694-0.215,0.844-0.549
				l1.126-2.541c0.125-0.279,0.379-0.484,0.684-0.529c0.397-0.059,0.779-0.183,1.158-0.314c0.294-0.101,0.613-0.062,0.861,0.119
				l2.246,1.636c0.298,0.215,0.69,0.236,1.007,0.052l1.148-0.666c0.313-0.184,0.491-0.531,0.454-0.893l-0.295-2.771
				c-0.031-0.295,0.086-0.58,0.304-0.782c0.319-0.292,0.623-0.595,0.914-0.914c0.193-0.209,0.476-0.31,0.758-0.279l2.768,0.292
				c0.362,0.04,0.715-0.141,0.896-0.457l0.663-1.154c0.181-0.313,0.16-0.706-0.052-0.997l-1.636-2.256
				c-0.172-0.236-0.218-0.54-0.129-0.822c0.123-0.402,0.233-0.807,0.322-1.221c0.068-0.288,0.258-0.534,0.531-0.654l2.535-1.111
				c0.334-0.147,0.549-0.479,0.549-0.844l0-1.326C58.321,46.613,58.102,46.281,57.768,46.134z"/>
			<path class="st81" d="M22.232,33.866c1.82,0.798,3.104,1.216,4.246,1.437c0.561,0.108,1.08-0.32,1.087-0.891
				c0.018-1.419,0.151-3.983,0.82-5.83c0.005-0.013-0.005,0.013,0,0c1.555-4.686,5.911-8.187,11.035-8.421
				c7.199-0.335,13.104,5.564,12.782,12.763c0,0.031,0,0.058-0.003,0.089c-0.147,2.826-1.461,5.545-3.44,7.635
				c-2.035,2.148-4.775,3.63-7.672,3.882c-2.992,0.259-5.779-0.562-8.021-2.11c-0.434-0.3-1.028-0.19-1.311,0.255
				c-0.834,1.31-1.348,2.816-1.479,4.364c-0.009,0.109-0.016,0.219-0.021,0.328c-0.016,0.35,0.176,0.676,0.484,0.842l0.673,0.362
				c0.316,0.184,0.709,0.163,1.007-0.052l2.246-1.636c0.239-0.175,0.546-0.218,0.832-0.129c0.399,0.129,0.807,0.236,1.218,0.328
				c0.288,0.064,0.534,0.255,0.654,0.525l1.129,2.529c0.147,0.331,0.479,0.546,0.841,0.546h1.332c0.362,0,0.694-0.215,0.841-0.549
				l1.123-2.538c0.117-0.261,0.347-0.46,0.629-0.522c0.42-0.092,0.835-0.203,1.243-0.334c0.282-0.089,0.592-0.046,0.832,0.129
				l2.246,1.636c0.295,0.215,0.69,0.236,1.004,0.052l1.151-0.666c0.086-0.049,0.16-0.111,0.224-0.184
				c0.071-0.08,0.126-0.172,0.166-0.27c0.046-0.11,0.068-0.227,0.068-0.35c0-0.031-0.003-0.058-0.006-0.089l-0.034-0.325
				l-0.258-2.446c-0.033-0.304,0.087-0.609,0.33-0.802c0.313-0.249,0.579-0.546,0.842-0.847c0.204-0.233,0.499-0.359,0.804-0.328
				l2.768,0.295c0.362,0.037,0.712-0.141,0.896-0.457l0.663-1.154c0.181-0.316,0.16-0.706-0.052-1l-1.636-2.256
				c-0.172-0.236-0.218-0.54-0.132-0.822c0.126-0.408,0.236-0.822,0.328-1.243c0.064-0.282,0.261-0.516,0.528-0.632l2.535-1.111
				c0.334-0.147,0.549-0.476,0.549-0.841v-1.329c0-0.362-0.215-0.693-0.549-0.841l-2.538-1.129c-0.27-0.123-0.463-0.365-0.528-0.654
				c-0.089-0.414-0.199-0.822-0.325-1.225c-0.086-0.279-0.04-0.586,0.132-0.822l1.636-2.256c0.212-0.292,0.233-0.684,0.052-0.997
				l-0.663-1.154c-0.184-0.316-0.534-0.497-0.896-0.457l-2.768,0.292c-0.295,0.031-0.58-0.086-0.783-0.304
				c-0.288-0.316-0.595-0.617-0.911-0.908c-0.212-0.193-0.313-0.479-0.282-0.764l0.292-2.771c0.04-0.362-0.138-0.709-0.451-0.893
				l-1.151-0.666c-0.313-0.184-0.709-0.163-1.004,0.052l-2.246,1.636c-0.249,0.181-0.571,0.221-0.859,0.12
				c-0.387-0.132-0.779-0.233-1.178-0.316c-0.295-0.061-0.546-0.252-0.666-0.528l-1.123-2.529c-0.15-0.331-0.479-0.546-0.841-0.546
				h-1.332c-0.365,0-0.694,0.215-0.844,0.549l-1.126,2.541c-0.125,0.279-0.379,0.484-0.684,0.529
				c-0.397,0.059-0.779,0.183-1.158,0.314c-0.294,0.101-0.613,0.062-0.861-0.119l-2.246-1.636c-0.298-0.215-0.69-0.236-1.007-0.052
				l-1.148,0.666c-0.313,0.184-0.491,0.531-0.454,0.893l0.295,2.771c0.031,0.295-0.086,0.58-0.304,0.782
				c-0.319,0.292-0.623,0.595-0.914,0.914c-0.193,0.209-0.476,0.31-0.758,0.279l-2.768-0.292c-0.362-0.04-0.715,0.141-0.896,0.457
				L23.8,23.791c-0.181,0.313-0.16,0.706,0.052,0.997l1.636,2.256c0.172,0.236,0.218,0.54,0.129,0.822
				c-0.123,0.402-0.233,0.807-0.322,1.221c-0.068,0.288-0.258,0.534-0.531,0.654l-2.535,1.111c-0.334,0.147-0.549,0.479-0.549,0.844
				l0,1.326C21.679,33.387,21.898,33.719,22.232,33.866z"/>
		</g>
	</g>
</g>
</svg>
