<svg width="33" height="42" viewBox="0 0 33 42" fill="none" xmlns="http://www.w3.org/2000/svg">
<g clip-path="url(#clip0_2063_18402)">
<path fill-rule="evenodd" clip-rule="evenodd" d="M32.1076 26.3213L25.8657 35.0483C24.9568 36.3208 23.1841 36.8813 20.9267 36.6997C17.7904 36.4269 13.6239 34.7603 9.63942 31.8971C8.34011 30.9747 7.11261 29.9551 5.9675 28.8471C3.85615 26.7965 2.30431 24.6631 1.47328 22.7609C0.564352 20.6703 0.534291 18.822 1.44322 17.5494L7.7 8.82249C8.60925 7.54993 10.3667 6.98944 12.6393 7.1711C15.7756 7.42872 19.9269 9.11049 23.9263 11.9588C27.9111 14.8223 30.8353 18.2311 32.0775 21.1098C32.1848 21.3568 32.2799 21.6002 32.3626 21.84C32.9803 23.6291 32.9092 25.1991 32.1076 26.3213H32.1076Z" fill="url(#paint0_linear_2063_18402)"/>
<path fill-rule="evenodd" clip-rule="evenodd" d="M31.1074 21.5338C29.9105 18.7915 27.1074 15.5644 23.2897 12.8373C19.4869 10.1102 15.5328 8.48915 12.548 8.24672C10.7299 8.09513 9.29051 8.4287 8.56356 9.44365L8.53285 9.5041C7.85116 10.5194 8.00275 11.9587 8.71483 13.5949C9.91176 16.3524 12.7145 19.5792 16.5177 22.3064C20.3202 25.0335 24.2746 26.6548 27.259 26.8972C29.0468 27.0333 30.4561 26.7153 31.1982 25.7608L31.2438 25.6851C31.9711 24.685 31.8195 23.2004 31.1074 21.5338V21.5338ZM25.5168 21.5946C25.1835 22.0639 24.5018 22.2007 23.6685 22.1247C22.1684 22.0035 20.199 21.1854 18.2899 19.822C16.3809 18.4583 14.972 16.8521 14.3811 15.4736C14.0478 14.701 13.957 14.0193 14.2903 13.5494C14.6238 13.0797 15.3055 12.9433 16.1537 13.0041C17.6383 13.1405 19.6233 13.9434 21.5171 15.3071C23.4261 16.6705 24.8351 18.2915 25.4259 19.6704C25.7744 20.4429 25.8652 21.1246 25.5168 21.5946V21.5946Z" fill="white"/>
</g>
<defs>
<linearGradient id="paint0_linear_2063_18402" x1="11.6394" y1="6.77999" x2="21.9123" y2="37.0938" gradientUnits="userSpaceOnUse">
<stop stop-color="#27B0E6"/>
<stop offset="0.107" stop-color="#49A1DB"/>
<stop offset="0.288" stop-color="#7D8ACA"/>
<stop offset="0.445" stop-color="#A279BD"/>
<stop offset="0.572" stop-color="#BA6FB6"/>
<stop offset="0.651" stop-color="#C26BB3"/>
<stop offset="0.678" stop-color="#D563AD"/>
<stop offset="0.715" stop-color="#E65BA7"/>
<stop offset="0.76" stop-color="#F156A3"/>
<stop offset="0.824" stop-color="#F853A1"/>
<stop offset="1" stop-color="#FA52A0"/>
</linearGradient>
<clipPath id="clip0_2063_18402">
<rect width="32" height="32" fill="white" transform="translate(0.776367 5.94141)"/>
</clipPath>
</defs>
</svg>
