<svg width="33" height="42" viewBox="0 0 33 42" fill="none" xmlns="http://www.w3.org/2000/svg">
<path d="M16.6699 4.87793C7.83425 4.87964 0.669922 12.3509 0.669922 21.5641V33.1132C0.669922 35.1924 2.2855 36.8779 4.27833 36.8779H29.0615C31.0543 36.8779 32.6699 35.1924 32.6699 33.1132V21.5641C32.6699 12.3509 25.5072 4.87964 16.6699 4.87793Z" fill="#DC2626"/>
<path d="M27.0245 21.9232L23.8442 20.8006C22.6764 20.3899 21.8087 19.358 21.5627 18.1003L20.221 11.1938C20.1849 11.0209 20.0373 10.8926 19.8634 10.8926C19.6896 10.8926 19.5436 11.0209 19.5075 11.1938L18.1658 18.1003C17.9198 19.358 17.0522 20.3899 15.8844 20.8006L12.704 21.9232C12.5564 21.9745 12.458 22.1217 12.458 22.2825C12.458 22.4434 12.5564 22.5905 12.704 22.6419L15.8844 23.7644C17.0522 24.1751 17.9198 25.207 18.1658 26.4648L19.5075 33.3645C19.5436 33.5373 19.6912 33.6656 19.8634 33.6656C20.0357 33.6656 20.1833 33.5373 20.221 33.3645L21.5627 26.4648C21.8087 25.207 22.6764 24.1751 23.8442 23.7644L27.0245 22.6419C27.1721 22.5905 27.2705 22.4434 27.2705 22.2825C27.2705 22.1217 27.1721 21.9745 27.0245 21.9232Z" fill="#FFFDF7"/>
<path d="M9.9388 15.5865L11.0574 15.9835C11.4691 16.1307 11.7775 16.49 11.8627 16.9384L12.3368 19.3752C12.3482 19.4385 12.3991 19.4847 12.4598 19.4847C12.5205 19.4847 12.5697 19.4402 12.5828 19.3752L13.0568 16.9384C13.1437 16.4952 13.4504 16.1307 13.8621 15.9835L14.9807 15.5865C15.0299 15.5677 15.066 15.5163 15.066 15.4582C15.066 15.4 15.0283 15.3486 14.9807 15.3298L13.8621 14.9328C13.4504 14.7857 13.1421 14.4263 13.0568 13.978L12.5828 11.5412C12.5713 11.4778 12.5221 11.4316 12.4598 11.4316C12.3974 11.4316 12.3482 11.4761 12.3368 11.5412L11.8627 13.978C11.7775 14.4212 11.4691 14.7857 11.0574 14.9328L9.9388 15.3298C9.8896 15.3486 9.85352 15.4 9.85352 15.4582C9.85352 15.5163 9.8896 15.5677 9.9388 15.5865Z" fill="#FFFDF7"/>
<path d="M12.553 27.5669L11.0522 27.0347C10.4995 26.843 10.0862 26.3553 9.97627 25.7581L9.34316 22.4948C9.32512 22.411 9.25623 22.3545 9.1775 22.3545C9.09877 22.3545 9.02332 22.4127 9.01184 22.4948L8.37873 25.7581C8.26228 26.3553 7.85059 26.8413 7.30277 27.0347L5.802 27.5669C5.73475 27.5926 5.68555 27.6559 5.68555 27.7329C5.68555 27.8099 5.73475 27.8801 5.802 27.8989L7.30277 28.4311C7.85551 28.6227 8.26884 29.1104 8.37873 29.7076L9.01184 32.971C9.02988 33.0548 9.09877 33.1113 9.1775 33.1113C9.25623 33.1113 9.33168 33.0531 9.34316 32.971L9.97627 29.7076C10.0927 29.1104 10.5044 28.6244 11.0522 28.4311L12.553 27.8989C12.6202 27.8732 12.6695 27.8099 12.6695 27.7329C12.6695 27.6559 12.6202 27.5857 12.553 27.5669Z" fill="#FFFDF7"/>
</svg>
