<svg width="51" height="64" viewBox="0 0 51 64" fill="none" xmlns="http://www.w3.org/2000/svg">
<path d="M0 19.9857V43.6847C0 47.6064 2.12588 51.2242 5.55934 53.1745L21.3938 62.1914C23.9372 63.6394 27.0628 63.6394 29.6062 62.1914L45.4407 53.1745C48.8741 51.2115 51 47.5938 51 43.6847V19.9857C51 16.064 48.8741 12.442 45.4407 10.4959L29.6062 1.46633C27.0628 0.0183843 23.9372 0.0183843 21.3938 1.46633L5.55934 10.4791C2.12588 12.442 0 16.0598 0 19.9857Z" fill="#DC2626"/>
<path d="M11.4268 20.2265L13.4767 20.9104C14.2317 21.1679 14.797 21.7884 14.9446 22.5694L15.8093 26.7992C15.8346 26.909 15.9316 26.9808 16.0455 26.9808C16.1594 26.9808 16.2564 26.909 16.2817 26.7992L17.1464 22.5694C17.3067 21.8011 17.8635 21.1679 18.6269 20.9104L20.6769 20.2265C20.7739 20.1885 20.8372 20.1041 20.8372 20.007C20.8372 19.9099 20.7739 19.8255 20.6769 19.7875L18.6269 19.1036C17.8719 18.8461 17.3067 18.2255 17.1464 17.4446L16.2817 13.2147C16.2564 13.105 16.1594 13.0332 16.0455 13.0332C15.9316 13.0332 15.8346 13.105 15.8093 13.2147L14.9446 17.4446C14.7843 18.2129 14.2275 18.8461 13.4767 19.1036L11.4268 19.7875C11.3298 19.8255 11.2665 19.9099 11.2665 20.007C11.2665 20.1041 11.3298 20.1885 11.4268 20.2265Z" fill="#FFFCF5"/>
<path d="M25.4976 35.0476C28.2908 35.0476 30.555 32.7815 30.555 29.9861C30.555 27.1907 28.2908 24.9246 25.4976 24.9246C22.7045 24.9246 20.4402 27.1907 20.4402 29.9861C20.4402 32.7815 22.7045 35.0476 25.4976 35.0476Z" fill="#FFFCF5"/>
<path d="M15.8804 45.1793V46.0109C15.8804 46.5132 16.1504 46.9818 16.5848 47.2309C22.102 50.418 28.8972 50.418 34.4144 47.2309C34.8488 46.9776 35.1188 46.5132 35.1188 46.0109V45.1793C35.1188 42.7857 33.8407 40.5737 31.7697 39.3748L29.6565 38.1548C27.0835 36.6689 23.9115 36.6689 21.3385 38.1548L19.2253 39.3748C17.1543 40.5737 15.8762 42.7857 15.8762 45.1793H15.8804Z" fill="#FFFCF5"/>
</svg>
