<?xml version="1.0" encoding="utf-8"?>
<!-- Generator: Adobe Illustrator 26.1.0, SVG Export Plug-In . SVG Version: 6.00 Build 0)  -->
<svg version="1.1" id="Layer_1" xmlns="http://www.w3.org/2000/svg" xmlns:xlink="http://www.w3.org/1999/xlink" x="0px" y="0px"
	 viewBox="0 0 2073.08 482.26" style="enable-background:new 0 0 2073.08 482.26;" xml:space="preserve">
<style type="text/css">
	.st0{fill:url(#SVGID_1_);}
	.st1{opacity:0.31;}
	.st2{fill:#FFFFFF;}
	.st3{opacity:0.54;}
	.st4{fill:url(#SVGID_00000010294436209912632270000014269542962536675504_);}
	.st5{fill:url(#SVGID_00000181072460767888255090000007178076033571504783_);}
	.st6{fill:url(#SVGID_00000036951959579685900980000007132955632601936258_);}
	.st7{fill:#3D3A3A;}
	.st8{fill:#CFCFCF;}
	.st9{fill:url(#SVGID_00000121963247914401210500000010910505257748429485_);}
	.st10{fill:url(#SVGID_00000132785926945400436240000002099466061077723529_);}
	.st11{fill:url(#SVGID_00000106835166289626765200000002968559719769764017_);}
	.st12{fill:url(#SVGID_00000105399318112171071890000002588580015699404975_);}
	.st13{fill:url(#SVGID_00000108268869581867744220000015763250205627003534_);}
	.st14{fill:url(#SVGID_00000011729081023387844010000016508496191125562514_);}
	.st15{fill:url(#SVGID_00000155141739276497253320000006746864424326739622_);}
	.st16{fill:url(#SVGID_00000074404627469693303930000016738334204495167628_);}
	.st17{fill:url(#SVGID_00000144325696129616435310000005450503279373925551_);}
	.st18{fill:#575757;}
	.st19{fill:url(#SVGID_00000114777527263491996190000002306421511265361030_);}
	.st20{fill:url(#SVGID_00000010279422632361367150000002440084001942716565_);}
	.st21{fill:url(#SVGID_00000119095404527067520760000001166904236536106639_);}
	.st22{fill:url(#SVGID_00000049921554308643533500000003412622477923177097_);}
	.st23{fill:#5C5C5C;}
	.st24{fill:url(#SVGID_00000112629549854276215100000006475336863358301100_);}
	.st25{fill:url(#SVGID_00000030460004186300711060000013324325720490690703_);}
	.st26{fill:url(#SVGID_00000114758993372287033430000008483481189040302726_);}
	.st27{fill:url(#SVGID_00000104676607175745472530000011620265287635280297_);}
	.st28{fill:url(#SVGID_00000119798404083129073730000009126996756487674041_);}
	.st29{fill:url(#SVGID_00000131335739619132773750000014061341050332633733_);}
	.st30{fill:url(#SVGID_00000154406380250239590720000007135873532808711585_);}
	.st31{fill:url(#SVGID_00000064355422360197451530000007755484597673524632_);}
	.st32{fill:url(#SVGID_00000015315369396820691480000006230572788530027152_);}
	.st33{fill:url(#SVGID_00000150063975379298148060000002471934462871457182_);}
	.st34{fill:url(#SVGID_00000003799694791041081330000004613206819224076467_);}
	.st35{fill:url(#SVGID_00000101091186451386357420000010803877222163929224_);}
	.st36{fill:url(#SVGID_00000081647034455538658020000010821265679061710740_);}
	.st37{fill:url(#SVGID_00000085208354756574615060000002779123119221045677_);}
	.st38{opacity:0.54;fill:#FFFFFF;enable-background:new    ;}
</style>
<g>
	<g>
		<g>
			
				<image style="overflow:visible;enable-background:new    ;" width="2677" height="1997" xlink:href="44FEC868C9C2EE79.png"  transform="matrix(0.2402 0 0 0.2402 45.7511 0.1363)">
			</image>
		</g>
		<g>
			
				<image style="overflow:visible;enable-background:new    ;" width="303" height="347" xlink:href="44FEC868C9C2EE7B.png"  transform="matrix(0.24 0 0 0.24 109.3511 161.3553)">
			</image>
		</g>
		<g>
			<polygon points="400.84,407.43 367.26,325.36 331.94,407.35 275.55,433.85 181.89,384.35 178.25,287.53 195.39,269.09 
				162.85,254.47 140.65,181 90.75,125.91 107.61,45.32 244.49,79.27 367.26,201.66 490.03,79.27 626.91,45.32 643.77,125.91 
				593.87,181 571.67,254.47 539.14,269.09 556.27,287.53 552.63,384.35 458.97,433.85 			"/>
		</g>
		
			<linearGradient id="SVGID_1_" gradientUnits="userSpaceOnUse" x1="105.46" y1="241.685" x2="629.06" y2="241.685" gradientTransform="matrix(1 0 0 -1 0 482)">
			<stop  offset="0" style="stop-color:#2175A1"/>
			<stop  offset="0.0901" style="stop-color:#227596"/>
			<stop  offset="0.2489" style="stop-color:#237578"/>
			<stop  offset="0.3054" style="stop-color:#24756C"/>
			<stop  offset="0.3454" style="stop-color:#2F7768"/>
			<stop  offset="0.4162" style="stop-color:#4D7B5D"/>
			<stop  offset="0.5095" style="stop-color:#7E824B"/>
			<stop  offset="0.6204" style="stop-color:#C08B32"/>
			<stop  offset="0.7017" style="stop-color:#F5931E"/>
			<stop  offset="1" style="stop-color:#D71476"/>
		</linearGradient>
		<polygon class="st0" points="411.28,397.26 379.59,322.52 367.26,279.76 354.93,322.52 323.24,397.26 276,418.73 195.17,376 
			192.04,292.65 218.22,264.47 174.06,244.62 152.76,174.14 105.46,121.92 118.02,61.9 237.57,91.55 367.26,220.84 496.95,91.55 
			616.5,61.9 629.06,121.92 581.76,174.14 560.46,244.62 516.3,264.47 542.49,292.65 539.35,376 458.52,418.73 		"/>
		<g>
			<g class="st1">
				
					<image style="overflow:visible;opacity:0.4;enable-background:new    ;" width="788" height="717" xlink:href="44FEC868C9C2EE7E.png"  transform="matrix(0.2397 0 0 0.2397 177.366 250.7184)">
				</image>
				<g>
					<path class="st2" d="M349.17,276.62l-93.85-12.1c-14.02-1.81-28.65,2.21-40.86,11.22l-23.69,17.48l21.67,12.8
						c11,6.5,24.2,8.48,37.26,5.59l31.27-6.92l-36.05,13.87c-12.48,4.8-22.39,13.74-27.98,25.23l-11,22.63l29.4,1.5
						c15.15,0.77,29.57-3.96,40.26-13.2l57.33-49.58l-46.71,50.94c-6.85,8.93-10.22,19.91-9.51,30.98l1.38,21.8l21.3-11.36
						c10.97-5.85,19.21-15.56,23.01-27.09l30.26-70.79L349.17,276.62z"/>
				</g>
			</g>
			<g class="st1">
				
					<image style="overflow:visible;opacity:0.4;enable-background:new    ;" width="788" height="717" xlink:href="44FEC868C9C2EE7F.png"  transform="matrix(0.2397 0 0 0.2397 368.406 250.7184)">
				</image>
				<g>
					<path class="st2" d="M385.26,276.62l93.85-12.1c14.02-1.81,28.65,2.21,40.86,11.22l23.69,17.48l-21.67,12.8
						c-11,6.5-24.2,8.48-37.26,5.59l-31.27-6.92l36.05,13.87c12.48,4.8,22.39,13.74,27.98,25.23l11,22.63l-29.4,1.5
						c-15.15,0.77-29.57-3.96-40.26-13.2l-57.33-49.58l46.71,50.94c6.85,8.93,10.22,19.91,9.51,30.98l-1.38,21.8l-21.3-11.36
						c-10.97-5.85-19.21-15.56-23.01-27.09l-30.26-70.79L385.26,276.62z"/>
				</g>
			</g>
		</g>
		<g>
			<g class="st3">
				
					<image style="overflow:visible;enable-background:new    ;" width="630" height="688" xlink:href="44FEC868C9C2EE7A.png"  transform="matrix(0.2396 0 0 0.2396 90.5725 92.6678)">
				</image>
				<g>
					<polygon class="st2" points="187.94,169.61 215.25,231.42 194.32,229.89 180.86,171.38 116.6,118.67 					"/>
				</g>
			</g>
			<g class="st3">
				
					<image style="overflow:visible;enable-background:new    ;" width="1114" height="900" xlink:href="44FEC868C9C2EE75.png"  transform="matrix(0.2398 0 0 0.2398 96.5725 48.3536)">
				</image>
				<g>
					<polygon class="st2" points="337.48,236.01 229.51,106.76 122.68,74.19 223.81,111.32 308.38,238.2 					"/>
				</g>
			</g>
			<g class="st3">
				
					<image style="overflow:visible;enable-background:new    ;" width="850" height="799" xlink:href="44FEC868C9C2EE76.png"  transform="matrix(0.2397 0 0 0.2397 93.4525 70.3295)">
				</image>
				<g>
					<polygon class="st2" points="271.07,236.01 212.4,140.91 119.64,95.86 206.7,145.47 245.73,235.51 					"/>
				</g>
			</g>
			<g class="st3">
				
					<image style="overflow:visible;enable-background:new    ;" width="628" height="688" xlink:href="44FEC868C9C2EE77.png"  transform="matrix(0.2397 0 0 0.2397 493.282 92.6567)">
				</image>
				<g>
					<polygon class="st2" points="546.48,169.61 519.18,231.42 540.1,229.89 553.57,171.38 617.83,118.67 					"/>
				</g>
			</g>
			<g class="st3">
				
					<image style="overflow:visible;enable-background:new    ;" width="1112" height="900" xlink:href="44FEC868C9C2EE89.png"  transform="matrix(0.2402 0 0 0.2402 370.8925 48.1596)">
				</image>
				<g>
					<polygon class="st2" points="396.95,236.01 504.92,106.76 611.75,74.19 510.62,111.32 426.04,238.2 					"/>
				</g>
			</g>
			<g class="st3">
				
					<image style="overflow:visible;enable-background:new    ;" width="849" height="799" xlink:href="F8D2F725292C7782.png"  transform="matrix(0.2397 0 0 0.2397 437.3725 70.3296)">
				</image>
				<g>
					<polygon class="st2" points="463.35,236.01 522.02,140.91 614.79,95.86 527.73,145.47 488.7,235.51 					"/>
				</g>
			</g>
		</g>
		<g>
			<path d="M490.1,81.13l8.68,5.37l-37.26,99.1L490.1,81.13z M467.79,426.72l-8.21,2.66l-33.49-81.39L467.79,426.72z M592.88,174.25
				l-40.93,31.81l33.14-35.52L592.88,174.25z M547.8,384.49l-62.92-46.26l66.08,38.22L547.8,384.49z"/>
		</g>
		<g>
			<path d="M244.33,81.13l-8.68,5.37l37.26,99.1L244.33,81.13z M266.64,426.72l8.21,2.66l33.49-81.39L266.64,426.72z M141.54,174.25
				l40.93,31.81l-33.14-35.52L141.54,174.25z M186.63,384.49l62.92-46.26l-66.08,38.22L186.63,384.49z"/>
		</g>
		<g>
			
				<image style="overflow:visible;opacity:0.3;enable-background:new    ;" width="2387" height="1702" xlink:href="F8D2F725292C7785.png"  transform="matrix(0.24 0 0 0.24 80.8637 35.4998)">
			</image>
			<g>
				
					<image style="overflow:visible;opacity:0.75;enable-background:new    ;" width="2326" height="1643" xlink:href="F8D2F725292C7786.png"  transform="matrix(0.2399 0 0 0.2399 88.2694 42.6155)">
				</image>
				<g>
					<path class="st2" d="M625.56,47.5l16.31,77.97l-49.3,54.43l-0.26,0.29l-0.11,0.37l-21.98,72.72l-31.81,14.3l-2.2,0.99
						l1.64,1.77l16.64,17.91l-3.57,95.1l-92.03,48.64l-56.74-25.79l-33.31-78.57l-1.59-3.76l-1.59,3.76l-33.31,78.57l-56.74,25.79
						l-92.03-48.64l-3.57-95.1l16.64-17.91l1.64-1.77l-2.2-0.99l-31.81-14.3l-21.98-72.72l-0.11-0.37l-0.26-0.29l-49.3-54.43
						l16.31-77.97l134.67,33.4l122.43,122.05l1.22,1.22l1.22-1.22L490.89,80.9L625.56,47.5 M626.89,45.39L490.01,79.33
						L367.24,201.72L244.47,79.33L107.59,45.39l-16.86,80.59l49.9,55.08l22.21,73.48l32.53,14.62l-17.13,18.44l3.64,96.81
						l93.66,49.51l58.13-26.42l33.58-79.19l33.58,79.19l58.13,26.42l93.66-49.51l3.64-96.81l-17.13-18.44l32.53-14.62l22.21-73.48
						l49.9-55.08L626.89,45.39L626.89,45.39z"/>
				</g>
			</g>
		</g>
		<g>
			
				<image style="overflow:visible;opacity:0.3;enable-background:new    ;" width="2387" height="1702" xlink:href="F8D2F725292C7784.png"  transform="matrix(0.24 0 0 0.24 80.8637 35.4998)">
			</image>
			<g>
				
					<image style="overflow:visible;opacity:0.75;enable-background:new    ;" width="2326" height="1643" xlink:href="F8D2F725292C7783.png"  transform="matrix(0.2399 0 0 0.2399 88.2694 42.6155)">
				</image>
				<g>
					<path class="st2" d="M625.56,47.5l16.31,77.97l-49.3,54.43l-0.26,0.29l-0.11,0.37l-21.98,72.72l-31.81,14.3l-2.2,0.99
						l1.64,1.77l16.64,17.91l-3.57,95.1l-92.03,48.64l-56.74-25.79l-33.31-78.57l-1.59-3.76l-1.59,3.76l-33.31,78.57l-56.74,25.79
						l-92.03-48.64l-3.57-95.1l16.64-17.91l1.64-1.77l-2.2-0.99l-31.81-14.3l-21.98-72.72l-0.11-0.37l-0.26-0.29l-49.3-54.43
						l16.31-77.97l134.67,33.4l122.43,122.05l1.22,1.22l1.22-1.22L490.89,80.9L625.56,47.5 M626.89,45.39L490.01,79.33
						L367.24,201.72L244.47,79.33L107.59,45.39l-16.86,80.59l49.9,55.08l22.21,73.48l32.53,14.62l-17.13,18.44l3.64,96.81
						l93.66,49.51l58.13-26.42l33.58-79.19l33.58,79.19l58.13,26.42l93.66-49.51l3.64-96.81l-17.13-18.44l32.53-14.62l22.21-73.48
						l49.9-55.08L626.89,45.39L626.89,45.39z"/>
				</g>
			</g>
		</g>
	</g>
	<g>
		<g>
			<path d="M1990.27,189.42c-8.96-9.74-27.25-29.66-36.67-39.97c-0.27-0.41-0.58-0.81-0.93-1.18l-4.82-5.09
				c-1.58-1.68-3.77-2.58-6-2.58c-0.83,0-1.68,0.13-2.5,0.39l-50.24,15.95c-1.54,0.49-2.9,1.41-3.91,2.66l-14.87,18.31
				c-6.63-8.34-16.82-21.21-23.27-29.36l-6.73-8.5c-1.6-2.02-4-3.12-6.47-3.12c-1.06,0-2.13,0.2-3.16,0.63l-40.17,16.63
				c-0.9,0.37-1.73,0.91-2.45,1.57l-6.04,5.59l-0.1-10.97c-0.04-4.46-3.61-8.08-8.07-8.18c-0.25-0.01-1.32-0.01-2.79-0.02
				c-2.51-0.02-8.96-0.07-10.54-0.12c-0.26-0.03-0.52-0.04-0.78-0.05c-24.21-0.31-73.86-0.78-104.37-0.9l-0.04-3.08
				c-0.03-2.29-1.01-4.46-2.7-6c-1.53-1.39-3.51-2.15-5.55-2.15c-0.23,0-0.45,0.01-0.68,0.03l-58.75,4.84
				c-1.72,0.2-3.27,0.92-4.5,1.99c-0.25,0.22-0.49,0.45-0.71,0.7l-3.42,3.82l-6.85,0.05c-2.44,0.02-4.74,1.11-6.3,2.98l-11.35,13.66
				c0,0-138.77-0.44-138.78-0.44c-2.18,0-4.28,0.86-5.83,2.4c-1.55,1.55-2.43,3.65-2.43,5.84l-0.08,58.28c0,0.8,0.11,1.6,0.34,2.37
				l2.61,8.76c1.04,3.5,4.28,5.89,7.93,5.9l14.61,0.01l0.59,43c-5.75,0.01-12.37,0.02-19.24,0.02l-36.66-0.01l0.03-58.24l4.77-0.01
				c2.4-0.01,4.67-1.05,6.24-2.87c1.56-1.82,2.26-4.23,1.91-6.6l-7.74-52.16c-0.12-0.78-0.34-1.54-0.68-2.26l-7.67-16.56
				c-0.41-0.89-0.98-1.7-1.68-2.4c-1.55-1.54-3.64-2.4-5.82-2.4h-0.05c-17.96,0.11-58.36,0.36-78.55,0.53l-8.72-8.88
				c-1.56-1.59-3.68-2.47-5.89-2.47c-0.23,0-0.45,0.01-0.68,0.03c-14.4,1.2-43.37,3.61-57.75,4.81c-3.96,0.33-7.08,3.42-7.52,7.29
				c-12.22,0.21-28.01,0.35-39.43,0.39l-21.12-12.11c-0.11-0.06-0.4-0.22-0.4-0.22c-0.94-0.48-1.96-0.76-2.98-0.86l0,0
				c-0.02,0-0.59-0.03-0.74-0.03c-0.08,0-0.16,0-0.23,0l-56.95,5.02c-4.25,0.38-7.52,3.93-7.53,8.2v1.27l-50.98,0.9
				c-4.49,0.08-8.09,3.73-8.11,8.22l-0.01,2.06l-13.96-4.79c-0.87-0.3-1.78-0.45-2.68-0.45c-1.21,0-2.41,0.27-3.53,0.79
				l-31.24,14.12l-0.74-1.86l-1.78-3.54l-2.05-3.33l-2.31-3.09l-2.56-2.87l-3.72-3.36l-4.09-2.87l-4.38-2.31l-3.51-1.37l-1.92-0.55
				c-0.31-0.11-0.62-0.25-0.93-0.36c-0.13-0.04-0.27-0.09-0.4-0.13c-6.02-1.75-54.38-19.68-61.72-21.77
				c-0.81-0.23-1.64-0.34-2.48-0.34c-0.14,0-0.27,0-0.41,0.01c-21.93,0.99-67.92,4.08-99.32,5.48l-36.17,1.61
				c-2.49,0.11-4.83,1.24-6.46,3.13c-1.63,1.89-2.42,4.36-2.17,6.84c1.51,15.01,4.51,45.21,5.99,60.18c0.41,4.14,3.58,7.48,7.7,8.09
				L772,200.3l-0.73,71.32c-1.39,0.01-6.09,0.04-6.09,0.04c-2.53,0.02-4.94,1.09-6.64,2.97c-1.7,1.87-2.55,4.37-2.33,6.89
				l5.36,61.55c0.41,4.69,4.33,8.29,9.04,8.29c0.01,0,4.64-0.01,4.64-0.01c10.37,0,21.75,0.15,33.8,0.3
				c12.96,0.17,26.37,0.34,39.52,0.34c13.73,0,25.26-0.19,35.24-0.59h13.08l-7.69,21.31c-0.06,0.15-0.18,0.48-0.18,0.48
				c-0.46,1.39-0.54,2.84-0.26,4.21l0.01,0.05c0.1,0.49,0.25,0.97,0.43,1.43c0,0.01,0.01,0.02,0.01,0.02
				c0.47,1.17,1.22,2.23,2.2,3.09l0.01,0.01c0.29,0.25,0.59,0.49,0.92,0.7c0.01,0,0.02,0.01,0.02,0.01c0.33,0.21,0.67,0.4,1.02,0.57
				l47.37,22.8c1.12,0.54,2.35,0.82,3.58,0.82c0.5,0,0.99-0.04,1.48-0.13l50.6-9.25c2.77-0.51,5.09-2.38,6.15-4.99
				c2.83-6.9,8.23-20.05,13.05-31.75c1.42,3.6,4.85,12.3,4.85,12.3c1.26,3.19,4.33,5.23,7.68,5.23c0.41,0,0.82-0.03,1.23-0.09
				l42.43-6.39c0.71-0.11,1.41-0.31,2.07-0.59l0.25,0.05l30.79-13.69c4.46-0.01,34.15-0.03,37.67-0.03c0.57,0,0.57,0,32.05-4.37
				c4.08-0.57,7.11-4.05,7.12-8.16l0.2-118.1c4.77-0.04,10.23-0.05,15.58-0.06c3.56-0.01,7.06-0.01,10.28-0.03l0.08,122.65
				c0,2.19,0.88,4.3,2.43,5.85c1.55,1.54,3.64,2.41,5.83,2.41c0.01,0,58.04-0.23,58.04-0.23c0.66,0,1.32-0.08,1.96-0.24l17.38-4.31
				c0.34-0.08,0.67-0.19,0.98-0.31c0.34,1.52,1.1,2.93,2.22,4.05c1.55,1.55,3.65,2.43,5.84,2.43c32.16,0.01,95.03,0.05,131.47,0.08
				c0,0.04,0,0.07,0,0.11c0.08,2.27,1.09,4.41,2.79,5.91c1.52,1.33,3.46,2.06,5.46,2.06c0.25,0,0.5-0.01,0.75-0.03l58.51-5.36
				c2.35-0.22,4.39-1.4,5.75-3.13c17-0.13,42.78-0.32,60.3-0.44l0.12,8.75c0.04,3.24,1.98,6.16,4.95,7.46l15.78,6.89
				c1.04,0.46,2.17,0.69,3.3,0.69c0.04,0,58.91-0.82,58.91-0.82c2.19-0.03,4.28-0.93,5.81-2.5s2.37-3.69,2.33-5.88l-1.14-77.36
				c7.28,0.01,16.5,0.01,23.69,0.02l0.34,50.23c0.02,3.53,2.29,6.65,5.63,7.77c9.7,3.25,33.95,4.76,76.34,4.76
				c13.1,0,25.79-0.14,35.98-0.25c4.01-0.04,7.65-0.08,10.81-0.11l0.33,20.35c0.06,3.93,2.89,7.27,6.75,7.98l43.15,8.01
				c0.5,0.09,1,0.14,1.51,0.14c0.06,0,61.95-1.41,61.95-1.41c0.36-0.01,0.73-0.04,1.09-0.09h0.02c1.04-0.16,2.02-0.51,2.91-1.03
				c0,0,0.01,0,0.01-0.01c0.64-0.38,1.23-0.84,1.74-1.36l0.01-0.01c0.67-0.69,1.22-1.5,1.63-2.4v-0.01c0.27-0.6,0.46-1.23,0.58-1.88
				v-0.01c0.1-0.56,0.14-1.12,0.13-1.68l-1.97-105.73c15.95-21.03,45.46-59.45,60.4-78.73
				C1993.19,196.89,1993,192.39,1990.27,189.42z"/>
		</g>
		<g>
			
				<linearGradient id="SVGID_00000147929079616048737640000006765291903982069378_" gradientUnits="userSpaceOnUse" x1="1444.48" y1="185.09" x2="1444.48" y2="264.54" gradientTransform="matrix(1 0 0 -1 0 482)">
				<stop  offset="0" style="stop-color:#000000"/>
				<stop  offset="1" style="stop-color:#FFFFFF"/>
			</linearGradient>
			<polygon style="fill:url(#SVGID_00000147929079616048737640000006765291903982069378_);" points="1447.32,257.15 1446.77,217.46 
				1441.09,223.26 1441.56,257.38 1442.03,291.49 1447.87,296.91 			"/>
			<g>
				
					<linearGradient id="SVGID_00000078738963455755546840000002203538490838442415_" gradientUnits="userSpaceOnUse" x1="1442.59" y1="188.8732" x2="1442.59" y2="190.5232" gradientTransform="matrix(1 0 0 -1 0 482)">
					<stop  offset="0.1551" style="stop-color:#2F1423"/>
					<stop  offset="0.3293" style="stop-color:#462039"/>
					<stop  offset="0.6921" style="stop-color:#804070"/>
					<stop  offset="1" style="stop-color:#B65EA3"/>
				</linearGradient>
				<polygon style="fill:url(#SVGID_00000078738963455755546840000002203538490838442415_);" points="1442.03,291.49 1443.3,291.48 
					1443.02,293.11 1441.88,293.13 				"/>
				
					<linearGradient id="SVGID_00000006708067013782230900000010296662024407423667_" gradientUnits="userSpaceOnUse" x1="1442.1801" y1="123.77" x2="1442.1801" y2="137.89" gradientTransform="matrix(1 0 0 -1 0 482)">
					<stop  offset="0.1551" style="stop-color:#2F1423"/>
					<stop  offset="0.3293" style="stop-color:#462039"/>
					<stop  offset="0.6921" style="stop-color:#804070"/>
					<stop  offset="1" style="stop-color:#B65EA3"/>
				</linearGradient>
				<polygon style="fill:url(#SVGID_00000006708067013782230900000010296662024407423667_);" points="1442.22,348.43 1442.3,358.23 
					1442.13,352.88 1442.06,344.11 				"/>
				<polygon class="st7" points="1136.35,343.17 1113.35,343.19 1090.44,343.21 1085.89,348.57 1114.19,348.54 1142.59,348.51 				
					"/>
				<polygon class="st8" points="816.16,127.14 739.28,130.68 741.12,135.17 812.96,131.83 866.78,129.43 875.03,123.94 				"/>
				<polygon class="st7" points="1981,194.21 1951.15,233.21 1920.65,273.05 1922.01,275.32 1951.09,237.14 1984.2,194.23 				"/>
				
					<linearGradient id="SVGID_00000178199455346316678060000007363192018668063365_" gradientUnits="userSpaceOnUse" x1="1922.34" y1="98.01" x2="1922.34" y2="208.95" gradientTransform="matrix(1 0 0 -1 0 482)">
					<stop  offset="0" style="stop-color:#000000"/>
					<stop  offset="1" style="stop-color:#FFFFFF"/>
				</linearGradient>
				<polygon style="fill:url(#SVGID_00000178199455346316678060000007363192018668063365_);" points="1924.03,383.99 
					1922.63,378.99 1920.65,273.05 1922.01,275.32 				"/>
				
					<linearGradient id="SVGID_00000023997590924702095990000014903198767200892039_" gradientUnits="userSpaceOnUse" x1="896.87" y1="140.745" x2="924.74" y2="140.745" gradientTransform="matrix(1 0 0 -1 0 482)">
					<stop  offset="0" style="stop-color:#000000"/>
					<stop  offset="1" style="stop-color:#FFFFFF"/>
				</linearGradient>
				<path style="fill:url(#SVGID_00000023997590924702095990000014903198767200892039_);" d="M896.87,375l3.32-2.59l11.95-29.93
					l12.6-31.71l-1.02-3.26L896.87,375z M918.14,327.47l3.51-6.09l2.48-8.91L918.14,327.47z"/>
				
					<linearGradient id="SVGID_00000140706716554052506800000000593525994034958768_" gradientUnits="userSpaceOnUse" x1="1889.0699" y1="297.27" x2="1946.7" y2="297.27" gradientTransform="matrix(1 0 0 -1 0 482)">
					<stop  offset="0" style="stop-color:#000000"/>
					<stop  offset="1" style="stop-color:#FFFFFF"/>
				</linearGradient>
				<polygon style="fill:url(#SVGID_00000140706716554052506800000000593525994034958768_);" points="1941.86,148.07 1946.7,153.43 
					1892.17,221.39 1889.07,213.71 				"/>
				
					<linearGradient id="SVGID_00000068641951172819703360000007586043710460955807_" gradientUnits="userSpaceOnUse" x1="859.8846" y1="315.3021" x2="935.2817" y2="302.0076" gradientTransform="matrix(1 0 0 -1 0 482)">
					<stop  offset="0" style="stop-color:#CFCFCF"/>
					<stop  offset="1" style="stop-color:#000000"/>
				</linearGradient>
				<polygon style="fill:url(#SVGID_00000068641951172819703360000007586043710460955807_);" points="931.31,188.34 930.52,181.6 
					929.18,175.08 927.31,168.81 924.96,162.83 922.15,157.17 918.9,151.85 915.25,146.9 911.19,142.33 905.3,136.95 898.82,132.37 
					891.88,128.69 886.32,126.51 880.62,124.92 876.6,124.15 875.74,124.06 875.03,123.94 866.53,129.01 866.53,129.22 
					872.09,129.8 875.71,130.49 880.99,131.98 886.06,133.97 892.47,137.38 898.42,141.6 903.85,146.56 907.55,150.74 910.9,155.28 
					913.87,160.15 916.44,165.34 918.59,170.8 920.28,176.53 921.51,182.48 922.23,188.64 922.43,194.98 922.2,200.15 
					921.69,204.67 920.57,210.73 918.97,216.6 916.92,222.25 927.14,220.65 927.74,218.95 929.49,212.53 930.71,205.92 
					931.27,200.92 931.53,195.24 				"/>
				
					<linearGradient id="SVGID_00000159459129881938022600000011749692040942643608_" gradientUnits="userSpaceOnUse" x1="909.7029" y1="251.149" x2="956.6717" y2="211.7377" gradientTransform="matrix(1 0 0 -1 0 482)">
					<stop  offset="0" style="stop-color:#FFFFFF"/>
					<stop  offset="1" style="stop-color:#000000"/>
				</linearGradient>
				<polygon style="fill:url(#SVGID_00000159459129881938022600000011749692040942643608_);" points="948.23,267.71 947.43,261.05 
					946.08,254.59 944.22,248.36 941.88,242.4 939.08,236.73 935.86,231.38 932.25,226.38 928.28,221.76 927.14,220.65 
					916.92,222.25 920.86,226.12 924.5,230.35 927.8,234.93 930.75,239.82 933.32,245.01 935.47,250.46 937.18,256.16 
					938.41,262.07 939.15,268.16 939.04,280.3 948.14,280.43 				"/>
				<polygon class="st7" points="964.57,208.06 967.02,207.63 937.44,279.93 942.57,269.61 				"/>
				
					<linearGradient id="SVGID_00000164505655762952378800000004465327450502281401_" gradientUnits="userSpaceOnUse" x1="953.59" y1="287.93" x2="967.02" y2="287.93" gradientTransform="matrix(1 0 0 -1 0 482)">
					<stop  offset="0" style="stop-color:#FFFFFF"/>
					<stop  offset="1" style="stop-color:#000000"/>
				</linearGradient>
				<polygon style="fill:url(#SVGID_00000164505655762952378800000004465327450502281401_);" points="953.59,180.08 957.05,182.35 
					967.02,207.63 964.57,208.06 				"/>
				<polygon class="st7" points="896.87,375 900.18,372.41 939.06,391.03 944.34,397.85 				"/>
				
					<linearGradient id="SVGID_00000161616779667976993830000011776865898065843105_" gradientUnits="userSpaceOnUse" x1="939.06" y1="119.885" x2="971.47" y2="119.885" gradientTransform="matrix(1 0 0 -1 0 482)">
					<stop  offset="0" style="stop-color:#000000"/>
					<stop  offset="1" style="stop-color:#FFFFFF"/>
				</linearGradient>
				<polygon style="fill:url(#SVGID_00000161616779667976993830000011776865898065843105_);" points="965.6,326.38 952.32,358.74 
					939.06,391.03 944.34,397.85 959.5,360.79 971.47,331.75 				"/>
				<polygon class="st7" points="978.07,168.52 953.59,180.08 957.05,182.35 977.14,172.96 997.32,163.52 1002.63,156.92 				"/>
				<polygon class="st7" points="1889.07,213.71 1864.81,183.46 1833.87,144.4 1836.5,151.48 1864.44,186.56 1892.17,221.39 				"/>
				<polygon class="st7" points="1922.63,378.99 1896.42,379.56 1869.93,380.13 1862.23,385.39 1893.32,384.68 1924.03,383.99 				
					"/>
				
					<linearGradient id="SVGID_00000090997629337812207600000011362122902168111514_" gradientUnits="userSpaceOnUse" x1="1865.155" y1="96.61" x2="1865.155" y2="204.27" gradientTransform="matrix(1 0 0 -1 0 482)">
					<stop  offset="0" style="stop-color:#000000"/>
					<stop  offset="1" style="stop-color:#FFFFFF"/>
				</linearGradient>
				<polygon style="fill:url(#SVGID_00000090997629337812207600000011362122902168111514_);" points="1869.02,328.87 
					1868.11,277.73 1860.38,279.82 1861.25,328.84 1862.23,385.39 1869.93,380.13 				"/>
				
					<linearGradient id="SVGID_00000016762335576483697220000001919906759730979483_" gradientUnits="userSpaceOnUse" x1="1848.215" y1="133.26" x2="1848.215" y2="190.51" gradientTransform="matrix(1 0 0 -1 0 482)">
					<stop  offset="0" style="stop-color:#000000"/>
					<stop  offset="1" style="stop-color:#FFFFFF"/>
				</linearGradient>
				<polygon style="fill:url(#SVGID_00000016762335576483697220000001919906759730979483_);" points="1850.11,320.1 1849.82,291.49 
					1846.02,296.85 1846.26,320.14 1846.5,343.45 1850.41,348.74 				"/>
				<polygon class="st18" points="1027.54,151.88 1027.41,180.42 1027.27,208.99 1031.61,203.25 1031.72,179.99 1031.82,156.76 				
					"/>
				
					<linearGradient id="SVGID_00000051380343183284667490000006254617790724265646_" gradientUnits="userSpaceOnUse" x1="1786" y1="247.65" x2="1868.11" y2="247.65" gradientTransform="matrix(1 0 0 -1 0 482)">
					<stop  offset="0" style="stop-color:#FFFFFF"/>
					<stop  offset="1" style="stop-color:#000000"/>
				</linearGradient>
				<polygon style="fill:url(#SVGID_00000051380343183284667490000006254617790724265646_);" points="1832.03,233.65 
					1795.66,189.21 1786,188.88 1825.52,237.36 1860.38,279.82 1868.11,277.73 				"/>
				<polygon class="st7" points="1833.87,144.4 1810.05,166.53 1786,188.88 1795.66,189.21 1816.14,170.29 1836.5,151.48 				"/>
				
					<linearGradient id="SVGID_00000035496119706417111450000014376385745725237387_" gradientUnits="userSpaceOnUse" x1="1023.58" y1="202.25" x2="1023.58" y2="325.08" gradientTransform="matrix(1 0 0 -1 0 482)">
					<stop  offset="0" style="stop-color:#000000"/>
					<stop  offset="1" style="stop-color:#FFFFFF"/>
				</linearGradient>
				<polygon style="fill:url(#SVGID_00000035496119706417111450000014376385745725237387_);" points="1027.68,219.51 
					1002.63,156.92 997.32,163.52 1020.56,221.41 1043.99,279.75 1049.84,274.43 				"/>
				
					<linearGradient id="SVGID_00000044176425703811379090000003437271296891931064_" gradientUnits="userSpaceOnUse" x1="1013.24" y1="134.115" x2="1028.21" y2="134.115" gradientTransform="matrix(1 0 0 -1 0 482)">
					<stop  offset="0" style="stop-color:#FFFFFF"/>
					<stop  offset="1" style="stop-color:#000000"/>
				</linearGradient>
				<polygon style="fill:url(#SVGID_00000044176425703811379090000003437271296891931064_);" points="1021.04,344.38 
					1013.88,326.51 1013.24,331.88 1019.15,346.39 1028.16,369.26 1028.21,362.3 				"/>
				<polygon class="st7" points="1086.61,150.84 1091.11,155.75 1031.82,156.76 1027.54,151.88 				"/>
				<polygon class="st7" points="1027.27,208.99 1031.61,203.25 1090.96,202.49 1086.41,208.27 				"/>
				<polygon class="st7" points="1065.04,274.4 1049.84,274.43 1043.99,279.75 1062.49,279.71 1081.06,279.66 1088.52,274.31 				
					"/>
				<polygon class="st18" points="1073.5,333.16 1072.84,332.04 1062.9,326.6 1066.43,335.33 1069.96,344.07 1078.92,346.9 				"/>
				<polygon class="st7" points="1069.96,344.07 1049.05,353.2 1028.21,362.3 1028.16,369.26 1053.48,358.11 1078.92,346.9 				"/>
				
					<linearGradient id="SVGID_00000059278870451566860950000009247199479981649570_" gradientUnits="userSpaceOnUse" x1="1772.265" y1="185.25" x2="1772.265" y2="332.34" gradientTransform="matrix(1 0 0 -1 0 482)">
					<stop  offset="0" style="stop-color:#000000"/>
					<stop  offset="1" style="stop-color:#FFFFFF"/>
				</linearGradient>
				<polygon style="fill:url(#SVGID_00000059278870451566860950000009247199479981649570_);" points="1774.35,225.82 
					1773.69,149.66 1769.6,154.57 1770.22,225.55 1770.83,296.75 1774.93,291.34 				"/>
				<polygon class="st23" points="1807.13,291.41 1774.93,291.34 1770.83,296.75 1808.6,296.8 1846.02,296.85 1849.82,291.49 				
					"/>
				<polygon class="st18" points="1081.06,279.66 1080.89,303.13 1080.73,326.63 1088.1,332.07 1088.31,303.17 1088.52,274.31 				
					"/>
				<polygon class="st7" points="1143.1,136.49 1136.86,141.81 1091.14,145.98 1086.64,141.48 				"/>
				<polygon class="st18" points="1136.86,141.81 1136.84,148.41 1136.82,155 1143.06,150.05 1143.06,148.91 1143.1,136.49 				"/>
				
					<linearGradient id="SVGID_00000168089561101296620800000014832656403163712916_" gradientUnits="userSpaceOnUse" x1="1139.64" y1="133.49" x2="1139.64" y2="280.07" gradientTransform="matrix(1 0 0 -1 0 482)">
					<stop  offset="0" style="stop-color:#000000"/>
					<stop  offset="1" style="stop-color:#FFFFFF"/>
				</linearGradient>
				<polygon style="fill:url(#SVGID_00000168089561101296620800000014832656403163712916_);" points="1142.59,348.51 
					1136.35,343.17 1136.71,201.93 1142.93,207.7 				"/>
				<polygon class="st7" points="1718.83,349.31 1725.4,343.95 1846.5,343.45 1850.41,348.74 				"/>
				
					<linearGradient id="SVGID_00000030446366589847508400000001829881401352893074_" gradientUnits="userSpaceOnUse" x1="1721.585" y1="132.69" x2="1721.585" y2="280.48" gradientTransform="matrix(1 0 0 -1 0 482)">
					<stop  offset="0" style="stop-color:#000000"/>
					<stop  offset="1" style="stop-color:#FFFFFF"/>
				</linearGradient>
				<polygon style="fill:url(#SVGID_00000030446366589847508400000001829881401352893074_);" points="1717.77,207.34 
					1724.32,201.52 1725.4,343.95 1718.83,349.31 				"/>
				
					<linearGradient id="SVGID_00000047766348456371689250000009598341560173052560_" gradientUnits="userSpaceOnUse" x1="1708.78" y1="195.48" x2="1708.78" y2="254.31" gradientTransform="matrix(1 0 0 -1 0 482)">
					<stop  offset="0" style="stop-color:#000000"/>
					<stop  offset="1" style="stop-color:#FFFFFF"/>
				</linearGradient>
				<polygon style="fill:url(#SVGID_00000047766348456371689250000009598341560173052560_);" points="1710.56,256.44 
					1706.98,227.69 1703.26,232.91 1706.23,256.93 1709.2,280.96 1714.3,286.52 				"/>
				<polygon class="st18" points="1185.54,154.55 1203.72,154.32 1220.98,154.1 1216,149.16 1204.28,149.37 1192.36,149.57 
					1162.32,149.74 1143.06,150.05 1136.82,155 1161.62,154.68 				"/>
				<polygon class="st18" points="1215.99,142.01 1220.97,146.53 1220.98,154.1 1216,149.16 				"/>
				<polygon class="st18" points="1647.24,148.54 1647.24,148.54 1647.09,137.34 1642.59,142.76 1642.65,148.14 1642.72,153.53 
					1647.17,148.62 1647.24,148.63 				"/>
				<polygon class="st7" points="1761.09,149.56 1759.65,149.48 1759.65,149.47 1759.5,149.47 1759.27,149.46 1759.26,149.47 
					1698.04,148.8 1647.24,148.54 1642.72,153.53 1699.18,153.74 1755.53,154.38 1755.53,154.38 1762.4,154.47 1769.6,154.57 
					1773.69,149.66 				"/>
				<polygon class="st7" points="1648.17,207.34 1643.52,201.55 1724.32,201.52 1717.77,207.34 				"/>
				<polygon class="st7" points="1244.43,139.63 1215.99,142.01 1220.97,146.53 1244.42,144.55 1267.9,142.56 1273.73,137.2 				"/>
				<polygon class="st18" points="1273.74,148.66 1267.91,153.63 1267.9,142.56 1273.73,137.2 				"/>
				<polygon class="st18" points="1648.26,217.4 1648.17,207.34 1643.52,201.55 1643.67,217.12 1643.82,232.7 1648.36,227.47 				
					"/>
				<polygon class="st7" points="1706.98,227.69 1703.26,232.91 1643.82,232.7 1648.36,227.47 				"/>
				<polygon class="st7" points="1617.45,139.78 1588.6,142.15 1594.89,146.63 1618.77,144.69 1642.59,142.76 1647.09,137.34 				
					"/>
				<polygon class="st7" points="1709.2,280.96 1676.97,280.93 1644.63,280.9 1649.3,286.48 1676.02,286.5 1714.3,286.52 				"/>
				<polygon class="st7" points="1588.7,148.67 1585.95,148.67 1572.23,148.76 1578.47,153.69 1586.73,153.64 1595,153.59 				"/>
				<polygon class="st18" points="1572.23,148.76 1578.47,153.69 1578.7,170.5 1572.46,165.45 				"/>
				<polygon class="st7" points="1288.08,200.78 1268.03,200.88 1273.88,206.71 1288.36,206.62 1302.86,206.52 1308.16,200.67 				
					"/>
				
					<linearGradient id="SVGID_00000016771501720730861960000000682092180680410548_" gradientUnits="userSpaceOnUse" x1="1218.61" y1="133.31" x2="1218.61" y2="280.74" gradientTransform="matrix(1 0 0 -1 0 482)">
					<stop  offset="0" style="stop-color:#000000"/>
					<stop  offset="1" style="stop-color:#FFFFFF"/>
				</linearGradient>
				<polygon style="fill:url(#SVGID_00000016771501720730861960000000682092180680410548_);" points="1216.06,207.1 1221.05,201.26 
					1221.16,343.27 1216.16,348.69 				"/>
				<polygon class="st18" points="1589.71,223.69 1595.89,217.91 1596.01,232.54 1589.74,227.29 				"/>
				<polygon class="st7" points="1315.16,148.34 1273.74,148.66 1267.91,153.63 1314.97,153.32 1362.16,153 1366.94,148.02 				"/>
				<polygon class="st7" points="1589.74,227.29 1596.01,232.54 1580.86,232.52 1573.79,227.27 				"/>
				
					<linearGradient id="SVGID_00000016069889121676220960000012187480419881904790_" gradientUnits="userSpaceOnUse" x1="1647.595" y1="109.78" x2="1647.595" y2="201.1" gradientTransform="matrix(1 0 0 -1 0 482)">
					<stop  offset="0" style="stop-color:#000000"/>
					<stop  offset="1" style="stop-color:#FFFFFF"/>
				</linearGradient>
				<polygon style="fill:url(#SVGID_00000016069889121676220960000012187480419881904790_);" points="1650.56,372.22 
					1645.88,366.97 1644.63,280.9 1649.3,286.48 				"/>
				<polygon class="st7" points="1572.46,165.45 1578.7,170.5 1421.41,170.01 1415.75,164.95 				"/>
				<polygon class="st7" points="1596.76,280.86 1592.44,280.86 1588.11,280.86 1582.67,286.46 1590.61,286.45 1590.61,286.46 
					1591.75,286.45 1591.89,285.29 				"/>
				
					<linearGradient id="SVGID_00000183954889470162389010000009587168638407917754_" gradientUnits="userSpaceOnUse" x1="1580.95" y1="195.54" x2="1580.95" y2="254.73" gradientTransform="matrix(1 0 0 -1 0 482)">
					<stop  offset="0" style="stop-color:#000000"/>
					<stop  offset="1" style="stop-color:#FFFFFF"/>
				</linearGradient>
				<polygon style="fill:url(#SVGID_00000183954889470162389010000009587168638407917754_);" points="1584.48,256.68 
					1580.86,232.52 1573.79,227.27 1578.35,257.64 1582.67,286.46 1588.11,280.86 				"/>
				<polygon class="st18" points="1375.58,206.23 1369.18,200.39 1362.16,153 1366.94,148.02 				"/>
				<polygon class="st7" points="1361.06,206.27 1355.5,200.43 1369.18,200.39 1375.58,206.23 				"/>
				
					<linearGradient id="SVGID_00000129912556359026586060000016063797209073825441_" gradientUnits="userSpaceOnUse" x1="1567.5299" y1="196.27" x2="1567.5299" y2="254.62" gradientTransform="matrix(1 0 0 -1 0 482)">
					<stop  offset="0" style="stop-color:#000000"/>
					<stop  offset="1" style="stop-color:#FFFFFF"/>
				</linearGradient>
				<polygon style="fill:url(#SVGID_00000129912556359026586060000016063797209073825441_);" points="1573.45,285.73 
					1567.83,280.16 1561.61,232.66 1565.8,227.38 				"/>
				
					<linearGradient id="SVGID_00000159447248807764257910000018212533404708140206_" gradientUnits="userSpaceOnUse" x1="1271.095" y1="133.54" x2="1271.095" y2="281.12" gradientTransform="matrix(1 0 0 -1 0 482)">
					<stop  offset="0" style="stop-color:#000000"/>
					<stop  offset="1" style="stop-color:#FFFFFF"/>
				</linearGradient>
				<polygon style="fill:url(#SVGID_00000159447248807764257910000018212533404708140206_);" points="1274.01,271.96 
					1273.88,206.71 1268.03,200.88 1268.16,271.87 1268.29,343.09 1274.16,348.46 				"/>
				<polygon class="st7" points="1268.29,343.09 1244.7,343.18 1221.16,343.27 1216.16,348.69 1245.14,348.57 1274.16,348.46 				
					"/>
				<polygon class="st7" points="1545.17,217.74 1494.35,217.58 1499.52,223.39 1544.63,223.54 1589.71,223.69 1595.89,217.91 				
					"/>
				<polygon class="st18" points="1415.75,164.95 1415.71,194.07 1415.67,223.24 1421.35,217.45 1421.38,193.72 1421.41,170.01 				
					"/>
				<polygon class="st7" points="1434.06,217.46 1421.35,217.45 1415.67,223.24 1433.86,223.26 1441.09,223.26 1446.77,217.46 				
					"/>
				<polygon class="st18" points="1499.56,227.63 1494.5,232.92 1494.35,217.58 1499.52,223.39 				"/>
				<polygon class="st7" points="1565.8,227.38 1561.61,232.66 1494.5,232.92 1499.56,227.63 				"/>
				
					<linearGradient id="SVGID_00000103946565070420906930000011766298082885187760_" gradientUnits="userSpaceOnUse" x1="1586.245" y1="132.92" x2="1586.245" y2="191.39" gradientTransform="matrix(1 0 0 -1 0 482)">
					<stop  offset="0" style="stop-color:#000000"/>
					<stop  offset="1" style="stop-color:#FFFFFF"/>
				</linearGradient>
				<polygon style="fill:url(#SVGID_00000103946565070420906930000011766298082885187760_);" points="1588.25,319.2 1584.67,290.61 
					1580.5,296.11 1583.47,319.9 1586.45,343.72 1591.99,349.08 				"/>
				<polygon class="st7" points="1645.88,366.97 1621.95,367.31 1597.94,367.66 1591.77,373.05 1621.22,372.63 1650.56,372.22 				
					"/>
				
					<linearGradient id="SVGID_00000163769179206303492850000012607865360835120810_" gradientUnits="userSpaceOnUse" x1="1594.2749" y1="108.95" x2="1594.2749" y2="201.14" gradientTransform="matrix(1 0 0 -1 0 482)">
					<stop  offset="0" style="stop-color:#000000"/>
					<stop  offset="1" style="stop-color:#FFFFFF"/>
				</linearGradient>
				<polygon style="fill:url(#SVGID_00000163769179206303492850000012607865360835120810_);" points="1590.61,286.46 
					1596.76,280.86 1597.94,367.66 1591.77,373.05 				"/>
				
					<linearGradient id="SVGID_00000062177681692736356960000015274641461866337467_" gradientUnits="userSpaceOnUse" x1="1305.37" y1="131.93" x2="1305.37" y2="281.33" gradientTransform="matrix(1 0 0 -1 0 482)">
					<stop  offset="0" style="stop-color:#000000"/>
					<stop  offset="1" style="stop-color:#FFFFFF"/>
				</linearGradient>
				<polygon style="fill:url(#SVGID_00000062177681692736356960000015274641461866337467_);" points="1302.86,206.52 
					1302.73,272.66 1302.58,350.07 1307.89,344.67 1308.03,272.55 1308.16,200.67 				"/>
				<polygon class="st7" points="1567.83,280.16 1531.59,280.33 1495.3,280.49 1500.5,286.07 1531.12,285.93 1573.45,285.73 				"/>
				
					<linearGradient id="SVGID_00000181073471347111590570000006327397766167390127_" gradientUnits="userSpaceOnUse" x1="1358.24" y1="184.97" x2="1358.24" y2="281.57" gradientTransform="matrix(1 0 0 -1 0 482)">
					<stop  offset="0" style="stop-color:#000000"/>
					<stop  offset="1" style="stop-color:#FFFFFF"/>
				</linearGradient>
				<polygon style="fill:url(#SVGID_00000181073471347111590570000006327397766167390127_);" points="1361.01,291.54 
					1355.42,297.03 1355.5,200.43 1361.06,206.27 				"/>
				<polygon class="st18" points="1500.52,288.54 1500.5,286.07 1495.3,280.49 1495.42,288.54 1495.53,296.6 1500.56,291.08 				"/>
				<polygon class="st7" points="1537.46,290.88 1500.56,291.08 1495.53,296.6 1538.05,296.36 1580.5,296.11 1584.67,290.61 				"/>
				<polygon class="st7" points="1586.45,343.72 1541.06,344.05 1495.57,344.38 1500.77,349.75 1540.56,349.46 1591.99,349.08 				
					"/>
				<polygon class="st7" points="1377.86,344.7 1307.89,344.67 1302.58,350.07 1377.84,350.11 1442.23,350.16 1447.96,344.74 				
					"/>
				<polygon class="st7" points="1071.81,326.61 1062.9,326.6 1072.84,332.04 1074.24,332.03 1088.1,332.07 1080.73,326.63 				"/>
				<polygon class="st7" points="989.66,326.45 965.6,326.38 971.47,331.75 992.31,331.82 1013.24,331.88 1013.88,326.51 				"/>
				<polygon class="st18" points="1500.77,349.75 1500.81,352.87 1495.63,347.96 1495.57,344.38 				"/>
				<polygon class="st18" points="1447.99,348.53 1447.96,344.74 1442.23,350.16 1442.3,358.23 1448.02,352.31 				"/>
				<polygon class="st7" points="1196.14,201.51 1171.3,201.76 1171.3,201.77 1136.71,201.93 1142.93,207.7 1166.53,207.58 
					1166.54,207.58 1196.71,207.32 1216.06,207.1 1221.05,201.26 				"/>
				<polygon class="st18" points="1086.64,141.48 1086.61,150.84 1086.61,150.84 1091.11,155.75 1091.13,150.86 1091.14,145.98 				
					"/>
				<polygon class="st7" points="1442.03,291.49 1442.03,291.49 1439.09,291.53 1397.29,291.53 1361.01,291.54 1355.42,297.03 
					1397.37,297.02 1439.34,297.02 1443.61,296.97 1447.87,296.91 				"/>
				<polygon class="st18" points="1588.7,148.67 1591.01,150.47 1591.01,150.47 1595,153.59 1594.89,146.63 1588.6,142.15 				"/>
				
					<linearGradient id="SVGID_00000114066289620356142150000001674267625621275816_" gradientUnits="userSpaceOnUse" x1="1088.4249" y1="133.43" x2="1088.4249" y2="279.51" gradientTransform="matrix(1 0 0 -1 0 482)">
					<stop  offset="0" style="stop-color:#000000"/>
					<stop  offset="1" style="stop-color:#FFFFFF"/>
				</linearGradient>
				<polygon style="fill:url(#SVGID_00000114066289620356142150000001674267625621275816_);" points="1086.41,208.27 
					1086.17,272.86 1085.89,348.57 1090.44,343.21 1090.7,272.74 1090.96,202.49 				"/>
				<polygon class="st7" points="838.81,268.66 831.22,263.28 870.71,263 873.51,268.45 				"/>
				
					<linearGradient id="SVGID_00000067214523862276511280000004344641678512424066_" gradientUnits="userSpaceOnUse" x1="875.635" y1="191.2071" x2="875.635" y2="218.8571" gradientTransform="matrix(1 0 0 -1 0 482)">
					<stop  offset="0" style="stop-color:#3D3A3A"/>
					<stop  offset="1" style="stop-color:#3D3A3A"/>
				</linearGradient>
				<polygon style="fill:url(#SVGID_00000067214523862276511280000004344641678512424066_);" points="882.24,273.05 882.14,272.16 
					881.89,270.87 881.53,269.63 881.07,268.44 880.5,267.31 879.84,266.25 879.1,265.26 878.26,264.35 877.36,263.53 876.38,262.8 
					875.33,262.16 874.23,261.63 873.07,261.21 871.86,260.9 870.61,260.72 869.33,260.66 873.51,268.42 874.31,268.45 
					874.91,268.54 875.48,268.69 876.03,268.89 876.56,269.14 877.05,269.44 877.51,269.79 877.93,270.17 878.32,270.59 
					878.66,271.04 878.96,271.52 879.21,272.02 879.41,272.54 879.57,273.09 879.69,273.71 879.72,273.97 879.75,274.63 
					879.71,275.23 879.63,275.81 879.5,276.36 879.32,276.89 879.09,277.41 878.81,277.91 878.49,278.38 878.13,278.83 
					877.73,279.24 877.28,279.62 876.81,279.95 876.3,280.25 875.76,280.49 875.2,280.68 874.56,280.82 874.26,280.87 
					873.41,280.92 868.99,288.31 870.28,288.24 871.12,288.12 872.35,287.84 873.53,287.45 874.67,286.94 875.75,286.32 
					876.77,285.61 877.72,284.81 878.6,283.91 879.4,282.94 880.12,281.9 880.74,280.78 881.27,279.6 881.69,278.37 882,277.09 
					882.2,275.77 882.28,274.41 				"/>
				<polygon class="st7" points="851.1,281 838.74,281.07 830.98,286.26 847.99,286.19 870.44,286.11 873.4,280.91 				"/>
				<polygon class="st18" points="838.74,281.07 830.98,286.26 831.22,263.26 838.81,268.65 				"/>
				<polygon class="st7" points="1495.63,347.96 1471.83,350.13 1448.02,352.31 1442.3,358.23 1472.01,355.51 1500.81,352.87 				
					"/>
				<path class="st38" d="M1696.94,283.97h0.01H1696.94L1696.94,283.97z"/>
				<polygon class="st7" points="863.86,202.89 856.94,202.87 839.6,202.87 831.91,208.15 861.45,207.7 				"/>
				<polygon class="st18" points="839.6,202.87 839.68,201.14 839.68,190.57 832.17,185.26 831.93,208.15 				"/>
				<polygon class="st7" points="872.21,194.53 872.11,193.64 871.88,192.34 871.54,191.09 871.1,189.9 870.56,188.77 869.94,187.7 
					869.23,186.72 868.44,185.81 867.58,184.99 866.65,184.27 865.65,183.64 864.61,183.12 863.5,182.71 862.36,182.41 
					861.17,182.24 859.95,182.2 863.97,190.31 864.72,190.33 865.29,190.42 865.84,190.56 866.36,190.75 866.86,191 867.33,191.3 
					867.76,191.64 868.16,192.02 868.53,192.44 868.85,192.89 869.14,193.37 869.38,193.87 869.57,194.4 869.72,194.94 
					869.83,195.56 869.86,195.83 869.89,196.49 869.86,197.1 869.78,197.68 869.65,198.24 869.48,198.78 869.26,199.31 869,199.81 
					868.7,200.29 868.35,200.75 867.97,201.17 867.55,201.56 867.1,201.9 866.61,202.2 866.1,202.45 865.57,202.65 864.96,202.8 
					864.68,202.85 863.87,202.91 859.51,210.03 860.85,209.99 861.65,209.86 862.82,209.56 863.94,209.14 865.02,208.62 
					866.05,207.99 867.02,207.26 867.92,206.43 868.75,205.52 869.51,204.53 870.19,203.47 870.79,202.34 871.29,201.15 
					871.69,199.9 871.99,198.61 872.18,197.27 872.25,195.9 				"/>
				<polygon class="st7" points="861.14,184.54 863.97,190.31 846.9,190.42 846.9,190.4 839.68,190.56 832.19,185.25 844.07,185 
									"/>
				<polygon class="st7" points="1962.85,171 1941.86,148.07 1945.61,154.79 1963.42,174.62 1981,194.21 1984.2,194.23 				"/>
			</g>
		</g>
		<path class="st2" d="M1846.02,296.85l-37.41-0.05l-37.77-0.05l-0.61-71.2l-0.62-70.97l-7.2-0.1l-7.21-0.1l-0.59,0.02l-55.42-0.65
			l-56.46-0.21l-0.07-5.39l-0.06-5.39l-23.82,1.93l-23.88,1.94l0.11,6.96l-8.27,0.05l-8.27,0.05l0.23,16.81l-157.29-0.49
			l-0.03,23.71l-0.03,23.73l12.71,0.01l12.71,0.01l0.55,39.69l0.55,39.76l-8.52,0.11h-41.97h-41.95l0.07-96.6l13.68-0.04
			l-7.02-47.39l-47.19,0.31l-47.06,0.31l-0.01-11.07l-23.49,1.99l-23.44,1.98l0.01,7.57l-17.26,0.22l-17.22,0.22v-0.18l-24.88,0.32
			l-24.8,0.32l0.02-6.6l0.02-6.6l-45.71,4.17l-0.02,4.89l-0.02,4.89l-59.29,1.02l-0.11,23.23l-0.11,23.26l59.35-0.76l-0.26,70.24
			l-0.26,70.47l22.91-0.02l23-0.02l0.36-141.24l33.95-0.16l0.64-0.01l24.84-0.25l24.91-0.25l0.11,142.01l23.55-0.09l23.59-0.09
			l-0.13-71.22l-0.13-70.99l20.05-0.1l20.08-0.11l-0.13,71.88l-0.13,72.11l69.96,0.04l70.1,0.04l0.03,3.78l0.03,3.79l23.81-2.18
			l23.8-2.18l-0.03-1.79l-0.03-1.79l45.49-0.33l45.39-0.33l-2.98-23.82l-2.97-23.79l-42.45,0.25l-42.52,0.25l-0.11-8.06l-0.11-8.06
			l36.29-0.16l36.24-0.16l-6.22-47.5l-67.1,0.25l-0.16-15.34l50.83,0.17l50.72,0.17l0.12,14.63l-15.15-0.02l3.62,24.16l3.62,24.18
			h4.33h4.33l1.18,86.79l24-0.34l23.94-0.34l-1.25-86.07l32.34,0.03l32.23,0.03l-2.97-24.03l-2.97-24.02l-59.44-0.2l-0.15-15.58
			l-0.15-15.57l80.79-0.04l1.09,142.43l121.1-0.49l-0.24-23.31L1846.02,296.85z M867.08,129.21L803,132.07l-62.12,2.77l2.54,26.62
			l2.55,26.71l19.57-0.77l19.82-0.78l-0.66,49.91l-0.66,50.01l-7.81,0.05l-7.78,0.05l2.35,27.24l2.36,27.31l51.4,0.3l52.49,0.31
			l6.49-0.35l6.3-1.09l6.08-1.79l5.84-2.45l5.56-3.08l5.26-3.67l4.92-4.21l2.85-2.86l-8.22,20.19l-11.95,29.93l38.88,18.61
			l13.26-32.29l13.28-32.35l24.06,0.06l24.22,0.06l7.16,17.87l7.18,17.91l20.84-9.1l20.91-9.13l-3.53-8.74l-3.52-8.73l8.9,0.02
			l8.92,0.02l0.16-23.5l0.16-23.47l-18.57,0.05l-18.5,0.05l-23.42-58.34l-23.24-57.89l-20.19,9.44l-20.09,9.39l9.97,25.28
			l-27.39,67.31l0.04-0.8l-0.21-6.24l-0.73-6.08l-1.23-5.89l-1.7-5.68l-2.14-5.44l-2.56-5.17l-2.94-4.88l-3.3-4.56l-3.62-4.22
			l-3.92-3.85l2.04-5.63l1.59-5.85l1.12-6.05l0.5-4.5l0.23-5.16l-0.2-6.31l-0.72-6.14l-1.22-5.94l-1.69-5.71l-2.14-5.45l-2.56-5.17
			l-2.96-4.86l-3.34-4.52l-3.68-4.16l-5.41-4.95l-5.93-4.2l-6.39-3.4l-5.06-1.99C876.47,129.85,867.08,129.21,867.08,129.21z
			 M832.21,185.23h0.01h0.01l14.77-0.31l11.56-0.25l3.32-0.07l1.02,0.03l0.99,0.14l0.96,0.24l0.92,0.34l0.88,0.43l0.83,0.52
			l0.78,0.6l0.72,0.68l0.66,0.75l0.59,0.81l0.52,0.88l0.45,0.93l0.37,0.99l0.28,1.03l0.2,1.07l0.08,0.74l0.04,1.13l-0.06,1.13
			l-0.16,1.1l-0.25,1.07l-0.34,1.03l-0.42,0.98l-0.5,0.93l-0.57,0.88l-0.64,0.82l-0.7,0.75l-0.76,0.68l-0.81,0.6l-0.86,0.52
			l-0.9,0.43l-0.94,0.34l-0.98,0.25l-0.67,0.11l-1.02,0.07l-4.1,0.07l-4.1,0.07l4.12-0.07l4.13-0.07l-14.89,0.26l-14.82,0.26h-0.01
			h-0.01L832.21,185.23z M882.14,275.59l-0.16,1.11l-0.25,1.07l-0.34,1.03l-0.42,0.98l-0.5,0.93l-0.57,0.87l-0.64,0.81l-0.7,0.75
			l-0.76,0.67l-0.81,0.6l-0.86,0.51l-0.91,0.43l-0.95,0.33l-0.98,0.23l-0.67,0.1l-1.03,0.06l-20.39,0.09l-20.25,0.09l0.28-22.98
			l40.62-0.33l1.03,0.05l1,0.15l0.96,0.26l0.92,0.35l0.88,0.44l0.84,0.53l0.78,0.61l0.72,0.69l0.66,0.76l0.6,0.83l0.53,0.89
			l0.45,0.94l0.37,0.99l0.29,1.04l0.2,1.08l0.08,0.74l0.04,1.14L882.14,275.59z M990.08,279.92l-5.41,0.02l2.77-6.74l2.77-6.74
			l5.3,13.44L990.08,279.92z M1981,194.21l-17.58-19.59l-17.81-19.83l-53.44,66.6l-27.74-34.83l-27.94-35.08l-20.35,18.8
			l-20.48,18.93l36.37,44.43l36.08,44.08l0.91,51.14l0.91,51.26l26.49-0.57l26.21-0.57l-1.98-105.94l30.49-39.84L1981,194.21z"/>
	</g>
</g>
</svg>
