<?xml version="1.0" encoding="utf-8"?>
<!-- Generator: Adobe Illustrator 26.0.2, SVG Export Plug-In . SVG Version: 6.00 Build 0)  -->
<svg version="1.1" id="Layer_1" xmlns="http://www.w3.org/2000/svg" xmlns:xlink="http://www.w3.org/1999/xlink" x="0px" y="0px"
	 viewBox="0 0 554.2 274.6" style="enable-background:new 0 0 554.2 274.6;" xml:space="preserve">
<style type="text/css">
	.st0{fill:#FFFFFF;}
	.st1{fill:#F04542;}
</style>
<g>
	<polygon class="st0" points="318,188.3 354.3,188.3 354.3,173.4 309.1,173.4 285.8,197.2 285.8,229.6 341,229.6 341,238.2 
		326.5,251.5 285.8,251.5 285.8,266.4 335.4,266.4 358.7,242.6 358.7,215.8 303.5,215.8 303.5,201.6 	"/>
	<polygon class="st0" points="505.7,188.3 542,188.3 542,173.4 496.8,173.4 473.5,197.2 473.5,229.6 528.7,229.6 528.7,238.2 
		514.1,251.5 473.5,251.5 473.5,266.4 523.1,266.4 546.4,242.6 546.4,215.8 491.2,215.8 491.2,201.6 	"/>
	<path class="st0" d="M71.8,215.8l0-42.4H9.3v93h56.9l23.3-23.8v-26.8H71.8z M54.1,188.3l0,27.5H27v-27.5H54.1z M71.8,238.2
		l-14.6,13.3H27l0-21.9v0h44.9L71.8,238.2z"/>
	<polygon class="st0" points="135.3,251.5 176.8,251.5 176.8,266.4 126.4,266.4 103.1,242.6 103.1,173.4 172.5,173.4 172.5,188.3 
		120.8,188.3 120.8,215.8 168.1,215.8 168.1,229.6 120.8,229.6 120.8,238.2 	"/>
	<path class="st0" d="M246.4,173.4h-54.6v93h17.7v-36.8H252v36.8h17.8v-69.2L246.4,173.4z M209.4,215.8v-27.5h28l14.6,13.3v14.3
		H209.4z"/>
	<path class="st0" d="M358.7,8.3v93h-56.9l-23.3-23.8V8.3H358.7z M341,23.2h-44.9v49.9l14.6,13.3H341V23.2z"/>
	<g>
		<path class="st0" d="M74.1,102.9c-8.8,0-13.8-4.4-18.3-9.2L27,63.9v37.3H9.3v-93H27v40.9L64.8,8.3h20.6l-44.2,47l28.7,28.7
			c2.8,2.6,5.1,4.4,7.7,4.4c2.9,0,4.7-2.3,5.6-3.3l7.4,7.2C89.5,93.6,83.9,102.9,74.1,102.9z"/>
	</g>
	<path class="st0" d="M154.8,8.3h17.7v93h-56.9L92.2,77.5V8.3h17.7l0,64.8l14.6,13.3h30.3L154.8,8.3z"/>
	<path class="st0" d="M256.7,102.9c-8,0-14.6-3.6-20.1-12.3l-15.7-26.2h-11.4v36.8h-17.7v-93H256v56.2h-15.6l12.4,19.5
		c1.6,2.5,4.3,5.4,7.7,5.4c2.5,0,4.1-1.1,5.9-2.8l6.2,6.2C271.7,94.1,266.5,102.9,256.7,102.9z M239.1,23.2h-29.7v27.5h29.7V23.2z"
		/>
	<path class="st0" d="M443.3,102.9c-8,0-14.6-3.6-20.1-12.3l-15.7-26.2H396v36.8h-17.7v-93h64.3v56.2h-15.6l12.4,19.5
		c1.6,2.5,4.3,5.4,7.7,5.4c2.5,0,4.1-1.1,5.9-2.8l6.2,6.2C458.3,94.1,453.1,102.9,443.3,102.9z M425.8,23.2H396v27.5h29.7V23.2z"/>
	<path class="st0" d="M546.4,8.3v93h-56.9l-23.3-23.8V8.3H546.4z M528.7,23.2h-44.9v49.9l14.6,13.3h30.3V23.2z"/>
	<g>
		<rect x="9.3" y="133.2" class="st0" width="221.9" height="14.2"/>
		<rect x="324.5" y="133.2" class="st0" width="221.9" height="14.2"/>
	</g>
	<path class="st0" d="M425.1,188.3v78.1h-17.6v-78.1h-38.3v-14.9l94,0v14.9H425.1z"/>
	<g>
		<g>
			<g>
				<path class="st1" d="M252,117.7c-1.6-0.4-6.5,10-7.4,16.9c-0.6,5,1.1,10.7,6.9,10.7c6.7,0,8.8-6.1,5.4-11.1
					c-3.3-4.9-4.2-12.6-4.5-15.3C252.4,118.2,252.4,117.8,252,117.7z"/>
			</g>
			<path class="st1" d="M268,106.8c-1.6-0.4-6.5,9.3-7.4,16.2c-0.6,5,1.1,10.7,6.9,10.7c6.7,0,8.8-6.1,5.4-11.1
				c-3.3-4.9-4.2-11.8-4.5-14.6C268.4,107.3,268.4,106.9,268,106.8z"/>
			<path class="st1" d="M287.6,106.8c1.6-0.4,6.5,9.3,7.4,16.2c0.6,5-1.1,10.7-6.9,10.7c-6.7,0-8.8-6.1-5.4-11.1
				c3.3-4.9,4.2-11.8,4.5-14.6C287.2,107.3,287.2,106.9,287.6,106.8z"/>
			<path class="st1" d="M303.5,117.7c1.6-0.4,6.5,10,7.4,16.9c0.6,5-1.1,10.7-6.9,10.7c-6.7,0-8.8-6.1-5.4-11.1
				c3.3-4.9,4.2-12.6,4.5-15.3C303.2,118.2,303.1,117.8,303.5,117.7z"/>
		</g>
		<path class="st1" d="M277.8,167.2c4.4,0,6.7,6.9,13.2,6.9c6.8,0,10.8-5.3,10.8-11.4l0-0.7c0-7.3-9.1-21.7-24-21.7h-0.1
			c-14.9,0-24,14.3-24,21.7l0,0.7c0,6,3.9,11.4,10.8,11.4C271.1,174.1,273.3,167.2,277.8,167.2L277.8,167.2z"/>
	</g>
</g>
</svg>
