<?xml version="1.0" encoding="utf-8"?>
<!-- Generator: Adobe Illustrator 26.1.0, SVG Export Plug-In . SVG Version: 6.00 Build 0)  -->
<svg version="1.1" id="SMOL_x5F_Brains_x5F_wordmark"
	 xmlns="http://www.w3.org/2000/svg" xmlns:xlink="http://www.w3.org/1999/xlink" x="0px" y="0px" viewBox="0 0 48.882 14.698"
	 style="enable-background:new 0 0 48.882 14.698;" xml:space="preserve">
<style type="text/css">
	.st0{fill:#372B79;}
	.st1{fill:#7D50E6;}
	.st2{fill:#F9F9F9;}
</style>
<g>
	<g>
	</g>
</g>
<g>
	<path class="st0" d="M48.362,9.523c-0.316-0.294-0.71-0.45-1.142-0.45h-3.729V1.814c0-0.455-0.183-0.877-0.52-1.194
		c-0.315-0.294-0.71-0.449-1.142-0.449H39c-0.416,0-0.816,0.161-1.127,0.452c-0.333,0.312-0.517,0.734-0.517,1.191v0.407
		c-0.575-0.661-1.294-1.19-2.163-1.562c-0.998-0.426-2.155-0.643-3.44-0.643c-1.286,0-2.443,0.216-3.44,0.643
		c-0.863,0.368-1.577,0.892-2.146,1.547V1.814c0-0.439-0.169-0.852-0.482-1.167c-0.309-0.307-0.722-0.477-1.162-0.477h-2.269
		c-0.694,0-1.117,0.307-1.354,0.569c-0.136,0.151-0.225,0.258-0.271,0.318l-0.044,0.059l-1.725,2.999l-1.726-2.999l-0.044-0.059
		c-0.046-0.061-0.136-0.168-0.271-0.318c-0.232-0.259-0.656-0.569-1.354-0.569h-2.268c-0.432,0-0.827,0.155-1.147,0.454
		c-0.331,0.312-0.514,0.734-0.514,1.189v0.156c-0.176-0.184-0.354-0.368-0.565-0.537C10.436,1.002,9.778,0.65,9.014,0.388
		C8.259,0.131,7.397,0,6.452,0C5.307,0,4.273,0.193,3.378,0.575C2.436,0.979,1.684,1.56,1.142,2.301
		C0.576,3.078,0.289,3.976,0.289,4.97c0,0.969,0.239,1.812,0.71,2.506C1.23,7.818,1.512,8.124,1.842,8.392H1.557
		c-0.418,0-0.809,0.16-1.104,0.453C0.16,9.138-0.001,9.53,0,9.995c0.031,0.842,0.317,1.641,0.851,2.375
		c0.52,0.716,1.285,1.292,2.276,1.713c0.935,0.396,2.093,0.598,3.445,0.598c1.189,0,2.272-0.185,3.217-0.549
		c0.684-0.262,1.272-0.617,1.771-1.047c0.049,0.372,0.215,0.713,0.492,0.972c0.315,0.297,0.712,0.454,1.147,0.454h2.558
		c0.445,0,0.86-0.172,1.162-0.478c0.311-0.309,0.482-0.723,0.482-1.166v-1.478c0.226,0.142,0.533,0.256,0.932,0.256h1.041
		c0.409,0,0.72-0.115,0.949-0.257v1.479c0,0.443,0.171,0.857,0.475,1.159c0.309,0.312,0.724,0.484,1.169,0.484h2.559
		c0.443,0,0.857-0.171,1.164-0.479c0.309-0.31,0.479-0.723,0.479-1.164v-0.299c0.578,0.659,1.302,1.178,2.175,1.531
		c0.984,0.397,2.131,0.6,3.41,0.6c1.279,0,2.426-0.202,3.409-0.599c0.883-0.356,1.613-0.883,2.194-1.553v0.321
		c0,0.459,0.185,0.883,0.512,1.188c0.311,0.294,0.713,0.456,1.132,0.456h8.221c0.435,0,0.831-0.157,1.144-0.452
		c0.333-0.312,0.517-0.734,0.517-1.191v-2.149C48.882,10.264,48.7,9.843,48.362,9.523z"/>
	<g>
		<g>
			<path class="st1" d="M31.753,13.498c-1.128,0-2.114-0.17-2.96-0.512c-0.846-0.341-1.513-0.855-2.002-1.543
				c-0.489-0.688-0.757-1.538-0.803-2.55c-0.012-0.466-0.017-0.961-0.017-1.484c0-0.523,0.006-1.029,0.017-1.518
				c0.046-1.001,0.31-1.848,0.794-2.541c0.484-0.693,1.151-1.222,2.003-1.586c0.851-0.364,1.841-0.546,2.968-0.546
				S33.87,1.4,34.722,1.764c0.851,0.364,1.522,0.893,2.011,1.586c0.489,0.694,0.751,1.541,0.785,2.541
				c0.023,0.489,0.035,0.995,0.035,1.518c0,0.523-0.012,1.018-0.035,1.484c-0.046,1.012-0.314,1.862-0.803,2.55
				c-0.489,0.688-1.156,1.202-2.003,1.543C33.868,13.328,32.881,13.498,31.753,13.498z"/>
			<g id="FACE_00000073689166145168995480000014498281517558774204_">
				<rect x="29.557" y="3.858" class="st2" width="1" height="3"/>
				<rect x="34.557" y="3.858" class="st2" width="1" height="3"/>
				<rect x="35.557" y="7.858" class="st2" width="1" height="1"/>
				<rect x="32.557" y="7.858" class="st2" width="1" height="1"/>
				<rect x="28.557" y="8.858" class="st2" width="1" height="1"/>
				<rect x="29.557" y="9.858" class="st2" width="9" height="1"/>
			</g>
		</g>
		<g>
			<path class="st1" d="M6.572,13.48c-1.194,0-2.186-0.167-2.976-0.502c-0.79-0.336-1.382-0.774-1.774-1.314
				c-0.392-0.539-0.6-1.111-0.622-1.714c0-0.103,0.034-0.188,0.102-0.256c0.068-0.068,0.154-0.102,0.256-0.102h2.712
				c0.159,0,0.284,0.025,0.375,0.077c0.091,0.051,0.188,0.122,0.29,0.213c0.102,0.126,0.222,0.242,0.358,0.35
				c0.136,0.108,0.313,0.193,0.529,0.256c0.216,0.062,0.466,0.093,0.75,0.093c0.523,0,0.927-0.071,1.211-0.214
				c0.284-0.142,0.427-0.338,0.427-0.588c0-0.193-0.077-0.353-0.23-0.478C7.825,9.177,7.566,9.063,7.203,8.961
				c-0.364-0.103-0.859-0.21-1.484-0.324C4.843,8.489,4.087,8.27,3.45,7.98c-0.637-0.29-1.123-0.682-1.458-1.177
				C1.657,6.309,1.489,5.697,1.489,4.97c0-0.739,0.208-1.393,0.623-1.962c0.415-0.568,0.995-1.011,1.74-1.331
				C4.596,1.36,5.463,1.2,6.452,1.2c0.818,0,1.543,0.108,2.175,0.324c0.631,0.217,1.163,0.498,1.595,0.845
				c0.432,0.347,0.762,0.719,0.989,1.117c0.227,0.398,0.347,0.779,0.358,1.143c0,0.103-0.037,0.191-0.111,0.265
				s-0.156,0.111-0.247,0.111H8.363c-0.136,0-0.25-0.023-0.341-0.068C7.93,4.89,7.839,4.816,7.749,4.714
				C7.691,4.555,7.549,4.413,7.322,4.287C7.094,4.162,6.804,4.1,6.452,4.1c-0.387,0-0.682,0.066-0.887,0.196
				c-0.205,0.13-0.307,0.321-0.307,0.571c0,0.17,0.062,0.318,0.188,0.443c0.125,0.126,0.347,0.237,0.665,0.333
				c0.318,0.096,0.762,0.202,1.33,0.316c1.08,0.159,1.953,0.387,2.618,0.682c0.665,0.296,1.151,0.682,1.458,1.159
				c0.307,0.478,0.461,1.075,0.461,1.791c0,0.807-0.233,1.501-0.7,2.081c-0.466,0.579-1.106,1.026-1.919,1.338
				C8.547,13.324,7.618,13.48,6.572,13.48z"/>
			<path class="st1" d="M13.199,13.31c-0.125,0-0.233-0.043-0.324-0.128c-0.091-0.085-0.136-0.191-0.136-0.316V1.815
				c0-0.125,0.045-0.23,0.136-0.316c0.091-0.085,0.199-0.128,0.324-0.128h2.268c0.205,0,0.358,0.056,0.46,0.17
				c0.102,0.114,0.171,0.193,0.205,0.239l2.729,4.741l2.729-4.741c0.034-0.045,0.102-0.125,0.205-0.239
				c0.103-0.114,0.256-0.17,0.461-0.17h2.268c0.125,0,0.23,0.043,0.316,0.128c0.085,0.085,0.128,0.191,0.128,0.316v11.052
				c0,0.125-0.043,0.23-0.128,0.316c-0.086,0.085-0.191,0.128-0.316,0.128h-2.559c-0.125,0-0.23-0.043-0.316-0.128
				c-0.085-0.085-0.128-0.191-0.128-0.316V7.341l-1.535,2.695c-0.057,0.092-0.131,0.182-0.222,0.273
				c-0.091,0.091-0.222,0.136-0.392,0.136h-1.041c-0.159,0-0.285-0.045-0.375-0.136c-0.091-0.091-0.165-0.181-0.222-0.273
				l-1.535-2.695v5.526c0,0.125-0.043,0.23-0.128,0.316c-0.085,0.085-0.19,0.128-0.316,0.128H13.199z"/>
			<path class="st1" d="M39,13.31c-0.114,0-0.216-0.043-0.307-0.128c-0.091-0.085-0.136-0.191-0.136-0.316V1.815
				c0-0.125,0.045-0.23,0.136-0.316C38.784,1.414,38.886,1.371,39,1.371h2.831c0.125,0,0.233,0.043,0.324,0.128
				c0.091,0.085,0.136,0.191,0.136,0.316v8.459h4.929c0.125,0,0.233,0.043,0.324,0.128c0.091,0.086,0.136,0.191,0.136,0.316v2.15
				c0,0.125-0.046,0.23-0.136,0.316c-0.091,0.085-0.199,0.128-0.324,0.128H39z"/>
		</g>
	</g>
</g>
</svg>
