<svg width="384" height="42" viewBox="0 0 384 42" fill="none" xmlns="http://www.w3.org/2000/svg">
  <path d="M0 40.7063C0.695846 40.0105 1.1419 39.2165 1.33816 38.3244C1.44522 37.8248 1.49874 36.8881 1.49874 35.5143V6.04787C1.49874 4.67402 1.44522 3.7373 1.33816 3.23772C1.1419 2.34561 0.695846 1.55164 0 0.85579H13.3816C17.5389 0.85579 20.6077 1.49811 22.5882 2.78275C25.0504 4.38855 26.2816 7.14516 26.2816 11.0526C26.2816 14.6032 24.6401 17.2795 21.3571 19.0816C24.8363 19.7418 27.2272 21.526 28.5297 24.4343C29.172 25.8795 29.4931 27.5031 29.4931 29.3052C29.4931 36.9059 24.6847 40.7063 15.0677 40.7063H0ZM9.20657 34.524H14.8001C17.9225 34.524 19.9476 33.7746 20.8754 32.2759C21.3928 31.4373 21.6515 30.3043 21.6515 28.877C21.6515 25.0587 19.3677 23.1496 14.8001 23.1496H9.20657V34.524ZM9.20657 16.9941H14.1845C17.2891 16.9941 18.8414 15.2188 18.8414 11.6682C18.8414 8.58146 17.0215 7.03811 13.3816 7.03811H9.20657V16.9941Z" fill="white" />
  <path d="M55.8015 22.5341L63.8305 35.5143C64.5441 36.6562 65.4898 38.0122 66.6674 39.5823C67.0599 39.9926 67.5149 40.3673 68.0323 40.7063H56.8452C57.0237 40.2603 57.095 39.841 57.0593 39.4485C56.988 38.7705 56.3546 37.4501 55.1591 35.4875L47.9598 23.6046H45.2835V35.4875C45.2835 37.9676 45.7831 39.7072 46.7822 40.7063H36.0769C36.7728 40.0105 37.2188 39.2165 37.4151 38.3244C37.5221 37.8248 37.5757 36.8881 37.5757 35.5143V6.04787C37.5757 4.67402 37.5221 3.7373 37.4151 3.23772C37.2188 2.34561 36.7728 1.55164 36.0769 0.85579H48.9768C58.451 0.85579 63.1881 4.70078 63.1881 12.3908C63.1881 17.4223 60.7259 20.8034 55.8015 22.5341ZM45.2835 7.01135V17.6364H48.2542C53.0716 17.6364 55.4803 15.9235 55.4803 12.4978C55.4803 8.84017 53.2946 7.01135 48.9233 7.01135H45.2835Z" fill="white" />
  <path d="M81.2534 35.4875C81.2534 37.9676 81.7529 39.7072 82.7521 40.7063H72.0468C72.7426 40.0105 73.1887 39.2165 73.3849 38.3244C73.492 37.8248 73.5455 36.8881 73.5455 35.5143V6.04787C73.5455 4.67402 73.492 3.7373 73.3849 3.23772C73.1887 2.34561 72.7426 1.55164 72.0468 0.85579H82.7521C81.7529 1.85495 81.2534 3.58565 81.2534 6.04787V35.4875Z" fill="white" />
  <path d="M90.7811 0.85579H103.654C109.614 0.85579 114.137 2.73814 117.223 6.50285C120.078 9.98207 121.505 14.7549 121.505 20.8212C121.505 24.4789 120.818 27.7886 119.445 30.7504C117.946 34.0512 115.742 36.5759 112.834 38.3244C110.193 39.9124 107.356 40.7063 104.323 40.7063H90.7811C91.4769 40.0105 91.923 39.2076 92.1193 38.2976C92.2263 37.7981 92.2798 36.8613 92.2798 35.4875V6.04787C92.2798 4.67402 92.2263 3.7373 92.1193 3.23772C91.923 2.34561 91.4769 1.55164 90.7811 0.85579ZM100.014 34.524H104.029C107.348 34.524 109.854 32.9896 111.549 29.9207C112.923 27.4407 113.61 24.4075 113.61 20.8212C113.61 15.1295 112.067 11.0972 108.98 8.7242C107.517 7.60014 105.867 7.03811 104.029 7.03811H100.014V34.524Z" fill="white" />
  <path d="M141.872 17.7434H157.181V36.3974C153.345 39.6983 148.956 41.3487 144.013 41.3487C140.195 41.3487 136.859 40.18 134.004 37.8427C131.31 35.6302 129.347 32.6506 128.116 28.9037C127.277 26.3523 126.858 23.6492 126.858 20.7944C126.858 15.3526 128.321 10.669 131.247 6.74372C134.494 2.40806 138.75 0.240234 144.013 0.240234C147.136 0.240234 149.696 0.704131 151.694 1.63193C152.836 2.30993 154.397 3.05038 156.378 3.85328L152.363 9.95531C151.507 8.84909 150.338 7.96591 148.857 7.30574C147.448 6.66343 146.021 6.34227 144.575 6.34227C141.078 6.34227 138.518 7.97483 136.894 11.2399C135.663 13.72 135.048 16.9048 135.048 20.7944C135.048 24.4699 135.726 27.628 137.082 30.2687C138.812 33.623 141.346 35.3002 144.682 35.3002C146.645 35.3002 148.376 34.7292 149.874 33.5873V23.7116H145.03C143.692 23.7116 142.639 24.006 141.872 24.5948V17.7434Z" fill="white" />
  <path d="M164.755 40.7063C165.451 39.9926 165.897 39.1898 166.093 38.2976C166.2 37.7981 166.254 36.8613 166.254 35.4875V6.04787C166.254 4.67402 166.2 3.7373 166.093 3.23772C165.897 2.34561 165.451 1.55164 164.755 0.85579H189.645V8.34951C188.77 7.47524 187.432 7.03811 185.63 7.03811H173.961V16.9673H183.784C185.14 16.9673 186.192 16.6729 186.942 16.0841V24.0328C186.192 23.444 185.14 23.1496 183.784 23.1496H173.961V34.524H185.603C187.388 34.524 188.735 34.0869 189.645 33.2126V40.7063H164.755Z" fill="white" />
  <path d="M232.466 40.7063H225.16L218.308 20.0183L211.457 40.7063H204.231L195.452 6.6099C195.042 5.0041 194.721 3.94249 194.489 3.42507C194.025 2.37238 193.356 1.51595 192.482 0.85579H202.812C202.509 1.30185 202.357 1.78358 202.357 2.30101C202.357 2.60433 202.616 3.87112 203.133 6.1014L208.566 29.439L215.364 8.00159H221.252L228.077 29.439L234.018 6.1014C234.536 4.06739 234.794 2.81843 234.794 2.35453C234.794 1.83711 234.643 1.33753 234.339 0.85579H244.108C242.859 1.80143 241.869 3.71946 241.137 6.6099L232.466 40.7063Z" fill="white" />
  <path d="M263.993 0.240234C269.292 0.240234 273.557 2.39914 276.786 6.71695C279.712 10.6244 281.175 15.3169 281.175 20.7944C281.175 26.4147 279.748 31.1429 276.893 34.979C273.717 39.2254 269.417 41.3487 263.993 41.3487C260.157 41.3487 256.812 40.1889 253.957 37.8694C251.263 35.6748 249.3 32.6952 248.069 28.9305C247.23 26.3434 246.811 23.6314 246.811 20.7944C246.811 15.3526 248.283 10.669 251.227 6.74372C254.474 2.40806 258.73 0.240234 263.993 0.240234ZM263.993 0.240234C269.274 0.240234 273.53 2.39914 276.759 6.71695C279.703 10.6422 281.175 15.3347 281.175 20.7944C281.175 24.4699 280.533 27.8153 279.248 30.8307C277.821 34.2207 275.707 36.8435 272.905 38.6991C270.247 40.4655 267.276 41.3487 263.993 41.3487C260.157 41.3487 256.812 40.1889 253.957 37.8694C251.263 35.6748 249.3 32.6952 248.069 28.9305C247.23 26.3434 246.811 23.6314 246.811 20.7944C246.811 15.3526 248.283 10.669 251.227 6.74372C254.474 2.40806 258.73 0.240234 263.993 0.240234ZM263.993 6.42256C260.335 6.42256 257.713 8.74204 256.125 13.381C255.375 15.5756 255.001 18.0467 255.001 20.7944C255.001 26.5932 256.437 30.7772 259.31 33.3464C260.683 34.5775 262.245 35.1931 263.993 35.1931C267.116 35.1931 269.489 33.4713 271.112 30.0278C272.361 27.3693 272.986 24.2915 272.986 20.7944C272.986 17.2795 272.361 14.2018 271.112 11.5611C269.506 8.13541 267.133 6.42256 263.993 6.42256ZM263.993 0.240234C269.292 0.240234 273.557 2.39914 276.786 6.71695C279.712 10.6244 281.175 15.3169 281.175 20.7944C281.175 24.4699 280.533 27.8153 279.248 30.8307C277.821 34.2207 275.707 36.8435 272.905 38.6991C270.247 40.4655 267.276 41.3487 263.993 41.3487C260.157 41.3487 256.812 40.1889 253.957 37.8694C251.263 35.6748 249.3 32.6952 248.069 28.9305C247.23 26.3434 246.811 23.6314 246.811 20.7944C246.811 15.3526 248.283 10.669 251.227 6.74372C254.474 2.40806 258.73 0.240234 263.993 0.240234ZM263.993 6.42256C260.335 6.42256 257.713 8.74204 256.125 13.381C255.375 15.5756 255.001 18.0467 255.001 20.7944C255.001 26.5932 256.437 30.7772 259.31 33.3464C260.683 34.5775 262.245 35.1931 263.993 35.1931C267.651 35.1931 270.274 32.8647 271.862 28.2079C272.611 26.0133 272.986 23.5421 272.986 20.7944C272.986 14.9779 271.549 10.7939 268.677 8.24246C267.321 7.02919 265.759 6.42256 263.993 6.42256ZM263.993 6.42256C260.335 6.42256 257.713 8.74204 256.125 13.381C255.375 15.5756 255.001 18.0467 255.001 20.7944C255.001 26.5932 256.437 30.7772 259.31 33.3464C260.683 34.5775 262.245 35.1931 263.993 35.1931C267.116 35.1931 269.489 33.4713 271.112 30.0278C272.361 27.3693 272.986 24.2915 272.986 20.7944C272.986 17.2795 272.361 14.2018 271.112 11.5611C269.506 8.13541 267.133 6.42256 263.993 6.42256Z" fill="white" />
  <path d="M307.591 22.5341L315.62 35.5143C316.333 36.6562 317.279 38.0122 318.456 39.5823C318.849 39.9926 319.304 40.3673 319.821 40.7063H308.634C308.813 40.2603 308.884 39.841 308.848 39.4485C308.777 38.7705 308.144 37.4501 306.948 35.4875L299.749 23.6046H297.073V35.4875C297.073 37.9676 297.572 39.7072 298.571 40.7063H287.866C288.562 40.0105 289.008 39.2165 289.204 38.3244C289.311 37.8248 289.365 36.8881 289.365 35.5143V6.04787C289.365 4.67402 289.311 3.7373 289.204 3.23772C289.008 2.34561 288.562 1.55164 287.866 0.85579H300.766C310.24 0.85579 314.977 4.70078 314.977 12.3908C314.977 17.4223 312.515 20.8034 307.591 22.5341ZM297.073 7.01135V17.6364H300.043C304.861 17.6364 307.269 15.9235 307.269 12.4978C307.269 8.84017 305.084 7.01135 300.712 7.01135H297.073Z" fill="white" />
  <path d="M333.042 6.04787V34.524H343.266C344.765 34.524 345.844 34.3456 346.504 33.9888C346.843 33.8103 347.182 33.5338 347.521 33.1591V40.7063H323.836C324.532 40.0105 324.978 39.2165 325.174 38.3244C325.281 37.8248 325.335 36.8881 325.335 35.5143V6.04787C325.335 4.67402 325.281 3.7373 325.174 3.23772C324.978 2.34561 324.532 1.55164 323.836 0.85579H334.541C333.542 1.85495 333.042 3.58565 333.042 6.04787Z" fill="white" />
  <path d="M352.633 0.85579H365.506C371.466 0.85579 375.989 2.73814 379.075 6.50285C381.93 9.98207 383.357 14.7549 383.357 20.8212C383.357 24.4789 382.671 27.7886 381.297 30.7504C379.798 34.0512 377.594 36.5759 374.686 38.3244C372.045 39.9124 369.209 40.7063 366.175 40.7063H352.633C353.329 40.0105 353.775 39.2076 353.971 38.2976C354.078 37.7981 354.132 36.8613 354.132 35.4875V6.04787C354.132 4.67402 354.078 3.7373 353.971 3.23772C353.775 2.34561 353.329 1.55164 352.633 0.85579ZM361.866 34.524H365.881C369.2 34.524 371.706 32.9896 373.401 29.9207C374.775 27.4407 375.462 24.4075 375.462 20.8212C375.462 15.1295 373.919 11.0972 370.832 8.7242C369.369 7.60014 367.719 7.03811 365.881 7.03811H361.866V34.524Z" fill="white" />
</svg>