<?xml version="1.0" encoding="utf-8"?>
<!-- Generator: Adobe Illustrator 26.1.0, SVG Export Plug-In . SVG Version: 6.00 Build 0)  -->
<svg version="1.1" id="Layer_1" xmlns="http://www.w3.org/2000/svg" xmlns:xlink="http://www.w3.org/1999/xlink" x="0px" y="0px"
	 viewBox="0 0 99.2 12.3" style="enable-background:new 0 0 99.2 12.3;" xml:space="preserve">
<style type="text/css">
	.st0{display:none;}
	.st1{fill:#F9F9F9;}
	.st2{fill:#1A1A4C;}
</style>
<g id="BG" class="st0">
</g>
<g id="ON_LIGHT">
	<g id="EEEEE_set_example_light">
	</g>
	<g id="EEEEE_light">
	</g>
	<g id="SMOL_PETS_WM_light">
	</g>
	<g id="SMOL_BODIES_WM_light">
	</g>
	<g id="SMOL_BRAINS_WM_light">
	</g>
	<g id="SMOLVERSE_WM_light">
		<g>
			<g>
				<g>
					<g>
						<g>
							<g>
								<path class="st1" d="M30.6,12.3c-1.1,0-2.1-0.2-3-0.5c-0.8-0.3-1.5-0.9-2-1.5s-0.8-1.5-0.8-2.6c0-0.5,0-1,0-1.5s0-1,0-1.5
									c0-1,0.3-1.8,0.8-2.5c0.5-0.7,1.2-1.2,2-1.6c0.9-0.4,1.8-0.5,3-0.5s2.1,0.2,3,0.5c0.9,0.4,1.5,0.9,2,1.6
									c0.5,0.7,0.8,1.5,0.8,2.5c0,0.5,0,1,0,1.5s0,1,0,1.5c0,1-0.3,1.9-0.8,2.6c-0.5,0.7-1.2,1.2-2,1.5
									C32.7,12.1,31.7,12.3,30.6,12.3z"/>
							</g>
						</g>
					</g>
					<g id="FACE_00000039824065772739180500000017097743046614967947_">
						<rect x="28.4" y="2.7" class="st2" width="1" height="3"/>
						<rect x="33.4" y="2.7" class="st2" width="1" height="3"/>
						<rect x="34.4" y="6.7" class="st2" width="1" height="1"/>
						<rect x="31.4" y="6.7" class="st2" width="1" height="1"/>
						<rect x="27.4" y="7.7" class="st2" width="1" height="1"/>
						<rect x="28.4" y="8.7" class="st2" width="9" height="1"/>
					</g>
				</g>
				<g>
					<path class="st1" d="M5.4,12.3c-1.2,0-2.2-0.2-3-0.5C1.6,11.4,1,11,0.6,10.5C0.2,9.9,0,9.4,0,8.8c0-0.1,0-0.2,0.1-0.3
						c0.1-0.1,0.2-0.1,0.3-0.1h2.7c0.2,0,0.3,0,0.4,0.1c0.1,0.1,0.2,0.1,0.3,0.2C3.8,8.8,4,8.9,4.1,9c0.1,0.1,0.3,0.2,0.5,0.3
						c0.2,0.1,0.5,0.1,0.8,0.1c0.5,0,0.9-0.1,1.2-0.2C6.9,9,7,8.8,7,8.6c0-0.2-0.1-0.4-0.2-0.5C6.6,8,6.4,7.9,6,7.8
						C5.6,7.7,5.1,7.6,4.5,7.4C3.6,7.3,2.9,7.1,2.3,6.8C1.6,6.5,1.1,6.1,0.8,5.6C0.5,5.1,0.3,4.5,0.3,3.8c0-0.7,0.2-1.4,0.6-2
						c0.4-0.6,1-1,1.7-1.3C3.4,0.2,4.3,0,5.3,0c0.8,0,1.5,0.1,2.2,0.3C8.1,0.5,8.6,0.8,9,1.2c0.4,0.3,0.8,0.7,1,1.1s0.3,0.8,0.4,1.1
						c0,0.1,0,0.2-0.1,0.3S10.1,3.8,10,3.8H7.2c-0.1,0-0.2,0-0.3-0.1S6.6,3.6,6.6,3.5C6.5,3.4,6.3,3.2,6.1,3.1
						C5.9,3,5.6,2.9,5.3,2.9C4.9,2.9,4.6,3,4.4,3.1S4.1,3.4,4.1,3.7c0,0.2,0.1,0.3,0.2,0.4c0.1,0.1,0.3,0.2,0.7,0.3
						c0.3,0.1,0.8,0.2,1.3,0.3c1.1,0.2,2,0.4,2.6,0.7c0.7,0.3,1.2,0.7,1.5,1.2c0.3,0.5,0.5,1.1,0.5,1.8c0,0.8-0.2,1.5-0.7,2.1
						c-0.5,0.6-1.1,1-1.9,1.3C7.3,12.1,6.4,12.3,5.4,12.3z"/>
					<path class="st1" d="M12,12.1c-0.1,0-0.2,0-0.3-0.1c-0.1-0.1-0.1-0.2-0.1-0.3V0.6c0-0.1,0-0.2,0.1-0.3c0.1-0.1,0.2-0.1,0.3-0.1
						h2.3c0.2,0,0.4,0.1,0.5,0.2s0.2,0.2,0.2,0.2l2.7,4.7l2.7-4.7c0,0,0.1-0.1,0.2-0.2s0.3-0.2,0.5-0.2h2.3c0.1,0,0.2,0,0.3,0.1
						c0.1,0.1,0.1,0.2,0.1,0.3v11.1c0,0.1,0,0.2-0.1,0.3c-0.1,0.1-0.2,0.1-0.3,0.1h-2.6c-0.1,0-0.2,0-0.3-0.1
						c-0.1-0.1-0.1-0.2-0.1-0.3V6.1l-1.5,2.7c-0.1,0.1-0.1,0.2-0.2,0.3s-0.2,0.1-0.4,0.1h-1c-0.2,0-0.3,0-0.4-0.1
						c-0.1-0.1-0.2-0.2-0.2-0.3L15,6.1v5.5c0,0.1,0,0.2-0.1,0.3c-0.1,0.1-0.2,0.1-0.3,0.1L12,12.1L12,12.1z"/>
					<path class="st1" d="M37.8,12.1c-0.1,0-0.2,0-0.3-0.1s-0.1-0.2-0.1-0.3V0.6c0-0.1,0-0.2,0.1-0.3s0.2-0.1,0.3-0.1h2.8
						c0.1,0,0.2,0,0.3,0.1s0.1,0.2,0.1,0.3v8.5H46c0.1,0,0.2,0,0.3,0.1c0.1,0.1,0.1,0.2,0.1,0.3v2.1c0,0.1,0,0.2-0.1,0.3
						c-0.1,0.1-0.2,0.1-0.3,0.1L37.8,12.1L37.8,12.1z"/>
				</g>
			</g>
			<g>
				<path class="st1" d="M49.3,12.1c-0.2,0-0.4-0.1-0.5-0.2c-0.1-0.1-0.2-0.2-0.2-0.4L45.2,0.7c0,0,0-0.1,0-0.1c0-0.1,0-0.2,0.1-0.3
					c0.1-0.1,0.2-0.1,0.3-0.1h2.6c0.2,0,0.4,0.1,0.5,0.2c0.1,0.1,0.2,0.2,0.2,0.3l2,7.1l2-7.1c0-0.1,0.1-0.2,0.2-0.3
					c0.1-0.1,0.3-0.2,0.5-0.2h2.6c0.1,0,0.2,0,0.3,0.1c0.1,0.1,0.1,0.2,0.1,0.3c0,0,0,0.1,0,0.1l-3.3,10.9c0,0.1-0.1,0.2-0.2,0.4
					c-0.1,0.1-0.3,0.2-0.5,0.2H49.3z"/>
				<path class="st1" d="M57.8,12.1c-0.1,0-0.2,0-0.3-0.1s-0.1-0.2-0.1-0.3V0.6c0-0.1,0-0.2,0.1-0.3s0.2-0.1,0.3-0.1h8.4
					c0.1,0,0.2,0,0.3,0.1c0.1,0.1,0.1,0.2,0.1,0.3v2c0,0.1,0,0.2-0.1,0.3c-0.1,0.1-0.2,0.1-0.3,0.1h-5.3v1.7h4.9
					c0.1,0,0.2,0,0.3,0.1c0.1,0.1,0.1,0.2,0.1,0.3v1.8c0,0.1,0,0.2-0.1,0.3c-0.1,0.1-0.2,0.1-0.3,0.1h-4.9v1.7h5.4
					c0.1,0,0.2,0,0.3,0.1c0.1,0.1,0.1,0.2,0.1,0.3v2c0,0.1,0,0.2-0.1,0.3c-0.1,0.1-0.2,0.1-0.3,0.1L57.8,12.1L57.8,12.1z"/>
				<path class="st1" d="M68.1,12.1c-0.1,0-0.2,0-0.3-0.1c-0.1-0.1-0.1-0.2-0.1-0.3V0.6c0-0.1,0-0.2,0.1-0.3
					c0.1-0.1,0.2-0.1,0.3-0.1H73c1.5,0,2.8,0.4,3.6,1.1c0.9,0.7,1.3,1.7,1.3,3c0,0.8-0.2,1.5-0.5,2c-0.4,0.6-0.8,1-1.4,1.3l2.2,4
					c0,0.1,0.1,0.1,0.1,0.2c0,0.1,0,0.2-0.1,0.3s-0.2,0.1-0.3,0.1H75c-0.2,0-0.4-0.1-0.5-0.2s-0.2-0.2-0.2-0.3l-1.7-3.5h-1.2v3.5
					c0,0.1,0,0.2-0.1,0.3c-0.1,0.1-0.2,0.1-0.3,0.1L68.1,12.1L68.1,12.1z M71.3,5.3H73c0.4,0,0.7-0.1,0.9-0.3
					c0.2-0.2,0.3-0.5,0.3-0.8c0-0.3-0.1-0.6-0.3-0.9C73.7,3.1,73.4,3,73,3h-1.6V5.3z"/>
				<path class="st1" d="M83.7,12.3c-1.2,0-2.2-0.2-3-0.5c-0.8-0.3-1.4-0.8-1.8-1.3c-0.4-0.5-0.6-1.1-0.6-1.7c0-0.1,0-0.2,0.1-0.3
					s0.2-0.1,0.3-0.1h2.7c0.2,0,0.3,0,0.4,0.1c0.1,0.1,0.2,0.1,0.3,0.2c0.1,0.1,0.2,0.2,0.4,0.4s0.3,0.2,0.5,0.3
					c0.2,0.1,0.5,0.1,0.8,0.1c0.5,0,0.9-0.1,1.2-0.2c0.3-0.1,0.4-0.3,0.4-0.6c0-0.2-0.1-0.4-0.2-0.5C85,8,84.7,7.9,84.3,7.8
					c-0.4-0.1-0.9-0.2-1.5-0.3c-0.9-0.1-1.6-0.4-2.3-0.7s-1.1-0.7-1.5-1.2c-0.3-0.5-0.5-1.1-0.5-1.8c0-0.7,0.2-1.4,0.6-2
					c0.4-0.6,1-1,1.7-1.3C81.7,0.2,82.6,0,83.6,0c0.8,0,1.5,0.1,2.2,0.3c0.6,0.2,1.2,0.5,1.6,0.8s0.8,0.7,1,1.1s0.3,0.8,0.4,1.1
					c0,0.1,0,0.2-0.1,0.3s-0.2,0.1-0.2,0.1h-2.8c-0.1,0-0.2,0-0.3-0.1c-0.1,0-0.2-0.1-0.3-0.2c-0.1-0.2-0.2-0.3-0.4-0.4
					c-0.2-0.1-0.5-0.2-0.9-0.2c-0.4,0-0.7,0.1-0.9,0.2c-0.2,0.1-0.3,0.3-0.3,0.6c0,0.2,0.1,0.3,0.2,0.4c0.1,0.1,0.3,0.2,0.7,0.3
					s0.8,0.2,1.3,0.3c1.1,0.2,2,0.4,2.6,0.7c0.7,0.3,1.2,0.7,1.5,1.2c0.3,0.5,0.5,1.1,0.5,1.8c0,0.8-0.2,1.5-0.7,2.1
					c-0.5,0.6-1.1,1-1.9,1.3C85.7,12.1,84.7,12.3,83.7,12.3z"/>
				<path class="st1" d="M90.2,12.1c-0.1,0-0.2,0-0.3-0.1c-0.1-0.1-0.1-0.2-0.1-0.3V0.6c0-0.1,0-0.2,0.1-0.3s0.2-0.1,0.3-0.1h8.4
					c0.1,0,0.2,0,0.3,0.1c0.1,0.1,0.1,0.2,0.1,0.3v2c0,0.1,0,0.2-0.1,0.3c-0.1,0.1-0.2,0.1-0.3,0.1h-5.3v1.7h4.9
					c0.1,0,0.2,0,0.3,0.1c0.1,0.1,0.1,0.2,0.1,0.3v1.8c0,0.1,0,0.2-0.1,0.3c-0.1,0.1-0.2,0.1-0.3,0.1h-4.9v1.7h5.4
					c0.1,0,0.2,0,0.3,0.1c0.1,0.1,0.1,0.2,0.1,0.3v2c0,0.1,0,0.2-0.1,0.3c-0.1,0.1-0.2,0.1-0.3,0.1L90.2,12.1L90.2,12.1z"/>
			</g>
		</g>
	</g>
	<g id="SMOL_PETS_SHORT_WM_light">
	</g>
	<g id="SMOL_BODIES_SHORT_WM_light">
	</g>
	<g id="SMOL_BRAINS_SHORT_WM_light">
	</g>
	<g id="SMOL_PETS_Logo_light">
	</g>
	<g id="SMOL_BODIES_Logo_light">
	</g>
	<g id="SMOL_BRAINS_Logo_light">
	</g>
</g>
<g id="ON_DARK">
	<g id="EEEEE_set_example_dark">
	</g>
	<g id="EEEEE_dark">
	</g>
	<g id="SMOL_PETS_WM_dark">
	</g>
	<g id="SMOL_BODIES_WM_dark">
	</g>
	<g id="SMOL_BRAINS_WM_dark">
	</g>
	<g id="SMOLVERSE_WM_dark">
	</g>
	<g id="SMOL_PETS_SHORT_WM_dark">
	</g>
	<g id="SMOL_BODIES_SHORT_WM_dark">
	</g>
	<g id="SMOL_BRAINS_SHORT_WM_dark">
	</g>
	<g id="SMOL_PETS_dark">
	</g>
	<g id="SMOL_BODIES_dark">
	</g>
	<g id="SMOL_BRAINS_dark">
	</g>
</g>
</svg>
