<?xml version="1.0" encoding="utf-8"?>
<!-- Generator: Adobe Illustrator 26.1.0, SVG Export Plug-In . SVG Version: 6.00 Build 0)  -->
<svg version="1.1" id="SMOLVERSE_x5F_wordmark_x5F_light"
	 xmlns="http://www.w3.org/2000/svg" xmlns:xlink="http://www.w3.org/1999/xlink" x="0px" y="0px" viewBox="0 0 99.205 12.302"
	 style="enable-background:new 0 0 99.205 12.302;" xml:space="preserve">
<style type="text/css">
	.st0{display:none;}
	.st1{fill:#F9F9F9;}
	.st2{fill:#1A1A4C;}
</style>
<g id="BG" class="st0">
</g>
<g id="ON_LIGHT">
	<g id="EEEEE_set_example_light">
	</g>
	<g id="EEEEE_light">
	</g>
	<g id="SMOL_PETS_WM_light">
	</g>
	<g id="SMOL_BODIES_WM_light">
	</g>
	<g id="SMOL_BRAINS_WM_light">
	</g>
	<g id="SMOLVERSE_WM_light">
		<g>
			<g>
				<g>
					<g>
						<g>
							<g>
								<path class="st1" d="M30.554,12.298c-1.128,0-2.114-0.17-2.96-0.512c-0.846-0.341-1.513-0.855-2.002-1.543
									s-0.757-1.538-0.803-2.55c-0.012-0.466-0.017-0.961-0.017-1.484s0.006-1.029,0.017-1.518
									c0.046-1.001,0.31-1.848,0.794-2.541c0.484-0.693,1.151-1.222,2.003-1.586c0.851-0.364,1.841-0.546,2.968-0.546
									s2.117,0.182,2.969,0.546c0.851,0.364,1.522,0.893,2.011,1.586c0.489,0.694,0.751,1.541,0.785,2.541
									c0.023,0.489,0.035,0.995,0.035,1.518s-0.012,1.018-0.035,1.484c-0.046,1.012-0.314,1.862-0.803,2.55
									c-0.489,0.688-1.156,1.202-2.003,1.543C32.669,12.127,31.682,12.298,30.554,12.298z"/>
							</g>
						</g>
					</g>
					<g id="FACE_00000039824065772739180500000017097743046614967947_">
						<rect x="28.358" y="2.658" class="st2" width="1" height="3"/>
						<rect x="33.358" y="2.658" class="st2" width="1" height="3"/>
						<rect x="34.358" y="6.658" class="st2" width="1" height="1"/>
						<rect x="31.358" y="6.658" class="st2" width="1" height="1"/>
						<rect x="27.358" y="7.658" class="st2" width="1" height="1"/>
						<rect x="28.358" y="8.658" class="st2" width="9" height="1"/>
					</g>
				</g>
				<g>
					<path class="st1" d="M5.373,12.28c-1.194,0-2.186-0.167-2.976-0.502c-0.79-0.336-1.382-0.774-1.774-1.314
						C0.23,9.924,0.023,9.352,0,8.75c0-0.103,0.034-0.188,0.102-0.256C0.17,8.426,0.256,8.392,0.358,8.392H3.07
						c0.159,0,0.284,0.025,0.375,0.077c0.091,0.051,0.188,0.122,0.29,0.213c0.102,0.126,0.222,0.242,0.358,0.35
						C4.23,9.14,4.406,9.225,4.622,9.288c0.216,0.062,0.466,0.093,0.75,0.093c0.523,0,0.927-0.071,1.211-0.214
						C6.867,9.026,7.01,8.83,7.01,8.58c0-0.193-0.077-0.353-0.23-0.478C6.626,7.976,6.367,7.863,6.004,7.761
						C5.639,7.658,5.145,7.551,4.52,7.437C3.644,7.289,2.888,7.07,2.251,6.78C1.614,6.49,1.128,6.098,0.793,5.603
						C0.458,5.109,0.29,4.497,0.29,3.77c0-0.739,0.208-1.393,0.623-1.962c0.415-0.568,0.995-1.011,1.74-1.331
						C3.396,0.16,4.264,0,5.253,0c0.818,0,1.543,0.108,2.175,0.324C8.059,0.54,8.59,0.822,9.023,1.169
						c0.432,0.347,0.762,0.719,0.989,1.117s0.347,0.779,0.358,1.143c0,0.103-0.037,0.191-0.111,0.265s-0.156,0.111-0.247,0.111
						H7.164c-0.136,0-0.25-0.023-0.341-0.068S6.64,3.616,6.55,3.514c-0.058-0.16-0.2-0.301-0.427-0.427
						C5.895,2.962,5.605,2.9,5.253,2.9c-0.387,0-0.682,0.066-0.887,0.196S4.059,3.417,4.059,3.667c0,0.17,0.062,0.318,0.188,0.443
						c0.125,0.126,0.347,0.237,0.665,0.333C5.23,4.54,5.674,4.645,6.242,4.759c1.08,0.159,1.953,0.387,2.618,0.682
						c0.665,0.296,1.151,0.682,1.458,1.159c0.307,0.478,0.461,1.075,0.461,1.791c0,0.807-0.233,1.501-0.7,2.081
						c-0.466,0.579-1.106,1.026-1.919,1.338C7.348,12.124,6.419,12.28,5.373,12.28z"/>
					<path class="st1" d="M12,12.11c-0.125,0-0.233-0.043-0.324-0.128c-0.091-0.085-0.136-0.191-0.136-0.316V0.614
						c0-0.125,0.045-0.23,0.136-0.316C11.767,0.214,11.875,0.171,12,0.171h2.268c0.205,0,0.358,0.056,0.46,0.17
						S14.9,0.535,14.934,0.58l2.729,4.741l2.729-4.741c0.034-0.045,0.102-0.125,0.205-0.239s0.256-0.17,0.461-0.17h2.268
						c0.125,0,0.23,0.043,0.316,0.128c0.085,0.085,0.128,0.191,0.128,0.316v11.052c0,0.125-0.043,0.23-0.128,0.316
						c-0.086,0.085-0.191,0.128-0.316,0.128h-2.559c-0.125,0-0.23-0.043-0.316-0.128c-0.085-0.085-0.128-0.191-0.128-0.316V6.141
						l-1.535,2.695c-0.057,0.092-0.131,0.182-0.222,0.273s-0.222,0.136-0.392,0.136h-1.041c-0.159,0-0.285-0.045-0.375-0.136
						c-0.091-0.091-0.165-0.181-0.222-0.273l-1.535-2.695v5.526c0,0.125-0.043,0.23-0.128,0.316
						c-0.085,0.085-0.19,0.128-0.316,0.128H12V12.11z"/>
					<path class="st1" d="M37.801,12.11c-0.114,0-0.216-0.043-0.307-0.128s-0.136-0.191-0.136-0.316V0.614
						c0-0.125,0.045-0.23,0.136-0.316s0.193-0.128,0.307-0.128h2.831c0.125,0,0.233,0.043,0.324,0.128s0.136,0.191,0.136,0.316
						v8.459h4.929c0.125,0,0.233,0.043,0.324,0.128c0.091,0.086,0.136,0.191,0.136,0.316v2.15c0,0.125-0.046,0.23-0.136,0.316
						c-0.091,0.085-0.199,0.128-0.324,0.128h-8.22V12.11z"/>
				</g>
			</g>
			<g>
				<path class="st1" d="M49.34,12.132c-0.216,0-0.384-0.056-0.504-0.17c-0.119-0.114-0.196-0.233-0.23-0.358L45.245,0.685
					C45.234,0.64,45.228,0.6,45.228,0.566c0-0.102,0.037-0.191,0.111-0.265c0.074-0.073,0.162-0.11,0.264-0.11h2.644
					c0.205,0,0.364,0.056,0.478,0.17c0.113,0.114,0.187,0.228,0.222,0.342l2.013,7.114l2.013-7.114
					c0.034-0.114,0.108-0.228,0.222-0.342c0.113-0.114,0.273-0.17,0.478-0.17h2.644c0.102,0,0.188,0.037,0.256,0.11
					c0.068,0.074,0.102,0.163,0.102,0.265c0,0.034-0.006,0.074-0.017,0.119l-3.344,10.919c-0.034,0.125-0.111,0.244-0.23,0.358
					c-0.119,0.114-0.287,0.17-0.503,0.17H49.34z"/>
				<path class="st1" d="M57.75,12.132c-0.114,0-0.216-0.043-0.307-0.128s-0.136-0.191-0.136-0.316V0.634
					c0-0.125,0.045-0.23,0.136-0.316S57.636,0.19,57.75,0.19h8.359c0.125,0,0.233,0.043,0.324,0.128
					c0.091,0.085,0.137,0.191,0.137,0.316v2.013c0,0.114-0.046,0.216-0.137,0.307c-0.091,0.091-0.199,0.136-0.324,0.136h-5.272
					v1.689h4.896c0.125,0,0.233,0.043,0.324,0.128c0.091,0.085,0.137,0.191,0.137,0.316v1.843c0,0.125-0.046,0.23-0.137,0.316
					c-0.091,0.085-0.199,0.128-0.324,0.128h-4.896v1.723h5.408c0.125,0,0.233,0.045,0.324,0.136
					c0.091,0.092,0.137,0.199,0.137,0.324v1.996c0,0.125-0.046,0.23-0.137,0.316c-0.091,0.085-0.199,0.128-0.324,0.128H57.75V12.132
					z"/>
				<path class="st1" d="M68.122,12.132c-0.114,0-0.216-0.043-0.307-0.128c-0.091-0.085-0.136-0.191-0.136-0.316V0.634
					c0-0.125,0.045-0.23,0.136-0.316c0.091-0.085,0.193-0.128,0.307-0.128h4.862c1.547,0,2.761,0.353,3.643,1.057
					c0.881,0.705,1.322,1.689,1.322,2.952c0,0.796-0.182,1.473-0.546,2.031c-0.364,0.557-0.842,0.995-1.433,1.313l2.218,4.026
					c0.034,0.068,0.051,0.131,0.051,0.187c0,0.103-0.034,0.191-0.102,0.265s-0.154,0.111-0.256,0.111h-2.883
					c-0.216,0-0.381-0.054-0.495-0.162s-0.187-0.207-0.222-0.299l-1.706-3.514h-1.229v3.532c0,0.125-0.043,0.23-0.128,0.316
					c-0.085,0.085-0.191,0.128-0.316,0.128h-2.78V12.132z M71.347,5.342h1.621c0.398,0,0.694-0.111,0.887-0.332
					c0.193-0.222,0.29-0.498,0.29-0.827c0-0.342-0.094-0.631-0.281-0.87c-0.188-0.239-0.486-0.358-0.896-0.358h-1.621V5.342z"/>
				<path class="st1" d="M83.698,12.302c-1.194,0-2.187-0.168-2.977-0.503c-0.79-0.336-1.382-0.774-1.774-1.314
					c-0.392-0.54-0.6-1.112-0.622-1.714c0-0.103,0.034-0.188,0.102-0.256s0.154-0.102,0.256-0.102h2.712
					c0.159,0,0.284,0.025,0.375,0.077c0.091,0.051,0.188,0.122,0.29,0.213c0.102,0.126,0.222,0.242,0.358,0.35
					s0.313,0.193,0.529,0.256c0.216,0.062,0.466,0.093,0.751,0.093c0.523,0,0.927-0.071,1.211-0.214
					c0.284-0.142,0.427-0.338,0.427-0.588c0-0.193-0.077-0.353-0.23-0.479c-0.154-0.125-0.412-0.239-0.776-0.341
					c-0.364-0.103-0.859-0.21-1.484-0.324c-0.876-0.148-1.632-0.367-2.269-0.657s-1.123-0.682-1.459-1.177
					c-0.336-0.494-0.504-1.106-0.504-1.834c0-0.74,0.208-1.393,0.623-1.962c0.415-0.568,0.995-1.012,1.74-1.331
					c0.745-0.317,1.612-0.478,2.602-0.478c0.819,0,1.544,0.108,2.175,0.324c0.631,0.217,1.163,0.498,1.595,0.845
					s0.762,0.719,0.989,1.117s0.347,0.779,0.358,1.143c0,0.103-0.037,0.191-0.111,0.265s-0.156,0.111-0.247,0.111h-2.849
					c-0.137,0-0.25-0.023-0.342-0.068c-0.091-0.045-0.182-0.119-0.273-0.222c-0.057-0.159-0.199-0.301-0.427-0.427
					c-0.228-0.125-0.518-0.187-0.87-0.187c-0.387,0-0.683,0.066-0.887,0.196c-0.205,0.131-0.307,0.321-0.307,0.571
					c0,0.17,0.062,0.318,0.188,0.443c0.125,0.126,0.347,0.237,0.665,0.333s0.762,0.202,1.33,0.316
					c1.08,0.159,1.953,0.387,2.619,0.682c0.665,0.296,1.151,0.682,1.458,1.16c0.307,0.479,0.461,1.076,0.461,1.792
					c0,0.807-0.233,1.501-0.7,2.082c-0.466,0.579-1.106,1.026-1.919,1.338C85.674,12.146,84.744,12.302,83.698,12.302z"/>
				<path class="st1" d="M90.248,12.132c-0.114,0-0.216-0.043-0.307-0.128c-0.091-0.085-0.136-0.191-0.136-0.316V0.634
					c0-0.125,0.045-0.23,0.136-0.316s0.193-0.128,0.307-0.128h8.359c0.125,0,0.233,0.043,0.324,0.128
					c0.091,0.085,0.137,0.191,0.137,0.316v2.013c0,0.114-0.046,0.216-0.137,0.307C98.84,3.045,98.732,3.09,98.607,3.09h-5.272v1.689
					h4.896c0.125,0,0.233,0.043,0.324,0.128c0.091,0.085,0.137,0.191,0.137,0.316v1.843c0,0.125-0.046,0.23-0.137,0.316
					c-0.091,0.085-0.199,0.128-0.324,0.128h-4.896v1.723h5.408c0.125,0,0.233,0.045,0.324,0.136
					c0.091,0.092,0.137,0.199,0.137,0.324v1.996c0,0.125-0.046,0.23-0.137,0.316c-0.091,0.085-0.199,0.128-0.324,0.128h-8.495
					V12.132z"/>
			</g>
		</g>
	</g>
	<g id="SMOL_PETS_SHORT_WM_light">
	</g>
	<g id="SMOL_BODIES_SHORT_WM_light">
	</g>
	<g id="SMOL_BRAINS_SHORT_WM_light">
	</g>
	<g id="SMOL_PETS_Logo_light">
	</g>
	<g id="SMOL_BODIES_Logo_light">
	</g>
	<g id="SMOL_BRAINS_Logo_light">
	</g>
</g>
<g id="ON_DARK">
	<g id="EEEEE_set_example_dark">
	</g>
	<g id="EEEEE_dark">
	</g>
	<g id="SMOL_PETS_WM_dark">
	</g>
	<g id="SMOL_BODIES_WM_dark">
	</g>
	<g id="SMOL_BRAINS_WM_dark">
	</g>
	<g id="SMOLVERSE_WM_dark">
	</g>
	<g id="SMOL_PETS_SHORT_WM_dark">
	</g>
	<g id="SMOL_BODIES_SHORT_WM_dark">
	</g>
	<g id="SMOL_BRAINS_SHORT_WM_dark">
	</g>
	<g id="SMOL_PETS_dark">
	</g>
	<g id="SMOL_BODIES_dark">
	</g>
	<g id="SMOL_BRAINS_dark">
	</g>
</g>
</svg>
