<svg width="376" height="46" viewBox="0 0 376 46" fill="none" xmlns="http://www.w3.org/2000/svg">
<path d="M183.817 43.3307C183.017 43.3307 182.398 43.1107 181.958 42.6707C181.518 42.2307 181.238 41.7907 181.118 41.3508L169.838 3.07316C169.798 2.91317 169.778 2.77318 169.778 2.65319C169.778 2.29321 169.898 1.99323 170.138 1.75324C170.418 1.47326 170.738 1.33327 171.098 1.33327H182.258C183.057 1.33327 183.677 1.55326 184.117 1.99323C184.557 2.4332 184.837 2.87317 184.957 3.31314L190.657 25.6318L196.357 3.31314C196.477 2.87317 196.757 2.4332 197.197 1.99323C197.637 1.55326 198.257 1.33327 199.056 1.33327H210.216C210.576 1.33327 210.876 1.47326 211.116 1.75324C211.396 1.99323 211.536 2.29321 211.536 2.65319C211.536 2.77318 211.516 2.91317 211.476 3.07316L200.196 41.3508C200.076 41.7907 199.796 42.2307 199.356 42.6707C198.916 43.1107 198.297 43.3307 197.497 43.3307H183.817Z" fill="white"/>
<path d="M217.33 43.3307C216.891 43.3307 216.511 43.1707 216.191 42.8507C215.871 42.5307 215.711 42.1507 215.711 41.7108V2.95317C215.711 2.5132 215.871 2.13322 216.191 1.81324C216.511 1.49326 216.891 1.33327 217.33 1.33327H248.109C248.549 1.33327 248.929 1.49326 249.249 1.81324C249.568 2.13322 249.728 2.5132 249.728 2.95317V11.4126C249.728 11.8526 249.568 12.2326 249.249 12.5526C248.929 12.8726 248.549 13.0325 248.109 13.0325H230.11V16.8123H246.789C247.229 16.8123 247.609 16.9723 247.929 17.2923C248.249 17.6123 248.409 17.9922 248.409 18.4322V26.2317C248.409 26.6717 248.249 27.0517 247.929 27.3716C247.609 27.6916 247.229 27.8516 246.789 27.8516H230.11V31.6314H248.589C249.029 31.6314 249.408 31.7914 249.728 32.1114C250.048 32.4313 250.208 32.8113 250.208 33.2513V41.7108C250.208 42.1507 250.048 42.5307 249.728 42.8507C249.408 43.1707 249.029 43.3307 248.589 43.3307H217.33Z" fill="white"/>
<path d="M257.348 43.3307C256.908 43.3307 256.528 43.1707 256.208 42.8507C255.888 42.5307 255.728 42.1507 255.728 41.7108V2.95317C255.728 2.5132 255.888 2.13322 256.208 1.81324C256.528 1.49326 256.908 1.33327 257.348 1.33327H275.106C280.866 1.33327 285.366 2.63319 288.606 5.23303C291.845 7.83286 293.465 11.3926 293.465 15.9124C293.465 18.5922 292.845 20.932 291.605 22.9319C290.405 24.8918 288.866 26.4717 286.986 27.6716L294.365 41.3508C294.485 41.5908 294.545 41.8107 294.545 42.0107C294.545 42.3707 294.405 42.6907 294.125 42.9707C293.885 43.2107 293.585 43.3307 293.225 43.3307H280.926C280.126 43.3307 279.526 43.1307 279.126 42.7307C278.726 42.3307 278.466 41.9907 278.346 41.7108L273.187 30.2515H270.727V41.7108C270.727 42.1507 270.567 42.5307 270.247 42.8507C269.927 43.1707 269.547 43.3307 269.107 43.3307H257.348ZM270.727 18.8522H275.106C276.026 18.8522 276.706 18.5522 277.146 17.9522C277.626 17.3123 277.866 16.5923 277.866 15.7924C277.866 14.9924 277.646 14.2525 277.206 13.5725C276.806 12.8526 276.106 12.4926 275.106 12.4926H270.727V18.8522Z" fill="white"/>
<path d="M316.545 43.9306C312.105 43.9306 308.445 43.3307 305.565 42.1307C302.685 40.9308 300.526 39.3509 299.086 37.391C297.646 35.4311 296.886 33.3513 296.806 31.1514C296.806 30.7914 296.926 30.4914 297.166 30.2515C297.446 29.9715 297.766 29.8315 298.126 29.8315H309.525C310.165 29.8315 310.645 29.9315 310.965 30.1315C311.325 30.2915 311.705 30.5314 312.105 30.8514C312.505 31.1314 312.905 31.3914 313.305 31.6314C313.745 31.8314 314.225 31.9914 314.745 32.1114C315.305 32.1913 315.905 32.2313 316.545 32.2313C317.905 32.2313 318.984 32.0914 319.784 31.8114C320.624 31.4914 321.044 31.0714 321.044 30.5514C321.044 30.0715 320.804 29.6715 320.324 29.3515C319.884 29.0315 319.104 28.7516 317.985 28.5116C316.865 28.2316 315.305 27.9716 313.305 27.7316C310.145 27.2917 307.405 26.5517 305.085 25.5118C302.765 24.4718 300.966 23.0519 299.686 21.252C298.446 19.4121 297.826 17.1723 297.826 14.5324C297.826 11.8126 298.586 9.41277 300.106 7.3329C301.666 5.25303 303.805 3.63313 306.525 2.4732C309.285 1.31327 312.485 0.733307 316.125 0.733307C319.124 0.733307 321.784 1.13328 324.104 1.93323C326.424 2.69319 328.384 3.71312 329.984 4.99304C331.584 6.23296 332.804 7.57288 333.644 9.01279C334.483 10.4527 334.923 11.8326 334.963 13.1525C334.963 13.5125 334.824 13.8325 334.544 14.1125C334.304 14.3525 334.024 14.4724 333.704 14.4724H321.704C321.144 14.4724 320.684 14.3925 320.324 14.2325C320.004 14.0725 319.664 13.8325 319.304 13.5125C319.104 13.3125 318.724 13.0925 318.165 12.8526C317.645 12.5726 316.965 12.4326 316.125 12.4326C315.125 12.4326 314.385 12.5926 313.905 12.9125C313.465 13.1925 313.245 13.5925 313.245 14.1125C313.245 14.4725 313.425 14.8124 313.785 15.1324C314.145 15.4524 314.805 15.7324 315.765 15.9724C316.725 16.2123 318.105 16.4523 319.904 16.6923C323.904 17.1723 327.104 17.9522 329.504 19.0322C331.944 20.0721 333.704 21.472 334.783 23.2319C335.903 24.9918 336.463 27.1717 336.463 29.7715C336.463 32.6913 335.583 35.2112 333.824 37.331C332.104 39.4509 329.744 41.0908 326.744 42.2507C323.744 43.3707 320.344 43.9306 316.545 43.9306Z" fill="white"/>
<path d="M342.479 43.3307C342.039 43.3307 341.659 43.1707 341.339 42.8507C341.019 42.5307 340.859 42.1507 340.859 41.7108V2.95317C340.859 2.5132 341.019 2.13322 341.339 1.81324C341.659 1.49326 342.039 1.33327 342.479 1.33327H373.257C373.697 1.33327 374.077 1.49326 374.397 1.81324C374.717 2.13322 374.877 2.5132 374.877 2.95317V11.4126C374.877 11.8526 374.717 12.2326 374.397 12.5526C374.077 12.8726 373.697 13.0325 373.257 13.0325H355.258V16.8123H371.937C372.377 16.8123 372.757 16.9723 373.077 17.2923C373.397 17.6123 373.557 17.9922 373.557 18.4322V26.2317C373.557 26.6717 373.397 27.0517 373.077 27.3716C372.757 27.6916 372.377 27.8516 371.937 27.8516H355.258V31.6314H373.737C374.177 31.6314 374.557 31.7914 374.877 32.1114C375.197 32.4313 375.357 32.8113 375.357 33.2513V41.7108C375.357 42.1507 375.197 42.5307 374.877 42.8507C374.557 43.1707 374.177 43.3307 373.737 43.3307H342.479Z" fill="white"/>
<path d="M20.5168 45.5527C15.9087 45.5527 12.1053 44.9221 9.10638 43.6608C6.10749 42.3996 3.87661 40.7303 2.37717 38.653C0.877723 36.5757 0.0731436 34.3871 0 32.0872C0 31.7162 0.146287 31.3824 0.40229 31.1227C0.658292 30.863 0.987438 30.7146 1.35316 30.7146H13.239C13.8973 30.7146 14.4093 30.8259 14.775 31.0114C15.1407 31.1969 15.5064 31.4565 15.9453 31.7904C16.3476 32.0872 16.7865 32.3468 17.2253 32.5694C17.6642 32.792 18.1762 32.9774 18.7248 33.0887C19.2733 33.2 19.8951 33.2371 20.5533 33.2371C21.9796 33.2371 23.1134 33.0887 23.9545 32.7549C24.7957 32.421 25.2345 32.013 25.2345 31.4565C25.2345 30.9372 24.9785 30.5292 24.5031 30.1953C24.0277 29.8615 23.1865 29.5647 22.0528 29.2679C20.8825 29.0083 19.2733 28.7486 17.1887 28.4889C13.8973 28.0067 11.0447 27.2277 8.63094 26.152C6.21721 25.0391 4.35204 23.5553 3.03546 21.6264C1.71887 19.6974 1.06058 17.3604 1.06058 14.5783C1.06058 11.7962 1.86516 9.16243 3.47432 6.97383C5.08348 4.78522 7.31436 3.07885 10.167 1.85471C13.0196 0.630574 16.3476 0.037053 20.1145 0.037053C23.2231 0.037053 26.0025 0.445099 28.4163 1.26119C30.83 2.07728 32.878 3.15304 34.5238 4.48846C36.1695 5.82388 37.4495 7.23349 38.3272 8.75439C39.205 10.2753 39.6438 11.722 39.717 13.1316C39.717 13.5026 39.5707 13.8364 39.3147 14.0961C39.0587 14.3557 38.7295 14.5041 38.4004 14.5041H25.9294C25.3443 14.5041 24.8688 14.4299 24.5397 14.2445C24.174 14.059 23.8082 13.8364 23.4425 13.5026C23.2231 13.28 22.8574 13.0574 22.2722 12.7607C21.7236 12.501 20.9922 12.3526 20.1145 12.3526C19.0905 12.3526 18.3225 12.501 17.847 12.8348C17.3716 13.1687 17.1156 13.5767 17.1156 14.1332C17.1156 14.5041 17.2985 14.8751 17.6642 15.2089C18.0299 15.5428 18.7248 15.8395 19.7122 16.0992C20.6996 16.3589 22.1625 16.6185 24.0277 16.8411C28.1969 17.3604 31.5249 18.1765 34.0483 19.2894C36.5718 20.4022 38.4004 21.886 39.5341 23.7408C40.6678 25.5955 41.253 27.8954 41.253 30.6405C41.253 33.7193 40.3387 36.3902 38.5467 38.6159C36.7547 40.8416 34.2678 42.5851 31.1592 43.7721C28.0506 44.9591 24.5031 45.5898 20.5533 45.5898L20.5168 45.5527Z" fill="white"/>
<path d="M46.1902 44.9221C45.7148 44.9221 45.3491 44.7366 45.0199 44.4028C44.6908 44.0689 44.5079 43.6609 44.5079 43.2157V2.33699C44.5079 1.89185 44.6908 1.4838 45.0199 1.14995C45.3491 0.81609 45.7513 0.630615 46.1902 0.630615H56.028C56.8692 0.630615 57.4909 0.853185 57.8932 1.33542C58.2955 1.81766 58.588 2.15151 58.6978 2.33699L67.731 17.5089L76.8374 2.33699C76.9471 2.11442 77.2396 1.78056 77.6419 1.33542C78.0442 0.89028 78.666 0.630615 79.5071 0.630615H89.3449C89.8203 0.630615 90.1861 0.81609 90.5152 1.14995C90.8444 1.4838 91.0272 1.89185 91.0272 2.33699V43.2157C91.0272 43.698 90.8444 44.0689 90.5152 44.4028C90.1861 44.7366 89.7838 44.9221 89.3449 44.9221H78.0442C77.5688 44.9221 77.2031 44.7366 76.8739 44.4028C76.5448 44.0689 76.3619 43.6609 76.3619 43.2157V25.8923L72.2293 32.7178C72.0099 33.0517 71.7539 33.4226 71.3882 33.7565C71.0225 34.1274 70.547 34.3129 69.9253 34.3129H65.5732C64.9515 34.3129 64.4761 34.1274 64.1104 33.7565C63.7447 33.3855 63.4887 33.0517 63.2692 32.7178L59.1366 25.8923V43.2157C59.1366 43.698 58.9538 44.0689 58.6246 44.4028C58.2955 44.7366 57.8932 44.9221 57.4543 44.9221H46.1536H46.1902Z" fill="white"/>
<path d="M142.411 44.9221C141.935 44.9221 141.569 44.7366 141.24 44.4028C140.911 44.0689 140.728 43.6609 140.728 43.2157V2.33699C140.728 1.89185 140.911 1.4838 141.24 1.14995C141.569 0.81609 141.972 0.630615 142.411 0.630615H154.882C155.32 0.630615 155.723 0.81609 156.052 1.14995C156.381 1.4838 156.564 1.89185 156.564 2.33699V31.9388H173.826C174.265 31.9388 174.667 32.1243 174.996 32.4582C175.325 32.792 175.508 33.2001 175.508 33.6452V43.2157C175.508 43.698 175.325 44.0689 174.996 44.4028C174.667 44.7366 174.265 44.9221 173.826 44.9221H142.374H142.411Z" fill="white"/>
<path d="M115.859 45.5527C111.727 45.5527 108.143 44.9221 105.034 43.6609C101.926 42.3996 99.5119 40.4707 97.7199 37.9482C95.9279 35.3887 94.9404 32.2356 94.7941 28.489C94.7576 26.7455 94.721 24.9279 94.721 22.9989C94.721 21.07 94.721 19.1781 94.7941 17.3605C94.977 13.651 95.9279 10.4979 97.6833 7.93834C99.4388 5.37878 101.889 3.41274 104.998 2.04023C108.106 0.704806 111.727 0 115.859 0C119.992 0 123.613 0.667711 126.721 2.04023C129.83 3.37565 132.28 5.34169 134.072 7.93834C135.864 10.4979 136.815 13.651 136.961 17.3605C137.035 19.1781 137.071 21.0329 137.071 22.9989C137.071 24.965 137.035 26.7826 136.961 28.489C136.779 32.2356 135.828 35.3887 134.036 37.9482C132.244 40.5078 129.793 42.3996 126.721 43.6609C123.613 44.9221 120.029 45.5527 115.896 45.5527H115.859Z" fill="white"/>
<path d="M108.508 13.4655H104.851V24.6311H108.508V13.4655Z" fill="#391F73"/>
<path d="M134.219 13.4655H130.561V24.6311H134.219V13.4655Z" fill="#391F73"/>
<path d="M123.21 32.0873H115.859V35.7968H123.21V32.0873Z" fill="#391F73"/>
<path d="M123.21 20.9216H115.859V24.6311H123.21V20.9216Z" fill="#391F73"/>
<path d="M115.859 28.3406H112.202V32.0501H115.859V28.3406Z" fill="#391F73"/>
<path d="M126.868 28.3406H123.21V32.0501H126.868V28.3406Z" fill="#391F73"/>
</svg>
