<svg width="121" height="20" viewBox="0 0 121 20" fill="none" xmlns="http://www.w3.org/2000/svg">
<path d="M12.6837 19.071C12.7196 19.1623 12.7124 19.2537 12.655 19.331C12.5975 19.4083 12.5185 19.4575 12.4179 19.4575H6.06125C5.96069 19.4575 5.88168 19.4154 5.82422 19.331C5.76676 19.2537 5.75957 19.1553 5.79549 19.071L6.5784 17.1592V3.59376L0.918424 5.37905C0.825048 5.40717 0.738855 5.39311 0.659845 5.33688C0.580835 5.28065 0.544922 5.20333 0.544922 5.11196V0.66982C0.544922 0.515189 0.674209 0.388672 0.832229 0.388672H17.6542C17.8122 0.388672 17.9415 0.515189 17.9415 0.66982V5.11196C17.9415 5.20333 17.8984 5.28768 17.8194 5.33688C17.7403 5.39311 17.6542 5.40717 17.5608 5.37905L11.9008 3.59376V17.1521L12.6837 19.0639V19.071Z" fill="#FFFDF7"/>
<path d="M18.8617 17.1645V9.34156L17.9208 7.8093C17.8777 7.73199 17.8633 7.64764 17.8993 7.57032C17.928 7.48598 17.9926 7.42975 18.0788 7.40164L19.0629 7.0994H19.07L23.8178 5.82721C23.904 5.80612 23.9902 5.82018 24.062 5.87641C24.1339 5.93264 24.1698 6.00995 24.1698 6.0943V7.07832C24.809 6.50196 25.6279 6.03104 26.3964 5.76395C27.2296 5.47577 28.1418 5.37034 29.0037 5.62337C29.1258 5.65852 29.2049 5.76395 29.2049 5.89047V10.0163C29.2049 10.1288 29.133 10.2342 29.0253 10.2764C28.9175 10.3185 28.7954 10.2904 28.7164 10.2061C28.0125 9.4751 26.9854 9.20801 25.987 9.3767C25.3118 9.49619 24.3781 9.91088 24.2057 10.6348C24.1913 10.7051 24.177 10.7824 24.177 10.8527V17.1504L24.9599 19.0623C24.9958 19.1466 24.9886 19.245 24.9311 19.3223C24.8737 19.3996 24.7947 19.4418 24.6941 19.4418H18.3374C18.244 19.4418 18.1578 19.3996 18.1004 19.3223C18.0429 19.245 18.0357 19.1536 18.0716 19.0623L18.8546 17.1504L18.8617 17.1645Z" fill="#FFFDF7"/>
<path d="M39.9852 11.0503C40.0139 10.6005 39.9564 10.1436 39.8487 9.71487C39.5255 8.48485 38.5702 7.07208 37.069 7.41649C37.0043 7.43054 36.9397 7.45163 36.875 7.47271C36.1496 7.75386 35.7545 8.59028 35.5678 9.27909C35.2948 10.2772 35.302 11.4158 35.4672 12.449L39.9852 11.0503ZM36.0347 14.4803C36.6308 16.2586 38.5055 17.3129 40.3156 17.5659C40.6316 17.6081 40.9548 17.6292 41.278 17.6292C42.3626 17.6292 43.4544 17.3762 44.4025 16.856C44.5246 16.7928 44.6683 16.8139 44.7617 16.9193C44.8479 17.0247 44.8479 17.1723 44.7617 17.2707C43.1743 19.1122 40.7034 19.7729 38.3188 19.7729C33.8583 19.7729 30.2598 17.2145 30.2598 12.6107C30.2598 8.0069 33.8368 5.47656 38.2829 5.47656C42.4057 5.47656 44.7258 7.36025 44.9843 11.4158C44.9915 11.5423 44.9125 11.6548 44.7904 11.697L43.8135 11.9992L40.7322 12.9551L36.0275 14.41L36.0419 14.4663" fill="#FFFDF7"/>
<path d="M55.6847 11.6081C54.5571 11.7206 53.5443 12.2267 52.7901 13.0771C52.1796 13.7659 51.7055 14.757 51.7558 15.6777C51.7773 16.0573 51.9066 16.4228 52.237 16.6477C52.8476 17.0624 53.7598 16.8164 54.3272 16.4509C55.2251 15.8746 55.6847 14.9116 55.6847 13.8784V11.6152V11.6081ZM61.7829 19.0796C61.8188 19.164 61.8116 19.2624 61.7541 19.3397C61.6967 19.417 61.6177 19.4592 61.5171 19.4592H55.9649C55.8069 19.4592 55.6847 19.3327 55.6847 19.1851V18.3416C54.32 19.3538 52.7255 19.7895 50.9801 19.7895C49.0623 19.7895 47.1158 19.0796 46.3257 17.2381C45.5356 15.4107 46.2897 13.4004 47.6185 12.0228C49.6369 9.9353 52.7757 9.23946 55.6129 9.23946C55.6345 9.23946 55.656 9.23946 55.6847 9.23946C55.656 8.74042 55.5124 8.18515 55.067 7.91103C53.2283 6.77941 50.3049 8.43115 48.7678 9.49952C48.696 9.54872 48.6169 9.56277 48.5308 9.54169C48.4446 9.5206 48.3871 9.4714 48.344 9.39409L47.1158 6.8989C47.0798 6.82861 47.0798 6.75832 47.1086 6.68101C47.1373 6.61072 47.1876 6.55449 47.2594 6.52638C51.3536 4.79731 61 4.34045 61 10.6241V17.1678L61.7829 19.0796Z" fill="#FFFDF7"/>
<path d="M74.8082 7.1369L72.8042 9.9273C72.7539 9.99759 72.6821 10.0327 72.5959 10.0468C72.5097 10.0538 72.4307 10.0257 72.3733 9.96947C71.4826 9.11197 69.8449 7.4532 68.5305 7.4532C67.2161 7.4532 67.4244 8.56373 68.2935 9.14009C68.7675 9.44935 69.3206 9.70238 69.8378 9.9273C70.477 10.2084 71.1163 10.4826 71.7412 10.7848C73.5369 11.6634 75.2607 12.8723 75.2607 15.0372C75.2607 18.7062 71.6262 19.7886 68.4874 19.7886C66.4188 19.7886 64.3501 19.163 62.5976 18.1087C62.5257 18.0665 62.4826 18.0033 62.4683 17.926C62.4539 17.8487 62.4683 17.7784 62.5114 17.7081L64.7093 14.6787C64.7596 14.6084 64.8314 14.5733 64.9176 14.5662C65.0038 14.5592 65.0828 14.5873 65.1403 14.6436C66.153 15.6206 67.252 16.717 68.5161 17.3848C68.8322 17.5534 69.22 17.6589 69.5792 17.7151C70.1969 17.8065 71.3533 17.8065 71.3533 16.9419C71.3533 16.4218 70.5129 15.9228 70.1179 15.6979C69.6726 15.4448 69.2129 15.2269 68.7532 15.0091C68.2288 14.763 67.7045 14.5241 67.1873 14.264C66.7061 14.025 66.2248 13.772 65.7723 13.4909C65.1115 13.0832 64.4435 12.5912 63.9838 11.9656C63.7109 11.5931 63.5241 11.1714 63.4379 10.7286C63.244 9.74455 63.5241 8.70431 64.0485 7.86086C64.3502 7.37588 64.7524 6.93307 65.2193 6.5957C66.4403 5.70305 68.0924 5.49219 69.572 5.49219C71.497 5.49219 73.0053 5.84362 74.6933 6.72924C74.7651 6.76438 74.8154 6.82764 74.8369 6.91199C74.8585 6.9893 74.8369 7.06662 74.7938 7.1369" fill="#FFFDF7"/>
<path d="M82.4055 15.2742C82.4055 15.6116 82.4486 16.1388 82.8005 16.3145C83.289 16.5675 84.2012 16.1247 84.6249 15.8928C85.0703 15.6468 85.5802 15.3445 85.9825 15.0212V9.34202L85.0415 7.80976C84.9984 7.73245 84.9841 7.6481 85.02 7.57079C85.0487 7.48644 85.1134 7.43021 85.1996 7.4021L86.1836 7.09987H86.1908L90.9386 5.82767C91.0248 5.80658 91.111 5.82767 91.1828 5.87687C91.2546 5.9331 91.2905 6.01042 91.2905 6.09476V17.1579L92.0734 19.0697C92.1094 19.1541 92.1022 19.2525 92.0447 19.3298C91.9872 19.4071 91.9082 19.4493 91.8077 19.4493H86.198C86.0399 19.4493 85.9178 19.3228 85.9178 19.1752V17.7413C85.2642 18.2474 84.6034 18.7464 83.8779 19.14C83.0017 19.611 82.0392 19.7796 81.0551 19.7796C78.6058 19.7937 77.0903 18.2896 77.0903 15.8717V9.33499L76.1493 7.80274C76.1062 7.72542 76.0919 7.64108 76.1278 7.56376C76.1565 7.47942 76.2211 7.42319 76.3073 7.39507L77.2914 7.09284H77.2986L82.0463 5.82064C82.1325 5.79956 82.2187 5.82064 82.2906 5.86984C82.3624 5.92607 82.3983 6.00339 82.3983 6.08773V15.2672L82.4055 15.2742Z" fill="#FFFDF7"/>
<path d="M94.8754 17.1645V9.34156L93.9345 7.8093C93.8914 7.73199 93.877 7.64764 93.9129 7.57032C93.9417 7.48598 94.0063 7.42975 94.0925 7.40164L95.0765 7.0994H95.0837L99.8315 5.82721C99.9177 5.80612 100.004 5.82018 100.076 5.87641C100.148 5.93264 100.183 6.00995 100.183 6.0943V7.07832C100.823 6.50196 101.642 6.03104 102.41 5.76395C103.243 5.47577 104.155 5.37034 105.017 5.62337C105.14 5.65852 105.219 5.76395 105.219 5.89047V10.0163C105.219 10.1288 105.147 10.2342 105.039 10.2764C104.931 10.3185 104.809 10.2904 104.73 10.2061C104.026 9.4751 102.999 9.20801 102.001 9.3767C101.325 9.49619 100.392 9.91088 100.219 10.6348C100.205 10.7051 100.191 10.7824 100.191 10.8527V17.1504L100.974 19.0623C101.009 19.1466 101.002 19.245 100.945 19.3223C100.887 19.3996 100.808 19.4418 100.708 19.4418H94.3511C94.2577 19.4418 94.1715 19.3996 94.114 19.3223C94.0566 19.245 94.0494 19.1536 94.0853 19.0623L94.8682 17.1504L94.8754 17.1645Z" fill="#FFFDF7"/>
<path d="M115.999 11.0503C116.028 10.6005 115.97 10.1436 115.862 9.71487C115.539 8.48485 114.584 7.07208 113.083 7.41649C113.018 7.43054 112.953 7.45163 112.889 7.47271C112.163 7.75386 111.768 8.59028 111.581 9.27909C111.309 10.2772 111.316 11.4158 111.481 12.449L115.999 11.0503ZM112.048 14.4803C112.645 16.2586 114.519 17.3129 116.329 17.5659C116.645 17.6081 116.969 17.6292 117.292 17.6292C118.376 17.6292 119.468 17.3762 120.416 16.856C120.538 16.7928 120.682 16.8139 120.775 16.9193C120.862 17.0247 120.862 17.1723 120.775 17.2707C119.188 19.1122 116.717 19.7729 114.332 19.7729C109.872 19.7729 106.273 17.2145 106.273 12.6107C106.273 8.0069 109.85 5.47656 114.297 5.47656C118.419 5.47656 120.739 7.36025 120.998 11.4158C121.005 11.5423 120.926 11.6548 120.804 11.697L119.827 11.9992L116.746 12.9551L112.041 14.41C112.041 14.41 112.056 14.4452 112.056 14.4663" fill="#FFFDF7"/>
</svg>
