<svg width="620" height="899" viewBox="0 0 620 899" fill="none" xmlns="http://www.w3.org/2000/svg">
<path fill-rule="evenodd" clip-rule="evenodd" d="M0 821.513V898.103H620V821.513V622.619L620 238.496C620 192.646 595.549 150.271 555.858 127.343L357.398 12.7073C328.066 -4.23577 291.934 -4.23578 262.603 12.7073L64.1422 127.343C24.4514 150.271 5.49642e-05 192.646 5.09568e-05 238.496L0 622.619V821.513Z" fill="#D9D9D9"/>
<path fill-rule="evenodd" clip-rule="evenodd" d="M0 821.513V898.103H620V821.513V622.619L620 238.496C620 192.646 595.549 150.271 555.858 127.343L357.398 12.7073C328.066 -4.23577 291.934 -4.23578 262.603 12.7073L64.1422 127.343C24.4514 150.271 5.49642e-05 192.646 5.09568e-05 238.496L0 622.619V821.513Z" fill="#8748EF"/>
</svg>
