<svg width="247" height="42" viewBox="0 0 247 42" fill="none" xmlns="http://www.w3.org/2000/svg">
<g clip-path="url(#clip0_1312_64215)">
<path d="M197.424 9.89569L189.052 32.1798H192.49L194.596 26.2904H204.384L206.465 32.1798H210.031L201.817 9.89569H197.424ZM195.643 23.3616L197.806 17.3131C198.018 16.7615 198.209 16.2417 198.379 15.7532C198.549 15.2653 198.708 14.8094 198.856 14.3843L199.525 12.5382C199.61 12.7506 199.7 12.9949 199.796 13.2704C199.891 13.5462 200.003 13.8434 200.13 14.1618C200.278 14.5866 200.437 15.0585 200.608 15.5783C200.777 16.0986 200.979 16.6764 201.212 17.3131L203.35 23.3616H195.643H195.643Z" fill="#FFFDF7"/>
<path d="M224.547 16.9469C223.571 16.2784 222.456 15.944 221.204 15.944C219.952 15.944 218.901 16.22 218.053 16.7719C217.204 17.3238 216.546 17.9923 216.079 18.7775V16.3897H213.182V38.3872H216.175V29.7919C216.641 30.5988 217.284 31.2721 218.101 31.8135C218.917 32.3545 219.952 32.6252 221.205 32.6252C222.457 32.6252 223.571 32.2854 224.547 31.6065C225.523 30.9275 226.287 29.9565 226.839 28.6935C227.391 27.4308 227.667 25.9611 227.667 24.2846C227.667 22.5867 227.391 21.1065 226.839 19.8436C226.287 18.5809 225.523 17.6151 224.547 16.9466L224.547 16.9469ZM224.038 27.6117C223.677 28.4712 223.183 29.0975 222.557 29.4899C221.931 29.8829 221.193 30.079 220.345 30.079C219.496 30.079 218.748 29.8615 218.1 29.4262C217.453 28.9915 216.943 28.3334 216.572 27.4525C216.201 26.5721 216.015 25.5058 216.015 24.2533C216.015 23.0008 216.195 21.9403 216.556 21.0698C216.917 20.1999 217.426 19.5528 218.084 19.1279C218.742 18.7037 219.496 18.4913 220.345 18.4913C221.194 18.4913 221.936 18.6772 222.573 19.0482C223.21 19.4201 223.703 20.0351 224.053 20.8946C224.403 21.7541 224.579 22.8737 224.579 24.2533C224.579 25.6329 224.398 26.7524 224.037 27.6119L224.038 27.6117Z" fill="#FFFDF7"/>
<path d="M245.398 19.8438C244.846 18.5811 244.082 17.6154 243.106 16.9469C242.13 16.2784 241.015 15.944 239.763 15.944C238.511 15.944 237.46 16.22 236.612 16.7719C235.763 17.3238 235.105 17.9923 234.638 18.7775V16.3897H231.741V38.3872H234.734V29.7919C235.2 30.5988 235.843 31.2721 236.66 31.8135C237.476 32.3545 238.511 32.6252 239.764 32.6252C241.016 32.6252 242.13 32.2854 243.106 31.6065C244.082 30.9275 244.846 29.9565 245.398 28.6935C245.95 27.4308 246.226 25.9611 246.226 24.2846C246.226 22.5867 245.95 21.1065 245.398 19.8436L245.398 19.8438ZM242.597 27.6117C242.236 28.4712 241.742 29.0975 241.117 29.4899C240.49 29.8829 239.753 30.079 238.904 30.079C238.055 30.079 237.307 29.8615 236.659 29.4262C236.012 28.9915 235.502 28.3334 235.131 27.4525C234.76 26.5721 234.574 25.5058 234.574 24.2533C234.574 23.0008 234.755 21.9403 235.115 21.0698C235.476 20.1999 235.985 19.5528 236.643 19.1279C237.301 18.7037 238.055 18.4913 238.904 18.4913C239.753 18.4913 240.495 18.6772 241.132 19.0482C241.769 19.4201 242.262 20.0351 242.612 20.8946C242.962 21.7541 243.138 22.8737 243.138 24.2533C243.138 25.6329 242.957 26.7524 242.596 27.6119L242.597 27.6117Z" fill="#FFFDF7"/>
<path d="M58.243 31.7404C58.2842 31.8483 58.2759 31.9558 58.2101 32.047C58.144 32.138 58.0531 32.196 57.9375 32.196H50.633C50.5174 32.196 50.4265 32.1463 50.3604 32.047C50.2946 31.9558 50.2863 31.84 50.3275 31.7404L51.2272 29.4874V13.5004L44.723 15.6044C44.6158 15.6376 44.5168 15.621 44.4258 15.5547C44.3351 15.4883 44.2939 15.3974 44.2939 15.2896V10.0545C44.2939 9.87236 44.4424 9.72308 44.6241 9.72308H63.9548C64.1364 9.72308 64.2849 9.87209 64.2849 10.0545V15.2896C64.2849 15.3974 64.2354 15.4966 64.1447 15.5547C64.0537 15.621 63.9548 15.6376 63.8475 15.6044L57.3434 13.5004V29.4791L58.243 31.7322V31.7404Z" fill="#FFFDF7"/>
<path d="M65.3413 29.4952V20.2758L64.26 18.4701C64.2106 18.3789 64.194 18.2796 64.2354 18.1884C64.2683 18.0889 64.3427 18.0228 64.4417 17.9896L65.5725 17.6333H65.5808L71.0365 16.1339C71.1357 16.109 71.2347 16.1256 71.3174 16.1919C71.3998 16.2583 71.441 16.3492 71.441 16.4487V17.6084C72.1756 16.9292 73.1167 16.3741 73.9998 16.0595C74.9572 15.7198 76.0056 15.5956 76.9959 15.8939C77.1364 15.9354 77.2271 16.0595 77.2271 16.2088V21.0711C77.2271 21.2036 77.1444 21.328 77.0208 21.3777C76.897 21.4275 76.7565 21.3943 76.6658 21.2948C75.8569 20.4334 74.6766 20.1185 73.5292 20.3173C72.7534 20.458 71.6804 20.9468 71.4824 21.8001C71.4659 21.8831 71.4493 21.974 71.4493 22.0569V29.4789L72.3489 31.7322C72.3904 31.8314 72.3821 31.9475 72.316 32.0385C72.2499 32.1297 72.1593 32.1795 72.0437 32.1795H64.7389C64.6316 32.1795 64.5324 32.1297 64.4666 32.0385C64.4005 31.9475 64.3922 31.8397 64.4334 31.7322L65.333 29.4789L65.3413 29.4955V29.4952Z" fill="#FFFDF7"/>
<path d="M89.6162 22.2889C89.6493 21.7587 89.5833 21.2204 89.4594 20.7151C89.0881 19.2654 87.9902 17.6004 86.2653 18.0065C86.1909 18.0231 86.1165 18.048 86.0424 18.0728C85.2086 18.4043 84.7546 19.3898 84.5401 20.2017C84.2265 21.378 84.2346 22.7199 84.4245 23.9376L89.6162 22.2889ZM85.0767 26.3313C85.7615 28.427 87.9158 29.6694 89.9961 29.9677C90.3591 30.0174 90.7307 30.0423 91.102 30.0423C92.3483 30.0423 93.603 29.744 94.6926 29.1311C94.8327 29.0565 94.9978 29.0814 95.1051 29.2055C95.2043 29.3299 95.2043 29.5038 95.1051 29.6196C93.2811 31.79 90.4417 32.5687 87.7013 32.5687C82.5757 32.5687 78.4404 29.5535 78.4404 24.1278C78.4404 18.702 82.5508 15.72 87.6601 15.72C92.3978 15.72 95.0639 17.9399 95.3611 22.7196C95.3694 22.8686 95.2784 23.0013 95.1382 23.051L94.0157 23.4071L90.4746 24.5336L85.0684 26.2484L85.0847 26.3147" fill="#FFFDF7"/>
<path d="M107.66 22.9441C106.364 23.0765 105.2 23.673 104.334 24.6754C103.632 25.4873 103.087 26.655 103.145 27.7403C103.17 28.1876 103.318 28.6183 103.698 28.8834C104.4 29.3722 105.448 29.0822 106.1 28.6515C107.131 27.9723 107.66 26.8372 107.66 25.6198V22.9441ZM114.667 31.7493C114.709 31.8489 114.701 31.9647 114.635 32.0559C114.568 32.1471 114.478 32.1966 114.362 32.1966H107.982C107.8 32.1966 107.66 32.0476 107.66 31.8737V30.8796C106.092 32.0725 104.259 32.5861 102.254 32.5861C100.05 32.5861 97.8128 31.7493 96.9049 29.5793C95.9969 27.4255 96.8637 25.0564 98.3907 23.4328C100.71 20.9727 104.317 20.1525 107.577 20.1525H107.66C107.627 19.5643 107.462 18.9099 106.95 18.587C104.837 17.2535 101.478 19.1999 99.7114 20.4591C99.6287 20.5172 99.5381 20.5337 99.4388 20.5089C99.3398 20.484 99.2737 20.4259 99.2243 20.335L97.8128 17.3944C97.7716 17.3115 97.7716 17.2288 97.8045 17.1376C97.8377 17.0547 97.8955 16.9886 97.9779 16.9554C102.683 14.9178 113.768 14.3793 113.768 21.7846V29.4966L114.667 31.7493Z" fill="#FFFDF7"/>
<path d="M129.632 17.6756L127.329 20.9641C127.271 21.0471 127.189 21.0883 127.089 21.1048C126.99 21.1131 126.9 21.08 126.834 21.0136C125.81 20.0029 123.928 18.0482 122.418 18.0482C120.907 18.0482 121.147 19.3569 122.145 20.0361C122.69 20.4005 123.326 20.6988 123.92 20.9639C124.655 21.2953 125.389 21.6182 126.107 21.9745C128.171 23.0101 130.152 24.4346 130.152 26.9862C130.152 31.31 125.975 32.5858 122.368 32.5858C119.991 32.5858 117.614 31.8486 115.6 30.6059C115.518 30.5562 115.468 30.4818 115.451 30.3906C115.435 30.2996 115.451 30.2167 115.501 30.1338L118.027 26.5638C118.085 26.4808 118.167 26.4394 118.266 26.4314C118.365 26.4231 118.456 26.4562 118.522 26.5226C119.686 27.674 120.949 28.9661 122.401 29.7531C122.765 29.9519 123.21 30.076 123.623 30.1423C124.333 30.2501 125.662 30.2501 125.662 29.2312C125.662 28.6183 124.696 28.03 124.242 27.7649C123.73 27.4669 123.202 27.2101 122.674 26.9533C122.071 26.6633 121.469 26.3816 120.874 26.0753C120.321 25.7936 119.768 25.4953 119.248 25.1641C118.489 24.6837 117.721 24.104 117.193 23.3667C116.879 22.9277 116.665 22.4307 116.566 21.9087C116.343 20.749 116.665 19.523 117.267 18.5292C117.614 17.9578 118.076 17.4359 118.613 17.0381C120.016 15.9862 121.914 15.7377 123.615 15.7377C125.827 15.7377 127.56 16.1518 129.5 17.1956C129.582 17.2371 129.64 17.3117 129.665 17.411C129.69 17.5022 129.665 17.5932 129.615 17.6761" fill="#FFFDF7"/>
<path d="M138.365 27.2671C138.365 27.6646 138.414 28.2858 138.819 28.4928C139.38 28.7911 140.428 28.2692 140.915 27.9958C141.427 27.7061 142.013 27.3497 142.475 26.9688V20.2758L141.394 18.4701C141.344 18.3789 141.328 18.2796 141.369 18.1884C141.402 18.0891 141.477 18.0228 141.576 17.9896L142.706 17.6336H142.715L148.17 16.1344C148.27 16.1095 148.369 16.1344 148.451 16.1924C148.534 16.2588 148.575 16.3497 148.575 16.4493V29.4874L149.475 31.7405C149.516 31.84 149.508 31.9558 149.442 32.047C149.376 32.1383 149.285 32.1878 149.169 32.1878H142.723C142.541 32.1878 142.401 32.0387 142.401 31.8649V30.175C141.65 30.7715 140.89 31.3595 140.057 31.8234C139.05 32.3785 137.944 32.5773 136.813 32.5773C133.998 32.5938 132.257 30.821 132.257 27.9717V20.268L131.176 18.4623C131.126 18.3711 131.11 18.2718 131.151 18.1806C131.184 18.0811 131.258 18.015 131.357 17.9819L132.488 17.6258H132.496L137.952 16.1264C138.051 16.1015 138.15 16.1264 138.233 16.1844C138.315 16.2508 138.357 16.3417 138.357 16.4412V27.2596L138.365 27.2679V27.2671Z" fill="#FFFDF7"/>
<path d="M152.693 29.4952V20.2758L151.612 18.4701C151.563 18.3789 151.546 18.2796 151.587 18.1884C151.62 18.0889 151.695 18.0228 151.794 17.9896L152.925 17.6333H152.933L158.389 16.1339C158.488 16.109 158.587 16.1256 158.669 16.1919C158.752 16.2583 158.793 16.3492 158.793 16.4487V17.6084C159.528 16.9292 160.469 16.3741 161.352 16.0595C162.309 15.7198 163.357 15.5956 164.348 15.8939C164.488 15.9354 164.579 16.0595 164.579 16.2088V21.0711C164.579 21.2036 164.497 21.328 164.373 21.3777C164.249 21.4275 164.109 21.3943 164.018 21.2948C163.209 20.4334 162.029 20.1185 160.881 20.3173C160.106 20.458 159.033 20.9468 158.834 21.8001C158.818 21.8831 158.801 21.974 158.801 22.0569V29.4789L159.701 31.7322C159.742 31.8314 159.734 31.9475 159.668 32.0385C159.602 32.1297 159.511 32.1795 159.396 32.1795H152.091C151.983 32.1795 151.884 32.1297 151.818 32.0385C151.753 31.9475 151.744 31.8397 151.786 31.7322L152.685 29.4789L152.693 29.4955V29.4952Z" fill="#FFFDF7"/>
<path d="M176.968 22.2889C177.001 21.7587 176.935 21.2204 176.811 20.7151C176.44 19.2654 175.342 17.6004 173.617 18.0065C173.543 18.0231 173.469 18.048 173.394 18.0728C172.561 18.4043 172.107 19.3898 171.892 20.2017C171.579 21.378 171.587 22.7199 171.777 23.9376L176.968 22.2889ZM172.429 26.3313C173.114 28.427 175.268 29.6694 177.348 29.9677C177.711 30.0174 178.083 30.0423 178.454 30.0423C179.7 30.0423 180.955 29.744 182.045 29.1311C182.185 29.0565 182.35 29.0814 182.457 29.2055C182.556 29.3299 182.556 29.5038 182.457 29.6196C180.633 31.79 177.794 32.5687 175.053 32.5687C169.928 32.5687 165.792 29.5535 165.792 24.1278C165.792 18.702 169.903 15.72 175.012 15.72C179.75 15.72 182.416 17.9399 182.713 22.7196C182.721 22.8686 182.63 23.0013 182.49 23.051L181.368 23.4071L177.827 24.5336L172.42 26.2484C172.42 26.2484 172.437 26.2899 172.437 26.3147" fill="#FFFDF7"/>
<path d="M0 13.0921V28.9159C0 31.5354 1.39429 33.9516 3.64811 35.2533L14.0408 41.2738C15.7109 42.2419 17.7617 42.2419 19.4318 41.2738L29.8245 35.2533C32.0781 33.9436 33.4724 31.5274 33.4724 28.9159V13.0921C33.4724 10.4725 32.0781 8.05606 29.8245 6.75433L19.4316 0.725861C17.7615 -0.242279 15.7107 -0.242279 14.0406 0.725861L3.64811 6.74631C1.39429 8.05606 0 10.4723 0 13.0921Z" fill="#DC2626"/>
<path d="M29.4268 20.5848L25.6088 19.2831C24.2065 18.8031 23.1605 17.6154 22.8686 16.159L21.2555 8.16992C21.2151 7.96661 21.0367 7.82001 20.8259 7.82001C20.6151 7.82001 20.4366 7.96634 20.3962 8.16992L18.7831 16.159C18.4913 17.6154 17.4455 18.8031 16.0432 19.2831L12.225 20.5848C12.0465 20.6418 11.9331 20.8125 11.9331 20.9997C11.9331 21.187 12.0546 21.3496 12.225 21.4146L16.0432 22.7164C17.4455 23.1963 18.4915 24.3841 18.7831 25.8404L20.3962 33.8295C20.4366 34.0331 20.6151 34.1794 20.8259 34.1794C21.0367 34.1794 21.2151 34.0331 21.2555 33.8295L22.8686 25.8404C23.1605 24.3841 24.2062 23.1963 25.6088 22.7164L29.4268 21.4146C29.6052 21.3576 29.7186 21.1867 29.7186 20.9997C29.7186 20.8127 29.5972 20.6498 29.4268 20.5848Z" fill="#FFFDF7"/>
<path d="M8.88519 13.2548L10.2308 13.7104C10.7252 13.8814 11.0981 14.2963 11.1955 14.8169L11.7629 17.64C11.7792 17.7133 11.8439 17.762 11.9169 17.762C11.99 17.762 12.0547 17.713 12.071 17.64L12.6384 14.8169C12.7438 14.3043 13.1087 13.8814 13.6111 13.7104L14.9567 13.2548C15.0215 13.2305 15.0621 13.1735 15.0621 13.1085C15.0621 13.0435 15.0215 12.9865 14.9567 12.9622L13.6111 12.5066C13.1168 12.3357 12.7438 11.9207 12.6384 11.4002L12.071 8.57707C12.0547 8.50377 11.99 8.45508 11.9169 8.45508C11.8439 8.45508 11.7792 8.50377 11.7629 8.57707L11.1955 11.4002C11.0901 11.9127 10.7252 12.3357 10.2308 12.5066L8.88519 12.9622C8.82045 12.9865 8.77979 13.0435 8.77979 13.1085C8.77979 13.1735 8.82045 13.2305 8.88519 13.2548Z" fill="#FFFDF7"/>
<path d="M12.0299 27.1178L10.222 26.5076C9.55722 26.2797 9.06285 25.7184 8.92482 25.0269L8.16293 21.2439C8.14661 21.1463 8.05753 21.0813 7.96015 21.0813C7.86278 21.0813 7.77369 21.1463 7.75764 21.2439L6.99549 25.0269C6.85772 25.7184 6.36308 26.2797 5.69857 26.5076L3.8907 27.1178C3.80964 27.1421 3.75293 27.2235 3.75293 27.3131C3.75293 27.4027 3.80964 27.484 3.8907 27.5084L5.69857 28.1186C6.36335 28.3462 6.85772 28.9077 6.99549 29.5993L7.75764 33.3822C7.77396 33.4799 7.86304 33.5449 7.96015 33.5449C8.05726 33.5449 8.13859 33.4718 8.16293 33.3822L8.92482 29.5993C9.06259 28.9077 9.55722 28.3462 10.222 28.1186L12.0299 27.5084C12.1109 27.484 12.1676 27.4027 12.1676 27.3131C12.1676 27.2235 12.1109 27.1421 12.0299 27.1178Z" fill="#FFFDF7"/>
</g>
<defs>
<clipPath id="clip0_1312_64215">
<rect width="246.226" height="42" fill="white"/>
</clipPath>
</defs>
</svg>
