<svg width="296" height="42" viewBox="0 0 296 42" fill="none" xmlns="http://www.w3.org/2000/svg">
<g clip-path="url(#clip0_1312_64235)">
<path d="M205.655 22.6613C204.954 24.4017 204.392 25.8024 203.967 26.8637C203.84 26.5245 203.638 26.0309 203.362 25.3835C203.086 24.7361 202.726 23.829 202.28 22.6613L197.155 9.89568H191.966V32.18H195.149V13.1428L202.758 32.1798H205.018L212.531 13.1428V32.1798H215.714V9.89568H210.652L205.654 22.6613H205.655Z" fill="#FFFDF7"/>
<path d="M233.414 29.442C233.287 29.3144 233.223 29.0709 233.223 28.7101V21.4834C233.223 20.3376 232.989 19.3505 232.523 18.5231C232.056 17.6954 231.356 17.0584 230.422 16.6127C229.488 16.167 228.321 15.9439 226.92 15.9439C225.604 15.9439 224.453 16.1566 223.466 16.5809C222.479 17.0057 221.694 17.5517 221.11 18.2205C220.526 18.8888 220.15 19.6052 219.98 20.3689L222.845 21.2921C223.121 20.4858 223.561 19.812 224.166 19.2705C224.771 18.7299 225.688 18.4591 226.92 18.4591C227.684 18.4591 228.31 18.5763 228.798 18.8093C229.286 19.0428 229.647 19.3772 229.88 19.812C230.114 20.2472 230.231 20.7729 230.231 21.3879V21.8654C228.342 22.0144 226.665 22.3063 225.201 22.741C223.736 23.1762 222.553 23.8341 221.651 24.7144C220.749 25.5954 220.298 26.7256 220.298 28.1049C220.298 29.5057 220.76 30.6092 221.683 31.4155C222.606 32.2223 223.842 32.6254 225.392 32.6254C226.58 32.6254 227.588 32.3809 228.416 31.893C229.244 31.405 229.955 30.7049 230.549 29.7919C230.655 30.5773 230.91 31.1717 231.313 31.5746C231.716 31.978 232.438 32.1797 233.478 32.1797H235.77V29.633H234.146C233.785 29.633 233.541 29.5696 233.414 29.442ZM230.231 25.654C230.231 26.6515 230.04 27.4894 229.658 28.1686C229.276 28.8478 228.777 29.3521 228.161 29.6806C227.546 30.0097 226.888 30.1739 226.188 30.1739C225.275 30.1739 224.58 29.9671 224.103 29.5533C223.625 29.1394 223.386 28.572 223.386 27.8505C223.386 26.6834 224.002 25.8081 225.232 25.2241C226.463 24.6403 228.129 24.2428 230.231 24.0301L230.231 25.654Z" fill="#FFFDF7"/>
<path d="M243.41 17.2973C242.54 18.0506 241.914 18.8628 241.532 19.7328V16.3899H238.603V32.18H241.596V25.0809C241.596 23.1706 241.994 21.7223 242.79 20.7354C243.586 19.7485 244.843 19.2552 246.562 19.2552C247.008 19.2552 247.57 19.2981 248.25 19.3829V16.3268C247.867 16.2208 247.379 16.1673 246.785 16.1673C245.405 16.1673 244.281 16.5445 243.411 17.2976L243.41 17.2973Z" fill="#FFFDF7"/>
<path d="M266.331 16.3896H262.415L254.361 24.2533V9.89568H251.369V32.18H254.361V27.5932L257.213 24.9188L263.052 32.18H266.904L259.335 22.9499L266.331 16.3899L266.331 16.3896Z" fill="#FFFDF7"/>
<path d="M277.744 29.1876C277.096 29.8031 276.21 30.1102 275.086 30.1102C274.3 30.1102 273.589 29.9463 272.953 29.6169C272.316 29.2882 271.791 28.747 271.377 27.9937C270.963 27.2403 270.735 26.2586 270.692 25.0488H281.802C281.993 23.3512 281.829 21.8074 281.309 20.4171C280.788 19.0273 279.972 17.9337 278.858 17.1379C277.743 16.342 276.411 15.9439 274.862 15.9439C273.504 15.9439 272.278 16.2893 271.185 16.979C270.092 17.6686 269.238 18.6499 268.623 19.9232C268.007 21.1971 267.7 22.672 267.7 24.3482C267.7 26.0892 268.002 27.5798 268.607 28.8214C269.212 30.0629 270.061 31.0075 271.154 31.6543C272.247 32.3017 273.525 32.6257 274.99 32.6257C276.093 32.6257 277.096 32.4553 277.998 32.1163C278.9 31.7771 279.685 31.2678 280.354 30.588C281.023 29.9093 281.548 29.0712 281.93 28.0734L279.192 27.0865C278.874 27.8719 278.391 28.5723 277.744 29.1876ZM272.109 19.4939C272.884 18.7194 273.801 18.3318 274.863 18.3318C275.584 18.3318 276.237 18.5022 276.821 18.8411C277.404 19.1809 277.876 19.6744 278.237 20.3213C278.598 20.9692 278.778 21.7488 278.778 22.661H270.756C270.884 21.324 271.334 20.2689 272.109 19.4939Z" fill="#FFFDF7"/>
<path d="M291.926 29.6014C291.395 29.6014 291.003 29.4738 290.748 29.2189C290.493 28.9645 290.366 28.572 290.366 28.0413V18.8732H294.632V16.3899H290.366V11.4561H287.373V16.3899H283.776V18.8732H287.373V28.2965C287.373 29.167 287.522 29.8879 287.819 30.4612C288.116 31.034 288.562 31.4639 289.156 31.7501C289.75 32.0369 290.482 32.18 291.353 32.18H295.237V29.6014H291.926Z" fill="#FFFDF7"/>
<path d="M58.452 31.7405C58.4932 31.8483 58.4849 31.9558 58.4191 32.0471C58.353 32.138 58.2621 32.1961 58.1465 32.1961H50.842C50.7264 32.1961 50.6355 32.1463 50.5694 32.0471C50.5036 31.9558 50.4953 31.84 50.5365 31.7405L51.4361 29.4875V13.5004L44.932 15.6045C44.8247 15.6376 44.7258 15.621 44.6348 15.5547C44.5441 15.4883 44.5029 15.3974 44.5029 15.2896V10.0546C44.5029 9.87239 44.6514 9.72311 44.833 9.72311H64.1637C64.3454 9.72311 64.4939 9.87212 64.4939 10.0546V15.2896C64.4939 15.3974 64.4444 15.4966 64.3537 15.5547C64.2627 15.621 64.1637 15.6376 64.0565 15.6045L57.5524 13.5004V29.4792L58.452 31.7322V31.7405Z" fill="#FFFDF7"/>
<path d="M65.5503 29.4952V20.2758L64.469 18.4701C64.4195 18.3789 64.403 18.2796 64.4444 18.1884C64.4773 18.0889 64.5517 18.0228 64.6507 17.9896L65.7815 17.6333H65.7898L71.2455 16.1339C71.3447 16.109 71.4437 16.1256 71.5264 16.1919C71.6088 16.2583 71.65 16.3492 71.65 16.4487V17.6084C72.3846 16.9292 73.3257 16.3741 74.2087 16.0595C75.1662 15.7198 76.2146 15.5956 77.2049 15.8939C77.3454 15.9354 77.4361 16.0595 77.4361 16.2088V21.0711C77.4361 21.2036 77.3534 21.328 77.2298 21.3777C77.1059 21.4275 76.9655 21.3943 76.8748 21.2948C76.0658 20.4334 74.8856 20.1185 73.7382 20.3173C72.9624 20.458 71.8894 20.9467 71.6914 21.8001C71.6748 21.8831 71.6582 21.974 71.6582 22.0569V29.4789L72.5579 31.7322C72.5994 31.8314 72.5911 31.9475 72.525 32.0385C72.4589 32.1297 72.3682 32.1795 72.2527 32.1795H64.9479C64.8406 32.1795 64.7414 32.1297 64.6755 32.0385C64.6095 31.9475 64.6012 31.8397 64.6424 31.7322L65.542 29.4789L65.5503 29.4955V29.4952Z" fill="#FFFDF7"/>
<path d="M89.8254 22.2889C89.8586 21.7587 89.7925 21.2204 89.6686 20.7151C89.2973 19.2654 88.1994 17.6004 86.4745 18.0065C86.4001 18.0231 86.3258 18.048 86.2517 18.0728C85.4178 18.4043 84.9638 19.3898 84.7493 20.2017C84.4358 21.378 84.4438 22.7199 84.6337 23.9376L89.8254 22.2889ZM85.2859 26.3313C85.9708 28.427 88.1251 29.6694 90.2053 29.9677C90.5683 30.0174 90.9399 30.0423 91.3112 30.0423C92.5575 30.0423 93.8122 29.744 94.9018 29.1311C95.042 29.0565 95.207 29.0814 95.3143 29.2055C95.4135 29.3299 95.4135 29.5038 95.3143 29.6196C93.4904 31.79 90.651 32.5687 87.9105 32.5687C82.7849 32.5687 78.6497 29.5535 78.6497 24.1278C78.6497 18.702 82.76 15.72 87.8693 15.72C92.607 15.72 95.2731 17.9399 95.5703 22.7196C95.5786 22.8686 95.4876 23.0013 95.3475 23.051L94.225 23.4071L90.6839 24.5336L85.2776 26.2484L85.294 26.3147" fill="#FFFDF7"/>
<path d="M107.868 22.944C106.572 23.0764 105.409 23.673 104.542 24.6754C103.84 25.4873 103.296 26.655 103.353 27.7403C103.378 28.1876 103.527 28.6183 103.906 28.8834C104.608 29.3722 105.656 29.0822 106.308 28.6515C107.34 27.9723 107.868 26.8372 107.868 25.6197V22.944ZM114.876 31.7493C114.917 31.8488 114.909 31.9647 114.843 32.0559C114.777 32.1471 114.686 32.1966 114.571 32.1966H108.19C108.009 32.1966 107.868 32.0476 107.868 31.8737V30.8796C106.3 32.0725 104.468 32.5861 102.462 32.5861C100.258 32.5861 98.0213 31.7493 97.1134 29.5792C96.2054 27.4255 97.0722 25.0563 98.5992 23.4328C100.919 20.9727 104.525 20.1525 107.786 20.1525H107.868C107.835 19.5642 107.67 18.9099 107.159 18.587C105.046 17.2534 101.686 19.1999 99.9199 20.4591C99.8372 20.5171 99.7465 20.5337 99.6473 20.5088C99.5483 20.484 99.4822 20.4259 99.4328 20.3349L98.0213 17.3944C97.9801 17.3115 97.9801 17.2288 98.013 17.1376C98.0462 17.0547 98.104 16.9886 98.1864 16.9554C102.891 14.9177 113.976 14.3792 113.976 21.7846V29.4966L114.876 31.7493Z" fill="#FFFDF7"/>
<path d="M129.841 17.6756L127.538 20.9641C127.48 21.0471 127.397 21.0883 127.298 21.1048C127.199 21.1131 127.109 21.08 127.042 21.0136C126.019 20.0029 124.137 18.0482 122.627 18.0482C121.116 18.0482 121.356 19.3569 122.354 20.0361C122.899 20.4005 123.534 20.6988 124.129 20.9639C124.864 21.2953 125.598 21.6182 126.316 21.9745C128.379 23.0101 130.36 24.4346 130.36 26.9862C130.36 31.31 126.184 32.5858 122.577 32.5858C120.2 32.5858 117.823 31.8486 115.809 30.6059C115.726 30.5562 115.677 30.4818 115.66 30.3906C115.644 30.2996 115.66 30.2167 115.71 30.1338L118.236 26.5638C118.293 26.4808 118.376 26.4394 118.475 26.4314C118.574 26.4231 118.665 26.4562 118.731 26.5226C119.894 27.674 121.157 28.9661 122.61 29.7531C122.973 29.9519 123.419 30.076 123.832 30.1423C124.541 30.2501 125.87 30.2501 125.87 29.2312C125.87 28.6183 124.905 28.03 124.451 27.7649C123.939 27.4669 123.411 27.2101 122.883 26.9533C122.28 26.6633 121.677 26.3816 121.083 26.0753C120.53 25.7936 119.977 25.4953 119.457 25.1641C118.698 24.6837 117.93 24.104 117.402 23.3667C117.088 22.9277 116.874 22.4307 116.775 21.9087C116.552 20.749 116.874 19.523 117.476 18.5292C117.823 17.9578 118.285 17.4359 118.821 17.0381C120.225 15.9862 122.123 15.7377 123.823 15.7377C126.036 15.7377 127.769 16.1518 129.708 17.1956C129.791 17.2371 129.849 17.3117 129.874 17.411C129.898 17.5022 129.874 17.5932 129.824 17.6761" fill="#FFFDF7"/>
<path d="M138.573 27.2671C138.573 27.6646 138.623 28.2858 139.027 28.4928C139.588 28.7911 140.636 28.2692 141.124 27.9958C141.635 27.7061 142.221 27.3497 142.683 26.9688V20.2758L141.602 18.4701C141.553 18.3789 141.536 18.2796 141.578 18.1884C141.61 18.0891 141.685 18.0228 141.784 17.9896L142.915 17.6336H142.923L148.379 16.1344C148.478 16.1095 148.577 16.1344 148.659 16.1925C148.742 16.2588 148.783 16.3498 148.783 16.4493V29.4875L149.683 31.7405C149.724 31.84 149.716 31.9558 149.65 32.0471C149.584 32.1383 149.493 32.1878 149.378 32.1878H142.931C142.75 32.1878 142.609 32.0388 142.609 31.8649V30.175C141.858 30.7715 141.099 31.3595 140.265 31.8234C139.258 32.3785 138.152 32.5773 137.021 32.5773C134.207 32.5939 132.465 30.821 132.465 27.9717V20.2681L131.384 18.4623C131.334 18.3711 131.318 18.2719 131.359 18.1806C131.392 18.0811 131.466 18.015 131.566 17.9819L132.696 17.6258H132.704L138.16 16.1264C138.259 16.1015 138.358 16.1264 138.441 16.1844C138.524 16.2508 138.565 16.3417 138.565 16.4412V27.2596L138.573 27.2679V27.2671Z" fill="#FFFDF7"/>
<path d="M152.902 29.4952V20.2758L151.82 18.4701C151.771 18.3789 151.754 18.2796 151.796 18.1884C151.829 18.0889 151.903 18.0228 152.002 17.9896L153.133 17.6333H153.141L158.597 16.1339C158.696 16.109 158.795 16.1256 158.877 16.1919C158.96 16.2583 159.001 16.3492 159.001 16.4487V17.6084C159.736 16.9292 160.677 16.3741 161.56 16.0595C162.518 15.7198 163.566 15.5956 164.556 15.8939C164.696 15.9354 164.787 16.0595 164.787 16.2088V21.0711C164.787 21.2036 164.705 21.328 164.581 21.3777C164.457 21.4275 164.317 21.3943 164.226 21.2948C163.417 20.4334 162.237 20.1185 161.09 20.3173C160.314 20.458 159.241 20.9467 159.043 21.8001C159.026 21.8831 159.01 21.974 159.01 22.0569V29.4789L159.909 31.7322C159.95 31.8314 159.942 31.9475 159.876 32.0385C159.81 32.1297 159.719 32.1795 159.604 32.1795H152.299C152.192 32.1795 152.093 32.1297 152.027 32.0385C151.961 31.9475 151.953 31.8397 151.994 31.7322L152.893 29.4789L152.902 29.4955V29.4952Z" fill="#FFFDF7"/>
<path d="M177.177 22.2889C177.21 21.7587 177.144 21.2204 177.02 20.7151C176.649 19.2654 175.551 17.6004 173.826 18.0065C173.752 18.0231 173.678 18.048 173.603 18.0728C172.77 18.4043 172.316 19.3898 172.101 20.2017C171.788 21.378 171.796 22.7199 171.986 23.9376L177.177 22.2889ZM172.638 26.3313C173.323 28.427 175.477 29.6694 177.557 29.9677C177.92 30.0174 178.292 30.0423 178.663 30.0423C179.909 30.0423 181.164 29.744 182.254 29.1311C182.394 29.0565 182.559 29.0814 182.666 29.2055C182.765 29.3299 182.765 29.5038 182.666 29.6196C180.842 31.79 178.003 32.5687 175.262 32.5687C170.137 32.5687 166.001 29.5535 166.001 24.1278C166.001 18.702 170.112 15.72 175.221 15.72C179.959 15.72 182.625 17.9399 182.922 22.7196C182.93 22.8686 182.839 23.0013 182.699 23.051L181.577 23.4071L178.036 24.5336L172.629 26.2484C172.629 26.2484 172.646 26.2899 172.646 26.3147" fill="#FFFDF7"/>
<path d="M0.208984 13.0922V28.9161C0.208984 31.5356 1.60328 33.9518 3.8571 35.2535L14.2498 41.2739C15.9199 42.2421 17.9707 42.2421 19.6408 41.2739L30.0335 35.2535C32.2871 33.9437 33.6814 31.5275 33.6814 28.9161V13.0922C33.6814 10.4727 32.2871 8.05623 30.0335 6.7545L19.6405 0.726029C17.9704 -0.242111 15.9197 -0.242111 14.2496 0.726029L3.8571 6.74647C1.60328 8.05623 0.208984 10.4724 0.208984 13.0922Z" fill="#DC2626"/>
<path d="M29.6355 20.5848L25.8175 19.2831C24.4152 18.8031 23.3692 17.6154 23.0774 16.159L21.4642 8.16992C21.4238 7.96661 21.2454 7.82001 21.0346 7.82001C20.8238 7.82001 20.6454 7.96634 20.605 8.16992L18.9919 16.159C18.7 17.6154 17.6543 18.8031 16.252 19.2831L12.4337 20.5848C12.2553 20.6418 12.1418 20.8125 12.1418 20.9997C12.1418 21.187 12.2633 21.3496 12.4337 21.4146L16.252 22.7164C17.6543 23.1963 18.7003 24.3841 18.9919 25.8404L20.605 33.8295C20.6454 34.0331 20.8238 34.1794 21.0346 34.1794C21.2454 34.1794 21.4238 34.0331 21.4642 33.8295L23.0774 25.8404C23.3692 24.3841 24.4149 23.1963 25.8175 22.7164L29.6355 21.4146C29.8139 21.3576 29.9274 21.1867 29.9274 20.9997C29.9274 20.8127 29.8059 20.6498 29.6355 20.5848Z" fill="#FFFDF7"/>
<path d="M9.09368 13.2549L10.4393 13.7105C10.9337 13.8814 11.3066 14.2963 11.4039 14.8169L11.9714 17.64C11.9877 17.7133 12.0524 17.762 12.1254 17.762C12.1985 17.762 12.2632 17.713 12.2795 17.64L12.8469 14.8169C12.9523 14.3043 13.3172 13.8814 13.8196 13.7105L15.1652 13.2549C15.23 13.2305 15.2706 13.1736 15.2706 13.1085C15.2706 13.0435 15.23 12.9866 15.1652 12.9622L13.8196 12.5066C13.3252 12.3357 12.9523 11.9208 12.8469 11.4002L12.2795 8.5771C12.2632 8.5038 12.1985 8.45511 12.1254 8.45511C12.0524 8.45511 11.9877 8.5038 11.9714 8.5771L11.4039 11.4002C11.2985 11.9128 10.9337 12.3357 10.4393 12.5066L9.09368 12.9622C9.02894 12.9866 8.98828 13.0435 8.98828 13.1085C8.98828 13.1736 9.02894 13.2305 9.09368 13.2549Z" fill="#FFFDF7"/>
<path d="M12.2386 27.1178L10.4307 26.5076C9.76596 26.2797 9.27159 25.7184 9.13355 25.0269L8.37167 21.244C8.35535 21.1463 8.26627 21.0813 8.16889 21.0813C8.07152 21.0813 7.98243 21.1463 7.96638 21.244L7.20423 25.0269C7.06646 25.7184 6.57182 26.2797 5.90731 26.5076L4.09944 27.1178C4.01838 27.1422 3.96167 27.2235 3.96167 27.3131C3.96167 27.4027 4.01838 27.484 4.09944 27.5084L5.90731 28.1186C6.57209 28.3463 7.06646 28.9078 7.20423 29.5993L7.96638 33.3822C7.9827 33.4799 8.07178 33.5449 8.16889 33.5449C8.266 33.5449 8.34733 33.4719 8.37167 33.3822L9.13355 29.5993C9.27133 28.9078 9.76596 28.3463 10.4307 28.1186L12.2386 27.5084C12.3197 27.484 12.3764 27.4027 12.3764 27.3131C12.3764 27.2235 12.3197 27.1422 12.2386 27.1178Z" fill="#FFFDF7"/>
</g>
<defs>
<clipPath id="clip0_1312_64235">
<rect width="295.029" height="42" fill="white" transform="translate(0.20874)"/>
</clipPath>
</defs>
</svg>
