<svg width="48" height="48" viewBox="0 0 48 48" fill="none" xmlns="http://www.w3.org/2000/svg">
<path d="M14.1315 20.1697L23.453 10.8486L32.7795 20.1746L38.2034 14.7507L23.453 0L8.70759 14.7458L14.1315 20.1697Z" fill="#F3BA2F"/>
<path d="M10.3012 23.9988L4.87736 18.575L-0.546721 23.9991L4.87709 29.4229L10.3012 23.9988Z" fill="#F3BA2F"/>
<path d="M14.1315 27.8296L23.453 37.1507L32.7791 27.825L38.206 33.2459L38.2034 33.2489L23.453 47.9993L8.70721 33.2539L8.69963 33.2463L14.1315 27.8296Z" fill="#F3BA2F"/>
<path d="M42.0292 29.4254L47.4533 24.0013L42.0295 18.5775L36.6054 24.0016L42.0292 29.4254Z" fill="#F3BA2F"/>
<path d="M28.9546 23.9968H28.9569L23.453 18.4929L19.3856 22.5604H19.3852L18.9181 23.0278L17.954 23.9919L17.9465 23.9995L17.954 24.0074L23.453 29.5064L28.9569 24.0025L28.9596 23.9995L28.9546 23.9968Z" fill="#F3BA2F"/>
</svg>
