<svg width="42" height="42" viewBox="0 0 42 42" fill="none" xmlns="http://www.w3.org/2000/svg">
<path d="M21 42C32.598 42 42 32.598 42 21C42 9.40202 32.598 0 21 0C9.40202 0 0 9.40202 0 21C0 32.598 9.40202 42 21 42Z" fill="#F8E19A"/>
<path fill-rule="evenodd" clip-rule="evenodd" d="M34.4716 25.0366L34.5576 25.1713H34.5662C34.819 25.5995 34.9526 26.0875 34.9532 26.5847C34.8892 27.2979 34.5607 27.9612 34.0323 28.4444C33.5039 28.9275 32.8138 29.1954 32.0978 29.1954C31.3818 29.1954 30.6917 28.9275 30.1633 28.4444C29.6348 27.9612 29.3063 27.2979 29.2424 26.5847C29.2327 26.0446 29.3811 25.5134 29.6695 25.0567L29.6867 25.0337C29.7061 25.002 29.7271 24.9714 29.7498 24.942L30.4608 23.9214C31.0227 23.1717 31.3669 22.2814 31.4554 21.3487C31.5439 20.4159 31.3734 19.4769 30.9625 18.6348C30.7552 18.2634 30.5072 17.9162 30.2228 17.5999C30.1085 17.4902 30.0012 17.3734 29.9017 17.2501C29.8565 17.2037 29.8162 17.1528 29.7813 17.0982C29.7737 17.0816 29.737 17.0291 29.6956 16.9699C29.6441 16.8963 29.5854 16.8123 29.5663 16.7742C29.3368 16.3581 29.2165 15.8905 29.2166 15.4153C29.2805 14.7022 29.609 14.0388 30.1375 13.5556C30.6659 13.0725 31.356 12.8046 32.072 12.8046C32.788 12.8046 33.4781 13.0725 34.0065 13.5556C34.5349 14.0388 34.8634 14.7022 34.9274 15.4153C34.9336 15.8498 34.8353 16.2795 34.6407 16.6681L34.6235 16.6968C34.5209 16.8964 34.3948 17.0832 34.248 17.253C34.2072 17.3018 34.1651 17.3564 34.1215 17.4128C34.0578 17.4953 33.991 17.5817 33.9211 17.6601C32.9578 18.7409 31.7337 20.8595 33.8753 24.1565C33.9292 24.2373 33.9761 24.3029 34.028 24.3753C34.1251 24.5109 34.2394 24.6704 34.4486 24.9993L34.4716 25.0366ZM29.4831 20.7964C29.4831 22.432 28.1726 23.7579 26.556 23.7579C24.9394 23.7579 23.6289 22.432 23.6289 20.7964C23.6289 19.1608 24.9394 17.8349 26.556 17.8349C28.1726 17.8349 29.4831 19.1608 29.4831 20.7964Z" fill="white"/>
<path d="M23.4713 25.1713L23.3881 25.0366L23.3623 24.9993C23.0412 24.4947 22.9438 24.3887 22.7889 24.1564C20.6474 20.8595 21.8715 18.7409 22.8348 17.6601C22.9524 17.5282 23.0613 17.3734 23.1616 17.253C23.3085 17.0831 23.4345 16.8964 23.5372 16.6968L23.5544 16.6681C23.746 16.2784 23.8441 15.8495 23.8411 15.4153C23.8494 14.9744 23.7558 14.5375 23.5677 14.1386C23.3796 13.7397 23.1019 13.3896 22.7565 13.1156C22.411 12.8415 22.0069 12.6508 21.5757 12.5584C21.1445 12.4659 20.6978 12.4742 20.2703 12.5825C19.8428 12.6909 19.4461 12.8964 19.111 13.1831C18.7759 13.4698 18.5114 13.8299 18.3382 14.2355C18.165 14.641 18.0877 15.0811 18.1123 15.5214C18.1369 15.9617 18.2627 16.3904 18.48 16.7742C18.5144 16.843 18.6778 17.0609 18.695 17.0982C18.7299 17.1528 18.7702 17.2037 18.8154 17.2501C18.9149 17.3734 19.0222 17.4902 19.1365 17.5999C19.4237 17.9159 19.6747 18.263 19.8848 18.6348C20.2974 19.4756 20.4701 20.4139 20.3842 21.3466C20.2982 22.2792 19.9568 23.1701 19.3974 23.9214C19.2246 24.1663 19.0329 24.3973 18.824 24.6123L18.7753 24.661C18.4566 24.9487 18.1065 25.1997 17.7317 25.4093C14.7444 26.8341 12.3276 24.8646 12.3276 24.8646L12.084 24.6639C11.903 24.5232 11.7487 24.3514 11.6281 24.1564C9.48656 20.8595 10.7107 18.7409 11.674 17.6601C11.7915 17.5282 11.9005 17.3734 12.0008 17.253C12.1477 17.0831 12.2737 16.8964 12.3764 16.6968L12.3936 16.6681C12.5915 16.2802 12.6947 15.8508 12.6946 15.4153C12.6306 14.7021 12.3021 14.0388 11.7737 13.5556C11.2453 13.0725 10.5552 12.8046 9.83918 12.8046C9.12318 12.8046 8.4331 13.0725 7.90467 13.5556C7.37625 14.0388 7.04773 14.7021 6.98376 15.4153C6.98366 15.8905 7.10399 16.358 7.33352 16.7742C7.36792 16.843 7.53133 17.0609 7.54854 17.0982C7.58338 17.1528 7.62373 17.2037 7.66895 17.2501C7.76843 17.3734 7.87568 17.4902 7.99004 17.5999C8.27236 17.9165 8.51852 18.2636 8.72396 18.6348C9.13484 19.4768 9.3054 20.4159 9.21688 21.3487C9.12836 22.2814 8.78419 23.1716 8.22226 23.9214L7.85816 24.4374C7.57811 24.7051 7.35522 25.0268 7.20296 25.3831C7.0507 25.7393 6.97223 26.1227 6.97229 26.5102V26.5761C6.98244 27.1383 7.15769 27.6851 7.47622 28.1485C7.79476 28.6118 8.24252 28.9713 8.76378 29.1821C9.28505 29.3929 9.8568 29.4458 10.4079 29.3342C10.959 29.2226 11.4651 28.9513 11.8632 28.5543C12.0037 28.4568 12.0954 28.388 12.2244 28.3048C15.5214 26.1633 17.64 27.3874 18.7237 28.3507C18.8097 28.4281 18.9014 28.5027 18.9932 28.5715C19.3939 28.9643 19.9011 29.231 20.4519 29.3383C21.0027 29.4457 21.5729 29.389 22.0919 29.1753C22.6108 28.9617 23.0556 28.6004 23.3711 28.1363C23.6866 27.6722 23.859 27.1258 23.8669 26.5646C23.8663 26.0674 23.7327 25.5794 23.4799 25.1513L23.4713 25.1713Z" fill="white"/>
</svg>
