<svg width="43" height="42" viewBox="0 0 43 42" fill="none" xmlns="http://www.w3.org/2000/svg">
<path d="M27.2306 13.9209H15.7692C15.2823 13.9209 14.8875 14.3363 14.8875 14.8488V26.9137C14.8875 27.4262 15.2823 27.8418 15.7692 27.8418H27.2306C27.7175 27.8418 28.1123 27.4262 28.1123 26.9137V14.8488C28.1123 14.3363 27.7175 13.9209 27.2306 13.9209Z" fill="white"/>
<path d="M13.9595 0H1.8948C1.38227 0 0.966675 0.415399 0.966675 0.928122V12.9928C0.966675 13.5053 1.38227 13.9209 1.8948 13.9209H13.9595C14.4722 13.9209 14.8876 13.5053 14.8876 12.9928V0.928122C14.8876 0.415399 14.4722 0 13.9595 0Z" fill="white"/>
<path d="M41.1054 0H29.0406C28.528 0 28.1124 0.415399 28.1124 0.928122V12.9928C28.1124 13.5053 28.528 13.9209 29.0406 13.9209H41.1054C41.6179 13.9209 42.0333 13.5053 42.0333 12.9928V0.928122C42.0333 0.415399 41.6179 0 41.1054 0Z" fill="white"/>
<path d="M13.9595 27.8418H1.8948C1.38227 27.8418 0.966675 28.2572 0.966675 28.7697V40.8346C0.966675 41.3471 1.38227 41.7627 1.8948 41.7627H13.9595C14.4722 41.7627 14.8876 41.3471 14.8876 40.8346V28.7697C14.8876 28.2572 14.4722 27.8418 13.9595 27.8418Z" fill="white"/>
<path d="M41.1054 27.8418H29.0406C28.528 27.8418 28.1124 28.2572 28.1124 28.7697V40.8346C28.1124 41.3471 28.528 41.7627 29.0406 41.7627H41.1054C41.6179 41.7627 42.0333 41.3471 42.0333 40.8346V28.7697C42.0333 28.2572 41.6179 27.8418 41.1054 27.8418Z" fill="white"/>
</svg>
