<svg width="46" height="46" viewBox="0 0 46 46" fill="none" xmlns="http://www.w3.org/2000/svg">
<g clip-path="url(#clip0_1451_3542)">
<path d="M9.66657 4.52386L45.0951 28.7143L36.3332 41.6667L0.904663 17.2858L9.66657 4.52386Z" fill="url(#paint0_linear_1451_3542)"/>
<path d="M45.0952 28.7143C42.0476 33.0953 31.7618 31.381 22.0476 24.5239C12.1428 17.8572 6.80945 8.90482 9.6666 4.52387C12.7142 0.14292 22.9999 1.85721 32.7142 8.71435C42.619 15.1905 47.9523 24.3334 45.0952 28.7143Z" fill="url(#paint1_linear_1451_3542)"/>
<path d="M36.3331 41.4762C33.2855 45.8572 22.9998 44.1429 13.2855 37.2858C3.57121 30.4286 -1.9526 21.6667 1.09502 17.0953C4.14264 12.7143 14.4284 14.4286 24.1426 21.2858C33.8569 28.1429 39.1903 37.0953 36.3331 41.4762Z" fill="url(#paint2_linear_1451_3542)"/>
<path d="M45.0951 28.7144L36.3332 41.6668C33.2856 46.0477 22.9999 44.143 13.2856 37.4763C11.3808 36.143 9.66656 34.8096 7.95227 33.2858C9.2856 33.0953 10.9999 32.3334 12.7142 30.4287C15.7618 27.1906 17.2856 26.4287 18.6189 26.6191C19.9523 26.6191 21.4761 27.9525 23.9523 31.1906C26.4285 34.4287 29.857 35.381 31.9523 33.6668C32.1427 33.4763 32.3332 33.4763 32.5237 33.2858C34.238 31.9525 34.8094 31.381 38.0475 25.2858C38.8094 23.762 41.4761 21.2858 45.0951 22.4287C46.0475 24.9049 46.0475 27.0001 45.0951 28.7144Z" fill="#0E0F23"/>
<path fill-rule="evenodd" clip-rule="evenodd" d="M43.7617 27.9524C41.0951 31.762 31.7617 29.8572 22.8094 23.5715C13.6665 17.2858 8.33317 9.28578 10.9998 5.47625C13.6665 1.66673 22.9998 3.57149 31.9522 9.85721C40.9046 16.1429 46.2379 24.1429 43.7617 27.9524ZM35.3808 22.2382C34.0475 24.1429 29.476 23.1905 24.9046 20.1429C20.5236 17.0953 17.857 13.0953 19.1903 11.1905C20.5236 9.28578 25.0951 10.2382 29.6665 13.2858C34.0475 16.3334 36.7141 20.3334 35.3808 22.2382Z" fill="white"/>
<path d="M8.90461 8.90481C8.90461 8.71433 8.71413 8.52386 8.52365 8.71433C8.33318 8.90481 8.1427 8.90481 8.1427 9.09529C8.33318 9.66672 8.52365 10.0477 8.52365 10.4286C8.52365 10.6191 8.71413 10.8096 8.90461 10.6191C9.09508 10.6191 9.28556 10.4286 9.09508 10.2381C9.09508 9.85719 9.09508 9.47624 8.90461 8.90481Z" fill="white"/>
<path d="M9.85707 11.9525C9.85707 11.762 9.6666 11.5715 9.47612 11.762C9.28564 11.9525 9.28564 11.9525 9.28564 12.143C11.3809 16.9049 15.7618 22.0477 21.4761 25.8572C21.6666 26.0477 21.8571 25.8572 22.0475 25.8572C22.238 25.6668 22.0475 25.4763 22.0475 25.2858C16.1428 21.4763 11.9523 16.5239 9.85707 11.9525Z" fill="white"/>
<path d="M32.9046 30.6191C32.7142 30.6191 32.5237 30.6191 32.5237 30.8096C32.5237 31.0001 32.5237 31.1906 32.7142 31.1906C33.2856 31.381 34.0475 31.5715 34.6189 31.762C34.8094 31.762 34.9999 31.762 34.9999 31.5715C34.9999 31.381 34.9999 31.1906 34.8094 31.1906C34.238 31.0001 33.4761 30.8096 32.9046 30.6191Z" fill="white"/>
<path d="M36.3332 31.381C36.1427 31.381 35.9523 31.5715 35.9523 31.762C35.9523 31.9525 36.1427 32.1429 36.3332 32.1429C37.857 32.3334 39.5713 32.5239 40.9047 32.3334C41.0951 32.3334 41.2856 32.1429 41.2856 31.9525C41.2856 31.762 41.0951 31.5715 40.9047 31.5715C39.3808 31.762 37.857 31.5715 36.3332 31.381Z" fill="white"/>
</g>
<defs>
<linearGradient id="paint0_linear_1451_3542" x1="16.6079" y1="1.08444" x2="23.6338" y2="25.2105" gradientUnits="userSpaceOnUse">
<stop stop-color="#03B8FF"/>
<stop offset="1" stop-color="#FA52A0"/>
</linearGradient>
<linearGradient id="paint1_linear_1451_3542" x1="22.3938" y1="-0.600699" x2="29.4199" y2="23.5256" gradientUnits="userSpaceOnUse">
<stop stop-color="#03B8FF"/>
<stop offset="1" stop-color="#FA52A0"/>
</linearGradient>
<linearGradient id="paint2_linear_1451_3542" x1="10.8398" y1="2.76404" x2="17.8659" y2="26.8903" gradientUnits="userSpaceOnUse">
<stop stop-color="#03B8FF"/>
<stop offset="1" stop-color="#FA52A0"/>
</linearGradient>
<clipPath id="clip0_1451_3542">
<rect width="45.7143" height="45.7143" fill="white" transform="translate(0.142822 0.142883)"/>
</clipPath>
</defs>
</svg>
